<svg xmlns="http://www.w3.org/2000/svg" xmlns:xlink="http://www.w3.org/1999/xlink" x="0" y="0" width="1922.2222900390625" height="964.0798950195312" style="
        width:1922.2222900390625px;
        height:964.0798950195312px;
        background: #FFF;
        fill: none;
">
<script type="application/ecmascript"> <![CDATA[
    function onClickEvent(evt) {
        Android.showDetail(evt.target.getAttribute("id"));
    }
  ]]> </script>
    <g class="composite-shape" data-amt="diagram/shapes/plot">

        <path onclick="onClickEvent(evt)" id="4-13-line-1" d=" M0.00,866.16 L0.80,865.77 L1.61,865.38 L2.41,864.99 L3.22,864.60 L4.02,864.20 L4.82,863.81 L5.63,863.42 L6.43,863.03 L7.24,862.63 L8.04,862.24 L8.85,861.85 L9.65,861.46 L10.45,861.06 L11.26,860.67 L12.06,860.28 L12.87,859.89 L13.67,859.50 L14.47,859.10 L15.28,858.71 L16.08,858.32 L16.89,857.93 L17.69,857.53 L18.50,857.14 L19.30,856.75 L20.10,856.36 L20.91,855.96 L21.71,855.57 L22.52,855.18 L23.32,854.79 L24.12,854.40 L24.93,854.00 L25.73,853.61 L26.54,853.22 L27.34,852.83 L28.14,852.43 L28.95,852.04 L29.75,851.65 L30.56,851.26 L31.36,850.86 L32.17,850.47 L32.97,850.08 L33.77,849.69 L34.58,849.30 L35.38,848.90 L36.19,848.51 L36.99,848.12 L37.79,847.73 L38.60,847.33 L39.40,846.94 L40.21,846.55 L41.01,846.16 L41.82,845.76 L42.62,845.37 L43.42,844.98 L44.23,844.59 L45.03,844.20 L45.84,843.80 L46.64,843.41 L47.44,843.02 L48.25,842.63 L49.05,842.23 L49.86,841.84 L50.66,841.45 L51.46,841.06 L52.27,840.66 L53.07,840.27 L53.88,839.88 L54.68,839.49 L55.49,839.10 L56.29,838.70 L57.09,838.31 L57.90,837.92 L58.70,837.53 L59.51,837.13 L60.31,836.74 L61.11,836.35 L61.92,835.96 L62.72,835.56 L63.53,835.17 L64.33,834.78 L65.14,834.39 L65.94,834.00 L66.74,833.60 L67.55,833.21 L68.35,832.82 L69.16,832.43 L69.96,832.03 L70.76,831.64 L71.57,831.25 L72.37,830.86 L73.18,830.46 L73.98,830.07 L74.78,829.68 L75.59,829.29 L76.39,828.90 L77.20,828.50 L78.00,828.11 L78.81,827.72 L79.61,827.33 L80.41,826.93 L81.22,826.54 L82.02,826.15 L82.83,825.76 L83.63,825.36 L84.43,824.97 L85.24,824.58 L86.04,824.19 L86.85,823.80 L87.65,823.40 L88.45,823.01 L89.26,822.62 L90.06,822.23 L90.87,821.83 L91.67,821.44 L92.48,821.05 L93.28,820.66 L94.08,820.26 L94.89,819.87 L95.69,819.48 L96.50,819.09 L97.30,818.70 L98.10,818.30 L98.91,817.91 L99.71,817.52 L100.52,817.13 L101.32,816.73 L102.13,816.34 L102.93,815.95 L103.73,815.56 L104.54,815.16 L105.34,814.77 L106.15,814.38 L106.95,813.99 L107.75,813.60 L108.56,813.20 L109.36,812.81 L110.17,812.42 L110.97,812.03 L111.77,811.63 L112.58,811.24 L113.38,810.85 L114.19,810.46 L114.99,810.06 L115.80,809.67 L116.60,809.28 L117.40,808.89 L118.21,808.50 L119.01,808.10 L119.82,807.71 L120.62,807.32 L121.42,806.93 L122.23,806.53 L123.03,806.14 L123.84,805.75 L124.64,805.36 L125.45,804.96 L126.25,804.57 L127.05,804.18 L127.86,803.79 L128.66,803.40 L129.47,803.00 L130.27,802.61 L131.07,802.22 L131.88,801.83 L132.68,801.43 L133.49,801.04 L134.29,800.65 L135.09,800.26 L135.90,799.86 L136.70,799.47 L137.51,799.08 L138.31,798.69 L139.12,798.30 L139.92,797.90 L140.72,797.51 L141.53,797.12 L142.33,796.73 L143.14,796.33 L143.94,795.94 L144.74,795.55 L145.55,795.16 L146.35,794.76 L147.16,794.37 L147.96,793.98 L148.77,793.59 L149.57,793.20 L150.37,792.80 L151.18,792.41 L151.98,792.02 L152.79,791.63 L153.59,791.23 L154.39,790.84 L155.20,790.45 L156.00,790.06 L156.81,789.66 L157.61,789.27 L158.41,788.88 L159.22,788.49 L160.02,788.10 L160.83,787.70 L161.63,787.31 L162.44,786.92 L163.24,786.53 L164.04,786.13 L164.85,785.74 L165.65,785.35 L166.46,784.96 L167.26,784.56 L168.06,784.17 L168.87,783.78 L169.67,783.39 L170.48,783.00 L171.28,782.60 L172.09,782.21 L172.89,781.82 L173.69,781.43 L174.50,781.03 L175.30,780.64 L176.11,780.25 L176.91,779.86 L177.71,779.46 L178.52,779.07 L179.32,778.68 L180.13,778.29 L180.93,777.90 L181.73,777.50 L182.54,777.11 L183.34,776.72 L184.15,776.33 L184.95,775.93 L185.76,775.54 L186.56,775.15 L187.36,774.76 L188.17,774.36 L188.97,773.97 L189.78,773.58 L190.58,773.19 L191.38,772.80 L192.19,772.40 L192.99,772.01 L193.80,771.62 L194.60,771.23 L195.41,770.83 L196.21,770.44 L197.01,770.05 L197.82,769.66 L198.62,769.26 L199.43,768.87 L200.23,768.48 L201.03,768.09 L201.84,767.70 L202.64,767.30 L203.45,766.91 L204.25,766.52 L205.05,766.13 L205.86,765.73 L206.66,765.34 L207.47,764.95 L208.27,764.56 L209.08,764.16 L209.88,763.77 L210.68,763.38 L211.49,762.99 L212.29,762.60 L213.10,762.20 L213.90,761.81 L214.70,761.42 L215.51,761.03 L216.31,760.63 L217.12,760.24 L217.92,759.85 L218.73,759.46 L219.53,759.06 L220.33,758.67 L221.14,758.28 L221.94,757.89 L222.75,757.50 L223.55,757.10 L224.35,756.71 L225.16,756.32 L225.96,755.93 L226.77,755.53 L227.57,755.14 L228.37,754.75 L229.18,754.36 L229.98,753.96 L230.79,753.57 L231.59,753.18 L232.40,752.79 L233.20,752.40 L234.00,752.00 L234.81,751.61 L235.61,751.22 L236.42,750.83 L237.22,750.43 L238.02,750.04 L238.83,749.65 L239.63,749.26 L240.44,748.86 L241.24,748.47 L242.04,748.08 L242.85,747.69 L243.65,747.30 L244.46,746.90 L245.26,746.51 L246.07,746.12 L246.87,745.73 L247.67,745.33 L248.48,744.94 L249.28,744.55 L250.09,744.16 L250.89,743.76 L251.69,743.37 L252.50,742.98 L253.30,742.59 L254.11,742.20 L254.91,741.80 L255.72,741.41 L256.52,741.02 L257.32,740.63 L258.13,740.23 L258.93,739.84 L259.74,739.45 L260.54,739.06 L261.34,738.66 L262.15,738.27 L262.95,737.88 L263.76,737.49 L264.56,737.10 L265.36,736.70 L266.17,736.31 L266.97,735.92 L267.78,735.53 L268.58,735.13 L269.39,734.74 L270.19,734.35 L270.99,733.96 L271.80,733.56 L272.60,733.17 L273.41,732.78 L274.21,732.39 L275.01,732.00 L275.82,731.60 L276.62,731.21 L277.43,730.82 L278.23,730.43 L279.04,730.03 L279.84,729.64 L280.64,729.25 L281.45,728.86 L282.25,728.46 L283.06,728.07 L283.86,727.68 L284.66,727.29 L285.47,726.90 L286.27,726.50 L287.08,726.11 L287.88,725.72 L288.68,725.33 L289.49,724.93 L290.29,724.54 L291.10,724.15 L291.90,723.76 L292.71,723.36 L293.51,722.97 L294.31,722.58 L295.12,722.19 L295.92,721.80 L296.73,721.40 L297.53,721.01 L298.33,720.62 L299.14,720.23 L299.94,719.83 L300.75,719.44 L301.55,719.05 L302.36,718.66 L303.16,718.26 L303.96,717.87 L304.77,717.48 L305.57,717.09 L306.38,716.70 L307.18,716.30 L307.98,715.91 L308.79,715.52 L309.59,715.13 L310.40,714.73 L311.20,714.34 L312.00,713.95 L312.81,713.56 L313.61,713.16 L314.42,712.77 L315.22,712.38 L316.03,711.99 L316.83,711.60 L317.63,711.20 L318.44,710.81 L319.24,710.42 L320.05,710.03 L320.85,709.63 L321.65,709.24 L322.46,708.85 L323.26,708.46 L324.07,708.06 L324.87,707.67 L325.68,707.28 L326.48,706.89 L327.28,706.50 L328.09,706.10 L328.89,705.71 L329.70,705.32 L330.50,704.93 L331.30,704.53 L332.11,704.14 L332.91,703.75 L333.72,703.36 L334.52,702.96 L335.32,702.57 L336.13,702.18 L336.93,701.79 L337.74,701.40 L338.54,701.00 L339.35,700.61 L340.15,700.22 L340.95,699.83 L341.76,699.43 L342.56,699.04 L343.37,698.65 L344.17,698.26 L344.97,697.86 L345.78,697.47 L346.58,697.08 L347.39,696.69 L348.19,696.30 L349.00,695.90 L349.80,695.51 L350.60,695.12 L351.41,694.73 L352.21,694.33 L353.02,693.94 L353.82,693.55 L354.62,693.16 L355.43,692.76 L356.23,692.37 L357.04,691.98 L357.84,691.59 L358.64,691.20 L359.45,690.80 L360.25,690.41 L361.06,690.02 L361.86,689.63 L362.67,689.23 L363.47,688.84 L364.27,688.45 L365.08,688.06 L365.88,687.66 L366.69,687.27 L367.49,686.88 L368.29,686.49 L369.10,686.09 L369.90,685.70 L370.71,685.31 L371.51,684.92 L372.32,684.53 L373.12,684.13 L373.92,683.74 L374.73,683.35 L375.53,682.96 L376.34,682.56 L377.14,682.17 L377.94,681.78 L378.75,681.39 L379.55,680.99 L380.36,680.60 L381.16,680.21 L381.96,679.82 L382.77,679.43 L383.57,679.03 L384.38,678.64 L385.18,678.25 L385.99,677.86 L386.79,677.46 L387.59,677.07 L388.40,676.68 L389.20,676.29 L390.01,675.89 L390.81,675.50 L391.61,675.11 L392.42,674.72 L393.22,674.33 L394.03,673.93 L394.83,673.54 L395.63,673.15 L396.44,672.76 L397.24,672.36 L398.05,671.97 L398.85,671.58 L399.66,671.19 L400.46,670.79 L401.26,670.40 L402.07,670.01 L402.87,669.62 L403.68,669.23 L404.48,668.83 L405.28,668.44 L406.09,668.05 L406.89,667.66 L407.70,667.26 L408.50,666.87 L409.31,666.48 L410.11,666.09 L410.91,665.69 L411.72,665.30 L412.52,664.91 L413.33,664.52 L414.13,664.13 L414.93,663.73 L415.74,663.34 L416.54,662.95 L417.35,662.56 L418.15,662.16 L418.95,661.77 L419.76,661.38 L420.56,660.99 L421.37,660.59 L422.17,660.20 L422.98,659.81 L423.78,659.42 L424.58,659.03 L425.39,658.63 L426.19,658.24 L427.00,657.85 L427.80,657.46 L428.60,657.06 L429.41,656.67 L430.21,656.28 L431.02,655.89 L431.82,655.49 L432.63,655.10 L433.43,654.71 L434.23,654.32 L435.04,653.93 L435.84,653.53 L436.65,653.14 L437.45,652.75 L438.25,652.36 L439.06,651.96 L439.86,651.57 L440.67,651.18 L441.47,650.79 L442.27,650.39 L443.08,650.00 L443.88,649.61 L444.69,649.22 L445.49,648.83 L446.30,648.43 L447.10,648.04 L447.90,647.65 L448.71,647.26 L449.51,646.86 L450.32,646.47 L451.12,646.08 L451.92,645.69 L452.73,645.29 L453.53,644.90 L454.34,644.51 L455.14,644.12 L455.95,643.73 L456.75,643.33 L457.55,642.94 L458.36,642.55 L459.16,642.16 L459.97,641.76 L460.77,641.37 L461.57,640.98 L462.38,640.59 L463.18,640.19 L463.99,639.80 L464.79,639.41 L465.59,639.02 L466.40,638.63 L467.20,638.23 L468.01,637.84 L468.81,637.45 L469.62,637.06 L470.42,636.66 L471.22,636.27 L472.03,635.88 L472.83,635.49 L473.64,635.09 L474.44,634.70 L475.24,634.31 L476.05,633.92 L476.85,633.53 L477.66,633.13 L478.46,632.74 L479.27,632.35 L480.07,631.96 L480.87,631.56 L481.68,631.17 L482.48,630.78 L483.29,630.39 L484.09,629.99 L484.89,629.60 L485.70,629.21 L486.50,628.82 L487.31,628.43 L488.11,628.03 L488.91,627.64 L489.72,627.25 L490.52,626.86 L491.33,626.46 L492.13,626.07 L492.94,625.68 L493.74,625.29 L494.54,624.89 L495.35,624.50 L496.15,624.11 L496.96,623.72 L497.76,623.33 L498.56,622.93 L499.37,622.54 L500.17,622.15 L500.98,621.76 L501.78,621.36 L502.59,620.97 L503.39,620.58 L504.19,620.19 L505.00,619.79 L505.80,619.40 L506.61,619.01 L507.41,618.62 L508.21,618.23 L509.02,617.83 L509.82,617.44 L510.63,617.05 L511.43,616.66 L512.23,616.26 L513.04,615.87 L513.84,615.48 L514.65,615.09 L515.45,614.69 L516.26,614.30 L517.06,613.91 L517.86,613.52 L518.67,613.13 L519.47,612.73 L520.28,612.34 L521.08,611.95 L521.88,611.56 L522.69,611.16 L523.49,610.77 L524.30,610.38 L525.10,609.99 L525.91,609.59 L526.71,609.20 L527.51,608.81 L528.32,608.42 L529.12,608.03 L529.93,607.63 L530.73,607.24 L531.53,606.85 L532.34,606.46 L533.14,606.06 L533.95,605.67 L534.75,605.28 L535.55,604.89 L536.36,604.49 L537.16,604.10 L537.97,603.71 L538.77,603.32 L539.58,602.93 L540.38,602.53 L541.18,602.14 L541.99,601.75 L542.79,601.36 L543.60,600.96 L544.40,600.57 L545.20,600.18 L546.01,599.79 L546.81,599.39 L547.62,599.00 L548.42,598.61 L549.22,598.22 L550.03,597.83 L550.83,597.43 L551.64,597.04 L552.44,596.65 L553.25,596.26 L554.05,595.86 L554.85,595.47 L555.66,595.08 L556.46,594.69 L557.27,594.29 L558.07,593.90 L558.87,593.51 L559.68,593.12 L560.48,592.73 L561.29,592.33 L562.09,591.94 L562.90,591.55 L563.70,591.16 L564.50,590.76 L565.31,590.37 L566.11,589.98 L566.92,589.59 L567.72,589.19 L568.52,588.80 L569.33,588.41 L570.13,588.02 L570.94,587.63 L571.74,587.23 L572.54,586.84 L573.35,586.45 L574.15,586.06 L574.96,585.66 L575.76,585.27 L576.57,584.88 L577.37,584.49 L578.17,584.09 L578.98,583.70 L579.78,583.31 L580.59,582.92 L581.39,582.53 L582.19,582.13 L583.00,581.74 L583.80,581.35 L584.61,580.96 L585.41,580.56 L586.22,580.17 L587.02,579.78 L587.82,579.39 L588.63,578.99 L589.43,578.60 L590.24,578.21 L591.04,577.82 L591.84,577.43 L592.65,577.03 L593.45,576.64 L594.26,576.25 L595.06,575.86 L595.86,575.46 L596.67,575.07 L597.47,574.68 L598.28,574.29 L599.08,573.89 L599.89,573.50 L600.69,573.11 L601.49,572.72 L602.30,572.33 L603.10,571.93 L603.91,571.54 L604.71,571.15 L605.51,570.76 L606.32,570.36 L607.12,569.97 L607.93,569.58 L608.73,569.19 L609.54,568.79 L610.34,568.40 L611.14,568.01 L611.95,567.62 L612.75,567.23 L613.56,566.83 L614.36,566.44 L615.16,566.05 L615.97,565.66 L616.77,565.26 L617.58,564.87 L618.38,564.48 L619.18,564.09 L619.99,563.69 L620.79,563.30 L621.60,562.91 L622.40,562.52 L623.21,562.13 L624.01,561.73 L624.81,561.34 L625.62,560.95 L626.42,560.56 L627.23,560.16 L628.03,559.77 L628.83,559.38 L629.64,558.99 L630.44,558.59 L631.25,558.20 L632.05,557.81 L632.86,557.42 L633.66,557.03 L634.46,556.63 L635.27,556.24 L636.07,555.85 L636.88,555.46 L637.68,555.06 L638.48,554.67 L639.29,554.28 L640.09,553.89 L640.90,553.49 L641.70,553.10 L642.50,552.71 L643.31,552.32 L644.11,551.93 L644.92,551.53 L645.72,551.14 L646.53,550.75 L647.33,550.36 L648.13,549.96 L648.94,549.57 L649.74,549.18 L650.55,548.79 L651.35,548.39 L652.15,548.00 L652.96,547.61 L653.76,547.22 L654.57,546.83 L655.37,546.43 L656.18,546.04 L656.98,545.65 L657.78,545.26 L658.59,544.86 L659.39,544.47 L660.20,544.08 L661.00,543.69 L661.80,543.29 L662.61,542.90 L663.41,542.51 L664.22,542.12 L665.02,541.73 L665.82,541.33 L666.63,540.94 L667.43,540.55 L668.24,540.16 L669.04,539.76 L669.85,539.37 L670.65,538.98 L671.45,538.59 L672.26,538.19 L673.06,537.80 L673.87,537.41 L674.67,537.02 L675.47,536.63 L676.28,536.23 L677.08,535.84 L677.89,535.45 L678.69,535.06 L679.50,534.66 L680.30,534.27 L681.10,533.88 L681.91,533.49 L682.71,533.09 L683.52,532.70 L684.32,532.31 L685.12,531.92 L685.93,531.53 L686.73,531.13 L687.54,530.74 L688.34,530.35 L689.14,529.96 L689.95,529.56 L690.75,529.17 L691.56,528.78 L692.36,528.39 L693.17,527.99 L693.97,527.60 L694.77,527.21 L695.58,526.82 L696.38,526.43 L697.19,526.03 L697.99,525.64 L698.79,525.25 L699.60,524.86 L700.40,524.46 L701.21,524.07 L702.01,523.68 L702.82,523.29 L703.62,522.89 L704.42,522.50 L705.23,522.11 L706.03,521.72 L706.84,521.33 L707.64,520.93 L708.44,520.54 L709.25,520.15 L710.05,519.76 L710.86,519.36 L711.66,518.97 L712.46,518.58 L713.27,518.19 L714.07,517.79 L714.88,517.40 L715.68,517.01 L716.49,516.62 L717.29,516.23 L718.09,515.83 L718.90,515.44 L719.70,515.05 L720.51,514.66 L721.31,514.26 L722.11,513.87 L722.92,513.48 L723.72,513.09 L724.53,512.69 L725.33,512.30 L726.13,511.91 L726.94,511.52 L727.74,511.13 L728.55,510.73 L729.35,510.34 L730.16,509.95 L730.96,509.56 L731.76,509.16 L732.57,508.77 L733.37,508.38 L734.18,507.99 L734.98,507.59 L735.78,507.20 L736.59,506.81 L737.39,506.42 L738.20,506.03 L739.00,505.63 L739.81,505.24 L740.61,504.85 L741.41,504.46 L742.22,504.06 L743.02,503.67 L743.83,503.28 L744.63,502.89 L745.43,502.49 L746.24,502.10 L747.04,501.71 L747.85,501.32 L748.65,500.93 L749.45,500.53 L750.26,500.14 L751.06,499.75 L751.87,499.36 L752.67,498.96 L753.48,498.57 L754.28,498.18 L755.08,497.79 L755.89,497.39 L756.69,497.00 L757.50,496.61 L758.30,496.22 L759.10,495.83 L759.91,495.43 L760.71,495.04 L761.52,494.65 L762.32,494.26 L763.13,493.86 L763.93,493.47 L764.73,493.08 L765.54,492.69 L766.34,492.29 L767.15,491.90 L767.95,491.51 L768.75,491.12 L769.56,490.73 L770.36,490.33 L771.17,489.94 L771.97,489.55 L772.77,489.16 L773.58,488.76 L774.38,488.37 L775.19,487.98 L775.99,487.59 L776.80,487.19 L777.60,486.80 L778.40,486.41 L779.21,486.02 L780.01,485.63 L780.82,485.23 L781.62,484.84 L782.42,484.45 L783.23,484.06 L784.03,483.66 L784.84,483.27 L785.64,482.88 L786.45,482.49 L787.25,482.09 L788.05,481.70 L788.86,481.31 L789.66,480.92 L790.47,480.53 L791.27,480.13 L792.07,479.74 L792.88,479.35 L793.68,478.96 L794.49,478.56 L795.29,478.17 L796.09,477.78 L796.90,477.39 L797.70,476.99 L798.51,476.60 L799.31,476.21 L800.12,475.82 L800.92,475.42 L801.72,475.03 L802.53,474.64 L803.33,474.25 L804.14,473.86 L804.94,473.46 L805.74,473.07 L806.55,472.68 L807.35,472.29 L808.16,471.89 L808.96,471.50 L809.77,471.11 L810.57,470.72 L811.37,470.32 L812.18,469.93 L812.98,469.54 L813.79,469.15 L814.59,468.76 L815.39,468.36 L816.20,467.97 L817.00,467.58 L817.81,467.19 L818.61,466.79 L819.41,466.40 L820.22,466.01 L821.02,465.62 L821.83,465.22 L822.63,464.83 L823.44,464.44 L824.24,464.05 L825.04,463.66 L825.85,463.26 L826.65,462.87 L827.46,462.48 L828.26,462.09 L829.06,461.69 L829.87,461.30 L830.67,460.91 L831.48,460.52 L832.28,460.12 L833.09,459.73 L833.89,459.34 L834.69,458.95 L835.50,458.56 L836.30,458.16 L837.11,457.77 L837.91,457.38 L838.71,456.99 L839.52,456.59 L840.32,456.20 L841.13,455.81 L841.93,455.42 L842.73,455.02 L843.54,454.63 L844.34,454.24 L845.15,453.85 L845.95,453.46 L846.76,453.06 L847.56,452.67 L848.36,452.28 L849.17,451.89 L849.97,451.49 L850.78,451.10 L851.58,450.71 L852.38,450.32 L853.19,449.92 L853.99,449.53 L854.80,449.14 L855.60,448.75 L856.41,448.36 L857.21,447.96 L858.01,447.57 L858.82,447.18 L859.62,446.79 L860.43,446.39 L861.23,446.00 L862.03,445.61 L862.84,445.22 L863.64,444.82 L864.45,444.43 L865.25,444.04 L866.05,443.65 L866.86,443.26 L867.66,442.86 L868.47,442.47 L869.27,442.08 L870.08,441.69 L870.88,441.29 L871.68,440.90 L872.49,440.51 L873.29,440.12 L874.10,439.72 L874.90,439.33 L875.70,438.94 L876.51,438.55 L877.31,438.16 L878.12,437.76 L878.92,437.37 L879.72,436.98 L880.53,436.59 L881.33,436.19 L882.14,435.80 L882.94,435.41 L883.75,435.02" style="stroke-width: 28; stroke: rgb(245, 166, 35);"/>
        <path onclick="onClickEvent(evt)" id="4-13-line-2" d=" M883.75,435.02 L884.03,435.16 L884.31,435.29 L884.60,435.43 L884.88,435.57 L885.17,435.71 L885.45,435.85 L885.73,435.99 L886.02,436.13 L886.30,436.26 L886.59,436.40 L886.87,436.54 L887.15,436.68 L887.44,436.82 L887.72,436.96 L888.01,437.10 L888.29,437.23 L888.57,437.37 L888.86,437.51 L889.14,437.65 L889.43,437.79 L889.71,437.93 L889.99,438.07 L890.28,438.20 L890.56,438.34 L890.85,438.48 L891.13,438.62 L891.42,438.76 L891.70,438.90 L891.98,439.04 L892.27,439.17 L892.55,439.31 L892.84,439.45 L893.12,439.59 L893.40,439.73 L893.69,439.87 L893.97,440.01 L894.26,440.14 L894.54,440.28 L894.82,440.42 L895.11,440.56 L895.39,440.70 L895.68,440.84 L895.96,440.98 L896.24,441.11 L896.53,441.25 L896.81,441.39 L897.10,441.53 L897.38,441.67 L897.66,441.81 L897.95,441.95 L898.23,442.08 L898.52,442.22 L898.80,442.36 L899.08,442.50 L899.37,442.64 L899.65,442.78 L899.94,442.92 L900.22,443.05 L900.50,443.19 L900.79,443.33 L901.07,443.47 L901.36,443.61 L901.64,443.75 L901.92,443.89 L902.21,444.02 L902.49,444.16 L902.78,444.30 L903.06,444.44 L903.35,444.58 L903.63,444.72 L903.91,444.86 L904.20,444.99 L904.48,445.13 L904.77,445.27 L905.05,445.41 L905.33,445.55 L905.62,445.69 L905.90,445.83 L906.19,445.96 L906.47,446.10 L906.75,446.24 L907.04,446.38 L907.32,446.52 L907.61,446.66 L907.89,446.80 L908.17,446.93 L908.46,447.07 L908.74,447.21 L909.03,447.35 L909.31,447.49 L909.59,447.63 L909.88,447.77 L910.16,447.90 L910.45,448.04 L910.73,448.18 L911.01,448.32 L911.30,448.46 L911.58,448.60 L911.87,448.74 L912.15,448.88 L912.43,449.01 L912.72,449.15 L913.00,449.29 L913.29,449.43 L913.57,449.57 L913.86,449.71 L914.14,449.85 L914.42,449.98 L914.71,450.12 L914.99,450.26 L915.28,450.40 L915.56,450.54 L915.84,450.68 L916.13,450.82 L916.41,450.95 L916.70,451.09 L916.98,451.23 L917.26,451.37 L917.55,451.51 L917.83,451.65 L918.12,451.79 L918.40,451.92 L918.68,452.06 L918.97,452.20 L919.25,452.34 L919.54,452.48 L919.82,452.62 L920.10,452.76 L920.39,452.89 L920.67,453.03 L920.96,453.17 L921.24,453.31 L921.52,453.45 L921.81,453.59 L922.09,453.73 L922.38,453.86 L922.66,454.00 L922.94,454.14 L923.23,454.28 L923.51,454.42 L923.80,454.56 L924.08,454.70 L924.37,454.83 L924.65,454.97 L924.93,455.11 L925.22,455.25 L925.50,455.39 L925.79,455.53 L926.07,455.67 L926.35,455.80 L926.64,455.94 L926.92,456.08 L927.21,456.22 L927.49,456.36 L927.77,456.50 L928.06,456.64 L928.34,456.77 L928.63,456.91 L928.91,457.05 L929.19,457.19 L929.48,457.33 L929.76,457.47 L930.05,457.61 L930.33,457.74 L930.61,457.88 L930.90,458.02 L931.18,458.16 L931.47,458.30 L931.75,458.44 L932.03,458.58 L932.32,458.71 L932.60,458.85 L932.89,458.99 L933.17,459.13 L933.45,459.27 L933.74,459.41 L934.02,459.55 L934.31,459.68 L934.59,459.82 L934.88,459.96 L935.16,460.10 L935.44,460.24 L935.73,460.38 L936.01,460.52 L936.30,460.65 L936.58,460.79 L936.86,460.93 L937.15,461.07 L937.43,461.21 L937.72,461.35 L938.00,461.49 L938.28,461.62 L938.57,461.76 L938.85,461.90 L939.14,462.04 L939.42,462.18 L939.70,462.32 L939.99,462.46 L940.27,462.59 L940.56,462.73 L940.84,462.87 L941.12,463.01 L941.41,463.15 L941.69,463.29 L941.98,463.43 L942.26,463.56 L942.54,463.70 L942.83,463.84 L943.11,463.98 L943.40,464.12 L943.68,464.26 L943.96,464.40 L944.25,464.53 L944.53,464.67 L944.82,464.81 L945.10,464.95 L945.38,465.09 L945.67,465.23 L945.95,465.37 L946.24,465.50 L946.52,465.64 L946.81,465.78 L947.09,465.92 L947.37,466.06 L947.66,466.20 L947.94,466.34 L948.23,466.47 L948.51,466.61 L948.79,466.75 L949.08,466.89 L949.36,467.03 L949.65,467.17 L949.93,467.31 L950.21,467.44 L950.50,467.58 L950.78,467.72 L951.07,467.86 L951.35,468.00 L951.63,468.14 L951.92,468.28 L952.20,468.41 L952.49,468.55 L952.77,468.69 L953.05,468.83 L953.34,468.97 L953.62,469.11 L953.91,469.25 L954.19,469.38 L954.47,469.52 L954.76,469.66 L955.04,469.80 L955.33,469.94 L955.61,470.08 L955.89,470.22 L956.18,470.35 L956.46,470.49 L956.75,470.63 L957.03,470.77 L957.32,470.91 L957.60,471.05 L957.88,471.19 L958.17,471.32 L958.45,471.46 L958.74,471.60 L959.02,471.74 L959.30,471.88 L959.59,472.02 L959.87,472.16 L960.16,472.29 L960.44,472.43 L960.72,472.57 L961.01,472.71 L961.29,472.85 L961.58,472.99 L961.86,473.13 L962.14,473.26 L962.43,473.40 L962.71,473.54 L963.00,473.68 L963.28,473.82 L963.56,473.96 L963.85,474.10 L964.13,474.23 L964.42,474.37 L964.70,474.51 L964.98,474.65 L965.27,474.79 L965.55,474.93 L965.84,475.07 L966.12,475.21 L966.40,475.34 L966.69,475.48 L966.97,475.62 L967.26,475.76 L967.54,475.90 L967.83,476.04 L968.11,476.18 L968.39,476.31 L968.68,476.45 L968.96,476.59 L969.25,476.73 L969.53,476.87 L969.81,477.01 L970.10,477.15 L970.38,477.28 L970.67,477.42 L970.95,477.56 L971.23,477.70 L971.52,477.84 L971.80,477.98 L972.09,478.12 L972.37,478.25 L972.65,478.39 L972.94,478.53 L973.22,478.67 L973.51,478.81 L973.79,478.95 L974.07,479.09 L974.36,479.22 L974.64,479.36 L974.93,479.50 L975.21,479.64 L975.49,479.78 L975.78,479.92 L976.06,480.06 L976.35,480.19 L976.63,480.33 L976.91,480.47 L977.20,480.61 L977.48,480.75 L977.77,480.89 L978.05,481.03 L978.34,481.16 L978.62,481.30 L978.90,481.44 L979.19,481.58 L979.47,481.72 L979.76,481.86 L980.04,482.00 L980.32,482.13 L980.61,482.27 L980.89,482.41 L981.18,482.55 L981.46,482.69 L981.74,482.83 L982.03,482.97 L982.31,483.10 L982.60,483.24 L982.88,483.38 L983.16,483.52 L983.45,483.66 L983.73,483.80 L984.02,483.94 L984.30,484.07 L984.58,484.21 L984.87,484.35 L985.15,484.49 L985.44,484.63 L985.72,484.77 L986.00,484.91 L986.29,485.04 L986.57,485.18 L986.86,485.32 L987.14,485.46 L987.42,485.60 L987.71,485.74 L987.99,485.88 L988.28,486.01 L988.56,486.15 L988.84,486.29 L989.13,486.43 L989.41,486.57 L989.70,486.71 L989.98,486.85 L990.27,486.98 L990.55,487.12 L990.83,487.26 L991.12,487.40 L991.40,487.54 L991.69,487.68 L991.97,487.82 L992.25,487.95 L992.54,488.09 L992.82,488.23 L993.11,488.37 L993.39,488.51 L993.67,488.65 L993.96,488.79 L994.24,488.92 L994.53,489.06 L994.81,489.20 L995.09,489.34 L995.38,489.48 L995.66,489.62 L995.95,489.76 L996.23,489.89 L996.51,490.03 L996.80,490.17 L997.08,490.31 L997.37,490.45 L997.65,490.59 L997.93,490.73 L998.22,490.86 L998.50,491.00 L998.79,491.14 L999.07,491.28 L999.35,491.42 L999.64,491.56 L999.92,491.70 L1000.21,491.83 L1000.49,491.97 L1000.78,492.11 L1001.06,492.25 L1001.34,492.39 L1001.63,492.53 L1001.91,492.67 L1002.20,492.80 L1002.48,492.94 L1002.76,493.08 L1003.05,493.22 L1003.33,493.36 L1003.62,493.50 L1003.90,493.64 L1004.18,493.77 L1004.47,493.91 L1004.75,494.05 L1005.04,494.19 L1005.32,494.33 L1005.60,494.47 L1005.89,494.61 L1006.17,494.74 L1006.46,494.88 L1006.74,495.02 L1007.02,495.16 L1007.31,495.30 L1007.59,495.44 L1007.88,495.58 L1008.16,495.71 L1008.44,495.85 L1008.73,495.99 L1009.01,496.13 L1009.30,496.27 L1009.58,496.41 L1009.86,496.55 L1010.15,496.68 L1010.43,496.82 L1010.72,496.96 L1011.00,497.10 L1011.29,497.24 L1011.57,497.38 L1011.85,497.52 L1012.14,497.65 L1012.42,497.79 L1012.71,497.93 L1012.99,498.07 L1013.27,498.21 L1013.56,498.35 L1013.84,498.49 L1014.13,498.62 L1014.41,498.76 L1014.69,498.90 L1014.98,499.04 L1015.26,499.18 L1015.55,499.32 L1015.83,499.46 L1016.11,499.59 L1016.40,499.73 L1016.68,499.87 L1016.97,500.01 L1017.25,500.15 L1017.53,500.29 L1017.82,500.43 L1018.10,500.56 L1018.39,500.70 L1018.67,500.84 L1018.95,500.98 L1019.24,501.12 L1019.52,501.26 L1019.81,501.40 L1020.09,501.54 L1020.37,501.67 L1020.66,501.81 L1020.94,501.95 L1021.23,502.09 L1021.51,502.23 L1021.80,502.37 L1022.08,502.51 L1022.36,502.64 L1022.65,502.78 L1022.93,502.92 L1023.22,503.06 L1023.50,503.20 L1023.78,503.34 L1024.07,503.48 L1024.35,503.61 L1024.64,503.75 L1024.92,503.89 L1025.20,504.03 L1025.49,504.17 L1025.77,504.31 L1026.06,504.45 L1026.34,504.58 L1026.62,504.72 L1026.91,504.86 L1027.19,505.00 L1027.48,505.14 L1027.76,505.28 L1028.04,505.42 L1028.33,505.55 L1028.61,505.69 L1028.90,505.83 L1029.18,505.97 L1029.46,506.11 L1029.75,506.25 L1030.03,506.39 L1030.32,506.52 L1030.60,506.66 L1030.88,506.80 L1031.17,506.94 L1031.45,507.08 L1031.74,507.22 L1032.02,507.36 L1032.30,507.49 L1032.59,507.63 L1032.87,507.77 L1033.16,507.91 L1033.44,508.05 L1033.73,508.19 L1034.01,508.33 L1034.29,508.46 L1034.58,508.60 L1034.86,508.74 L1035.15,508.88 L1035.43,509.02 L1035.71,509.16 L1036.00,509.30 L1036.28,509.43 L1036.57,509.57 L1036.85,509.71 L1037.13,509.85 L1037.42,509.99 L1037.70,510.13 L1037.99,510.27 L1038.27,510.40 L1038.55,510.54 L1038.84,510.68 L1039.12,510.82 L1039.41,510.96 L1039.69,511.10 L1039.97,511.24 L1040.26,511.37 L1040.54,511.51 L1040.83,511.65 L1041.11,511.79 L1041.39,511.93 L1041.68,512.07 L1041.96,512.21 L1042.25,512.34 L1042.53,512.48 L1042.81,512.62 L1043.10,512.76 L1043.38,512.90 L1043.67,513.04 L1043.95,513.18 L1044.24,513.31 L1044.52,513.45 L1044.80,513.59 L1045.09,513.73 L1045.37,513.87 L1045.66,514.01 L1045.94,514.15 L1046.22,514.28 L1046.51,514.42 L1046.79,514.56 L1047.08,514.70 L1047.36,514.84 L1047.64,514.98 L1047.93,515.12 L1048.21,515.25 L1048.50,515.39 L1048.78,515.53 L1049.06,515.67 L1049.35,515.81 L1049.63,515.95 L1049.92,516.09 L1050.20,516.22 L1050.48,516.36 L1050.77,516.50 L1051.05,516.64 L1051.34,516.78 L1051.62,516.92 L1051.90,517.06 L1052.19,517.19 L1052.47,517.33 L1052.76,517.47 L1053.04,517.61 L1053.32,517.75 L1053.61,517.89 L1053.89,518.03 L1054.18,518.16 L1054.46,518.30 L1054.75,518.44 L1055.03,518.58 L1055.31,518.72 L1055.60,518.86 L1055.88,519.00 L1056.17,519.13 L1056.45,519.27 L1056.73,519.41 L1057.02,519.55 L1057.30,519.69 L1057.59,519.83 L1057.87,519.97 L1058.15,520.10 L1058.44,520.24 L1058.72,520.38 L1059.01,520.52 L1059.29,520.66 L1059.57,520.80 L1059.86,520.94 L1060.14,521.07 L1060.43,521.21 L1060.71,521.35 L1060.99,521.49 L1061.28,521.63 L1061.56,521.77 L1061.85,521.91 L1062.13,522.04 L1062.41,522.18 L1062.70,522.32 L1062.98,522.46 L1063.27,522.60 L1063.55,522.74 L1063.83,522.88 L1064.12,523.01 L1064.40,523.15 L1064.69,523.29 L1064.97,523.43 L1065.26,523.57 L1065.54,523.71 L1065.82,523.85 L1066.11,523.98 L1066.39,524.12 L1066.68,524.26 L1066.96,524.40 L1067.24,524.54 L1067.53,524.68 L1067.81,524.82 L1068.10,524.95 L1068.38,525.09 L1068.66,525.23 L1068.95,525.37 L1069.23,525.51 L1069.52,525.65 L1069.80,525.79 L1070.08,525.92 L1070.37,526.06 L1070.65,526.20 L1070.94,526.34 L1071.22,526.48 L1071.50,526.62 L1071.79,526.76 L1072.07,526.89 L1072.36,527.03 L1072.64,527.17 L1072.92,527.31 L1073.21,527.45 L1073.49,527.59 L1073.78,527.73 L1074.06,527.86 L1074.34,528.00 L1074.63,528.14 L1074.91,528.28 L1075.20,528.42 L1075.48,528.56 L1075.76,528.70 L1076.05,528.84 L1076.33,528.97 L1076.62,529.11 L1076.90,529.25 L1077.19,529.39 L1077.47,529.53 L1077.75,529.67 L1078.04,529.81 L1078.32,529.94 L1078.61,530.08 L1078.89,530.22 L1079.17,530.36 L1079.46,530.50 L1079.74,530.64 L1080.03,530.78 L1080.31,530.91 L1080.59,531.05 L1080.88,531.19 L1081.16,531.33 L1081.45,531.47 L1081.73,531.61 L1082.01,531.75 L1082.30,531.88 L1082.58,532.02 L1082.87,532.16 L1083.15,532.30 L1083.43,532.44 L1083.72,532.58 L1084.00,532.72 L1084.29,532.85 L1084.57,532.99 L1084.85,533.13 L1085.14,533.27 L1085.42,533.41 L1085.71,533.55 L1085.99,533.69 L1086.27,533.82 L1086.56,533.96 L1086.84,534.10 L1087.13,534.24 L1087.41,534.38 L1087.70,534.52 L1087.98,534.66 L1088.26,534.79 L1088.55,534.93 L1088.83,535.07 L1089.12,535.21 L1089.40,535.35 L1089.68,535.49 L1089.97,535.63 L1090.25,535.76 L1090.54,535.90 L1090.82,536.04 L1091.10,536.18 L1091.39,536.32 L1091.67,536.46 L1091.96,536.60 L1092.24,536.73 L1092.52,536.87 L1092.81,537.01 L1093.09,537.15 L1093.38,537.29 L1093.66,537.43 L1093.94,537.57 L1094.23,537.70 L1094.51,537.84 L1094.80,537.98 L1095.08,538.12 L1095.36,538.26 L1095.65,538.40 L1095.93,538.54 L1096.22,538.67 L1096.50,538.81 L1096.78,538.95 L1097.07,539.09 L1097.35,539.23 L1097.64,539.37 L1097.92,539.51 L1098.21,539.64 L1098.49,539.78 L1098.77,539.92 L1099.06,540.06 L1099.34,540.20 L1099.63,540.34 L1099.91,540.48 L1100.19,540.61 L1100.48,540.75 L1100.76,540.89 L1101.05,541.03 L1101.33,541.17 L1101.61,541.31 L1101.90,541.45 L1102.18,541.58 L1102.47,541.72 L1102.75,541.86 L1103.03,542.00 L1103.32,542.14 L1103.60,542.28 L1103.89,542.42 L1104.17,542.55 L1104.45,542.69 L1104.74,542.83 L1105.02,542.97 L1105.31,543.11 L1105.59,543.25 L1105.87,543.39 L1106.16,543.52 L1106.44,543.66 L1106.73,543.80 L1107.01,543.94 L1107.29,544.08 L1107.58,544.22 L1107.86,544.36 L1108.15,544.49 L1108.43,544.63 L1108.71,544.77 L1109.00,544.91 L1109.28,545.05 L1109.57,545.19 L1109.85,545.33 L1110.14,545.46 L1110.42,545.60 L1110.70,545.74 L1110.99,545.88 L1111.27,546.02 L1111.56,546.16 L1111.84,546.30 L1112.12,546.43 L1112.41,546.57 L1112.69,546.71 L1112.98,546.85 L1113.26,546.99 L1113.54,547.13 L1113.83,547.27 L1114.11,547.40 L1114.40,547.54 L1114.68,547.68 L1114.96,547.82 L1115.25,547.96 L1115.53,548.10 L1115.82,548.24 L1116.10,548.37 L1116.38,548.51 L1116.67,548.65 L1116.95,548.79 L1117.24,548.93 L1117.52,549.07 L1117.80,549.21 L1118.09,549.34 L1118.37,549.48 L1118.66,549.62 L1118.94,549.76 L1119.22,549.90 L1119.51,550.04 L1119.79,550.18 L1120.08,550.31 L1120.36,550.45 L1120.65,550.59 L1120.93,550.73 L1121.21,550.87 L1121.50,551.01 L1121.78,551.15 L1122.07,551.28 L1122.35,551.42 L1122.63,551.56 L1122.92,551.70 L1123.20,551.84 L1123.49,551.98 L1123.77,552.12 L1124.05,552.25 L1124.34,552.39 L1124.62,552.53 L1124.91,552.67 L1125.19,552.81 L1125.47,552.95 L1125.76,553.09 L1126.04,553.22 L1126.33,553.36 L1126.61,553.50 L1126.89,553.64 L1127.18,553.78 L1127.46,553.92 L1127.75,554.06 L1128.03,554.19 L1128.31,554.33 L1128.60,554.47 L1128.88,554.61 L1129.17,554.75 L1129.45,554.89 L1129.73,555.03 L1130.02,555.17 L1130.30,555.30 L1130.59,555.44 L1130.87,555.58 L1131.16,555.72 L1131.44,555.86 L1131.72,556.00 L1132.01,556.14 L1132.29,556.27 L1132.58,556.41 L1132.86,556.55 L1133.14,556.69 L1133.43,556.83 L1133.71,556.97 L1134.00,557.11 L1134.28,557.24 L1134.56,557.38 L1134.85,557.52 L1135.13,557.66 L1135.42,557.80 L1135.70,557.94 L1135.98,558.08 L1136.27,558.21 L1136.55,558.35 L1136.84,558.49 L1137.12,558.63 L1137.40,558.77 L1137.69,558.91 L1137.97,559.05 L1138.26,559.18 L1138.54,559.32 L1138.82,559.46 L1139.11,559.60 L1139.39,559.74 L1139.68,559.88 L1139.96,560.02 L1140.24,560.15 L1140.53,560.29 L1140.81,560.43 L1141.10,560.57 L1141.38,560.71 L1141.67,560.85 L1141.95,560.99 L1142.23,561.12 L1142.52,561.26 L1142.80,561.40 L1143.09,561.54 L1143.37,561.68 L1143.65,561.82 L1143.94,561.96 L1144.22,562.09 L1144.51,562.23 L1144.79,562.37 L1145.07,562.51 L1145.36,562.65 L1145.64,562.79 L1145.93,562.93 L1146.21,563.06 L1146.49,563.20 L1146.78,563.34 L1147.06,563.48 L1147.35,563.62 L1147.63,563.76 L1147.91,563.90 L1148.20,564.03 L1148.48,564.17 L1148.77,564.31 L1149.05,564.45 L1149.33,564.59 L1149.62,564.73 L1149.90,564.87 L1150.19,565.00 L1150.47,565.14 L1150.75,565.28 L1151.04,565.42 L1151.32,565.56 L1151.61,565.70 L1151.89,565.84 L1152.17,565.97 L1152.46,566.11 L1152.74,566.25 L1153.03,566.39 L1153.31,566.53 L1153.60,566.67 L1153.88,566.81 L1154.16,566.94 L1154.45,567.08 L1154.73,567.22 L1155.02,567.36 L1155.30,567.50 L1155.58,567.64 L1155.87,567.78 L1156.15,567.91 L1156.44,568.05 L1156.72,568.19 L1157.00,568.33 L1157.29,568.47 L1157.57,568.61 L1157.86,568.75 L1158.14,568.88 L1158.42,569.02 L1158.71,569.16 L1158.99,569.30 L1159.28,569.44 L1159.56,569.58 L1159.84,569.72 L1160.13,569.85 L1160.41,569.99 L1160.70,570.13 L1160.98,570.27 L1161.26,570.41 L1161.55,570.55 L1161.83,570.69 L1162.12,570.82 L1162.40,570.96 L1162.68,571.10 L1162.97,571.24 L1163.25,571.38 L1163.54,571.52 L1163.82,571.66 L1164.11,571.79 L1164.39,571.93 L1164.67,572.07 L1164.96,572.21 L1165.24,572.35 L1165.53,572.49 L1165.81,572.63 L1166.09,572.76 L1166.38,572.90 L1166.66,573.04 L1166.95,573.18 L1167.23,573.32 L1167.51,573.46 L1167.80,573.60 L1168.08,573.73 L1168.37,573.87 L1168.65,574.01 L1168.93,574.15 L1169.22,574.29 L1169.50,574.43 L1169.79,574.57 L1170.07,574.70 L1170.35,574.84 L1170.64,574.98 L1170.92,575.12 L1171.21,575.26 L1171.49,575.40 L1171.77,575.54 L1172.06,575.67 L1172.34,575.81 L1172.63,575.95 L1172.91,576.09 L1173.19,576.23 L1173.48,576.37 L1173.76,576.51 L1174.05,576.64 L1174.33,576.78 L1174.62,576.92 L1174.90,577.06 L1175.18,577.20 L1175.47,577.34 L1175.75,577.48 L1176.04,577.61 L1176.32,577.75 L1176.60,577.89 L1176.89,578.03 L1177.17,578.17 L1177.46,578.31 L1177.74,578.45 L1178.02,578.58 L1178.31,578.72 L1178.59,578.86 L1178.88,579.00 L1179.16,579.14 L1179.44,579.28 L1179.73,579.42 L1180.01,579.55 L1180.30,579.69 L1180.58,579.83 L1180.86,579.97 L1181.15,580.11 L1181.43,580.25 L1181.72,580.39 L1182.00,580.52 L1182.28,580.66 L1182.57,580.80 L1182.85,580.94 L1183.14,581.08 L1183.42,581.22 L1183.70,581.36 L1183.99,581.50 L1184.27,581.63 L1184.56,581.77 L1184.84,581.91 L1185.13,582.05 L1185.41,582.19 L1185.69,582.33 L1185.98,582.47 L1186.26,582.60 L1186.55,582.74 L1186.83,582.88 L1187.11,583.02 L1187.40,583.16 L1187.68,583.30 L1187.97,583.44 L1188.25,583.57 L1188.53,583.71 L1188.82,583.85 L1189.10,583.99 L1189.39,584.13 L1189.67,584.27 L1189.95,584.41 L1190.24,584.54 L1190.52,584.68 L1190.81,584.82 L1191.09,584.96 L1191.37,585.10 L1191.66,585.24 L1191.94,585.38 L1192.23,585.51 L1192.51,585.65 L1192.79,585.79 L1193.08,585.93 L1193.36,586.07 L1193.65,586.21 L1193.93,586.35 L1194.21,586.48 L1194.50,586.62 L1194.78,586.76 L1195.07,586.90 L1195.35,587.04 L1195.63,587.18 L1195.92,587.32" style="stroke-width: 28; stroke: rgb(245, 166, 35);"/>
        <path onclick="onClickEvent(evt)" id="4-13-line-3" d=" M1195.92,587.32 L1196.58,586.03 L1197.24,584.74 L1197.90,583.46 L1198.55,582.17 L1199.21,580.89 L1199.87,579.60 L1200.53,578.32 L1201.19,577.03 L1201.85,575.74 L1202.51,574.46 L1203.17,573.17 L1203.83,571.89 L1204.48,570.60 L1205.14,569.32 L1205.80,568.03 L1206.46,566.74 L1207.12,565.46 L1207.78,564.17 L1208.44,562.89 L1209.10,561.60 L1209.75,560.32 L1210.41,559.03 L1211.07,557.74 L1211.73,556.46 L1212.39,555.17 L1213.05,553.89 L1213.71,552.60 L1214.37,551.32 L1215.03,550.03 L1215.68,548.74 L1216.34,547.46 L1217.00,546.17 L1217.66,544.89 L1218.32,543.60 L1218.98,542.31 L1219.64,541.03 L1220.30,539.74 L1220.96,538.46 L1221.61,537.17 L1222.27,535.89 L1222.93,534.60 L1223.59,533.31 L1224.25,532.03 L1224.91,530.74 L1225.57,529.46 L1226.23,528.17 L1226.89,526.89 L1227.54,525.60 L1228.20,524.31 L1228.86,523.03 L1229.52,521.74 L1230.18,520.46 L1230.84,519.17 L1231.50,517.89 L1232.16,516.60 L1232.81,515.31 L1233.47,514.03 L1234.13,512.74 L1234.79,511.46 L1235.45,510.17 L1236.11,508.89 L1236.77,507.60 L1237.43,506.31 L1238.09,505.03 L1238.74,503.74 L1239.40,502.46 L1240.06,501.17 L1240.72,499.89 L1241.38,498.60 L1242.04,497.31 L1242.70,496.03 L1243.36,494.74 L1244.02,493.46 L1244.67,492.17 L1245.33,490.89 L1245.99,489.60 L1246.65,488.31 L1247.31,487.03 L1247.97,485.74 L1248.63,484.46 L1249.29,483.17 L1249.95,481.89 L1250.60,480.60 L1251.26,479.31 L1251.92,478.03 L1252.58,476.74 L1253.24,475.46 L1253.90,474.17 L1254.56,472.89 L1255.22,471.60 L1255.87,470.31 L1256.53,469.03 L1257.19,467.74 L1257.85,466.46 L1258.51,465.17 L1259.17,463.89 L1259.83,462.60 L1260.49,461.31 L1261.15,460.03 L1261.80,458.74 L1262.46,457.46 L1263.12,456.17 L1263.78,454.89 L1264.44,453.60 L1265.10,452.31 L1265.76,451.03 L1266.42,449.74 L1267.08,448.46 L1267.73,447.17 L1268.39,445.89 L1269.05,444.60 L1269.71,443.31 L1270.37,442.03 L1271.03,440.74 L1271.69,439.46 L1272.35,438.17 L1273.00,436.89 L1273.66,435.60 L1274.32,434.31 L1274.98,433.03 L1275.64,431.74 L1276.30,430.46 L1276.96,429.17 L1277.62,427.89 L1278.28,426.60 L1278.93,425.31 L1279.59,424.03 L1280.25,422.74 L1280.91,421.46 L1281.57,420.17 L1282.23,418.89 L1282.89,417.60 L1283.55,416.31 L1284.21,415.03 L1284.86,413.74 L1285.52,412.46 L1286.18,411.17 L1286.84,409.89 L1287.50,408.60 L1288.16,407.31 L1288.82,406.03 L1289.48,404.74 L1290.14,403.46 L1290.79,402.17 L1291.45,400.89 L1292.11,399.60 L1292.77,398.31 L1293.43,397.03 L1294.09,395.74 L1294.75,394.46 L1295.41,393.17 L1296.06,391.89 L1296.72,390.60 L1297.38,389.31 L1298.04,388.03 L1298.70,386.74 L1299.36,385.46 L1300.02,384.17 L1300.68,382.88 L1301.34,381.60 L1301.99,380.31 L1302.65,379.03 L1303.31,377.74 L1303.97,376.46 L1304.63,375.17 L1305.29,373.88 L1305.95,372.60 L1306.61,371.31 L1307.27,370.03 L1307.92,368.74 L1308.58,367.46 L1309.24,366.17 L1309.90,364.88 L1310.56,363.60 L1311.22,362.31 L1311.88,361.03 L1312.54,359.74 L1313.20,358.46 L1313.85,357.17 L1314.51,355.88 L1315.17,354.60 L1315.83,353.31 L1316.49,352.03 L1317.15,350.74 L1317.81,349.46 L1318.47,348.17 L1319.12,346.88 L1319.78,345.60 L1320.44,344.31 L1321.10,343.03 L1321.76,341.74 L1322.42,340.46 L1323.08,339.17 L1323.74,337.88 L1324.40,336.60 L1325.05,335.31 L1325.71,334.03 L1326.37,332.74 L1327.03,331.46 L1327.69,330.17 L1328.35,328.88 L1329.01,327.60 L1329.67,326.31 L1330.33,325.03 L1330.98,323.74 L1331.64,322.46 L1332.30,321.17 L1332.96,319.88 L1333.62,318.60 L1334.28,317.31 L1334.94,316.03 L1335.60,314.74 L1336.26,313.46 L1336.91,312.17 L1337.57,310.88 L1338.23,309.60 L1338.89,308.31 L1339.55,307.03 L1340.21,305.74 L1340.87,304.46 L1341.53,303.17 L1342.18,301.88 L1342.84,300.60 L1343.50,299.31 L1344.16,298.03 L1344.82,296.74 L1345.48,295.46 L1346.14,294.17 L1346.80,292.88 L1347.46,291.60 L1348.11,290.31 L1348.77,289.03 L1349.43,287.74 L1350.09,286.46 L1350.75,285.17 L1351.41,283.88 L1352.07,282.60 L1352.73,281.31 L1353.39,280.03 L1354.04,278.74 L1354.70,277.46 L1355.36,276.17 L1356.02,274.88 L1356.68,273.60 L1357.34,272.31 L1358.00,271.03 L1358.66,269.74 L1359.31,268.46 L1359.97,267.17 L1360.63,265.88 L1361.29,264.60 L1361.95,263.31 L1362.61,262.03 L1363.27,260.74 L1363.93,259.46 L1364.59,258.17 L1365.24,256.88 L1365.90,255.60 L1366.56,254.31 L1367.22,253.03 L1367.88,251.74 L1368.54,250.46 L1369.20,249.17 L1369.86,247.88 L1370.52,246.60 L1371.17,245.31 L1371.83,244.03 L1372.49,242.74 L1373.15,241.46 L1373.81,240.17 L1374.47,238.88 L1375.13,237.60 L1375.79,236.31 L1376.45,235.03 L1377.10,233.74 L1377.76,232.46 L1378.42,231.17 L1379.08,229.88 L1379.74,228.60 L1380.40,227.31 L1381.06,226.03 L1381.72,224.74 L1382.37,223.45 L1383.03,222.17 L1383.69,220.88 L1384.35,219.60 L1385.01,218.31 L1385.67,217.03 L1386.33,215.74 L1386.99,214.45 L1387.65,213.17 L1388.30,211.88 L1388.96,210.60 L1389.62,209.31 L1390.28,208.03 L1390.94,206.74 L1391.60,205.45 L1392.26,204.17 L1392.92,202.88 L1393.58,201.60 L1394.23,200.31 L1394.89,199.03 L1395.55,197.74 L1396.21,196.45 L1396.87,195.17 L1397.53,193.88 L1398.19,192.60 L1398.85,191.31 L1399.51,190.03 L1400.16,188.74 L1400.82,187.45 L1401.48,186.17 L1402.14,184.88 L1402.80,183.60 L1403.46,182.31 L1404.12,181.03 L1404.78,179.74 L1405.43,178.45 L1406.09,177.17 L1406.75,175.88 L1407.41,174.60 L1408.07,173.31 L1408.73,172.03 L1409.39,170.74 L1410.05,169.45 L1410.71,168.17 L1411.36,166.88 L1412.02,165.60 L1412.68,164.31 L1413.34,163.03 L1414.00,161.74 L1414.66,160.45 L1415.32,159.17 L1415.98,157.88 L1416.64,156.60 L1417.29,155.31 L1417.95,154.03 L1418.61,152.74 L1419.27,151.45 L1419.93,150.17 L1420.59,148.88 L1421.25,147.60 L1421.91,146.31 L1422.56,145.03 L1423.22,143.74 L1423.88,142.45 L1424.54,141.17 L1425.20,139.88 L1425.86,138.60 L1426.52,137.31 L1427.18,136.03 L1427.84,134.74 L1428.49,133.45 L1429.15,132.17 L1429.81,130.88 L1430.47,129.60 L1431.13,128.31 L1431.79,127.03 L1432.45,125.74 L1433.11,124.45 L1433.77,123.17 L1434.42,121.88 L1435.08,120.60 L1435.74,119.31 L1436.40,118.03 L1437.06,116.74 L1437.72,115.45 L1438.38,114.17 L1439.04,112.88 L1439.70,111.60 L1440.35,110.31 L1441.01,109.03 L1441.67,107.74 L1442.33,106.45 L1442.99,105.17 L1443.65,103.88 L1444.31,102.60 L1444.97,101.31 L1445.62,100.03 L1446.28,98.74 L1446.94,97.45 L1447.60,96.17 L1448.26,94.88 L1448.92,93.60 L1449.58,92.31 L1450.24,91.03 L1450.90,89.74 L1451.55,88.45 L1452.21,87.17 L1452.87,85.88 L1453.53,84.60 L1454.19,83.31 L1454.85,82.03 L1455.51,80.74 L1456.17,79.45 L1456.83,78.17 L1457.48,76.88 L1458.14,75.60 L1458.80,74.31 L1459.46,73.03 L1460.12,71.74 L1460.78,70.45 L1461.44,69.17 L1462.10,67.88 L1462.76,66.60 L1463.41,65.31 L1464.07,64.03 L1464.73,62.74 L1465.39,61.45 L1466.05,60.17 L1466.71,58.88 L1467.37,57.60 L1468.03,56.31 L1468.68,55.02 L1469.34,53.74 L1470.00,52.45 L1470.66,51.17 L1471.32,49.88 L1471.98,48.60 L1472.64,47.31 L1473.30,46.02 L1473.96,44.74 L1474.61,43.45 L1475.27,42.17 L1475.93,40.88 L1476.59,39.60 L1477.25,38.31 L1477.91,37.02 L1478.57,35.74 L1479.23,34.45 L1479.89,33.17 L1480.54,31.88 L1481.20,30.60 L1481.86,29.31 L1482.52,28.02 L1483.18,26.74 L1483.84,25.45 L1484.50,24.17 L1485.16,22.88 L1485.81,21.60 L1486.47,20.31 L1487.13,19.02 L1487.79,17.74 L1488.45,16.45 L1489.11,15.17 L1489.77,13.88 L1490.43,12.60 L1491.09,11.31 L1491.74,10.02 L1492.40,8.74 L1493.06,7.45 L1493.72,6.17 L1494.38,4.88 L1495.04,3.60 L1495.70,2.31 L1496.36,1.02 L1497.02,-0.26 L1497.67,-1.55 L1498.33,-2.83 L1498.99,-4.12 L1499.65,-5.40 L1500.31,-6.69 L1500.97,-7.98 L1501.63,-9.26 L1502.29,-10.55 L1502.95,-11.83 L1503.60,-13.12 L1504.26,-14.40 L1504.92,-15.69 L1505.58,-16.98 L1506.24,-18.26 L1506.90,-19.55 L1507.56,-20.83 L1508.22,-22.12 L1508.87,-23.40 L1509.53,-24.69 L1510.19,-25.98 L1510.85,-27.26 L1511.51,-28.55 L1512.17,-29.83 L1512.83,-31.12 L1513.49,-32.40 L1514.15,-33.69 L1514.80,-34.98 L1515.46,-36.26 L1516.12,-37.55 L1516.78,-38.83 L1517.44,-40.12 L1518.10,-41.40 L1518.76,-42.69 L1519.42,-43.98 L1520.08,-45.26 L1520.73,-46.55 L1521.39,-47.83 L1522.05,-49.12 L1522.71,-50.40 L1523.37,-51.69 L1524.03,-52.98 L1524.69,-54.26 L1525.35,-55.55 L1526.01,-56.83 L1526.66,-58.12 L1527.32,-59.40 L1527.98,-60.69 L1528.64,-61.98 L1529.30,-63.26 L1529.96,-64.55 L1530.62,-65.83 L1531.28,-67.12 L1531.93,-68.40 L1532.59,-69.69 L1533.25,-70.98 L1533.91,-72.26 L1534.57,-73.55 L1535.23,-74.83 L1535.89,-76.12 L1536.55,-77.40 L1537.21,-78.69 L1537.86,-79.98 L1538.52,-81.26 L1539.18,-82.55 L1539.84,-83.83 L1540.50,-85.12 L1541.16,-86.40 L1541.82,-87.69 L1542.48,-88.98 L1543.14,-90.26 L1543.79,-91.55 L1544.45,-92.83 L1545.11,-94.12 L1545.77,-95.40 L1546.43,-96.69 L1547.09,-97.98 L1547.75,-99.26 L1548.41,-100.55 L1549.06,-101.83 L1549.72,-103.12 L1550.38,-104.41 L1551.04,-105.69 L1551.70,-106.98 L1552.36,-108.26 L1553.02,-109.55 L1553.68,-110.83 L1554.34,-112.12 L1554.99,-113.41 L1555.65,-114.69 L1556.31,-115.98 L1556.97,-117.26 L1557.63,-118.55 L1558.29,-119.83 L1558.95,-121.12 L1559.61,-122.41 L1560.27,-123.69 L1560.92,-124.98 L1561.58,-126.26 L1562.24,-127.55 L1562.90,-128.83 L1563.56,-130.12 L1564.22,-131.41 L1564.88,-132.69 L1565.54,-133.98 L1566.20,-135.26 L1566.85,-136.55 L1567.51,-137.83 L1568.17,-139.12 L1568.83,-140.41 L1569.49,-141.69 L1570.15,-142.98 L1570.81,-144.26 L1571.47,-145.55 L1572.12,-146.83 L1572.78,-148.12 L1573.44,-149.41 L1574.10,-150.69 L1574.76,-151.98 L1575.42,-153.26 L1576.08,-154.55 L1576.74,-155.83 L1577.40,-157.12 L1578.05,-158.41 L1578.71,-159.69 L1579.37,-160.98 L1580.03,-162.26 L1580.69,-163.55 L1581.35,-164.83 L1582.01,-166.12 L1582.67,-167.41 L1583.33,-168.69 L1583.98,-169.98 L1584.64,-171.26 L1585.30,-172.55 L1585.96,-173.83 L1586.62,-175.12 L1587.28,-176.41 L1587.94,-177.69 L1588.60,-178.98 L1589.26,-180.26 L1589.91,-181.55 L1590.57,-182.83 L1591.23,-184.12 L1591.89,-185.41 L1592.55,-186.69 L1593.21,-187.98 L1593.87,-189.26 L1594.53,-190.55 L1595.18,-191.83 L1595.84,-193.12 L1596.50,-194.41 L1597.16,-195.69 L1597.82,-196.98 L1598.48,-198.26 L1599.14,-199.55 L1599.80,-200.83 L1600.46,-202.12 L1601.11,-203.41 L1601.77,-204.69 L1602.43,-205.98 L1603.09,-207.26 L1603.75,-208.55 L1604.41,-209.83 L1605.07,-211.12 L1605.73,-212.41 L1606.39,-213.69 L1607.04,-214.98 L1607.70,-216.26 L1608.36,-217.55 L1609.02,-218.83 L1609.68,-220.12 L1610.34,-221.41 L1611.00,-222.69 L1611.66,-223.98 L1612.31,-225.26 L1612.97,-226.55 L1613.63,-227.83 L1614.29,-229.12 L1614.95,-230.41 L1615.61,-231.69 L1616.27,-232.98 L1616.93,-234.26 L1617.59,-235.55 L1618.24,-236.83 L1618.90,-238.12 L1619.56,-239.41 L1620.22,-240.69 L1620.88,-241.98 L1621.54,-243.26 L1622.20,-244.55 L1622.86,-245.83 L1623.52,-247.12 L1624.17,-248.41 L1624.83,-249.69 L1625.49,-250.98 L1626.15,-252.26 L1626.81,-253.55 L1627.47,-254.83 L1628.13,-256.12 L1628.79,-257.41 L1629.45,-258.69 L1630.10,-259.98 L1630.76,-261.26 L1631.42,-262.55 L1632.08,-263.84 L1632.74,-265.12 L1633.40,-266.41 L1634.06,-267.69 L1634.72,-268.98 L1635.37,-270.26 L1636.03,-271.55 L1636.69,-272.84 L1637.35,-274.12 L1638.01,-275.41 L1638.67,-276.69 L1639.33,-277.98 L1639.99,-279.26 L1640.65,-280.55 L1641.30,-281.84 L1641.96,-283.12 L1642.62,-284.41 L1643.28,-285.69 L1643.94,-286.98 L1644.60,-288.26 L1645.26,-289.55 L1645.92,-290.84 L1646.58,-292.12 L1647.23,-293.41 L1647.89,-294.69 L1648.55,-295.98 L1649.21,-297.26 L1649.87,-298.55 L1650.53,-299.84 L1651.19,-301.12 L1651.85,-302.41 L1652.51,-303.69 L1653.16,-304.98 L1653.82,-306.26 L1654.48,-307.55 L1655.14,-308.84 L1655.80,-310.12 L1656.46,-311.41 L1657.12,-312.69 L1657.78,-313.98 L1658.43,-315.26 L1659.09,-316.55 L1659.75,-317.84 L1660.41,-319.12 L1661.07,-320.41 L1661.73,-321.69 L1662.39,-322.98 L1663.05,-324.26 L1663.71,-325.55 L1664.36,-326.84 L1665.02,-328.12 L1665.68,-329.41 L1666.34,-330.69 L1667.00,-331.98 L1667.66,-333.26 L1668.32,-334.55 L1668.98,-335.84 L1669.64,-337.12 L1670.29,-338.41 L1670.95,-339.69 L1671.61,-340.98 L1672.27,-342.26 L1672.93,-343.55 L1673.59,-344.84 L1674.25,-346.12 L1674.91,-347.41 L1675.57,-348.69 L1676.22,-349.98 L1676.88,-351.26 L1677.54,-352.55 L1678.20,-353.84 L1678.86,-355.12 L1679.52,-356.41 L1680.18,-357.69 L1680.84,-358.98 L1681.49,-360.26 L1682.15,-361.55 L1682.81,-362.84 L1683.47,-364.12 L1684.13,-365.41 L1684.79,-366.69 L1685.45,-367.98 L1686.11,-369.26 L1686.77,-370.55 L1687.42,-371.84 L1688.08,-373.12 L1688.74,-374.41 L1689.40,-375.69 L1690.06,-376.98 L1690.72,-378.26 L1691.38,-379.55 L1692.04,-380.84 L1692.70,-382.12 L1693.35,-383.41 L1694.01,-384.69 L1694.67,-385.98 L1695.33,-387.26 L1695.99,-388.55 L1696.65,-389.84 L1697.31,-391.12 L1697.97,-392.41 L1698.62,-393.69 L1699.28,-394.98 L1699.94,-396.26 L1700.60,-397.55 L1701.26,-398.84 L1701.92,-400.12 L1702.58,-401.41 L1703.24,-402.69 L1703.90,-403.98 L1704.55,-405.26 L1705.21,-406.55 L1705.87,-407.84 L1706.53,-409.12 L1707.19,-410.41 L1707.85,-411.69 L1708.51,-412.98 L1709.17,-414.26 L1709.83,-415.55 L1710.48,-416.84 L1711.14,-418.12 L1711.80,-419.41 L1712.46,-420.69 L1713.12,-421.98 L1713.78,-423.26 L1714.44,-424.55 L1715.10,-425.84 L1715.76,-427.12 L1716.41,-428.41 L1717.07,-429.69 L1717.73,-430.98 L1718.39,-432.27 L1719.05,-433.55 L1719.71,-434.84 L1720.37,-436.12 L1721.03,-437.41 L1721.68,-438.69 L1722.34,-439.98 L1723.00,-441.27 L1723.66,-442.55 L1724.32,-443.84 L1724.98,-445.12 L1725.64,-446.41 L1726.30,-447.69 L1726.96,-448.98 L1727.61,-450.27 L1728.27,-451.55 L1728.93,-452.84 L1729.59,-454.12 L1730.25,-455.41 L1730.91,-456.69 L1731.57,-457.98 L1732.23,-459.27 L1732.89,-460.55 L1733.54,-461.84 L1734.20,-463.12 L1734.86,-464.41 L1735.52,-465.69 L1736.18,-466.98 L1736.84,-468.27 L1737.50,-469.55 L1738.16,-470.84 L1738.82,-472.12 L1739.47,-473.41 L1740.13,-474.69 L1740.79,-475.98 L1741.45,-477.27 L1742.11,-478.55 L1742.77,-479.84 L1743.43,-481.12 L1744.09,-482.41 L1744.74,-483.69 L1745.40,-484.98 L1746.06,-486.27 L1746.72,-487.55 L1747.38,-488.84 L1748.04,-490.12 L1748.70,-491.41 L1749.36,-492.69 L1750.02,-493.98 L1750.67,-495.27 L1751.33,-496.55 L1751.99,-497.84 L1752.65,-499.12 L1753.31,-500.41 L1753.97,-501.69 L1754.63,-502.98 L1755.29,-504.27 L1755.95,-505.55 L1756.60,-506.84 L1757.26,-508.12 L1757.92,-509.41 L1758.58,-510.69 L1759.24,-511.98 L1759.90,-513.27 L1760.56,-514.55 L1761.22,-515.84 L1761.87,-517.12 L1762.53,-518.41 L1763.19,-519.69 L1763.85,-520.98 L1764.51,-522.27 L1765.17,-523.55 L1765.83,-524.84 L1766.49,-526.12 L1767.15,-527.41 L1767.80,-528.69 L1768.46,-529.98 L1769.12,-531.27 L1769.78,-532.55 L1770.44,-533.84 L1771.10,-535.12 L1771.76,-536.41 L1772.42,-537.69 L1773.08,-538.98 L1773.73,-540.27 L1774.39,-541.55 L1775.05,-542.84 L1775.71,-544.12 L1776.37,-545.41 L1777.03,-546.69 L1777.69,-547.98 L1778.35,-549.27 L1779.01,-550.55 L1779.66,-551.84 L1780.32,-553.12 L1780.98,-554.41 L1781.64,-555.69 L1782.30,-556.98 L1782.96,-558.27 L1783.62,-559.55 L1784.28,-560.84 L1784.93,-562.12 L1785.59,-563.41 L1786.25,-564.69 L1786.91,-565.98 L1787.57,-567.27 L1788.23,-568.55 L1788.89,-569.84 L1789.55,-571.12 L1790.21,-572.41 L1790.86,-573.69 L1791.52,-574.98 L1792.18,-576.27 L1792.84,-577.55 L1793.50,-578.84 L1794.16,-580.12 L1794.82,-581.41 L1795.48,-582.69 L1796.14,-583.98 L1796.79,-585.27 L1797.45,-586.55 L1798.11,-587.84 L1798.77,-589.12 L1799.43,-590.41 L1800.09,-591.70 L1800.75,-592.98 L1801.41,-594.27 L1802.07,-595.55 L1802.72,-596.84 L1803.38,-598.12 L1804.04,-599.41 L1804.70,-600.70 L1805.36,-601.98 L1806.02,-603.27 L1806.68,-604.55 L1807.34,-605.84 L1807.99,-607.12 L1808.65,-608.41 L1809.31,-609.70 L1809.97,-610.98 L1810.63,-612.27 L1811.29,-613.55 L1811.95,-614.84 L1812.61,-616.12 L1813.27,-617.41 L1813.92,-618.70 L1814.58,-619.98 L1815.24,-621.27 L1815.90,-622.55 L1816.56,-623.84 L1817.22,-625.12 L1817.88,-626.41 L1818.54,-627.70 L1819.20,-628.98 L1819.85,-630.27 L1820.51,-631.55 L1821.17,-632.84 L1821.83,-634.12 L1822.49,-635.41 L1823.15,-636.70 L1823.81,-637.98 L1824.47,-639.27 L1825.12,-640.55 L1825.78,-641.84 L1826.44,-643.12 L1827.10,-644.41 L1827.76,-645.70 L1828.42,-646.98 L1829.08,-648.27 L1829.74,-649.55 L1830.40,-650.84 L1831.05,-652.12 L1831.71,-653.41 L1832.37,-654.70 L1833.03,-655.98 L1833.69,-657.27 L1834.35,-658.55 L1835.01,-659.84 L1835.67,-661.12 L1836.33,-662.41 L1836.98,-663.70 L1837.64,-664.98 L1838.30,-666.27 L1838.96,-667.55 L1839.62,-668.84 L1840.28,-670.12 L1840.94,-671.41 L1841.60,-672.70 L1842.26,-673.98 L1842.91,-675.27 L1843.57,-676.55 L1844.23,-677.84 L1844.89,-679.12 L1845.55,-680.41 L1846.21,-681.70 L1846.87,-682.98 L1847.53,-684.27 L1848.18,-685.55 L1848.84,-686.84 L1849.50,-688.12 L1850.16,-689.41 L1850.82,-690.70 L1851.48,-691.98 L1852.14,-693.27 L1852.80,-694.55 L1853.46,-695.84 L1854.11,-697.12 L1854.77,-698.41 L1855.43,-699.70 L1856.09,-700.98 L1856.75,-702.27 L1857.41,-703.55 L1858.07,-704.84 L1858.73,-706.12 L1859.39,-707.41 L1860.04,-708.70 L1860.70,-709.98 L1861.36,-711.27 L1862.02,-712.55 L1862.68,-713.84 L1863.34,-715.12 L1864.00,-716.41 L1864.66,-717.70 L1865.32,-718.98 L1865.97,-720.27 L1866.63,-721.55 L1867.29,-722.84 L1867.95,-724.12 L1868.61,-725.41 L1869.27,-726.70 L1869.93,-727.98 L1870.59,-729.27 L1871.24,-730.55 L1871.90,-731.84 L1872.56,-733.12 L1873.22,-734.41 L1873.88,-735.70 L1874.54,-736.98 L1875.20,-738.27 L1875.86,-739.55 L1876.52,-740.84 L1877.17,-742.12 L1877.83,-743.41 L1878.49,-744.70 L1879.15,-745.98 L1879.81,-747.27 L1880.47,-748.55 L1881.13,-749.84 L1881.79,-751.12 L1882.45,-752.41 L1883.10,-753.70 L1883.76,-754.98 L1884.42,-756.27 L1885.08,-757.55 L1885.74,-758.84 L1886.40,-760.13 L1887.06,-761.41 L1887.72,-762.70 L1888.37,-763.98 L1889.03,-765.27 L1889.69,-766.55 L1890.35,-767.84 L1891.01,-769.13 L1891.67,-770.41 L1892.33,-771.70 L1892.99,-772.98 L1893.65,-774.27 L1894.30,-775.55 L1894.96,-776.84 L1895.62,-778.13 L1896.28,-779.41 L1896.94,-780.70 L1897.60,-781.98 L1898.26,-783.27 L1898.92,-784.55 L1899.58,-785.84 L1900.23,-787.13 L1900.89,-788.41 L1901.55,-789.70 L1902.21,-790.98 L1902.87,-792.27 L1903.53,-793.55 L1904.19,-794.84 L1904.85,-796.13 L1905.51,-797.41 L1906.16,-798.70 L1906.82,-799.98 L1907.48,-801.27 L1908.14,-802.55 L1908.80,-803.84 L1909.46,-805.13 L1910.12,-806.41 L1910.78,-807.70 L1911.43,-808.98 L1912.09,-810.27 L1912.75,-811.55 L1913.41,-812.84 L1914.07,-814.13 L1914.73,-815.41 L1915.39,-816.70 L1916.05,-817.98 L1916.71,-819.27 L1917.36,-820.55 L1918.02,-821.84 L1918.68,-823.13 L1919.34,-824.41 L1920.00,-825.70" style="stroke-width: 28; stroke: rgb(245, 166, 35)"/>

        <circle onclick="onClickEvent(evt)" id="4-13-point-1" cx="675.6300475561761" cy="536.5492629204374" r="30" style="stroke-width: 8; stroke: rgb(245, 166, 35); stroke-opacity: 1; fill: rgb(245, 166, 35);"/>
        <circle onclick="onClickEvent(evt)" id="4-13-point-2" cx="883.7456368563564" cy="435.01714289777647" r="30" style="stroke-width: 8; stroke: rgb(245, 166, 35); stroke-opacity: 1; fill: rgb(245, 166, 35)"/>
        <circle onclick="onClickEvent(evt)" id="4-13-point-3" cx="1091.8612261565368" cy="536.5492629204374" r="30" style="stroke-width: 8; stroke: rgb(245, 166, 35); stroke-opacity: 1; fill: rgb(245, 166, 35)"/>
        <circle onclick="onClickEvent(evt)" id="4-13-point-4" cx="1195.9190208066268" cy="587.3153229317678" r="30" style="stroke-width: 8; stroke: rgb(245, 166, 35); stroke-opacity: 1; fill: rgb(245, 166, 35)"/>
        <circle onclick="onClickEvent(evt)" id="4-13-point-5" cx="1247.947918131672" cy="485.78320290910693" r="30" style="stroke-width: 8; stroke: rgb(245, 166, 35); stroke-opacity: 1; fill: rgb(245, 166, 35)"/>

        <g class="test-xti" style="font-family: Asana-Math, Asana;">
        <line x1="0" y1="536.5492629204374" x2="1902.5" y2="536.5492629204374" fill="none" stroke="rgb(50,50,50)" stroke-opacity="1" stroke-width="8"/>
        <line x1="51.28327965563515" y1="528.5492629204374" x2="51.28327965563515" y2="544.5492629204374" fill="none" stroke="rgb(50,50,50)" stroke-opacity="1" stroke-width="8"/>
        <line x1="103.31217698068023" y1="528.5492629204374" x2="103.31217698068023" y2="544.5492629204374" fill="none" stroke="rgb(50,50,50)" stroke-opacity="1" stroke-width="8"/>
        <line x1="155.3410743057253" y1="528.5492629204374" x2="155.3410743057253" y2="544.5492629204374" fill="none" stroke="rgb(50,50,50)" stroke-opacity="1" stroke-width="8"/>
        <line x1="207.36997163077038" y1="528.5492629204374" x2="207.36997163077038" y2="544.5492629204374" fill="none" stroke="rgb(50,50,50)" stroke-opacity="1" stroke-width="8"/>
        <line x1="259.39886895581543" y1="528.5492629204374" x2="259.39886895581543" y2="544.5492629204374" fill="none" stroke="rgb(50,50,50)" stroke-opacity="1" stroke-width="8"/>
        <line x1="311.4277662808605" y1="528.5492629204374" x2="311.4277662808605" y2="544.5492629204374" fill="none" stroke="rgb(50,50,50)" stroke-opacity="1" stroke-width="8"/>
        <line x1="363.45666360590565" y1="528.5492629204374" x2="363.45666360590565" y2="544.5492629204374" fill="none" stroke="rgb(50,50,50)" stroke-opacity="1" stroke-width="8"/>
        <line x1="415.48556093095067" y1="528.5492629204374" x2="415.48556093095067" y2="544.5492629204374" fill="none" stroke="rgb(50,50,50)" stroke-opacity="1" stroke-width="8"/>
        <line x1="467.51445825599575" y1="528.5492629204374" x2="467.51445825599575" y2="544.5492629204374" fill="none" stroke="rgb(50,50,50)" stroke-opacity="1" stroke-width="8"/>
        <line x1="519.5433555810408" y1="528.5492629204374" x2="519.5433555810408" y2="544.5492629204374" fill="none" stroke="rgb(50,50,50)" stroke-opacity="1" stroke-width="8"/>
        <line x1="571.5722529060859" y1="528.5492629204374" x2="571.5722529060859" y2="544.5492629204374" fill="none" stroke="rgb(50,50,50)" stroke-opacity="1" stroke-width="8"/>
        <line x1="623.601150231131" y1="528.5492629204374" x2="623.601150231131" y2="544.5492629204374" fill="none" stroke="rgb(50,50,50)" stroke-opacity="1" stroke-width="8"/>
        <line x1="675.6300475561761" y1="528.5492629204374" x2="675.6300475561761" y2="544.5492629204374" fill="none" stroke="rgb(50,50,50)" stroke-opacity="1" stroke-width="8"/>
        <line x1="727.6589448812211" y1="528.5492629204374" x2="727.6589448812211" y2="544.5492629204374" fill="none" stroke="rgb(50,50,50)" stroke-opacity="1" stroke-width="8"/>
        <line x1="779.6878422062663" y1="528.5492629204374" x2="779.6878422062663" y2="544.5492629204374" fill="none" stroke="rgb(50,50,50)" stroke-opacity="1" stroke-width="8"/>
        <line x1="831.7167395313113" y1="528.5492629204374" x2="831.7167395313113" y2="544.5492629204374" fill="none" stroke="rgb(50,50,50)" stroke-opacity="1" stroke-width="8"/>
        <line x1="883.7456368563563" y1="528.5492629204374" x2="883.7456368563563" y2="544.5492629204374" fill="none" stroke="rgb(50,50,50)" stroke-opacity="1" stroke-width="8"/>
        <line x1="935.7745341814015" y1="528.5492629204374" x2="935.7745341814015" y2="544.5492629204374" fill="none" stroke="rgb(50,50,50)" stroke-opacity="1" stroke-width="8"/>
        <line x1="987.8034315064465" y1="528.5492629204374" x2="987.8034315064465" y2="544.5492629204374" fill="none" stroke="rgb(50,50,50)" stroke-opacity="1" stroke-width="8"/>
        <line x1="1039.8323288314916" y1="528.5492629204374" x2="1039.8323288314916" y2="544.5492629204374" fill="none" stroke="rgb(50,50,50)" stroke-opacity="1" stroke-width="8"/>
        <line x1="1143.890123481582" y1="528.5492629204374" x2="1143.890123481582" y2="544.5492629204374" fill="none" stroke="rgb(50,50,50)" stroke-opacity="1" stroke-width="8"/>
        <line x1="1195.919020806627" y1="528.5492629204374" x2="1195.919020806627" y2="544.5492629204374" fill="none" stroke="rgb(50,50,50)" stroke-opacity="1" stroke-width="8"/>
        <line x1="1247.947918131672" y1="528.5492629204374" x2="1247.947918131672" y2="544.5492629204374" fill="none" stroke="rgb(50,50,50)" stroke-opacity="1" stroke-width="8"/>
        <line x1="1299.9768154567168" y1="528.5492629204374" x2="1299.9768154567168" y2="544.5492629204374" fill="none" stroke="rgb(50,50,50)" stroke-opacity="1" stroke-width="8"/>
        <line x1="1352.005712781762" y1="528.5492629204374" x2="1352.005712781762" y2="544.5492629204374" fill="none" stroke="rgb(50,50,50)" stroke-opacity="1" stroke-width="8"/>
        <line x1="1404.0346101068071" y1="528.5492629204374" x2="1404.0346101068071" y2="544.5492629204374" fill="none" stroke="rgb(50,50,50)" stroke-opacity="1" stroke-width="8"/>
        <line x1="1456.0635074318523" y1="528.5492629204374" x2="1456.0635074318523" y2="544.5492629204374" fill="none" stroke="rgb(50,50,50)" stroke-opacity="1" stroke-width="8"/>
        <line x1="1508.0924047568972" y1="528.5492629204374" x2="1508.0924047568972" y2="544.5492629204374" fill="none" stroke="rgb(50,50,50)" stroke-opacity="1" stroke-width="8"/>
        <line x1="1560.1213020819423" y1="528.5492629204374" x2="1560.1213020819423" y2="544.5492629204374" fill="none" stroke="rgb(50,50,50)" stroke-opacity="1" stroke-width="8"/>
        <line x1="1612.1501994069874" y1="528.5492629204374" x2="1612.1501994069874" y2="544.5492629204374" fill="none" stroke="rgb(50,50,50)" stroke-opacity="1" stroke-width="8"/>
        <line x1="1664.1790967320326" y1="528.5492629204374" x2="1664.1790967320326" y2="544.5492629204374" fill="none" stroke="rgb(50,50,50)" stroke-opacity="1" stroke-width="8"/>
        <line x1="1716.207994057078" y1="528.5492629204374" x2="1716.207994057078" y2="544.5492629204374" fill="none" stroke="rgb(50,50,50)" stroke-opacity="1" stroke-width="8"/>
        <line x1="1768.2368913821228" y1="528.5492629204374" x2="1768.2368913821228" y2="544.5492629204374" fill="none" stroke="rgb(50,50,50)" stroke-opacity="1" stroke-width="8"/>
        <line x1="1820.265788707168" y1="528.5492629204374" x2="1820.265788707168" y2="544.5492629204374" fill="none" stroke="rgb(50,50,50)" stroke-opacity="1" stroke-width="8"/>
        1<line x1="1872.294686032213" y1="528.5492629204374" x2="1872.294686032213" y2="544.5492629204374" fill="none" stroke="rgb(50,50,50)" stroke-opacity="1" stroke-width="8"/>
        <path d="M1900,527.9992629204374 L1919,536.5492629204374 L1900,545.0992629204374 Z" stroke="none" stroke-width="8" fill="rgb(50,50,50)" fill-opacity="1"/>
    </g>
    <g class="test-yti" style="font-family: Asana-Math, Asana;">
        <line x1="1091.8612261565368" y1="17.5" x2="1091.8612261565368" y2="960" fill="none" stroke="rgb(50,50,50)" stroke-opacity="1" stroke-width="8"/>
        <line x1="1083.8612261565368" y1="942.6777430110809" x2="1099.8612261565368" y2="942.6777430110809" fill="none" stroke="rgb(50,50,50)" stroke-opacity="1" stroke-width="8"/>
        <line x1="1083.8612261565368" y1="891.9116829997505" x2="1099.8612261565368" y2="891.9116829997505" fill="none" stroke="rgb(50,50,50)" stroke-opacity="1" stroke-width="8"/>
        <line x1="1083.8612261565368" y1="841.14562298842" x2="1099.8612261565368" y2="841.14562298842" fill="none" stroke="rgb(50,50,50)" stroke-opacity="1" stroke-width="8"/>
        <line x1="1083.8612261565368" y1="790.3795629770896" x2="1099.8612261565368" y2="790.3795629770896" fill="none" stroke="rgb(50,50,50)" stroke-opacity="1" stroke-width="8"/>
        <line x1="1083.8612261565368" y1="739.6135029657592" x2="1099.8612261565368" y2="739.6135029657592" fill="none" stroke="rgb(50,50,50)" stroke-opacity="1" stroke-width="8"/>
        <line x1="1083.8612261565368" y1="688.8474429544287" x2="1099.8612261565368" y2="688.8474429544287" fill="none" stroke="rgb(50,50,50)" stroke-opacity="1" stroke-width="8"/>
        <line x1="1083.8612261565368" y1="638.0813829430982" x2="1099.8612261565368" y2="638.0813829430982" fill="none" stroke="rgb(50,50,50)" stroke-opacity="1" stroke-width="8"/>
        <line x1="1083.8612261565368" y1="587.3153229317678" x2="1099.8612261565368" y2="587.3153229317678" fill="none" stroke="rgb(50,50,50)" stroke-opacity="1" stroke-width="8"/>
        <line x1="1083.8612261565368" y1="485.78320290910693" x2="1099.8612261565368" y2="485.78320290910693" fill="none" stroke="rgb(50,50,50)" stroke-opacity="1" stroke-width="8"/>
        <line x1="1083.8612261565368" y1="435.01714289777647" x2="1099.8612261565368" y2="435.01714289777647" fill="none" stroke="rgb(50,50,50)" stroke-opacity="1" stroke-width="8"/>
        <line x1="1083.8612261565368" y1="384.25108288644617" x2="1099.8612261565368" y2="384.25108288644617" fill="none" stroke="rgb(50,50,50)" stroke-opacity="1" stroke-width="8"/>
        <line x1="1083.8612261565368" y1="333.48502287511565" x2="1099.8612261565368" y2="333.48502287511565" fill="none" stroke="rgb(50,50,50)" stroke-opacity="1" stroke-width="8"/>
        <line x1="1083.8612261565368" y1="282.71896286378524" x2="1099.8612261565368" y2="282.71896286378524" fill="none" stroke="rgb(50,50,50)" stroke-opacity="1" stroke-width="8"/>
        <line x1="1083.8612261565368" y1="231.95290285245483" x2="1099.8612261565368" y2="231.95290285245483" fill="none" stroke="rgb(50,50,50)" stroke-opacity="1" stroke-width="8"/>
        <line x1="1083.8612261565368" y1="181.1868428411243" x2="1099.8612261565368" y2="181.1868428411243" fill="none" stroke="rgb(50,50,50)" stroke-opacity="1" stroke-width="8"/>
        <line x1="1083.8612261565368" y1="130.42078282979378" x2="1099.8612261565368" y2="130.42078282979378" fill="none" stroke="rgb(50,50,50)" stroke-opacity="1" stroke-width="8"/>
        <line x1="1083.8612261565368" y1="79.65472281846337" x2="1099.8612261565368" y2="79.65472281846337" fill="none" stroke="rgb(50,50,50)" stroke-opacity="1" stroke-width="8"/>
        <line x1="1083.8612261565368" y1="28.888662807132846" x2="1099.8612261565368" y2="28.888662807132846" fill="none" stroke="rgb(50,50,50)" stroke-opacity="1" stroke-width="8"/>
        <path d="M1083.3112261565368,20 L1091.8612261565368,1 L1100.4112261565367,20 Z" stroke="none" stroke-width="8" fill="rgb(50,50,50)" fill-opacity="1"/>
    </g>
    </g>
</svg>