<svg xmlns="http://www.w3.org/2000/svg" xmlns:xlink="http://www.w3.org/1999/xlink" x="0" y="0" width="1922.2222900390625" height="964.0798950195312" style="
        width:1922.2222900390625px;
        height:964.0798950195312px;
        background: #FFF;
        fill: none;
">
<script type="application/ecmascript"> <![CDATA[
    function onClickEvent(evt) {
        Android.showDetail(evt.target.getAttribute("id"));
    }
  ]]> </script>
    <g class="composite-shape" data-amt="diagram/shapes/plot">

        <path onclick="onClickEvent(evt)" id="7-2-line-1" d=" M0.00,144.45 L1.75,145.04 L3.49,145.62 L5.24,146.20 L6.99,146.78 L8.74,147.36 L10.48,147.95 L12.23,148.53 L13.98,149.11 L15.72,149.69 L17.47,150.28 L19.22,150.86 L20.96,151.44 L22.71,152.02 L24.46,152.61 L26.21,153.19 L27.95,153.77 L29.70,154.35 L31.45,154.93 L33.19,155.52 L34.94,156.10 L36.69,156.68 L38.43,157.26 L40.18,157.85 L41.93,158.43 L43.68,159.01 L45.42,159.59 L47.17,160.18 L48.92,160.76 L50.66,161.34 L52.41,161.92 L54.16,162.51 L55.91,163.09 L57.65,163.67 L59.40,164.25 L61.15,164.83 L62.89,165.42 L64.64,166.00 L66.39,166.58 L68.13,167.16 L69.88,167.75 L71.63,168.33 L73.38,168.91 L75.12,169.49 L76.87,170.08 L78.62,170.66 L80.36,171.24 L82.11,171.82 L83.86,172.41 L85.61,172.99 L87.35,173.57 L89.10,174.15 L90.85,174.73 L92.59,175.32 L94.34,175.90 L96.09,176.48 L97.83,177.06 L99.58,177.65 L101.33,178.23 L103.08,178.81 L104.82,179.39 L106.57,179.98 L108.32,180.56 L110.06,181.14 L111.81,181.72 L113.56,182.31 L115.30,182.89 L117.05,183.47 L118.80,184.05 L120.55,184.63 L122.29,185.22 L124.04,185.80 L125.79,186.38 L127.53,186.96 L129.28,187.55 L131.03,188.13 L132.78,188.71 L134.52,189.29 L136.27,189.88 L138.02,190.46 L139.76,191.04 L141.51,191.62 L143.26,192.21 L145.00,192.79 L146.75,193.37 L148.50,193.95 L150.25,194.53 L151.99,195.12 L153.74,195.70 L155.49,196.28 L157.23,196.86 L158.98,197.45 L160.73,198.03 L162.47,198.61 L164.22,199.19 L165.97,199.78 L167.72,200.36 L169.46,200.94 L171.21,201.52 L172.96,202.11 L174.70,202.69 L176.45,203.27 L178.20,203.85 L179.95,204.43 L181.69,205.02 L183.44,205.60 L185.19,206.18 L186.93,206.76 L188.68,207.35 L190.43,207.93 L192.17,208.51 L193.92,209.09 L195.67,209.68 L197.42,210.26 L199.16,210.84 L200.91,211.42 L202.66,212.01 L204.40,212.59 L206.15,213.17 L207.90,213.75 L209.65,214.33 L211.39,214.92 L213.14,215.50 L214.89,216.08 L216.63,216.66 L218.38,217.25 L220.13,217.83 L221.87,218.41 L223.62,218.99 L225.37,219.58 L227.12,220.16 L228.86,220.74 L230.61,221.32 L232.36,221.90 L234.10,222.49 L235.85,223.07 L237.60,223.65 L239.34,224.23 L241.09,224.82 L242.84,225.40 L244.59,225.98 L246.33,226.56 L248.08,227.15 L249.83,227.73 L251.57,228.31 L253.32,228.89 L255.07,229.48 L256.82,230.06 L258.56,230.64 L260.31,231.22 L262.06,231.80 L263.80,232.39 L265.55,232.97 L267.30,233.55 L269.04,234.13 L270.79,234.72 L272.54,235.30 L274.29,235.88 L276.03,236.46 L277.78,237.05 L279.53,237.63 L281.27,238.21 L283.02,238.79 L284.77,239.38 L286.52,239.96 L288.26,240.54 L290.01,241.12 L291.76,241.70 L293.50,242.29 L295.25,242.87 L297.00,243.45 L298.74,244.03 L300.49,244.62 L302.24,245.20 L303.99,245.78 L305.73,246.36 L307.48,246.95 L309.23,247.53 L310.97,248.11 L312.72,248.69 L314.47,249.28 L316.21,249.86 L317.96,250.44 L319.71,251.02 L321.46,251.60 L323.20,252.19 L324.95,252.77 L326.70,253.35 L328.44,253.93 L330.19,254.52 L331.94,255.10 L333.69,255.68 L335.43,256.26 L337.18,256.85 L338.93,257.43 L340.67,258.01 L342.42,258.59 L344.17,259.18 L345.91,259.76 L347.66,260.34 L349.41,260.92 L351.16,261.50 L352.90,262.09 L354.65,262.67 L356.40,263.25 L358.14,263.83 L359.89,264.42 L361.64,265.00 L363.38,265.58 L365.13,266.16 L366.88,266.75 L368.63,267.33 L370.37,267.91 L372.12,268.49 L373.87,269.08 L375.61,269.66 L377.36,270.24 L379.11,270.82 L380.86,271.40 L382.60,271.99 L384.35,272.57 L386.10,273.15 L387.84,273.73 L389.59,274.32 L391.34,274.90 L393.08,275.48 L394.83,276.06 L396.58,276.65 L398.33,277.23 L400.07,277.81 L401.82,278.39 L403.57,278.98 L405.31,279.56 L407.06,280.14 L408.81,280.72 L410.56,281.30 L412.30,281.89 L414.05,282.47 L415.80,283.05 L417.54,283.63 L419.29,284.22 L421.04,284.80 L422.78,285.38 L424.53,285.96 L426.28,286.55 L428.03,287.13 L429.77,287.71 L431.52,288.29 L433.27,288.87 L435.01,289.46 L436.76,290.04 L438.51,290.62 L440.25,291.20 L442.00,291.79 L443.75,292.37 L445.50,292.95 L447.24,293.53 L448.99,294.12 L450.74,294.70 L452.48,295.28 L454.23,295.86 L455.98,296.45 L457.73,297.03 L459.47,297.61 L461.22,298.19 L462.97,298.77 L464.71,299.36 L466.46,299.94 L468.21,300.52 L469.95,301.10 L471.70,301.69 L473.45,302.27 L475.20,302.85 L476.94,303.43 L478.69,304.02 L480.44,304.60 L482.18,305.18 L483.93,305.76 L485.68,306.35 L487.42,306.93 L489.17,307.51 L490.92,308.09 L492.67,308.67 L494.41,309.26 L496.16,309.84 L497.91,310.42 L499.65,311.00 L501.40,311.59 L503.15,312.17 L504.90,312.75 L506.64,313.33 L508.39,313.92 L510.14,314.50 L511.88,315.08 L513.63,315.66 L515.38,316.25 L517.12,316.83 L518.87,317.41 L520.62,317.99 L522.37,318.57 L524.11,319.16 L525.86,319.74 L527.61,320.32 L529.35,320.90 L531.10,321.49 L532.85,322.07 L534.60,322.65 L536.34,323.23 L538.09,323.82 L539.84,324.40 L541.58,324.98 L543.33,325.56 L545.08,326.15 L546.82,326.73 L548.57,327.31 L550.32,327.89 L552.07,328.47 L553.81,329.06 L555.56,329.64 L557.31,330.22 L559.05,330.80 L560.80,331.39 L562.55,331.97 L564.29,332.55 L566.04,333.13 L567.79,333.72 L569.54,334.30 L571.28,334.88 L573.03,335.46 L574.78,336.05 L576.52,336.63 L578.27,337.21 L580.02,337.79 L581.77,338.37 L583.51,338.96 L585.26,339.54 L587.01,340.12 L588.75,340.70 L590.50,341.29 L592.25,341.87 L593.99,342.45 L595.74,343.03 L597.49,343.62 L599.24,344.20 L600.98,344.78 L602.73,345.36 L604.48,345.94 L606.22,346.53 L607.97,347.11 L609.72,347.69 L611.46,348.27 L613.21,348.86 L614.96,349.44 L616.71,350.02 L618.45,350.60 L620.20,351.19 L621.95,351.77 L623.69,352.35 L625.44,352.93 L627.19,353.52 L628.94,354.10 L630.68,354.68 L632.43,355.26 L634.18,355.84 L635.92,356.43 L637.67,357.01 L639.42,357.59 L641.16,358.17 L642.91,358.76 L644.66,359.34 L646.41,359.92 L648.15,360.50 L649.90,361.09 L651.65,361.67 L653.39,362.25 L655.14,362.83 L656.89,363.42 L658.64,364.00 L660.38,364.58 L662.13,365.16 L663.88,365.74 L665.62,366.33 L667.37,366.91 L669.12,367.49 L670.86,368.07 L672.61,368.66 L674.36,369.24 L676.11,369.82 L677.85,370.40 L679.60,370.99 L681.35,371.57 L683.09,372.15 L684.84,372.73 L686.59,373.32 L688.33,373.90 L690.08,374.48 L691.83,375.06 L693.58,375.64 L695.32,376.23 L697.07,376.81 L698.82,377.39 L700.56,377.97 L702.31,378.56 L704.06,379.14 L705.81,379.72 L707.55,380.30 L709.30,380.89 L711.05,381.47 L712.79,382.05 L714.54,382.63 L716.29,383.22 L718.03,383.80 L719.78,384.38 L721.53,384.96 L723.28,385.54 L725.02,386.13 L726.77,386.71 L728.52,387.29 L730.26,387.87 L732.01,388.46 L733.76,389.04 L735.51,389.62 L737.25,390.20 L739.00,390.79 L740.75,391.37 L742.49,391.95 L744.24,392.53 L745.99,393.12 L747.73,393.70 L749.48,394.28 L751.23,394.86 L752.98,395.44 L754.72,396.03 L756.47,396.61 L758.22,397.19 L759.96,397.77 L761.71,398.36 L763.46,398.94 L765.20,399.52 L766.95,400.10 L768.70,400.69 L770.45,401.27 L772.19,401.85 L773.94,402.43 L775.69,403.02 L777.43,403.60 L779.18,404.18 L780.93,404.76 L782.68,405.34 L784.42,405.93 L786.17,406.51 L787.92,407.09 L789.66,407.67 L791.41,408.26 L793.16,408.84 L794.90,409.42 L796.65,410.00 L798.40,410.59 L800.15,411.17 L801.89,411.75 L803.64,412.33 L805.39,412.91 L807.13,413.50 L808.88,414.08 L810.63,414.66 L812.37,415.24 L814.12,415.83 L815.87,416.41 L817.62,416.99 L819.36,417.57 L821.11,418.16 L822.86,418.74 L824.60,419.32 L826.35,419.90 L828.10,420.49 L829.85,421.07 L831.59,421.65 L833.34,422.23 L835.09,422.81 L836.83,423.40 L838.58,423.98 L840.33,424.56 L842.07,425.14 L843.82,425.73 L845.57,426.31 L847.32,426.89 L849.06,427.47 L850.81,428.06 L852.56,428.64 L854.30,429.22 L856.05,429.80 L857.80,430.39 L859.55,430.97 L861.29,431.55 L863.04,432.13 L864.79,432.71 L866.53,433.30 L868.28,433.88 L870.03,434.46 L871.77,435.04 L873.52,435.63 L875.27,436.21 L877.02,436.79 L878.76,437.37 L880.51,437.96 L882.26,438.54 L884.00,439.12 L885.75,439.70 L887.50,440.29 L889.24,440.87 L890.99,441.45 L892.74,442.03 L894.49,442.61 L896.23,443.20 L897.98,443.78 L899.73,444.36 L901.47,444.94 L903.22,445.53 L904.97,446.11 L906.72,446.69 L908.46,447.27 L910.21,447.86 L911.96,448.44 L913.70,449.02 L915.45,449.60 L917.20,450.19 L918.94,450.77 L920.69,451.35 L922.44,451.93 L924.19,452.51 L925.93,453.10 L927.68,453.68 L929.43,454.26 L931.17,454.84 L932.92,455.43 L934.67,456.01 L936.41,456.59 L938.16,457.17 L939.91,457.76 L941.66,458.34 L943.40,458.92 L945.15,459.50 L946.90,460.09 L948.64,460.67 L950.39,461.25 L952.14,461.83 L953.89,462.41 L955.63,463.00 L957.38,463.58 L959.13,464.16 L960.87,464.74 L962.62,465.33 L964.37,465.91 L966.11,466.49 L967.86,467.07 L969.61,467.66 L971.36,468.24 L973.10,468.82 L974.85,469.40 L976.60,469.99 L978.34,470.57 L980.09,471.15 L981.84,471.73 L983.59,472.31 L985.33,472.90 L987.08,473.48 L988.83,474.06 L990.57,474.64 L992.32,475.23 L994.07,475.81 L995.81,476.39 L997.56,476.97 L999.31,477.56 L1001.06,478.14 L1002.80,478.72 L1004.55,479.30 L1006.30,479.88 L1008.04,480.47 L1009.79,481.05 L1011.54,481.63 L1013.28,482.21 L1015.03,482.80 L1016.78,483.38 L1018.53,483.96 L1020.27,484.54 L1022.02,485.13 L1023.77,485.71 L1025.51,486.29 L1027.26,486.87 L1029.01,487.46 L1030.76,488.04 L1032.50,488.62 L1034.25,489.20 L1036.00,489.78 L1037.74,490.37 L1039.49,490.95 L1041.24,491.53 L1042.98,492.11 L1044.73,492.70 L1046.48,493.28 L1048.23,493.86 L1049.97,494.44 L1051.72,495.03 L1053.47,495.61 L1055.21,496.19 L1056.96,496.77 L1058.71,497.36 L1060.45,497.94 L1062.20,498.52 L1063.95,499.10 L1065.70,499.68 L1067.44,500.27 L1069.19,500.85 L1070.94,501.43 L1072.68,502.01 L1074.43,502.60 L1076.18,503.18 L1077.93,503.76 L1079.67,504.34 L1081.42,504.93 L1083.17,505.51 L1084.91,506.09 L1086.66,506.67 L1088.41,507.26 L1090.15,507.84 L1091.90,508.42 L1093.65,509.00 L1095.40,509.58 L1097.14,510.17 L1098.89,510.75 L1100.64,511.33 L1102.38,511.91 L1104.13,512.50 L1105.88,513.08 L1107.63,513.66 L1109.37,514.24 L1111.12,514.83 L1112.87,515.41 L1114.61,515.99 L1116.36,516.57 L1118.11,517.16 L1119.85,517.74 L1121.60,518.32 L1123.35,518.90 L1125.10,519.48 L1126.84,520.07 L1128.59,520.65 L1130.34,521.23 L1132.08,521.81 L1133.83,522.40 L1135.58,522.98 L1137.32,523.56 L1139.07,524.14 L1140.82,524.73 L1142.57,525.31 L1144.31,525.89 L1146.06,526.47 L1147.81,527.06 L1149.55,527.64 L1151.30,528.22 L1153.05,528.80 L1154.80,529.38 L1156.54,529.97 L1158.29,530.55 L1160.04,531.13 L1161.78,531.71 L1163.53,532.30 L1165.28,532.88 L1167.02,533.46 L1168.77,534.04 L1170.52,534.63 L1172.27,535.21 L1174.01,535.79 L1175.76,536.37 L1177.51,536.96 L1179.25,537.54 L1181.00,538.12 L1182.75,538.70 L1184.49,539.28 L1186.24,539.87 L1187.99,540.45 L1189.74,541.03 L1191.48,541.61 L1193.23,542.20 L1194.98,542.78 L1196.72,543.36 L1198.47,543.94 L1200.22,544.53 L1201.97,545.11 L1203.71,545.69 L1205.46,546.27 L1207.21,546.85 L1208.95,547.44 L1210.70,548.02 L1212.45,548.60 L1214.19,549.18 L1215.94,549.77 L1217.69,550.35 L1219.44,550.93 L1221.18,551.51 L1222.93,552.10 L1224.68,552.68 L1226.42,553.26 L1228.17,553.84 L1229.92,554.43 L1231.67,555.01 L1233.41,555.59 L1235.16,556.17 L1236.91,556.75 L1238.65,557.34 L1240.40,557.92 L1242.15,558.50 L1243.89,559.08 L1245.64,559.67 L1247.39,560.25 L1249.14,560.83 L1250.88,561.41 L1252.63,562.00 L1254.38,562.58 L1256.12,563.16 L1257.87,563.74 L1259.62,564.33 L1261.36,564.91 L1263.11,565.49 L1264.86,566.07 L1266.61,566.65 L1268.35,567.24 L1270.10,567.82 L1271.85,568.40 L1273.59,568.98 L1275.34,569.57 L1277.09,570.15 L1278.84,570.73 L1280.58,571.31 L1282.33,571.90 L1284.08,572.48 L1285.82,573.06 L1287.57,573.64 L1289.32,574.23 L1291.06,574.81 L1292.81,575.39 L1294.56,575.97 L1296.31,576.55 L1298.05,577.14 L1299.80,577.72 L1301.55,578.30 L1303.29,578.88 L1305.04,579.47 L1306.79,580.05 L1308.54,580.63 L1310.28,581.21 L1312.03,581.80 L1313.78,582.38 L1315.52,582.96 L1317.27,583.54 L1319.02,584.13 L1320.76,584.71 L1322.51,585.29 L1324.26,585.87 L1326.01,586.45 L1327.75,587.04 L1329.50,587.62 L1331.25,588.20 L1332.99,588.78 L1334.74,589.37 L1336.49,589.95 L1338.23,590.53 L1339.98,591.11 L1341.73,591.70 L1343.48,592.28 L1345.22,592.86 L1346.97,593.44 L1348.72,594.03 L1350.46,594.61 L1352.21,595.19 L1353.96,595.77 L1355.71,596.35 L1357.45,596.94 L1359.20,597.52 L1360.95,598.10 L1362.69,598.68 L1364.44,599.27 L1366.19,599.85 L1367.93,600.43 L1369.68,601.01 L1371.43,601.60 L1373.18,602.18 L1374.92,602.76 L1376.67,603.34 L1378.42,603.92 L1380.16,604.51 L1381.91,605.09 L1383.66,605.67 L1385.40,606.25 L1387.15,606.84 L1388.90,607.42 L1390.65,608.00 L1392.39,608.58 L1394.14,609.17 L1395.89,609.75 L1397.63,610.33 L1399.38,610.91 L1401.13,611.50 L1402.88,612.08 L1404.62,612.66 L1406.37,613.24 L1408.12,613.82 L1409.86,614.41 L1411.61,614.99 L1413.36,615.57 L1415.10,616.15 L1416.85,616.74 L1418.60,617.32 L1420.35,617.90 L1422.09,618.48 L1423.84,619.07 L1425.59,619.65 L1427.33,620.23 L1429.08,620.81 L1430.83,621.40 L1432.58,621.98 L1434.32,622.56 L1436.07,623.14 L1437.82,623.72 L1439.56,624.31 L1441.31,624.89 L1443.06,625.47 L1444.80,626.05 L1446.55,626.64 L1448.30,627.22 L1450.05,627.80 L1451.79,628.38 L1453.54,628.97 L1455.29,629.55 L1457.03,630.13 L1458.78,630.71 L1460.53,631.30 L1462.27,631.88 L1464.02,632.46 L1465.77,633.04 L1467.52,633.62 L1469.26,634.21 L1471.01,634.79 L1472.76,635.37 L1474.50,635.95 L1476.25,636.54 L1478.00,637.12 L1479.75,637.70 L1481.49,638.28 L1483.24,638.87 L1484.99,639.45 L1486.73,640.03 L1488.48,640.61 L1490.23,641.20 L1491.97,641.78 L1493.72,642.36 L1495.47,642.94 L1497.22,643.52 L1498.96,644.11 L1500.71,644.69 L1502.46,645.27 L1504.20,645.85 L1505.95,646.44 L1507.70,647.02 L1509.44,647.60 L1511.19,648.18 L1512.94,648.77 L1514.69,649.35 L1516.43,649.93 L1518.18,650.51 L1519.93,651.10 L1521.67,651.68 L1523.42,652.26 L1525.17,652.84 L1526.92,653.42 L1528.66,654.01 L1530.41,654.59 L1532.16,655.17 L1533.90,655.75 L1535.65,656.34 L1537.40,656.92 L1539.14,657.50 L1540.89,658.08 L1542.64,658.67 L1544.39,659.25 L1546.13,659.83 L1547.88,660.41 L1549.63,661.00 L1551.37,661.58 L1553.12,662.16 L1554.87,662.74 L1556.62,663.32 L1558.36,663.91 L1560.11,664.49 L1561.86,665.07 L1563.60,665.65 L1565.35,666.24 L1567.10,666.82 L1568.84,667.40 L1570.59,667.98 L1572.34,668.57 L1574.09,669.15 L1575.83,669.73 L1577.58,670.31 L1579.33,670.89 L1581.07,671.48 L1582.82,672.06 L1584.57,672.64 L1586.31,673.22 L1588.06,673.81 L1589.81,674.39 L1591.56,674.97 L1593.30,675.55 L1595.05,676.14 L1596.80,676.72 L1598.54,677.30 L1600.29,677.88 L1602.04,678.47 L1603.79,679.05 L1605.53,679.63 L1607.28,680.21 L1609.03,680.79 L1610.77,681.38 L1612.52,681.96 L1614.27,682.54 L1616.01,683.12 L1617.76,683.71 L1619.51,684.29 L1621.26,684.87 L1623.00,685.45 L1624.75,686.04 L1626.50,686.62 L1628.24,687.20 L1629.99,687.78 L1631.74,688.37 L1633.48,688.95 L1635.23,689.53 L1636.98,690.11 L1638.73,690.69 L1640.47,691.28 L1642.22,691.86 L1643.97,692.44 L1645.71,693.02 L1647.46,693.61 L1649.21,694.19 L1650.96,694.77 L1652.70,695.35 L1654.45,695.94 L1656.20,696.52 L1657.94,697.10 L1659.69,697.68 L1661.44,698.27 L1663.18,698.85 L1664.93,699.43 L1666.68,700.01 L1668.43,700.59 L1670.17,701.18 L1671.92,701.76 L1673.67,702.34 L1675.41,702.92 L1677.16,703.51 L1678.91,704.09 L1680.66,704.67 L1682.40,705.25 L1684.15,705.84 L1685.90,706.42 L1687.64,707.00 L1689.39,707.58 L1691.14,708.17 L1692.88,708.75 L1694.63,709.33 L1696.38,709.91 L1698.13,710.49 L1699.87,711.08 L1701.62,711.66 L1703.37,712.24 L1705.11,712.82 L1706.86,713.41 L1708.61,713.99 L1710.35,714.57 L1712.10,715.15 L1713.85,715.74 L1715.60,716.32 L1717.34,716.90 L1719.09,717.48 L1720.84,718.07 L1722.58,718.65 L1724.33,719.23 L1726.08,719.81 L1727.83,720.39 L1729.57,720.98 L1731.32,721.56 L1733.07,722.14 L1734.81,722.72 L1736.56,723.31 L1738.31,723.89 L1740.05,724.47 L1741.80,725.05 L1743.55,725.64 L1745.30,726.22 L1747.04,726.80 L1748.79,727.38 L1750.54,727.97 L1752.28,728.55 L1754.03,729.13 L1755.78,729.71 L1757.53,730.29 L1759.27,730.88 L1761.02,731.46 L1762.77,732.04 L1764.51,732.62 L1766.26,733.21 L1768.01,733.79 L1769.75,734.37 L1771.50,734.95 L1773.25,735.54 L1775.00,736.12 L1776.74,736.70 L1778.49,737.28 L1780.24,737.86 L1781.98,738.45 L1783.73,739.03 L1785.48,739.61 L1787.22,740.19 L1788.97,740.78 L1790.72,741.36 L1792.47,741.94 L1794.21,742.52 L1795.96,743.11 L1797.71,743.69 L1799.45,744.27 L1801.20,744.85 L1802.95,745.44 L1804.70,746.02 L1806.44,746.60 L1808.19,747.18 L1809.94,747.76 L1811.68,748.35 L1813.43,748.93 L1815.18,749.51 L1816.92,750.09 L1818.67,750.68 L1820.42,751.26 L1822.17,751.84 L1823.91,752.42 L1825.66,753.01 L1827.41,753.59 L1829.15,754.17 L1830.90,754.75 L1832.65,755.34 L1834.39,755.92 L1836.14,756.50 L1837.89,757.08 L1839.64,757.66 L1841.38,758.25 L1843.13,758.83 L1844.88,759.41 L1846.62,759.99 L1848.37,760.58 L1850.12,761.16 L1851.87,761.74 L1853.61,762.32 L1855.36,762.91 L1857.11,763.49 L1858.85,764.07 L1860.60,764.65 L1862.35,765.24 L1864.09,765.82 L1865.84,766.40 L1867.59,766.98 L1869.34,767.56 L1871.08,768.15 L1872.83,768.73 L1874.58,769.31 L1876.32,769.89 L1878.07,770.48 L1879.82,771.06 L1881.57,771.64 L1883.31,772.22 L1885.06,772.81 L1886.81,773.39 L1888.55,773.97 L1890.30,774.55 L1892.05,775.14 L1893.79,775.72 L1895.54,776.30 L1897.29,776.88 L1899.04,777.46 L1900.78,778.05 L1902.53,778.63 L1904.28,779.21 L1906.02,779.79 L1907.77,780.38 L1909.52,780.96 L1911.26,781.54 L1913.01,782.12 L1914.76,782.71 L1916.51,783.29 L1918.25,783.87 L1920.00,784.45" style="stroke-width: 28; stroke: rgb(74, 144, 226)"/>
        <path onclick="onClickEvent(evt)" id="7-2-line-2" d=" M0.00,1189.00 L1.75,1187.25 L3.49,1185.50 L5.24,1183.75 L6.99,1182.01 L8.74,1180.26 L10.48,1178.51 L12.23,1176.77 L13.98,1175.02 L15.72,1173.27 L17.47,1171.53 L19.22,1169.78 L20.96,1168.03 L22.71,1166.28 L24.46,1164.54 L26.21,1162.79 L27.95,1161.04 L29.70,1159.30 L31.45,1157.55 L33.19,1155.80 L34.94,1154.05 L36.69,1152.31 L38.43,1150.56 L40.18,1148.81 L41.93,1147.07 L43.68,1145.32 L45.42,1143.57 L47.17,1141.83 L48.92,1140.08 L50.66,1138.33 L52.41,1136.58 L54.16,1134.84 L55.91,1133.09 L57.65,1131.34 L59.40,1129.60 L61.15,1127.85 L62.89,1126.10 L64.64,1124.35 L66.39,1122.61 L68.13,1120.86 L69.88,1119.11 L71.63,1117.37 L73.38,1115.62 L75.12,1113.87 L76.87,1112.13 L78.62,1110.38 L80.36,1108.63 L82.11,1106.88 L83.86,1105.14 L85.61,1103.39 L87.35,1101.64 L89.10,1099.90 L90.85,1098.15 L92.59,1096.40 L94.34,1094.66 L96.09,1092.91 L97.83,1091.16 L99.58,1089.41 L101.33,1087.67 L103.08,1085.92 L104.82,1084.17 L106.57,1082.43 L108.32,1080.68 L110.06,1078.93 L111.81,1077.18 L113.56,1075.44 L115.30,1073.69 L117.05,1071.94 L118.80,1070.20 L120.55,1068.45 L122.29,1066.70 L124.04,1064.96 L125.79,1063.21 L127.53,1061.46 L129.28,1059.71 L131.03,1057.97 L132.78,1056.22 L134.52,1054.47 L136.27,1052.73 L138.02,1050.98 L139.76,1049.23 L141.51,1047.49 L143.26,1045.74 L145.00,1043.99 L146.75,1042.24 L148.50,1040.50 L150.25,1038.75 L151.99,1037.00 L153.74,1035.26 L155.49,1033.51 L157.23,1031.76 L158.98,1030.01 L160.73,1028.27 L162.47,1026.52 L164.22,1024.77 L165.97,1023.03 L167.72,1021.28 L169.46,1019.53 L171.21,1017.79 L172.96,1016.04 L174.70,1014.29 L176.45,1012.54 L178.20,1010.80 L179.95,1009.05 L181.69,1007.30 L183.44,1005.56 L185.19,1003.81 L186.93,1002.06 L188.68,1000.31 L190.43,998.57 L192.17,996.82 L193.92,995.07 L195.67,993.33 L197.42,991.58 L199.16,989.83 L200.91,988.09 L202.66,986.34 L204.40,984.59 L206.15,982.84 L207.90,981.10 L209.65,979.35 L211.39,977.60 L213.14,975.86 L214.89,974.11 L216.63,972.36 L218.38,970.62 L220.13,968.87 L221.87,967.12 L223.62,965.37 L225.37,963.63 L227.12,961.88 L228.86,960.13 L230.61,958.39 L232.36,956.64 L234.10,954.89 L235.85,953.14 L237.60,951.40 L239.34,949.65 L241.09,947.90 L242.84,946.16 L244.59,944.41 L246.33,942.66 L248.08,940.92 L249.83,939.17 L251.57,937.42 L253.32,935.67 L255.07,933.93 L256.82,932.18 L258.56,930.43 L260.31,928.69 L262.06,926.94 L263.80,925.19 L265.55,923.44 L267.30,921.70 L269.04,919.95 L270.79,918.20 L272.54,916.46 L274.29,914.71 L276.03,912.96 L277.78,911.22 L279.53,909.47 L281.27,907.72 L283.02,905.97 L284.77,904.23 L286.52,902.48 L288.26,900.73 L290.01,898.99 L291.76,897.24 L293.50,895.49 L295.25,893.75 L297.00,892.00 L298.74,890.25 L300.49,888.50 L302.24,886.76 L303.99,885.01 L305.73,883.26 L307.48,881.52 L309.23,879.77 L310.97,878.02 L312.72,876.27 L314.47,874.53 L316.21,872.78 L317.96,871.03 L319.71,869.29 L321.46,867.54 L323.20,865.79 L324.95,864.05 L326.70,862.30 L328.44,860.55 L330.19,858.80 L331.94,857.06 L333.69,855.31 L335.43,853.56 L337.18,851.82 L338.93,850.07 L340.67,848.32 L342.42,846.58 L344.17,844.83 L345.91,843.08 L347.66,841.33 L349.41,839.59 L351.16,837.84 L352.90,836.09 L354.65,834.35 L356.40,832.60 L358.14,830.85 L359.89,829.10 L361.64,827.36 L363.38,825.61 L365.13,823.86 L366.88,822.12 L368.63,820.37 L370.37,818.62 L372.12,816.88 L373.87,815.13 L375.61,813.38 L377.36,811.63 L379.11,809.89 L380.86,808.14 L382.60,806.39 L384.35,804.65 L386.10,802.90 L387.84,801.15 L389.59,799.40 L391.34,797.66 L393.08,795.91 L394.83,794.16 L396.58,792.42 L398.33,790.67 L400.07,788.92 L401.82,787.18 L403.57,785.43 L405.31,783.68 L407.06,781.93 L408.81,780.19 L410.56,778.44 L412.30,776.69 L414.05,774.95 L415.80,773.20 L417.54,771.45 L419.29,769.71 L421.04,767.96 L422.78,766.21 L424.53,764.46 L426.28,762.72 L428.03,760.97 L429.77,759.22 L431.52,757.48 L433.27,755.73 L435.01,753.98 L436.76,752.23 L438.51,750.49 L440.25,748.74 L442.00,746.99 L443.75,745.25 L445.50,743.50 L447.24,741.75 L448.99,740.01 L450.74,738.26 L452.48,736.51 L454.23,734.76 L455.98,733.02 L457.73,731.27 L459.47,729.52 L461.22,727.78 L462.97,726.03 L464.71,724.28 L466.46,722.54 L468.21,720.79 L469.95,719.04 L471.70,717.29 L473.45,715.55 L475.20,713.80 L476.94,712.05 L478.69,710.31 L480.44,708.56 L482.18,706.81 L483.93,705.06 L485.68,703.32 L487.42,701.57 L489.17,699.82 L490.92,698.08 L492.67,696.33 L494.41,694.58 L496.16,692.84 L497.91,691.09 L499.65,689.34 L501.40,687.59 L503.15,685.85 L504.90,684.10 L506.64,682.35 L508.39,680.61 L510.14,678.86 L511.88,677.11 L513.63,675.36 L515.38,673.62 L517.12,671.87 L518.87,670.12 L520.62,668.38 L522.37,666.63 L524.11,664.88 L525.86,663.14 L527.61,661.39 L529.35,659.64 L531.10,657.89 L532.85,656.15 L534.60,654.40 L536.34,652.65 L538.09,650.91 L539.84,649.16 L541.58,647.41 L543.33,645.67 L545.08,643.92 L546.82,642.17 L548.57,640.42 L550.32,638.68 L552.07,636.93 L553.81,635.18 L555.56,633.44 L557.31,631.69 L559.05,629.94 L560.80,628.19 L562.55,626.45 L564.29,624.70 L566.04,622.95 L567.79,621.21 L569.54,619.46 L571.28,617.71 L573.03,615.97 L574.78,614.22 L576.52,612.47 L578.27,610.72 L580.02,608.98 L581.77,607.23 L583.51,605.48 L585.26,603.74 L587.01,601.99 L588.75,600.24 L590.50,598.50 L592.25,596.75 L593.99,595.00 L595.74,593.25 L597.49,591.51 L599.24,589.76 L600.98,588.01 L602.73,586.27 L604.48,584.52 L606.22,582.77 L607.97,581.02 L609.72,579.28 L611.46,577.53 L613.21,575.78 L614.96,574.04 L616.71,572.29 L618.45,570.54 L620.20,568.80 L621.95,567.05 L623.69,565.30 L625.44,563.55 L627.19,561.81 L628.94,560.06 L630.68,558.31 L632.43,556.57 L634.18,554.82 L635.92,553.07 L637.67,551.32 L639.42,549.58 L641.16,547.83 L642.91,546.08 L644.66,544.34 L646.41,542.59 L648.15,540.84 L649.90,539.10 L651.65,537.35 L653.39,535.60 L655.14,533.85 L656.89,532.11 L658.64,530.36 L660.38,528.61 L662.13,526.87 L663.88,525.12 L665.62,523.37 L667.37,521.63 L669.12,519.88 L670.86,518.13 L672.61,516.38 L674.36,514.64 L676.11,512.89 L677.85,511.14 L679.60,509.40 L681.35,507.65 L683.09,505.90 L684.84,504.15 L686.59,502.41 L688.33,500.66 L690.08,498.91 L691.83,497.17 L693.58,495.42 L695.32,493.67 L697.07,491.93 L698.82,490.18 L700.56,488.43 L702.31,486.68 L704.06,484.94 L705.81,483.19 L707.55,481.44 L709.30,479.70 L711.05,477.95 L712.79,476.20 L714.54,474.45 L716.29,472.71 L718.03,470.96 L719.78,469.21 L721.53,467.47 L723.28,465.72 L725.02,463.97 L726.77,462.23 L728.52,460.48 L730.26,458.73 L732.01,456.98 L733.76,455.24 L735.51,453.49 L737.25,451.74 L739.00,450.00 L740.75,448.25 L742.49,446.50 L744.24,444.76 L745.99,443.01 L747.73,441.26 L749.48,439.51 L751.23,437.77 L752.98,436.02 L754.72,434.27 L756.47,432.53 L758.22,430.78 L759.96,429.03 L761.71,427.28 L763.46,425.54 L765.20,423.79 L766.95,422.04 L768.70,420.30 L770.45,418.55 L772.19,416.80 L773.94,415.06 L775.69,413.31 L777.43,411.56 L779.18,409.81 L780.93,408.07 L782.68,406.32 L784.42,404.57 L786.17,402.83 L787.92,401.08 L789.66,399.33 L791.41,397.59 L793.16,395.84 L794.90,394.09 L796.65,392.34 L798.40,390.60 L800.15,388.85 L801.89,387.10 L803.64,385.36 L805.39,383.61 L807.13,381.86 L808.88,380.11 L810.63,378.37 L812.37,376.62 L814.12,374.87 L815.87,373.13 L817.62,371.38 L819.36,369.63 L821.11,367.89 L822.86,366.14 L824.60,364.39 L826.35,362.64 L828.10,360.90 L829.85,359.15 L831.59,357.40 L833.34,355.66 L835.09,353.91 L836.83,352.16 L838.58,350.41 L840.33,348.67 L842.07,346.92 L843.82,345.17 L845.57,343.43 L847.32,341.68 L849.06,339.93 L850.81,338.19 L852.56,336.44 L854.30,334.69 L856.05,332.94 L857.80,331.20 L859.55,329.45 L861.29,327.70 L863.04,325.96 L864.79,324.21 L866.53,322.46 L868.28,320.72 L870.03,318.97 L871.77,317.22 L873.52,315.47 L875.27,313.73 L877.02,311.98 L878.76,310.23 L880.51,308.49 L882.26,306.74 L884.00,304.99 L885.75,303.24 L887.50,301.50 L889.24,299.75 L890.99,298.00 L892.74,296.26 L894.49,294.51 L896.23,292.76 L897.98,291.02 L899.73,289.27 L901.47,287.52 L903.22,285.77 L904.97,284.03 L906.72,282.28 L908.46,280.53 L910.21,278.79 L911.96,277.04 L913.70,275.29 L915.45,273.55 L917.20,271.80 L918.94,270.05 L920.69,268.30 L922.44,266.56 L924.19,264.81 L925.93,263.06 L927.68,261.32 L929.43,259.57 L931.17,257.82 L932.92,256.07 L934.67,254.33 L936.41,252.58 L938.16,250.83 L939.91,249.09 L941.66,247.34 L943.40,245.59 L945.15,243.85 L946.90,242.10 L948.64,240.35 L950.39,238.60 L952.14,236.86 L953.89,235.11 L955.63,233.36 L957.38,231.62 L959.13,229.87 L960.87,228.12 L962.62,226.37 L964.37,224.63 L966.11,222.88 L967.86,221.13 L969.61,219.39 L971.36,217.64 L973.10,215.89 L974.85,214.15 L976.60,212.40 L978.34,210.65 L980.09,208.90 L981.84,207.16 L983.59,205.41 L985.33,203.66 L987.08,201.92 L988.83,200.17 L990.57,198.42 L992.32,196.68 L994.07,194.93 L995.81,193.18 L997.56,191.43 L999.31,189.69 L1001.06,187.94 L1002.80,186.19 L1004.55,184.45 L1006.30,182.70 L1008.04,180.95 L1009.79,179.20 L1011.54,177.46 L1013.28,175.71 L1015.03,173.96 L1016.78,172.22 L1018.53,170.47 L1020.27,168.72 L1022.02,166.98 L1023.77,165.23 L1025.51,163.48 L1027.26,161.73 L1029.01,159.99 L1030.76,158.24 L1032.50,156.49 L1034.25,154.75 L1036.00,153.00 L1037.74,151.25 L1039.49,149.51 L1041.24,147.76 L1042.98,146.01 L1044.73,144.26 L1046.48,142.52 L1048.23,140.77 L1049.97,139.02 L1051.72,137.28 L1053.47,135.53 L1055.21,133.78 L1056.96,132.03 L1058.71,130.29 L1060.45,128.54 L1062.20,126.79 L1063.95,125.05 L1065.70,123.30 L1067.44,121.55 L1069.19,119.81 L1070.94,118.06 L1072.68,116.31 L1074.43,114.56 L1076.18,112.82 L1077.93,111.07 L1079.67,109.32 L1081.42,107.58 L1083.17,105.83 L1084.91,104.08 L1086.66,102.33 L1088.41,100.59 L1090.15,98.84 L1091.90,97.09 L1093.65,95.35 L1095.40,93.60 L1097.14,91.85 L1098.89,90.11 L1100.64,88.36 L1102.38,86.61 L1104.13,84.86 L1105.88,83.12 L1107.63,81.37 L1109.37,79.62 L1111.12,77.88 L1112.87,76.13 L1114.61,74.38 L1116.36,72.64 L1118.11,70.89 L1119.85,69.14 L1121.60,67.39 L1123.35,65.65 L1125.10,63.90 L1126.84,62.15 L1128.59,60.41 L1130.34,58.66 L1132.08,56.91 L1133.83,55.16 L1135.58,53.42 L1137.32,51.67 L1139.07,49.92 L1140.82,48.18 L1142.57,46.43 L1144.31,44.68 L1146.06,42.94 L1147.81,41.19 L1149.55,39.44 L1151.30,37.69 L1153.05,35.95 L1154.80,34.20 L1156.54,32.45 L1158.29,30.71 L1160.04,28.96 L1161.78,27.21 L1163.53,25.46 L1165.28,23.72 L1167.02,21.97 L1168.77,20.22 L1170.52,18.48 L1172.27,16.73 L1174.01,14.98 L1175.76,13.24 L1177.51,11.49 L1179.25,9.74 L1181.00,7.99 L1182.75,6.25 L1184.49,4.50 L1186.24,2.75 L1187.99,1.01 L1189.74,-0.74 L1191.48,-2.49 L1193.23,-4.23 L1194.98,-5.98 L1196.72,-7.73 L1198.47,-9.48 L1200.22,-11.22 L1201.97,-12.97 L1203.71,-14.72 L1205.46,-16.46 L1207.21,-18.21 L1208.95,-19.96 L1210.70,-21.71 L1212.45,-23.45 L1214.19,-25.20 L1215.94,-26.95 L1217.69,-28.69 L1219.44,-30.44 L1221.18,-32.19 L1222.93,-33.93 L1224.68,-35.68 L1226.42,-37.43 L1228.17,-39.18 L1229.92,-40.92 L1231.67,-42.67 L1233.41,-44.42 L1235.16,-46.16 L1236.91,-47.91 L1238.65,-49.66 L1240.40,-51.40 L1242.15,-53.15 L1243.89,-54.90 L1245.64,-56.65 L1247.39,-58.39 L1249.14,-60.14 L1250.88,-61.89 L1252.63,-63.63 L1254.38,-65.38 L1256.12,-67.13 L1257.87,-68.88 L1259.62,-70.62 L1261.36,-72.37 L1263.11,-74.12 L1264.86,-75.86 L1266.61,-77.61 L1268.35,-79.36 L1270.10,-81.10 L1271.85,-82.85 L1273.59,-84.60 L1275.34,-86.35 L1277.09,-88.09 L1278.84,-89.84 L1280.58,-91.59 L1282.33,-93.33 L1284.08,-95.08 L1285.82,-96.83 L1287.57,-98.58 L1289.32,-100.32 L1291.06,-102.07 L1292.81,-103.82 L1294.56,-105.56 L1296.31,-107.31 L1298.05,-109.06 L1299.80,-110.80 L1301.55,-112.55 L1303.29,-114.30 L1305.04,-116.05 L1306.79,-117.79 L1308.54,-119.54 L1310.28,-121.29 L1312.03,-123.03 L1313.78,-124.78 L1315.52,-126.53 L1317.27,-128.27 L1319.02,-130.02 L1320.76,-131.77 L1322.51,-133.52 L1324.26,-135.26 L1326.01,-137.01 L1327.75,-138.76 L1329.50,-140.50 L1331.25,-142.25 L1332.99,-144.00 L1334.74,-145.75 L1336.49,-147.49 L1338.23,-149.24 L1339.98,-150.99 L1341.73,-152.73 L1343.48,-154.48 L1345.22,-156.23 L1346.97,-157.97 L1348.72,-159.72 L1350.46,-161.47 L1352.21,-163.22 L1353.96,-164.96 L1355.71,-166.71 L1357.45,-168.46 L1359.20,-170.20 L1360.95,-171.95 L1362.69,-173.70 L1364.44,-175.44 L1366.19,-177.19 L1367.93,-178.94 L1369.68,-180.69 L1371.43,-182.43 L1373.18,-184.18 L1374.92,-185.93 L1376.67,-187.67 L1378.42,-189.42 L1380.16,-191.17 L1381.91,-192.92 L1383.66,-194.66 L1385.40,-196.41 L1387.15,-198.16 L1388.90,-199.90 L1390.65,-201.65 L1392.39,-203.40 L1394.14,-205.14 L1395.89,-206.89 L1397.63,-208.64 L1399.38,-210.39 L1401.13,-212.13 L1402.88,-213.88 L1404.62,-215.63 L1406.37,-217.37 L1408.12,-219.12 L1409.86,-220.87 L1411.61,-222.62 L1413.36,-224.36 L1415.10,-226.11 L1416.85,-227.86 L1418.60,-229.60 L1420.35,-231.35 L1422.09,-233.10 L1423.84,-234.84 L1425.59,-236.59 L1427.33,-238.34 L1429.08,-240.09 L1430.83,-241.83 L1432.58,-243.58 L1434.32,-245.33 L1436.07,-247.07 L1437.82,-248.82 L1439.56,-250.57 L1441.31,-252.31 L1443.06,-254.06 L1444.80,-255.81 L1446.55,-257.56 L1448.30,-259.30 L1450.05,-261.05 L1451.79,-262.80 L1453.54,-264.54 L1455.29,-266.29 L1457.03,-268.04 L1458.78,-269.79 L1460.53,-271.53 L1462.27,-273.28 L1464.02,-275.03 L1465.77,-276.77 L1467.52,-278.52 L1469.26,-280.27 L1471.01,-282.01 L1472.76,-283.76 L1474.50,-285.51 L1476.25,-287.26 L1478.00,-289.00 L1479.75,-290.75 L1481.49,-292.50 L1483.24,-294.24 L1484.99,-295.99 L1486.73,-297.74 L1488.48,-299.48 L1490.23,-301.23 L1491.97,-302.98 L1493.72,-304.73 L1495.47,-306.47 L1497.22,-308.22 L1498.96,-309.97 L1500.71,-311.71 L1502.46,-313.46 L1504.20,-315.21 L1505.95,-316.96 L1507.70,-318.70 L1509.44,-320.45 L1511.19,-322.20 L1512.94,-323.94 L1514.69,-325.69 L1516.43,-327.44 L1518.18,-329.18 L1519.93,-330.93 L1521.67,-332.68 L1523.42,-334.43 L1525.17,-336.17 L1526.92,-337.92 L1528.66,-339.67 L1530.41,-341.41 L1532.16,-343.16 L1533.90,-344.91 L1535.65,-346.66 L1537.40,-348.40 L1539.14,-350.15 L1540.89,-351.90 L1542.64,-353.64 L1544.39,-355.39 L1546.13,-357.14 L1547.88,-358.88 L1549.63,-360.63 L1551.37,-362.38 L1553.12,-364.13 L1554.87,-365.87 L1556.62,-367.62 L1558.36,-369.37 L1560.11,-371.11 L1561.86,-372.86 L1563.60,-374.61 L1565.35,-376.35 L1567.10,-378.10 L1568.84,-379.85 L1570.59,-381.60 L1572.34,-383.34 L1574.09,-385.09 L1575.83,-386.84 L1577.58,-388.58 L1579.33,-390.33 L1581.07,-392.08 L1582.82,-393.83 L1584.57,-395.57 L1586.31,-397.32 L1588.06,-399.07 L1589.81,-400.81 L1591.56,-402.56 L1593.30,-404.31 L1595.05,-406.05 L1596.80,-407.80 L1598.54,-409.55 L1600.29,-411.30 L1602.04,-413.04 L1603.79,-414.79 L1605.53,-416.54 L1607.28,-418.28 L1609.03,-420.03 L1610.77,-421.78 L1612.52,-423.52 L1614.27,-425.27 L1616.01,-427.02 L1617.76,-428.77 L1619.51,-430.51 L1621.26,-432.26 L1623.00,-434.01 L1624.75,-435.75 L1626.50,-437.50 L1628.24,-439.25 L1629.99,-441.00 L1631.74,-442.74 L1633.48,-444.49 L1635.23,-446.24 L1636.98,-447.98 L1638.73,-449.73 L1640.47,-451.48 L1642.22,-453.22 L1643.97,-454.97 L1645.71,-456.72 L1647.46,-458.47 L1649.21,-460.21 L1650.96,-461.96 L1652.70,-463.71 L1654.45,-465.45 L1656.20,-467.20 L1657.94,-468.95 L1659.69,-470.70 L1661.44,-472.44 L1663.18,-474.19 L1664.93,-475.94 L1666.68,-477.68 L1668.43,-479.43 L1670.17,-481.18 L1671.92,-482.92 L1673.67,-484.67 L1675.41,-486.42 L1677.16,-488.17 L1678.91,-489.91 L1680.66,-491.66 L1682.40,-493.41 L1684.15,-495.15 L1685.90,-496.90 L1687.64,-498.65 L1689.39,-500.39 L1691.14,-502.14 L1692.88,-503.89 L1694.63,-505.64 L1696.38,-507.38 L1698.13,-509.13 L1699.87,-510.88 L1701.62,-512.62 L1703.37,-514.37 L1705.11,-516.12 L1706.86,-517.87 L1708.61,-519.61 L1710.35,-521.36 L1712.10,-523.11 L1713.85,-524.85 L1715.60,-526.60 L1717.34,-528.35 L1719.09,-530.09 L1720.84,-531.84 L1722.58,-533.59 L1724.33,-535.34 L1726.08,-537.08 L1727.83,-538.83 L1729.57,-540.58 L1731.32,-542.32 L1733.07,-544.07 L1734.81,-545.82 L1736.56,-547.57 L1738.31,-549.31 L1740.05,-551.06 L1741.80,-552.81 L1743.55,-554.55 L1745.30,-556.30 L1747.04,-558.05 L1748.79,-559.79 L1750.54,-561.54 L1752.28,-563.29 L1754.03,-565.04 L1755.78,-566.78 L1757.53,-568.53 L1759.27,-570.28 L1761.02,-572.02 L1762.77,-573.77 L1764.51,-575.52 L1766.26,-577.26 L1768.01,-579.01 L1769.75,-580.76 L1771.50,-582.51 L1773.25,-584.25 L1775.00,-586.00 L1776.74,-587.75 L1778.49,-589.49 L1780.24,-591.24 L1781.98,-592.99 L1783.73,-594.74 L1785.48,-596.48 L1787.22,-598.23 L1788.97,-599.98 L1790.72,-601.72 L1792.47,-603.47 L1794.21,-605.22 L1795.96,-606.96 L1797.71,-608.71 L1799.45,-610.46 L1801.20,-612.21 L1802.95,-613.95 L1804.70,-615.70 L1806.44,-617.45 L1808.19,-619.19 L1809.94,-620.94 L1811.68,-622.69 L1813.43,-624.43 L1815.18,-626.18 L1816.92,-627.93 L1818.67,-629.68 L1820.42,-631.42 L1822.17,-633.17 L1823.91,-634.92 L1825.66,-636.66 L1827.41,-638.41 L1829.15,-640.16 L1830.90,-641.91 L1832.65,-643.65 L1834.39,-645.40 L1836.14,-647.15 L1837.89,-648.89 L1839.64,-650.64 L1841.38,-652.39 L1843.13,-654.13 L1844.88,-655.88 L1846.62,-657.63 L1848.37,-659.38 L1850.12,-661.12 L1851.87,-662.87 L1853.61,-664.62 L1855.36,-666.36 L1857.11,-668.11 L1858.85,-669.86 L1860.60,-671.61 L1862.35,-673.35 L1864.09,-675.10 L1865.84,-676.85 L1867.59,-678.59 L1869.34,-680.34 L1871.08,-682.09 L1872.83,-683.83 L1874.58,-685.58 L1876.32,-687.33 L1878.07,-689.08 L1879.82,-690.82 L1881.57,-692.57 L1883.31,-694.32 L1885.06,-696.06 L1886.81,-697.81 L1888.55,-699.56 L1890.30,-701.30 L1892.05,-703.05 L1893.79,-704.80 L1895.54,-706.55 L1897.29,-708.29 L1899.04,-710.04 L1900.78,-711.79 L1902.53,-713.53 L1904.28,-715.28 L1906.02,-717.03 L1907.77,-718.78 L1909.52,-720.52 L1911.26,-722.27 L1913.01,-724.02 L1914.76,-725.76 L1916.51,-727.51 L1918.25,-729.26 L1920.00,-731.00" style="stroke-width: 28; stroke: rgb(60, 180, 75);"/>

        <circle onclick="onClickEvent(evt)" id="7-2-point-1" cx="583.4436618501527" cy="605.5518175455926" r="30" style="stroke-width: 8; stroke: rgb(245, 130, 49)" fill="white"/>
        <circle onclick="onClickEvent(evt)" id="7-2-point-2" cx="783.4070590993173" cy="405.588420296428" r="30" style="stroke-width: 8; stroke: rgb(245, 130, 49)" fill="white"/>
        <circle onclick="onClickEvent(evt)" id="7-2-point-3" cx="883.3887577238996" cy="605.5518175455926" r="30" style="stroke-width: 8; stroke: rgb(245, 130, 49)" fill="white"/>
        <circle onclick="onClickEvent(evt)" id="7-2-point-3" cx="1383.297250846811" cy="605.5518175455926" r="30" style="stroke-width: 8; stroke: rgb(245, 130, 49)" fill="white"/>

        <g class="test-xti" style="font-family: Asana-Math, Asana;">
            <line x1="0" y1="605.5518175455926" x2="1902.5" y2="605.5518175455926" fill="none" stroke="rgb(50,50,50)" stroke-opacity="1" stroke-width="8"/>
            <line x1="83.53516872724124" y1="597.5518175455926" x2="83.53516872724124" y2="613.5518175455926" fill="none" stroke="rgb(50,50,50)" stroke-opacity="1" stroke-width="8"/>
            <line x1="183.51686735182352" y1="597.5518175455926" x2="183.51686735182352" y2="613.5518175455926" fill="none" stroke="rgb(50,50,50)" stroke-opacity="1" stroke-width="8"/>
            <line x1="283.4985659764058" y1="597.5518175455926" x2="283.4985659764058" y2="613.5518175455926" fill="none" stroke="rgb(50,50,50)" stroke-opacity="1" stroke-width="8"/>
            <line x1="383.4802646009881" y1="597.5518175455926" x2="383.4802646009881" y2="613.5518175455926" fill="none" stroke="rgb(50,50,50)" stroke-opacity="1" stroke-width="8"/>
            <line x1="483.46196322557034" y1="597.5518175455926" x2="483.46196322557034" y2="613.5518175455926" fill="none" stroke="rgb(50,50,50)" stroke-opacity="1" stroke-width="8"/>
            <line x1="583.4436618501527" y1="597.5518175455926" x2="583.4436618501527" y2="613.5518175455926" fill="none" stroke="rgb(50,50,50)" stroke-opacity="1" stroke-width="8"/>
            <line x1="683.4253604747349" y1="597.5518175455926" x2="683.4253604747349" y2="613.5518175455926" fill="none" stroke="rgb(50,50,50)" stroke-opacity="1" stroke-width="8"/>
            <line x1="783.4070590993173" y1="597.5518175455926" x2="783.4070590993173" y2="613.5518175455926" fill="none" stroke="rgb(50,50,50)" stroke-opacity="1" stroke-width="8"/>
            <line x1="983.3704563484819" y1="597.5518175455926" x2="983.3704563484819" y2="613.5518175455926" fill="none" stroke="rgb(50,50,50)" stroke-opacity="1" stroke-width="8"/>
            <line x1="1083.3521549730642" y1="597.5518175455926" x2="1083.3521549730642" y2="613.5518175455926" fill="none" stroke="rgb(50,50,50)" stroke-opacity="1" stroke-width="8"/>
            <line x1="1183.3338535976463" y1="597.5518175455926" x2="1183.3338535976463" y2="613.5518175455926" fill="none" stroke="rgb(50,50,50)" stroke-opacity="1" stroke-width="8"/>
            <line x1="1283.3155522222287" y1="597.5518175455926" x2="1283.3155522222287" y2="613.5518175455926" fill="none" stroke="rgb(50,50,50)" stroke-opacity="1" stroke-width="8"/>
            <line x1="1383.297250846811" y1="597.5518175455926" x2="1383.297250846811" y2="613.5518175455926" fill="none" stroke="rgb(50,50,50)" stroke-opacity="1" stroke-width="8"/>
            <line x1="1483.2789494713932" y1="597.5518175455926" x2="1483.2789494713932" y2="613.5518175455926" fill="none" stroke="rgb(50,50,50)" stroke-opacity="1" stroke-width="8"/>
            <line x1="1583.2606480959755" y1="597.5518175455926" x2="1583.2606480959755" y2="613.5518175455926" fill="none" stroke="rgb(50,50,50)" stroke-opacity="1" stroke-width="8"/>
            <line x1="1683.2423467205579" y1="597.5518175455926" x2="1683.2423467205579" y2="613.5518175455926" fill="none" stroke="rgb(50,50,50)" stroke-opacity="1" stroke-width="8"/>
            <line x1="1783.2240453451402" y1="597.5518175455926" x2="1783.2240453451402" y2="613.5518175455926" fill="none" stroke="rgb(50,50,50)" stroke-opacity="1" stroke-width="8"/>
            <line x1="1883.2057439697226" y1="597.5518175455926" x2="1883.2057439697226" y2="613.5518175455926" fill="none" stroke="rgb(50,50,50)" stroke-opacity="1" stroke-width="8"/>
            <path d="M1900,597.0018175455926 L1919,605.5518175455926 L1900,614.1018175455926 Z" stroke="none" stroke-width="8" fill="rgb(50,50,50)" fill-opacity="1"/>
        </g>
        <g class="test-yti" style="font-family: Asana-Math, Asana;">
            <line x1="883.3887577238996" y1="17.5" x2="883.3887577238996" y2="960" fill="none" stroke="rgb(50,50,50)" stroke-opacity="1" stroke-width="8"/>
            <line x1="875.3887577238996" y1="905.4969134193395" x2="891.3887577238996" y2="905.4969134193395" fill="none" stroke="rgb(50,50,50)" stroke-opacity="1" stroke-width="8"/>
            <line x1="875.3887577238996" y1="805.5152147947572" x2="891.3887577238996" y2="805.5152147947572" fill="none" stroke="rgb(50,50,50)" stroke-opacity="1" stroke-width="8"/>
            <line x1="875.3887577238996" y1="705.533516170175" x2="891.3887577238996" y2="705.533516170175" fill="none" stroke="rgb(50,50,50)" stroke-opacity="1" stroke-width="8"/>
            <line x1="875.3887577238996" y1="505.57011892101036" x2="891.3887577238996" y2="505.57011892101036" fill="none" stroke="rgb(50,50,50)" stroke-opacity="1" stroke-width="8"/>
            <line x1="875.3887577238996" y1="405.5884202964281" x2="891.3887577238996" y2="405.5884202964281" fill="none" stroke="rgb(50,50,50)" stroke-opacity="1" stroke-width="8"/>
            <line x1="875.3887577238996" y1="305.6067216718458" x2="891.3887577238996" y2="305.6067216718458" fill="none" stroke="rgb(50,50,50)" stroke-opacity="1" stroke-width="8"/>
            <line x1="875.3887577238996" y1="205.62502304726343" x2="891.3887577238996" y2="205.62502304726343" fill="none" stroke="rgb(50,50,50)" stroke-opacity="1" stroke-width="8"/>
            <line x1="875.3887577238996" y1="105.64332442268119" x2="891.3887577238996" y2="105.64332442268119" fill="none" stroke="rgb(50,50,50)" stroke-opacity="1" stroke-width="8"/>
            <line x1="875.3887577238996" y1="5.661625798098953" x2="891.3887577238996" y2="5.661625798098953" fill="none" stroke="rgb(50,50,50)" stroke-opacity="1" stroke-width="8"/>
            <path d="M874.8387577238997,20 L883.3887577238996,1 L891.9387577238996,20 Z" stroke="none" stroke-width="8" fill="rgb(50,50,50)" fill-opacity="1"/>
        </g>
    </g>
</svg>