<svg xmlns="http://www.w3.org/2000/svg" xmlns:xlink="http://www.w3.org/1999/xlink" x="0" y="0" width="1922.2222900390625" height="964.0798950195312" style="
        width:1922.2222900390625px;
        height:964.0798950195312px;
        background: #FFF;
        fill: none;
">
<script type="application/ecmascript"> <![CDATA[
    function onClickEvent(evt) {
        Android.showDetail(evt.target.getAttribute("id"));
    }
  ]]> </script>
    <g class="composite-shape" data-amt="diagram/shapes/plot">

        <path onclick="onClickEvent(evt)" id="8-6-line-1" d=" M0.00,1316.63 L0.50,1314.63 L1.00,1312.63 L1.50,1310.62 L2.00,1308.62 L2.50,1306.62 L3.00,1304.62 L3.50,1302.61 L4.01,1300.61 L4.51,1298.61 L5.01,1296.61 L5.51,1294.60 L6.01,1292.60 L6.51,1290.60 L7.01,1288.60 L7.51,1286.59 L8.01,1284.59 L8.51,1282.59 L9.01,1280.59 L9.51,1278.58 L10.01,1276.58 L10.51,1274.58 L11.01,1272.58 L11.51,1270.57 L12.02,1268.57 L12.52,1266.57 L13.02,1264.57 L13.52,1262.56 L14.02,1260.56 L14.52,1258.56 L15.02,1256.56 L15.52,1254.55 L16.02,1252.55 L16.52,1250.55 L17.02,1248.55 L17.52,1246.54 L18.02,1244.54 L18.52,1242.54 L19.02,1240.54 L19.52,1238.53 L20.03,1236.53 L20.53,1234.53 L21.03,1232.53 L21.53,1230.52 L22.03,1228.52 L22.53,1226.52 L23.03,1224.52 L23.53,1222.51 L24.03,1220.51 L24.53,1218.51 L25.03,1216.51 L25.53,1214.50 L26.03,1212.50 L26.53,1210.50 L27.03,1208.50 L27.53,1206.49 L28.04,1204.49 L28.54,1202.49 L29.04,1200.49 L29.54,1198.48 L30.04,1196.48 L30.54,1194.48 L31.04,1192.48 L31.54,1190.47 L32.04,1188.47 L32.54,1186.47 L33.04,1184.47 L33.54,1182.46 L34.04,1180.46 L34.54,1178.46 L35.04,1176.46 L35.54,1174.45 L36.05,1172.45 L36.55,1170.45 L37.05,1168.45 L37.55,1166.44 L38.05,1164.44 L38.55,1162.44 L39.05,1160.44 L39.55,1158.43 L40.05,1156.43 L40.55,1154.43 L41.05,1152.43 L41.55,1150.42 L42.05,1148.42 L42.55,1146.42 L43.05,1144.42 L43.55,1142.41 L44.06,1140.41 L44.56,1138.41 L45.06,1136.41 L45.56,1134.40 L46.06,1132.40 L46.56,1130.40 L47.06,1128.40 L47.56,1126.39 L48.06,1124.39 L48.56,1122.39 L49.06,1120.39 L49.56,1118.38 L50.06,1116.38 L50.56,1114.38 L51.06,1112.38 L51.56,1110.37 L52.07,1108.37 L52.57,1106.37 L53.07,1104.37 L53.57,1102.36 L54.07,1100.36 L54.57,1098.36 L55.07,1096.36 L55.57,1094.35 L56.07,1092.35 L56.57,1090.35 L57.07,1088.35 L57.57,1086.34 L58.07,1084.34 L58.57,1082.34 L59.07,1080.34 L59.57,1078.33 L60.08,1076.33 L60.58,1074.33 L61.08,1072.33 L61.58,1070.32 L62.08,1068.32 L62.58,1066.32 L63.08,1064.32 L63.58,1062.31 L64.08,1060.31 L64.58,1058.31 L65.08,1056.31 L65.58,1054.30 L66.08,1052.30 L66.58,1050.30 L67.08,1048.30 L67.58,1046.29 L68.09,1044.29 L68.59,1042.29 L69.09,1040.29 L69.59,1038.28 L70.09,1036.28 L70.59,1034.28 L71.09,1032.28 L71.59,1030.27 L72.09,1028.27 L72.59,1026.27 L73.09,1024.27 L73.59,1022.26 L74.09,1020.26 L74.59,1018.26 L75.09,1016.26 L75.59,1014.25 L76.10,1012.25 L76.60,1010.25 L77.10,1008.25 L77.60,1006.24 L78.10,1004.24 L78.60,1002.24 L79.10,1000.24 L79.60,998.23 L80.10,996.23 L80.60,994.23 L81.10,992.23 L81.60,990.22 L82.10,988.22 L82.60,986.22 L83.10,984.22 L83.60,982.21 L84.11,980.21 L84.61,978.21 L85.11,976.21 L85.61,974.20 L86.11,972.20 L86.61,970.20 L87.11,968.20 L87.61,966.19 L88.11,964.19 L88.61,962.19 L89.11,960.19 L89.61,958.18 L90.11,956.18 L90.61,954.18 L91.11,952.18 L91.61,950.17 L92.12,948.17 L92.62,946.17 L93.12,944.17 L93.62,942.16 L94.12,940.16 L94.62,938.16 L95.12,936.16 L95.62,934.15 L96.12,932.15 L96.62,930.15 L97.12,928.15 L97.62,926.14 L98.12,924.14 L98.62,922.14 L99.12,920.14 L99.62,918.13 L100.13,916.13 L100.63,914.13 L101.13,912.13 L101.63,910.12 L102.13,908.12 L102.63,906.12 L103.13,904.12 L103.63,902.11 L104.13,900.11 L104.63,898.11 L105.13,896.11 L105.63,894.10 L106.13,892.10 L106.63,890.10 L107.13,888.10 L107.63,886.09 L108.14,884.09 L108.64,882.09 L109.14,880.09 L109.64,878.08 L110.14,876.08 L110.64,874.08 L111.14,872.08 L111.64,870.07 L112.14,868.07 L112.64,866.07 L113.14,864.07 L113.64,862.06 L114.14,860.06 L114.64,858.06 L115.14,856.06 L115.64,854.05 L116.15,852.05 L116.65,850.05 L117.15,848.05 L117.65,846.04 L118.15,844.04 L118.65,842.04 L119.15,840.04 L119.65,838.03 L120.15,836.03 L120.65,834.03 L121.15,832.03 L121.65,830.02 L122.15,828.02 L122.65,826.02 L123.15,824.02 L123.65,822.01 L124.16,820.01 L124.66,818.01 L125.16,816.01 L125.66,814.00 L126.16,812.00 L126.66,810.00 L127.16,808.00 L127.66,805.99 L128.16,803.99 L128.66,801.99 L129.16,799.99 L129.66,797.98 L130.16,795.98 L130.66,793.98 L131.16,791.98 L131.66,789.97 L132.17,787.97 L132.67,785.97 L133.17,783.97 L133.67,781.96 L134.17,779.96 L134.67,777.96 L135.17,775.96 L135.67,773.95 L136.17,771.95 L136.67,769.95 L137.17,767.95 L137.67,765.94 L138.17,763.94 L138.67,761.94 L139.17,759.94 L139.67,757.93 L140.18,755.93 L140.68,753.93 L141.18,751.93 L141.68,749.92 L142.18,747.92 L142.68,745.92 L143.18,743.92 L143.68,741.91 L144.18,739.91 L144.68,737.91 L145.18,735.91 L145.68,733.90 L146.18,731.90 L146.68,729.90 L147.18,727.90 L147.68,725.89 L148.19,723.89 L148.69,721.89 L149.19,719.89 L149.69,717.88 L150.19,715.88 L150.69,713.88 L151.19,711.88 L151.69,709.87 L152.19,707.87 L152.69,705.87 L153.19,703.87 L153.69,701.86 L154.19,699.86 L154.69,697.86 L155.19,695.86 L155.69,693.85 L156.20,691.85 L156.70,689.85 L157.20,687.85 L157.70,685.84 L158.20,683.84 L158.70,681.84 L159.20,679.84 L159.70,677.83 L160.20,675.83 L160.70,673.83 L161.20,671.83 L161.70,669.82 L162.20,667.82 L162.70,665.82 L163.20,663.81 L163.70,661.81 L164.21,659.81 L164.71,657.81 L165.21,655.80 L165.71,653.80 L166.21,651.80 L166.71,649.80 L167.21,647.79 L167.71,645.79 L168.21,643.79 L168.71,641.79 L169.21,639.78 L169.71,637.78 L170.21,635.78 L170.71,633.78 L171.21,631.77 L171.71,629.77 L172.22,627.77 L172.72,625.77 L173.22,623.76 L173.72,621.76 L174.22,619.76 L174.72,617.76 L175.22,615.75 L175.72,613.75 L176.22,611.75 L176.72,609.75 L177.22,607.74 L177.72,605.74 L178.22,603.74 L178.72,601.74 L179.22,599.73 L179.72,597.73 L180.23,595.73 L180.73,593.73 L181.23,591.72 L181.73,589.72 L182.23,587.72 L182.73,585.72 L183.23,583.71 L183.73,581.71 L184.23,579.71 L184.73,577.71 L185.23,575.70 L185.73,573.70 L186.23,571.70 L186.73,569.70 L187.23,567.69 L187.73,565.69 L188.24,563.69 L188.74,561.69 L189.24,559.68 L189.74,557.68 L190.24,555.68 L190.74,553.68 L191.24,551.67 L191.74,549.67 L192.24,547.67 L192.74,545.67 L193.24,543.66 L193.74,541.66 L194.24,539.66 L194.74,537.66 L195.24,535.65 L195.74,533.65 L196.25,531.65 L196.75,529.65 L197.25,527.64 L197.75,525.64 L198.25,523.64 L198.75,521.64 L199.25,519.63 L199.75,517.63 L200.25,515.63 L200.75,513.63 L201.25,511.62 L201.75,509.62 L202.25,507.62 L202.75,505.62 L203.25,503.61 L203.75,501.61 L204.26,499.61 L204.76,497.61 L205.26,495.60 L205.76,493.60 L206.26,491.60 L206.76,489.60 L207.26,487.59 L207.76,485.59 L208.26,483.59 L208.76,481.59 L209.26,479.58 L209.76,477.58 L210.26,475.58 L210.76,473.58 L211.26,471.57 L211.76,469.57 L212.27,467.57 L212.77,465.57 L213.27,463.56 L213.77,461.56 L214.27,459.56 L214.77,457.56 L215.27,455.55 L215.77,453.55 L216.27,451.55 L216.77,449.55 L217.27,447.54 L217.77,445.54 L218.27,443.54 L218.77,441.54 L219.27,439.53 L219.77,437.53 L220.28,435.53 L220.78,433.53 L221.28,431.52 L221.78,429.52 L222.28,427.52 L222.78,425.52 L223.28,423.51 L223.78,421.51 L224.28,419.51 L224.78,417.51 L225.28,415.50 L225.78,413.50 L226.28,411.50 L226.78,409.50 L227.28,407.49 L227.78,405.49 L228.29,403.49 L228.79,401.49 L229.29,399.48 L229.79,397.48 L230.29,395.48 L230.79,393.48 L231.29,391.47 L231.79,389.47 L232.29,387.47 L232.79,385.47 L233.29,383.46 L233.79,381.46 L234.29,379.46 L234.79,377.46 L235.29,375.45 L235.79,373.45 L236.30,371.45 L236.80,369.45 L237.30,367.44 L237.80,365.44 L238.30,363.44 L238.80,361.44 L239.30,359.43 L239.80,357.43 L240.30,355.43 L240.80,353.43 L241.30,351.42 L241.80,349.42 L242.30,347.42 L242.80,345.42 L243.30,343.41 L243.80,341.41 L244.31,339.41 L244.81,337.41 L245.31,335.40 L245.81,333.40 L246.31,331.40 L246.81,329.40 L247.31,327.39 L247.81,325.39 L248.31,323.39 L248.81,321.39 L249.31,319.38 L249.81,317.38 L250.31,315.38 L250.81,313.38 L251.31,311.37 L251.81,309.37 L252.32,307.37 L252.82,305.37 L253.32,303.36 L253.82,301.36 L254.32,299.36 L254.82,297.36 L255.32,295.35 L255.82,293.35 L256.32,291.35 L256.82,289.35 L257.32,287.34 L257.82,285.34 L258.32,283.34 L258.82,281.34 L259.32,279.33 L259.82,277.33 L260.33,275.33 L260.83,273.33 L261.33,271.32 L261.83,269.32 L262.33,267.32 L262.83,265.32 L263.33,263.31 L263.83,261.31 L264.33,259.31 L264.83,257.31 L265.33,255.30 L265.83,253.30 L266.33,251.30 L266.83,249.30 L267.33,247.29 L267.83,245.29 L268.34,243.29 L268.84,241.29 L269.34,239.28 L269.84,237.28 L270.34,235.28 L270.84,233.28 L271.34,231.27 L271.84,229.27 L272.34,227.27 L272.84,225.27 L273.34,223.26 L273.84,221.26 L274.34,219.26 L274.84,217.26 L275.34,215.25 L275.84,213.25 L276.35,211.25 L276.85,209.25 L277.35,207.24 L277.85,205.24 L278.35,203.24 L278.85,201.24 L279.35,199.23 L279.85,197.23 L280.35,195.23 L280.85,193.23 L281.35,191.22 L281.85,189.22 L282.35,187.22 L282.85,185.22 L283.35,183.21 L283.85,181.21 L284.36,179.21 L284.86,177.21 L285.36,175.20 L285.86,173.20 L286.36,171.20 L286.86,169.20 L287.36,167.19 L287.86,165.19 L288.36,163.19 L288.86,161.19 L289.36,159.18 L289.86,157.18 L290.36,155.18 L290.86,153.18 L291.36,151.17 L291.86,149.17 L292.37,147.17 L292.87,145.17 L293.37,143.16 L293.87,141.16 L294.37,139.16 L294.87,137.16 L295.37,135.15 L295.87,133.15 L296.37,131.15 L296.87,129.15 L297.37,127.14 L297.87,125.14 L298.37,123.14 L298.87,121.14 L299.37,119.13 L299.87,117.13 L300.38,115.13 L300.88,113.13 L301.38,111.12 L301.88,109.12 L302.38,107.12 L302.88,105.12 L303.38,103.11 L303.88,101.11 L304.38,99.11 L304.88,97.11 L305.38,95.10 L305.88,93.10 L306.38,91.10 L306.88,89.10 L307.38,87.09 L307.88,85.09 L308.39,83.09 L308.89,81.09 L309.39,79.08 L309.89,77.08 L310.39,75.08 L310.89,73.08 L311.39,71.07 L311.89,69.07 L312.39,67.07 L312.89,65.07 L313.39,63.06 L313.89,61.06 L314.39,59.06 L314.89,57.06 L315.39,55.05 L315.89,53.05 L316.40,51.05 L316.90,49.05 L317.40,47.04 L317.90,45.04 L318.40,43.04 L318.90,41.04 L319.40,39.03 L319.90,37.03 L320.40,35.03 L320.90,33.03 L321.40,31.02 L321.90,29.02 L322.40,27.02 L322.90,25.02 L323.40,23.01 L323.90,21.01 L324.41,19.01 L324.91,17.01 L325.41,15.00 L325.91,13.00 L326.41,11.00 L326.91,9.00 L327.41,6.99 L327.91,4.99 L328.41,2.99 L328.91,0.99 L329.41,-1.02 L329.91,-3.02 L330.41,-5.02 L330.91,-7.02 L331.41,-9.03 L331.91,-11.03 L332.42,-13.03 L332.92,-15.03 L333.42,-17.04 L333.92,-19.04 L334.42,-21.04 L334.92,-23.04 L335.42,-25.05 L335.92,-27.05 L336.42,-29.05 L336.92,-31.05 L337.42,-33.06 L337.92,-35.06 L338.42,-37.06 L338.92,-39.06 L339.42,-41.07 L339.92,-43.07 L340.43,-45.07 L340.93,-47.07 L341.43,-49.08 L341.93,-51.08 L342.43,-53.08 L342.93,-55.08 L343.43,-57.09 L343.93,-59.09 L344.43,-61.09 L344.93,-63.09 L345.43,-65.10 L345.93,-67.10 L346.43,-69.10 L346.93,-71.10 L347.43,-73.11 L347.93,-75.11 L348.44,-77.11 L348.94,-79.11 L349.44,-81.12 L349.94,-83.12 L350.44,-85.12 L350.94,-87.12 L351.44,-89.13 L351.94,-91.13 L352.44,-93.13 L352.94,-95.13 L353.44,-97.14 L353.94,-99.14 L354.44,-101.14 L354.94,-103.14 L355.44,-105.15 L355.94,-107.15 L356.45,-109.15 L356.95,-111.15 L357.45,-113.16 L357.95,-115.16 L358.45,-117.16 L358.95,-119.16 L359.45,-121.17 L359.95,-123.17 L360.45,-125.17 L360.95,-127.17 L361.45,-129.18 L361.95,-131.18 L362.45,-133.18 L362.95,-135.18 L363.45,-137.19 L363.95,-139.19 L364.46,-141.19 L364.96,-143.19 L365.46,-145.20 L365.96,-147.20 L366.46,-149.20 L366.96,-151.20 L367.46,-153.21 L367.96,-155.21 L368.46,-157.21 L368.96,-159.21 L369.46,-161.22 L369.96,-163.22 L370.46,-165.22 L370.96,-167.22 L371.46,-169.23 L371.96,-171.23 L372.47,-173.23 L372.97,-175.23 L373.47,-177.24 L373.97,-179.24 L374.47,-181.24 L374.97,-183.24 L375.47,-185.25 L375.97,-187.25 L376.47,-189.25 L376.97,-191.25 L377.47,-193.26 L377.97,-195.26 L378.47,-197.26 L378.97,-199.26 L379.47,-201.27 L379.97,-203.27 L380.48,-205.27 L380.98,-207.27 L381.48,-209.28 L381.98,-211.28 L382.48,-213.28 L382.98,-215.28 L383.48,-217.29 L383.98,-219.29 L384.48,-221.29 L384.98,-223.29 L385.48,-225.30 L385.98,-227.30 L386.48,-229.30 L386.98,-231.30 L387.48,-233.31 L387.98,-235.31 L388.49,-237.31 L388.99,-239.31 L389.49,-241.32 L389.99,-243.32 L390.49,-245.32 L390.99,-247.32 L391.49,-249.33 L391.99,-251.33 L392.49,-253.33 L392.99,-255.33 L393.49,-257.34 L393.99,-259.34 L394.49,-261.34 L394.99,-263.34 L395.49,-265.35 L395.99,-267.35 L396.50,-269.35 L397.00,-271.35 L397.50,-273.36 L398.00,-275.36 L398.50,-277.36 L399.00,-279.36 L399.50,-281.37 L400.00,-283.37" style="stroke-width: 28; stroke: rgb(74, 144, 226);"/>

        <circle onclick="onClickEvent(evt)" id="8-6-point-1" cx="133.3462442143203" cy="783.2460376168074" r="30" style="stroke-width: 8; stroke: rgb(74, 144, 226); stroke-opacity: 1;" fill="white"/>
        <circle onclick="onClickEvent(evt)" id="8-6-point-2" cx="206.9514924668259" cy="488.825044606785" r="30" style="stroke-width: 8; stroke: rgb(74, 144, 226); stroke-opacity: 1;" fill="white"/>
        <circle onclick="onClickEvent(evt)" id="8-6-point-3" cx="280.55674071933146" cy="194.40405159676277" r="30" style="stroke-width: 8; stroke: rgb(74, 144, 226); stroke-opacity:1" fill="white"/>

        <g class="test-xti" style="font-family: Asana-Math, Asana;">
            <line x1="0" y1="488.825044606785" x2="382.5" y2="488.825044606785" fill="none" stroke="rgb(50,50,50)" stroke-opacity="1" stroke-width="8"/>
            <line x1="59.74099596181471" y1="480.825044606785" x2="59.74099596181471" y2="496.825044606785" fill="none" stroke="rgb(50,50,50)" stroke-opacity="1" stroke-width="8"/>
            <line x1="133.34624421432028" y1="480.825044606785" x2="133.34624421432028" y2="496.825044606785" fill="none" stroke="rgb(50,50,50)" stroke-opacity="1" stroke-width="8"/>
            <line x1="280.55674071933146" y1="480.825044606785" x2="280.55674071933146" y2="496.825044606785" fill="none" stroke="rgb(50,50,50)" stroke-opacity="1" stroke-width="8"/>
            <line x1="354.1619889718371" y1="480.825044606785" x2="354.1619889718371" y2="496.825044606785" fill="none" stroke="rgb(50,50,50)" stroke-opacity="1" stroke-width="8"/>
            <path d="M380,480.275044606785 L399,488.825044606785 L380,497.375044606785 Z" stroke="none" stroke-width="8" fill="rgb(50,50,50)" fill-opacity="1"/>
        </g>
        <g class="test-yti" style="font-family: Asana-Math, Asana;">
            <line x1="206.9514924668259" y1="17.5" x2="206.9514924668259" y2="960" fill="none" stroke="rgb(50,50,50)" stroke-opacity="1" stroke-width="8"/>
            <line x1="198.9514924668259" y1="930.4565341218185" x2="214.9514924668259" y2="930.4565341218185" fill="none" stroke="rgb(50,50,50)" stroke-opacity="1" stroke-width="8"/>
            <line x1="198.9514924668259" y1="856.851285869313" x2="214.9514924668259" y2="856.851285869313" fill="none" stroke="rgb(50,50,50)" stroke-opacity="1" stroke-width="8"/>
            <line x1="198.9514924668259" y1="783.2460376168074" x2="214.9514924668259" y2="783.2460376168074" fill="none" stroke="rgb(50,50,50)" stroke-opacity="1" stroke-width="8"/>
            <line x1="198.9514924668259" y1="709.6407893643018" x2="214.9514924668259" y2="709.6407893643018" fill="none" stroke="rgb(50,50,50)" stroke-opacity="1" stroke-width="8"/>
            <line x1="198.9514924668259" y1="636.0355411117962" x2="214.9514924668259" y2="636.0355411117962" fill="none" stroke="rgb(50,50,50)" stroke-opacity="1" stroke-width="8"/>
            <line x1="198.9514924668259" y1="562.4302928592906" x2="214.9514924668259" y2="562.4302928592906" fill="none" stroke="rgb(50,50,50)" stroke-opacity="1" stroke-width="8"/>
            <line x1="198.9514924668259" y1="415.2197963542794" x2="214.9514924668259" y2="415.2197963542794" fill="none" stroke="rgb(50,50,50)" stroke-opacity="1" stroke-width="8"/>
            <line x1="198.9514924668259" y1="341.61454810177395" x2="214.9514924668259" y2="341.61454810177395" fill="none" stroke="rgb(50,50,50)" stroke-opacity="1" stroke-width="8"/>
            <line x1="198.9514924668259" y1="268.00929984926825" x2="214.9514924668259" y2="268.00929984926825" fill="none" stroke="rgb(50,50,50)" stroke-opacity="1" stroke-width="8"/>
            <line x1="198.9514924668259" y1="194.40405159676277" x2="214.9514924668259" y2="194.40405159676277" fill="none" stroke="rgb(50,50,50)" stroke-opacity="1" stroke-width="8"/>
            <line x1="198.9514924668259" y1="120.79880334425707" x2="214.9514924668259" y2="120.79880334425707" fill="none" stroke="rgb(50,50,50)" stroke-opacity="1" stroke-width="8"/>
            <line x1="198.9514924668259" y1="47.19355509175159" x2="214.9514924668259" y2="47.19355509175159" fill="none" stroke="rgb(50,50,50)" stroke-opacity="1" stroke-width="8"/>
            <path d="M198.40149246682589,20 L206.9514924668259,1 L215.5014924668259,20 Z" stroke="none" stroke-width="8" fill="rgb(50,50,50)" fill-opacity="1"/>
        </g>
    </g>
    <g class="composite-shape" data-amt="diagram/shapes/plot" transform="matrix(1,0,0,1,500,0)">

        <path onclick="onClickEvent(evt)" id="8-6-line-2" d=" M0.00,687.99 L0.50,687.49 L1.00,686.99 L1.50,686.49 L2.00,685.98 L2.50,685.48 L3.00,684.98 L3.50,684.48 L4.01,683.98 L4.51,683.48 L5.01,682.98 L5.51,682.48 L6.01,681.98 L6.51,681.48 L7.01,680.98 L7.51,680.48 L8.01,679.98 L8.51,679.48 L9.01,678.98 L9.51,678.48 L10.01,677.97 L10.51,677.47 L11.01,676.97 L11.51,676.47 L12.02,675.97 L12.52,675.47 L13.02,674.97 L13.52,674.47 L14.02,673.97 L14.52,673.47 L15.02,672.97 L15.52,672.47 L16.02,671.97 L16.52,671.47 L17.02,670.97 L17.52,670.47 L18.02,669.96 L18.52,669.46 L19.02,668.96 L19.52,668.46 L20.03,667.96 L20.53,667.46 L21.03,666.96 L21.53,666.46 L22.03,665.96 L22.53,665.46 L23.03,664.96 L23.53,664.46 L24.03,663.96 L24.53,663.46 L25.03,662.96 L25.53,662.46 L26.03,661.95 L26.53,661.45 L27.03,660.95 L27.53,660.45 L28.04,659.95 L28.54,659.45 L29.04,658.95 L29.54,658.45 L30.04,657.95 L30.54,657.45 L31.04,656.95 L31.54,656.45 L32.04,655.95 L32.54,655.45 L33.04,654.95 L33.54,654.45 L34.04,653.94 L34.54,653.44 L35.04,652.94 L35.54,652.44 L36.05,651.94 L36.55,651.44 L37.05,650.94 L37.55,650.44 L38.05,649.94 L38.55,649.44 L39.05,648.94 L39.55,648.44 L40.05,647.94 L40.55,647.44 L41.05,646.94 L41.55,646.44 L42.05,645.93 L42.55,645.43 L43.05,644.93 L43.55,644.43 L44.06,643.93 L44.56,643.43 L45.06,642.93 L45.56,642.43 L46.06,641.93 L46.56,641.43 L47.06,640.93 L47.56,640.43 L48.06,639.93 L48.56,639.43 L49.06,638.93 L49.56,638.43 L50.06,637.92 L50.56,637.42 L51.06,636.92 L51.56,636.42 L52.07,635.92 L52.57,635.42 L53.07,634.92 L53.57,634.42 L54.07,633.92 L54.57,633.42 L55.07,632.92 L55.57,632.42 L56.07,631.92 L56.57,631.42 L57.07,630.92 L57.57,630.42 L58.07,629.91 L58.57,629.41 L59.07,628.91 L59.57,628.41 L60.08,627.91 L60.58,627.41 L61.08,626.91 L61.58,626.41 L62.08,625.91 L62.58,625.41 L63.08,624.91 L63.58,624.41 L64.08,623.91 L64.58,623.41 L65.08,622.91 L65.58,622.41 L66.08,621.90 L66.58,621.40 L67.08,620.90 L67.58,620.40 L68.09,619.90 L68.59,619.40 L69.09,618.90 L69.59,618.40 L70.09,617.90 L70.59,617.40 L71.09,616.90 L71.59,616.40 L72.09,615.90 L72.59,615.40 L73.09,614.90 L73.59,614.40 L74.09,613.89 L74.59,613.39 L75.09,612.89 L75.59,612.39 L76.10,611.89 L76.60,611.39 L77.10,610.89 L77.60,610.39 L78.10,609.89 L78.60,609.39 L79.10,608.89 L79.60,608.39 L80.10,607.89 L80.60,607.39 L81.10,606.89 L81.60,606.39 L82.10,605.88 L82.60,605.38 L83.10,604.88 L83.60,604.38 L84.11,603.88 L84.61,603.38 L85.11,602.88 L85.61,602.38 L86.11,601.88 L86.61,601.38 L87.11,600.88 L87.61,600.38 L88.11,599.88 L88.61,599.38 L89.11,598.88 L89.61,598.38 L90.11,597.87 L90.61,597.37 L91.11,596.87 L91.61,596.37 L92.12,595.87 L92.62,595.37 L93.12,594.87 L93.62,594.37 L94.12,593.87 L94.62,593.37 L95.12,592.87 L95.62,592.37 L96.12,591.87 L96.62,591.37 L97.12,590.87 L97.62,590.37 L98.12,589.86 L98.62,589.36 L99.12,588.86 L99.62,588.36 L100.13,587.86 L100.63,587.36 L101.13,586.86 L101.63,586.36 L102.13,585.86 L102.63,585.36 L103.13,584.86 L103.63,584.36 L104.13,583.86 L104.63,583.36 L105.13,582.86 L105.63,582.35 L106.13,581.85 L106.63,581.35 L107.13,580.85 L107.63,580.35 L108.14,579.85 L108.64,579.35 L109.14,578.85 L109.64,578.35 L110.14,577.85 L110.64,577.35 L111.14,576.85 L111.64,576.35 L112.14,575.85 L112.64,575.35 L113.14,574.85 L113.64,574.34 L114.14,573.84 L114.64,573.34 L115.14,572.84 L115.64,572.34 L116.15,571.84 L116.65,571.34 L117.15,570.84 L117.65,570.34 L118.15,569.84 L118.65,569.34 L119.15,568.84 L119.65,568.34 L120.15,567.84 L120.65,567.34 L121.15,566.84 L121.65,566.33 L122.15,565.83 L122.65,565.33 L123.15,564.83 L123.65,564.33 L124.16,563.83 L124.66,563.33 L125.16,562.83 L125.66,562.33 L126.16,561.83 L126.66,561.33 L127.16,560.83 L127.66,560.33 L128.16,559.83 L128.66,559.33 L129.16,558.83 L129.66,558.32 L130.16,557.82 L130.66,557.32 L131.16,556.82 L131.66,556.32 L132.17,555.82 L132.67,555.32 L133.17,554.82 L133.67,554.32 L134.17,553.82 L134.67,553.32 L135.17,552.82 L135.67,552.32 L136.17,551.82 L136.67,551.32 L137.17,550.82 L137.67,550.31 L138.17,549.81 L138.67,549.31 L139.17,548.81 L139.67,548.31 L140.18,547.81 L140.68,547.31 L141.18,546.81 L141.68,546.31 L142.18,545.81 L142.68,545.31 L143.18,544.81 L143.68,544.31 L144.18,543.81 L144.68,543.31 L145.18,542.81 L145.68,542.30 L146.18,541.80 L146.68,541.30 L147.18,540.80 L147.68,540.30 L148.19,539.80 L148.69,539.30 L149.19,538.80 L149.69,538.30 L150.19,537.80 L150.69,537.30 L151.19,536.80 L151.69,536.30 L152.19,535.80 L152.69,535.30 L153.19,534.80 L153.69,534.29 L154.19,533.79 L154.69,533.29 L155.19,532.79 L155.69,532.29 L156.20,531.79 L156.70,531.29 L157.20,530.79 L157.70,530.29 L158.20,529.79 L158.70,529.29 L159.20,528.79 L159.70,528.29 L160.20,527.79 L160.70,527.29 L161.20,526.79 L161.70,526.28 L162.20,525.78 L162.70,525.28 L163.20,524.78 L163.70,524.28 L164.21,523.78 L164.71,523.28 L165.21,522.78 L165.71,522.28 L166.21,521.78 L166.71,521.28 L167.21,520.78 L167.71,520.28 L168.21,519.78 L168.71,519.28 L169.21,518.78 L169.71,518.27 L170.21,517.77 L170.71,517.27 L171.21,516.77 L171.71,516.27 L172.22,515.77 L172.72,515.27 L173.22,514.77 L173.72,514.27 L174.22,513.77 L174.72,513.27 L175.22,512.77 L175.72,512.27 L176.22,511.77 L176.72,511.27 L177.22,510.77 L177.72,510.26 L178.22,509.76 L178.72,509.26 L179.22,508.76 L179.72,508.26 L180.23,507.76 L180.73,507.26 L181.23,506.76 L181.73,506.26 L182.23,505.76 L182.73,505.26 L183.23,504.76 L183.73,504.26 L184.23,503.76 L184.73,503.26 L185.23,502.76 L185.73,502.25 L186.23,501.75 L186.73,501.25 L187.23,500.75 L187.73,500.25 L188.24,499.75 L188.74,499.25 L189.24,498.75 L189.74,498.25 L190.24,497.75 L190.74,497.25 L191.24,496.75 L191.74,496.25 L192.24,495.75 L192.74,495.25 L193.24,494.75 L193.74,494.24 L194.24,493.74 L194.74,493.24 L195.24,492.74 L195.74,492.24 L196.25,491.74 L196.75,491.24 L197.25,490.74 L197.75,490.24 L198.25,489.74 L198.75,489.24 L199.25,488.74 L199.75,488.24 L200.25,487.74 L200.75,487.24 L201.25,486.74 L201.75,486.23 L202.25,485.73 L202.75,485.23 L203.25,484.73 L203.75,484.23 L204.26,483.73 L204.76,483.23 L205.26,482.73 L205.76,482.23 L206.26,481.73 L206.76,481.23 L207.26,480.73 L207.76,480.23 L208.26,479.73 L208.76,479.23 L209.26,478.73 L209.76,478.22 L210.26,477.72 L210.76,477.22 L211.26,476.72 L211.76,476.22 L212.27,475.72 L212.77,475.22 L213.27,474.72 L213.77,474.22 L214.27,473.72 L214.77,473.22 L215.27,472.72 L215.77,472.22 L216.27,471.72 L216.77,471.22 L217.27,470.72 L217.77,470.21 L218.27,469.71 L218.77,469.21 L219.27,468.71 L219.77,468.21 L220.28,467.71 L220.78,467.21 L221.28,466.71 L221.78,466.21 L222.28,465.71 L222.78,465.21 L223.28,464.71 L223.78,464.21 L224.28,463.71 L224.78,463.21 L225.28,462.71 L225.78,462.20 L226.28,461.70 L226.78,461.20 L227.28,460.70 L227.78,460.20 L228.29,459.70 L228.79,459.20 L229.29,458.70 L229.79,458.20 L230.29,457.70 L230.79,457.20 L231.29,456.70 L231.79,456.20 L232.29,455.70 L232.79,455.20 L233.29,454.70 L233.79,454.19 L234.29,453.69 L234.79,453.19 L235.29,452.69 L235.79,452.19 L236.30,451.69 L236.80,451.19 L237.30,450.69 L237.80,450.19 L238.30,449.69 L238.80,449.19 L239.30,448.69 L239.80,448.19 L240.30,447.69 L240.80,447.19 L241.30,446.69 L241.80,446.18 L242.30,445.68 L242.80,445.18 L243.30,444.68 L243.80,444.18 L244.31,443.68 L244.81,443.18 L245.31,442.68 L245.81,442.18 L246.31,441.68 L246.81,441.18 L247.31,440.68 L247.81,440.18 L248.31,439.68 L248.81,439.18 L249.31,438.68 L249.81,438.17 L250.31,437.67 L250.81,437.17 L251.31,436.67 L251.81,436.17 L252.32,435.67 L252.82,435.17 L253.32,434.67 L253.82,434.17 L254.32,433.67 L254.82,433.17 L255.32,432.67 L255.82,432.17 L256.32,431.67 L256.82,431.17 L257.32,430.67 L257.82,430.16 L258.32,429.66 L258.82,429.16 L259.32,428.66 L259.82,428.16 L260.33,427.66 L260.83,427.16 L261.33,426.66 L261.83,426.16 L262.33,425.66 L262.83,425.16 L263.33,424.66 L263.83,424.16 L264.33,423.66 L264.83,423.16 L265.33,422.66 L265.83,422.15 L266.33,421.65 L266.83,421.15 L267.33,420.65 L267.83,420.15 L268.34,419.65 L268.84,419.15 L269.34,418.65 L269.84,418.15 L270.34,417.65 L270.84,417.15 L271.34,416.65 L271.84,416.15 L272.34,415.65 L272.84,415.15 L273.34,414.65 L273.84,414.14 L274.34,413.64 L274.84,413.14 L275.34,412.64 L275.84,412.14 L276.35,411.64 L276.85,411.14 L277.35,410.64 L277.85,410.14 L278.35,409.64 L278.85,409.14 L279.35,408.64 L279.85,408.14 L280.35,407.64 L280.85,407.14 L281.35,406.64 L281.85,406.13 L282.35,405.63 L282.85,405.13 L283.35,404.63 L283.85,404.13 L284.36,403.63 L284.86,403.13 L285.36,402.63 L285.86,402.13 L286.36,401.63 L286.86,401.13 L287.36,400.63 L287.86,400.13 L288.36,399.63 L288.86,399.13 L289.36,398.63 L289.86,398.12 L290.36,397.62 L290.86,397.12 L291.36,396.62 L291.86,396.12 L292.37,395.62 L292.87,395.12 L293.37,394.62 L293.87,394.12 L294.37,393.62 L294.87,393.12 L295.37,392.62 L295.87,392.12 L296.37,391.62 L296.87,391.12 L297.37,390.62 L297.87,390.11 L298.37,389.61 L298.87,389.11 L299.37,388.61 L299.87,388.11 L300.38,387.61 L300.88,387.11 L301.38,386.61 L301.88,386.11 L302.38,385.61 L302.88,385.11 L303.38,384.61 L303.88,384.11 L304.38,383.61 L304.88,383.11 L305.38,382.61 L305.88,382.10 L306.38,381.60 L306.88,381.10 L307.38,380.60 L307.88,380.10 L308.39,379.60 L308.89,379.10 L309.39,378.60 L309.89,378.10 L310.39,377.60 L310.89,377.10 L311.39,376.60 L311.89,376.10 L312.39,375.60 L312.89,375.10 L313.39,374.60 L313.89,374.09 L314.39,373.59 L314.89,373.09 L315.39,372.59 L315.89,372.09 L316.40,371.59 L316.90,371.09 L317.40,370.59 L317.90,370.09 L318.40,369.59 L318.90,369.09 L319.40,368.59 L319.90,368.09 L320.40,367.59 L320.90,367.09 L321.40,366.59 L321.90,366.08 L322.40,365.58 L322.90,365.08 L323.40,364.58 L323.90,364.08 L324.41,363.58 L324.91,363.08 L325.41,362.58 L325.91,362.08 L326.41,361.58 L326.91,361.08 L327.41,360.58 L327.91,360.08 L328.41,359.58 L328.91,359.08 L329.41,358.58 L329.91,358.07 L330.41,357.57 L330.91,357.07 L331.41,356.57 L331.91,356.07 L332.42,355.57 L332.92,355.07 L333.42,354.57 L333.92,354.07 L334.42,353.57 L334.92,353.07 L335.42,352.57 L335.92,352.07 L336.42,351.57 L336.92,351.07 L337.42,350.57 L337.92,350.06 L338.42,349.56 L338.92,349.06 L339.42,348.56 L339.92,348.06 L340.43,347.56 L340.93,347.06 L341.43,346.56 L341.93,346.06 L342.43,345.56 L342.93,345.06 L343.43,344.56 L343.93,344.06 L344.43,343.56 L344.93,343.06 L345.43,342.56 L345.93,342.05 L346.43,341.55 L346.93,341.05 L347.43,340.55 L347.93,340.05 L348.44,339.55 L348.94,339.05 L349.44,338.55 L349.94,338.05 L350.44,337.55 L350.94,337.05 L351.44,336.55 L351.94,336.05 L352.44,335.55 L352.94,335.05 L353.44,334.55 L353.94,334.04 L354.44,333.54 L354.94,333.04 L355.44,332.54 L355.94,332.04 L356.45,331.54 L356.95,331.04 L357.45,330.54 L357.95,330.04 L358.45,329.54 L358.95,329.04 L359.45,328.54 L359.95,328.04 L360.45,327.54 L360.95,327.04 L361.45,326.54 L361.95,326.03 L362.45,325.53 L362.95,325.03 L363.45,324.53 L363.95,324.03 L364.46,323.53 L364.96,323.03 L365.46,322.53 L365.96,322.03 L366.46,321.53 L366.96,321.03 L367.46,320.53 L367.96,320.03 L368.46,319.53 L368.96,319.03 L369.46,318.53 L369.96,318.02 L370.46,317.52 L370.96,317.02 L371.46,316.52 L371.96,316.02 L372.47,315.52 L372.97,315.02 L373.47,314.52 L373.97,314.02 L374.47,313.52 L374.97,313.02 L375.47,312.52 L375.97,312.02 L376.47,311.52 L376.97,311.02 L377.47,310.52 L377.97,310.01 L378.47,309.51 L378.97,309.01 L379.47,308.51 L379.97,308.01 L380.48,307.51 L380.98,307.01 L381.48,306.51 L381.98,306.01 L382.48,305.51 L382.98,305.01 L383.48,304.51 L383.98,304.01 L384.48,303.51 L384.98,303.01 L385.48,302.51 L385.98,302.00 L386.48,301.50 L386.98,301.00 L387.48,300.50 L387.98,300.00 L388.49,299.50 L388.99,299.00 L389.49,298.50 L389.99,298.00 L390.49,297.50 L390.99,297.00 L391.49,296.50 L391.99,296.00 L392.49,295.50 L392.99,295.00 L393.49,294.50 L393.99,293.99 L394.49,293.49 L394.99,292.99 L395.49,292.49 L395.99,291.99 L396.50,291.49 L397.00,290.99 L397.50,290.49 L398.00,289.99 L398.50,289.49 L399.00,288.99 L399.50,288.49 L400.00,287.99" style="stroke-width: 28; stroke: rgb(74, 144, 226)"/>

        <circle onclick="onClickEvent(evt)" id="8-6-point-4" cx="53.74099596181473" cy="634.2460376168074" r="30" style="stroke-width: 8; stroke: rgb(74, 144, 226); stroke-opacity: 1;" fill="white"/>
        <circle onclick="onClickEvent(evt)" id="8-6-point-5" cx="200.9514924668259" cy="487.03554111179614" r="30" style="stroke-width: 8; stroke: rgb(74, 144, 226); stroke-opacity: 1" fill="white"/>
        <circle onclick="onClickEvent(evt)" id="8-6-point-6" cx="348.16198897183705" cy="339.825044606785" r="30" style="stroke-width: 8; stroke: rgb(74, 144, 226); stroke-opacity: 1" fill="white"/>

        <g class="test-xti" style="font-family: Asana-Math, Asana;">
            <line x1="0" y1="339.825044606785" x2="382.5" y2="339.825044606785" fill="none" stroke="rgb(50,50,50)" stroke-opacity="1" stroke-width="8"/>
            <line x1="53.74099596181473" y1="331.825044606785" x2="53.74099596181473" y2="347.825044606785" fill="none" stroke="rgb(50,50,50)" stroke-opacity="1" stroke-width="8"/>
            <line x1="127.34624421432031" y1="331.825044606785" x2="127.34624421432031" y2="347.825044606785" fill="none" stroke="rgb(50,50,50)" stroke-opacity="1" stroke-width="8"/>
            <line x1="274.5567407193315" y1="331.825044606785" x2="274.5567407193315" y2="347.825044606785" fill="none" stroke="rgb(50,50,50)" stroke-opacity="1" stroke-width="8"/>
            <line x1="348.16198897183705" y1="331.825044606785" x2="348.16198897183705" y2="347.825044606785" fill="none" stroke="rgb(50,50,50)" stroke-opacity="1" stroke-width="8"/>
            <path d="M380,331.275044606785 L399,339.825044606785 L380,348.375044606785 Z" stroke="none" stroke-width="8" fill="rgb(50,50,50)" fill-opacity="1"/>
        </g>
        <g class="test-yti" style="font-family: Asana-Math, Asana;">
            <line x1="200.9514924668259" y1="17.5" x2="200.9514924668259" y2="960" fill="none" stroke="rgb(50,50,50)" stroke-opacity="1" stroke-width="8"/>
            <line x1="192.9514924668259" y1="928.6670306268297" x2="208.9514924668259" y2="928.6670306268297" fill="none" stroke="rgb(50,50,50)" stroke-opacity="1" stroke-width="8"/>
            <line x1="192.9514924668259" y1="855.0617823743241" x2="208.9514924668259" y2="855.0617823743241" fill="none" stroke="rgb(50,50,50)" stroke-opacity="1" stroke-width="8"/>
            <line x1="192.9514924668259" y1="781.4565341218185" x2="208.9514924668259" y2="781.4565341218185" fill="none" stroke="rgb(50,50,50)" stroke-opacity="1" stroke-width="8"/>
            <line x1="192.9514924668259" y1="707.851285869313" x2="208.9514924668259" y2="707.851285869313" fill="none" stroke="rgb(50,50,50)" stroke-opacity="1" stroke-width="8"/>
            <line x1="192.9514924668259" y1="634.2460376168074" x2="208.9514924668259" y2="634.2460376168074" fill="none" stroke="rgb(50,50,50)" stroke-opacity="1" stroke-width="8"/>
            <line x1="192.9514924668259" y1="560.6407893643018" x2="208.9514924668259" y2="560.6407893643018" fill="none" stroke="rgb(50,50,50)" stroke-opacity="1" stroke-width="8"/>
            <line x1="192.9514924668259" y1="487.03554111179614" x2="208.9514924668259" y2="487.03554111179614" fill="none" stroke="rgb(50,50,50)" stroke-opacity="1" stroke-width="8"/>
            <line x1="192.9514924668259" y1="413.4302928592906" x2="208.9514924668259" y2="413.4302928592906" fill="none" stroke="rgb(50,50,50)" stroke-opacity="1" stroke-width="8"/>
            <line x1="192.9514924668259" y1="266.2197963542794" x2="208.9514924668259" y2="266.2197963542794" fill="none" stroke="rgb(50,50,50)" stroke-opacity="1" stroke-width="8"/>
            <line x1="192.9514924668259" y1="192.61454810177372" x2="208.9514924668259" y2="192.61454810177372" fill="none" stroke="rgb(50,50,50)" stroke-opacity="1" stroke-width="8"/>
            <line x1="192.9514924668259" y1="119.00929984926825" x2="208.9514924668259" y2="119.00929984926825" fill="none" stroke="rgb(50,50,50)" stroke-opacity="1" stroke-width="8"/>
            <line x1="192.9514924668259" y1="45.40405159676254" x2="208.9514924668259" y2="45.40405159676254" fill="none" stroke="rgb(50,50,50)" stroke-opacity="1" stroke-width="8"/>
            <path d="M192.40149246682589,20 L200.9514924668259,1 L209.5014924668259,20 Z" stroke="none" stroke-width="8" fill="rgb(50,50,50)" fill-opacity="1"/>
        </g>
        <g class="test-xti" style="font-family: Asana-Math, Asana;">
            <line x1="0" y1="339.825044606785" x2="396" y2="339.825044606785" fill="none" stroke="rgb(50,50,50)" stroke-opacity="1" stroke-width="1"/>
            <line x1="53.74099596181473" y1="335.825044606785" x2="53.74099596181473" y2="343.825044606785" fill="none" stroke="rgb(50,50,50)" stroke-opacity="1" stroke-width="1"/>
            <line x1="127.34624421432031" y1="335.825044606785" x2="127.34624421432031" y2="343.825044606785" fill="none" stroke="rgb(50,50,50)" stroke-opacity="1" stroke-width="1"/>
            <line x1="274.5567407193315" y1="335.825044606785" x2="274.5567407193315" y2="343.825044606785" fill="none" stroke="rgb(50,50,50)" stroke-opacity="1" stroke-width="1"/>
            <line x1="348.16198897183705" y1="335.825044606785" x2="348.16198897183705" y2="343.825044606785" fill="none" stroke="rgb(50,50,50)" stroke-opacity="1" stroke-width="1"/>
            <path d="M391,336.225044606785 L399,339.825044606785 L391,343.42504460678504 Z" stroke="none" stroke-width="1" fill="rgb(50,50,50)" fill-opacity="1"/>
        </g>
        <g class="test-yti" style="font-family: Asana-Math, Asana;">
            <line x1="200.9514924668259" y1="4" x2="200.9514924668259" y2="960" fill="none" stroke="rgb(50,50,50)" stroke-opacity="1" stroke-width="1"/>
            <line x1="196.9514924668259" y1="928.6670306268297" x2="204.9514924668259" y2="928.6670306268297" fill="none" stroke="rgb(50,50,50)" stroke-opacity="1" stroke-width="1"/>
            <line x1="196.9514924668259" y1="855.0617823743241" x2="204.9514924668259" y2="855.0617823743241" fill="none" stroke="rgb(50,50,50)" stroke-opacity="1" stroke-width="1"/>
            <line x1="196.9514924668259" y1="781.4565341218185" x2="204.9514924668259" y2="781.4565341218185" fill="none" stroke="rgb(50,50,50)" stroke-opacity="1" stroke-width="1"/>
            <line x1="196.9514924668259" y1="707.851285869313" x2="204.9514924668259" y2="707.851285869313" fill="none" stroke="rgb(50,50,50)" stroke-opacity="1" stroke-width="1"/>
            <line x1="196.9514924668259" y1="634.2460376168074" x2="204.9514924668259" y2="634.2460376168074" fill="none" stroke="rgb(50,50,50)" stroke-opacity="1" stroke-width="1"/>
            <line x1="196.9514924668259" y1="560.6407893643018" x2="204.9514924668259" y2="560.6407893643018" fill="none" stroke="rgb(50,50,50)" stroke-opacity="1" stroke-width="1"/>
            <line x1="196.9514924668259" y1="487.03554111179614" x2="204.9514924668259" y2="487.03554111179614" fill="none" stroke="rgb(50,50,50)" stroke-opacity="1" stroke-width="1"/>
            <line x1="196.9514924668259" y1="413.4302928592906" x2="204.9514924668259" y2="413.4302928592906" fill="none" stroke="rgb(50,50,50)" stroke-opacity="1" stroke-width="1"/>
            <line x1="196.9514924668259" y1="266.2197963542794" x2="204.9514924668259" y2="266.2197963542794" fill="none" stroke="rgb(50,50,50)" stroke-opacity="1" stroke-width="1"/>
            <line x1="196.9514924668259" y1="192.61454810177372" x2="204.9514924668259" y2="192.61454810177372" fill="none" stroke="rgb(50,50,50)" stroke-opacity="1" stroke-width="1"/>
            <line x1="196.9514924668259" y1="119.00929984926825" x2="204.9514924668259" y2="119.00929984926825" fill="none" stroke="rgb(50,50,50)" stroke-opacity="1" stroke-width="1"/>
            <line x1="196.9514924668259" y1="45.40405159676254" x2="204.9514924668259" y2="45.40405159676254" fill="none" stroke="rgb(50,50,50)" stroke-opacity="1" stroke-width="1"/>
            <path d="M197.3514924668259,9 L200.9514924668259,1 L204.5514924668259,9 Z" stroke="none" stroke-width="1" fill="rgb(50,50,50)" fill-opacity="1"/>
        </g>
    </g>
    <g class="composite-shape" data-amt="diagram/shapes/plot" transform="matrix(1,0,0,1,1000,0)">

        <path onclick="onClickEvent(evt)" id="8-6-line-3" d=" M0.00,234.87 L0.50,235.37 L1.00,235.87 L1.50,236.38 L2.00,236.88 L2.50,237.38 L3.00,237.88 L3.50,238.38 L4.01,238.88 L4.51,239.38 L5.01,239.88 L5.51,240.38 L6.01,240.88 L6.51,241.38 L7.01,241.88 L7.51,242.38 L8.01,242.88 L8.51,243.38 L9.01,243.88 L9.51,244.39 L10.01,244.89 L10.51,245.39 L11.01,245.89 L11.51,246.39 L12.02,246.89 L12.52,247.39 L13.02,247.89 L13.52,248.39 L14.02,248.89 L14.52,249.39 L15.02,249.89 L15.52,250.39 L16.02,250.89 L16.52,251.39 L17.02,251.89 L17.52,252.40 L18.02,252.90 L18.52,253.40 L19.02,253.90 L19.52,254.40 L20.03,254.90 L20.53,255.40 L21.03,255.90 L21.53,256.40 L22.03,256.90 L22.53,257.40 L23.03,257.90 L23.53,258.40 L24.03,258.90 L24.53,259.40 L25.03,259.90 L25.53,260.41 L26.03,260.91 L26.53,261.41 L27.03,261.91 L27.53,262.41 L28.04,262.91 L28.54,263.41 L29.04,263.91 L29.54,264.41 L30.04,264.91 L30.54,265.41 L31.04,265.91 L31.54,266.41 L32.04,266.91 L32.54,267.41 L33.04,267.91 L33.54,268.42 L34.04,268.92 L34.54,269.42 L35.04,269.92 L35.54,270.42 L36.05,270.92 L36.55,271.42 L37.05,271.92 L37.55,272.42 L38.05,272.92 L38.55,273.42 L39.05,273.92 L39.55,274.42 L40.05,274.92 L40.55,275.42 L41.05,275.92 L41.55,276.43 L42.05,276.93 L42.55,277.43 L43.05,277.93 L43.55,278.43 L44.06,278.93 L44.56,279.43 L45.06,279.93 L45.56,280.43 L46.06,280.93 L46.56,281.43 L47.06,281.93 L47.56,282.43 L48.06,282.93 L48.56,283.43 L49.06,283.93 L49.56,284.44 L50.06,284.94 L50.56,285.44 L51.06,285.94 L51.56,286.44 L52.07,286.94 L52.57,287.44 L53.07,287.94 L53.57,288.44 L54.07,288.94 L54.57,289.44 L55.07,289.94 L55.57,290.44 L56.07,290.94 L56.57,291.44 L57.07,291.94 L57.57,292.45 L58.07,292.95 L58.57,293.45 L59.07,293.95 L59.57,294.45 L60.08,294.95 L60.58,295.45 L61.08,295.95 L61.58,296.45 L62.08,296.95 L62.58,297.45 L63.08,297.95 L63.58,298.45 L64.08,298.95 L64.58,299.45 L65.08,299.95 L65.58,300.46 L66.08,300.96 L66.58,301.46 L67.08,301.96 L67.58,302.46 L68.09,302.96 L68.59,303.46 L69.09,303.96 L69.59,304.46 L70.09,304.96 L70.59,305.46 L71.09,305.96 L71.59,306.46 L72.09,306.96 L72.59,307.46 L73.09,307.96 L73.59,308.47 L74.09,308.97 L74.59,309.47 L75.09,309.97 L75.59,310.47 L76.10,310.97 L76.60,311.47 L77.10,311.97 L77.60,312.47 L78.10,312.97 L78.60,313.47 L79.10,313.97 L79.60,314.47 L80.10,314.97 L80.60,315.47 L81.10,315.97 L81.60,316.48 L82.10,316.98 L82.60,317.48 L83.10,317.98 L83.60,318.48 L84.11,318.98 L84.61,319.48 L85.11,319.98 L85.61,320.48 L86.11,320.98 L86.61,321.48 L87.11,321.98 L87.61,322.48 L88.11,322.98 L88.61,323.48 L89.11,323.98 L89.61,324.49 L90.11,324.99 L90.61,325.49 L91.11,325.99 L91.61,326.49 L92.12,326.99 L92.62,327.49 L93.12,327.99 L93.62,328.49 L94.12,328.99 L94.62,329.49 L95.12,329.99 L95.62,330.49 L96.12,330.99 L96.62,331.49 L97.12,331.99 L97.62,332.50 L98.12,333.00 L98.62,333.50 L99.12,334.00 L99.62,334.50 L100.13,335.00 L100.63,335.50 L101.13,336.00 L101.63,336.50 L102.13,337.00 L102.63,337.50 L103.13,338.00 L103.63,338.50 L104.13,339.00 L104.63,339.50 L105.13,340.00 L105.63,340.51 L106.13,341.01 L106.63,341.51 L107.13,342.01 L107.63,342.51 L108.14,343.01 L108.64,343.51 L109.14,344.01 L109.64,344.51 L110.14,345.01 L110.64,345.51 L111.14,346.01 L111.64,346.51 L112.14,347.01 L112.64,347.51 L113.14,348.01 L113.64,348.52 L114.14,349.02 L114.64,349.52 L115.14,350.02 L115.64,350.52 L116.15,351.02 L116.65,351.52 L117.15,352.02 L117.65,352.52 L118.15,353.02 L118.65,353.52 L119.15,354.02 L119.65,354.52 L120.15,355.02 L120.65,355.52 L121.15,356.02 L121.65,356.53 L122.15,357.03 L122.65,357.53 L123.15,358.03 L123.65,358.53 L124.16,359.03 L124.66,359.53 L125.16,360.03 L125.66,360.53 L126.16,361.03 L126.66,361.53 L127.16,362.03 L127.66,362.53 L128.16,363.03 L128.66,363.53 L129.16,364.04 L129.66,364.54 L130.16,365.04 L130.66,365.54 L131.16,366.04 L131.66,366.54 L132.17,367.04 L132.67,367.54 L133.17,368.04 L133.67,368.54 L134.17,369.04 L134.67,369.54 L135.17,370.04 L135.67,370.54 L136.17,371.04 L136.67,371.54 L137.17,372.05 L137.67,372.55 L138.17,373.05 L138.67,373.55 L139.17,374.05 L139.67,374.55 L140.18,375.05 L140.68,375.55 L141.18,376.05 L141.68,376.55 L142.18,377.05 L142.68,377.55 L143.18,378.05 L143.68,378.55 L144.18,379.05 L144.68,379.55 L145.18,380.06 L145.68,380.56 L146.18,381.06 L146.68,381.56 L147.18,382.06 L147.68,382.56 L148.19,383.06 L148.69,383.56 L149.19,384.06 L149.69,384.56 L150.19,385.06 L150.69,385.56 L151.19,386.06 L151.69,386.56 L152.19,387.06 L152.69,387.56 L153.19,388.07 L153.69,388.57 L154.19,389.07 L154.69,389.57 L155.19,390.07 L155.69,390.57 L156.20,391.07 L156.70,391.57 L157.20,392.07 L157.70,392.57 L158.20,393.07 L158.70,393.57 L159.20,394.07 L159.70,394.57 L160.20,395.07 L160.70,395.57 L161.20,396.08 L161.70,396.58 L162.20,397.08 L162.70,397.58 L163.20,398.08 L163.70,398.58 L164.21,399.08 L164.71,399.58 L165.21,400.08 L165.71,400.58 L166.21,401.08 L166.71,401.58 L167.21,402.08 L167.71,402.58 L168.21,403.08 L168.71,403.58 L169.21,404.09 L169.71,404.59 L170.21,405.09 L170.71,405.59 L171.21,406.09 L171.71,406.59 L172.22,407.09 L172.72,407.59 L173.22,408.09 L173.72,408.59 L174.22,409.09 L174.72,409.59 L175.22,410.09 L175.72,410.59 L176.22,411.09 L176.72,411.59 L177.22,412.10 L177.72,412.60 L178.22,413.10 L178.72,413.60 L179.22,414.10 L179.72,414.60 L180.23,415.10 L180.73,415.60 L181.23,416.10 L181.73,416.60 L182.23,417.10 L182.73,417.60 L183.23,418.10 L183.73,418.60 L184.23,419.10 L184.73,419.60 L185.23,420.11 L185.73,420.61 L186.23,421.11 L186.73,421.61 L187.23,422.11 L187.73,422.61 L188.24,423.11 L188.74,423.61 L189.24,424.11 L189.74,424.61 L190.24,425.11 L190.74,425.61 L191.24,426.11 L191.74,426.61 L192.24,427.11 L192.74,427.61 L193.24,428.12 L193.74,428.62 L194.24,429.12 L194.74,429.62 L195.24,430.12 L195.74,430.62 L196.25,431.12 L196.75,431.62 L197.25,432.12 L197.75,432.62 L198.25,433.12 L198.75,433.62 L199.25,434.12 L199.75,434.62 L200.25,435.12 L200.75,435.62 L201.25,436.13 L201.75,436.63 L202.25,437.13 L202.75,437.63 L203.25,438.13 L203.75,438.63 L204.26,439.13 L204.76,439.63 L205.26,440.13 L205.76,440.63 L206.26,441.13 L206.76,441.63 L207.26,442.13 L207.76,442.63 L208.26,443.13 L208.76,443.63 L209.26,444.14 L209.76,444.64 L210.26,445.14 L210.76,445.64 L211.26,446.14 L211.76,446.64 L212.27,447.14 L212.77,447.64 L213.27,448.14 L213.77,448.64 L214.27,449.14 L214.77,449.64 L215.27,450.14 L215.77,450.64 L216.27,451.14 L216.77,451.64 L217.27,452.15 L217.77,452.65 L218.27,453.15 L218.77,453.65 L219.27,454.15 L219.77,454.65 L220.28,455.15 L220.78,455.65 L221.28,456.15 L221.78,456.65 L222.28,457.15 L222.78,457.65 L223.28,458.15 L223.78,458.65 L224.28,459.15 L224.78,459.65 L225.28,460.16 L225.78,460.66 L226.28,461.16 L226.78,461.66 L227.28,462.16 L227.78,462.66 L228.29,463.16 L228.79,463.66 L229.29,464.16 L229.79,464.66 L230.29,465.16 L230.79,465.66 L231.29,466.16 L231.79,466.66 L232.29,467.16 L232.79,467.66 L233.29,468.17 L233.79,468.67 L234.29,469.17 L234.79,469.67 L235.29,470.17 L235.79,470.67 L236.30,471.17 L236.80,471.67 L237.30,472.17 L237.80,472.67 L238.30,473.17 L238.80,473.67 L239.30,474.17 L239.80,474.67 L240.30,475.17 L240.80,475.67 L241.30,476.18 L241.80,476.68 L242.30,477.18 L242.80,477.68 L243.30,478.18 L243.80,478.68 L244.31,479.18 L244.81,479.68 L245.31,480.18 L245.81,480.68 L246.31,481.18 L246.81,481.68 L247.31,482.18 L247.81,482.68 L248.31,483.18 L248.81,483.68 L249.31,484.19 L249.81,484.69 L250.31,485.19 L250.81,485.69 L251.31,486.19 L251.81,486.69 L252.32,487.19 L252.82,487.69 L253.32,488.19 L253.82,488.69 L254.32,489.19 L254.82,489.69 L255.32,490.19 L255.82,490.69 L256.32,491.19 L256.82,491.69 L257.32,492.20 L257.82,492.70 L258.32,493.20 L258.82,493.70 L259.32,494.20 L259.82,494.70 L260.33,495.20 L260.83,495.70 L261.33,496.20 L261.83,496.70 L262.33,497.20 L262.83,497.70 L263.33,498.20 L263.83,498.70 L264.33,499.20 L264.83,499.70 L265.33,500.21 L265.83,500.71 L266.33,501.21 L266.83,501.71 L267.33,502.21 L267.83,502.71 L268.34,503.21 L268.84,503.71 L269.34,504.21 L269.84,504.71 L270.34,505.21 L270.84,505.71 L271.34,506.21 L271.84,506.71 L272.34,507.21 L272.84,507.71 L273.34,508.22 L273.84,508.72 L274.34,509.22 L274.84,509.72 L275.34,510.22 L275.84,510.72 L276.35,511.22 L276.85,511.72 L277.35,512.22 L277.85,512.72 L278.35,513.22 L278.85,513.72 L279.35,514.22 L279.85,514.72 L280.35,515.22 L280.85,515.72 L281.35,516.23 L281.85,516.73 L282.35,517.23 L282.85,517.73 L283.35,518.23 L283.85,518.73 L284.36,519.23 L284.86,519.73 L285.36,520.23 L285.86,520.73 L286.36,521.23 L286.86,521.73 L287.36,522.23 L287.86,522.73 L288.36,523.23 L288.86,523.73 L289.36,524.24 L289.86,524.74 L290.36,525.24 L290.86,525.74 L291.36,526.24 L291.86,526.74 L292.37,527.24 L292.87,527.74 L293.37,528.24 L293.87,528.74 L294.37,529.24 L294.87,529.74 L295.37,530.24 L295.87,530.74 L296.37,531.24 L296.87,531.74 L297.37,532.25 L297.87,532.75 L298.37,533.25 L298.87,533.75 L299.37,534.25 L299.87,534.75 L300.38,535.25 L300.88,535.75 L301.38,536.25 L301.88,536.75 L302.38,537.25 L302.88,537.75 L303.38,538.25 L303.88,538.75 L304.38,539.25 L304.88,539.75 L305.38,540.26 L305.88,540.76 L306.38,541.26 L306.88,541.76 L307.38,542.26 L307.88,542.76 L308.39,543.26 L308.89,543.76 L309.39,544.26 L309.89,544.76 L310.39,545.26 L310.89,545.76 L311.39,546.26 L311.89,546.76 L312.39,547.26 L312.89,547.76 L313.39,548.27 L313.89,548.77 L314.39,549.27 L314.89,549.77 L315.39,550.27 L315.89,550.77 L316.40,551.27 L316.90,551.77 L317.40,552.27 L317.90,552.77 L318.40,553.27 L318.90,553.77 L319.40,554.27 L319.90,554.77 L320.40,555.27 L320.90,555.77 L321.40,556.28 L321.90,556.78 L322.40,557.28 L322.90,557.78 L323.40,558.28 L323.90,558.78 L324.41,559.28 L324.91,559.78 L325.41,560.28 L325.91,560.78 L326.41,561.28 L326.91,561.78 L327.41,562.28 L327.91,562.78 L328.41,563.28 L328.91,563.78 L329.41,564.29 L329.91,564.79 L330.41,565.29 L330.91,565.79 L331.41,566.29 L331.91,566.79 L332.42,567.29 L332.92,567.79 L333.42,568.29 L333.92,568.79 L334.42,569.29 L334.92,569.79 L335.42,570.29 L335.92,570.79 L336.42,571.29 L336.92,571.79 L337.42,572.30 L337.92,572.80 L338.42,573.30 L338.92,573.80 L339.42,574.30 L339.92,574.80 L340.43,575.30 L340.93,575.80 L341.43,576.30 L341.93,576.80 L342.43,577.30 L342.93,577.80 L343.43,578.30 L343.93,578.80 L344.43,579.30 L344.93,579.80 L345.43,580.31 L345.93,580.81 L346.43,581.31 L346.93,581.81 L347.43,582.31 L347.93,582.81 L348.44,583.31 L348.94,583.81 L349.44,584.31 L349.94,584.81 L350.44,585.31 L350.94,585.81 L351.44,586.31 L351.94,586.81 L352.44,587.31 L352.94,587.81 L353.44,588.32 L353.94,588.82 L354.44,589.32 L354.94,589.82 L355.44,590.32 L355.94,590.82 L356.45,591.32 L356.95,591.82 L357.45,592.32 L357.95,592.82 L358.45,593.32 L358.95,593.82 L359.45,594.32 L359.95,594.82 L360.45,595.32 L360.95,595.82 L361.45,596.33 L361.95,596.83 L362.45,597.33 L362.95,597.83 L363.45,598.33 L363.95,598.83 L364.46,599.33 L364.96,599.83 L365.46,600.33 L365.96,600.83 L366.46,601.33 L366.96,601.83 L367.46,602.33 L367.96,602.83 L368.46,603.33 L368.96,603.83 L369.46,604.34 L369.96,604.84 L370.46,605.34 L370.96,605.84 L371.46,606.34 L371.96,606.84 L372.47,607.34 L372.97,607.84 L373.47,608.34 L373.97,608.84 L374.47,609.34 L374.97,609.84 L375.47,610.34 L375.97,610.84 L376.47,611.34 L376.97,611.84 L377.47,612.35 L377.97,612.85 L378.47,613.35 L378.97,613.85 L379.47,614.35 L379.97,614.85 L380.48,615.35 L380.98,615.85 L381.48,616.35 L381.98,616.85 L382.48,617.35 L382.98,617.85 L383.48,618.35 L383.98,618.85 L384.48,619.35 L384.98,619.85 L385.48,620.36 L385.98,620.86 L386.48,621.36 L386.98,621.86 L387.48,622.36 L387.98,622.86 L388.49,623.36 L388.99,623.86 L389.49,624.36 L389.99,624.86 L390.49,625.36 L390.99,625.86 L391.49,626.36 L391.99,626.86 L392.49,627.36 L392.99,627.86 L393.49,628.37 L393.99,628.87 L394.49,629.37 L394.99,629.87 L395.49,630.37 L395.99,630.87 L396.50,631.37 L397.00,631.87 L397.50,632.37 L398.00,632.87 L398.50,633.37 L399.00,633.87 L399.50,634.37 L400.00,634.87" style="stroke-width: 28; stroke: rgb(74, 144, 226);"/>

        <circle onclick="onClickEvent(evt)" id="8-6-point-7" cx="39.74099596181472" cy="274.61454810177395" r="30" style="stroke-width: 8; stroke: rgb(74, 144, 226); stroke-opacity: 1;" fill="white"/>
        <circle onclick="onClickEvent(evt)" id="8-6-point-8" cx="186.9514924668259" cy="421.825044606785" r="30" style="stroke-width: 8; stroke: rgb(74, 144, 226); stroke-opacity: 1;" fill="white"/>
        <circle onclick="onClickEvent(evt)" id="8-6-point-9" cx="334.16198897183705" cy="569.0355411117962" r="30" style="stroke-width: 8; stroke: rgb(74, 144, 226); stroke-opacity: 1;" fill="white"/>

        <g class="test-xti" style="font-family: Asana-Math, Asana;">
            <line x1="0" y1="421.825044606785" x2="382.5" y2="421.825044606785" fill="none" stroke="rgb(50,50,50)" stroke-opacity="1" stroke-width="8"/>
            <line x1="39.74099596181472" y1="413.825044606785" x2="39.74099596181472" y2="429.825044606785" fill="none" stroke="rgb(50,50,50)" stroke-opacity="1" stroke-width="8"/>
            <line x1="113.3462442143203" y1="413.825044606785" x2="113.3462442143203" y2="429.825044606785" fill="none" stroke="rgb(50,50,50)" stroke-opacity="1" stroke-width="8"/>
            <line x1="260.55674071933146" y1="413.825044606785" x2="260.55674071933146" y2="429.825044606785" fill="none" stroke="rgb(50,50,50)" stroke-opacity="1" stroke-width="8"/>
            <line x1="334.16198897183705" y1="413.825044606785" x2="334.16198897183705" y2="429.825044606785" fill="none" stroke="rgb(50,50,50)" stroke-opacity="1" stroke-width="8"/>
            <path d="M380,413.275044606785 L399,421.825044606785 L380,430.375044606785 Z" stroke="none" stroke-width="8" fill="rgb(50,50,50)" fill-opacity="1"/>
        </g>
        <g class="test-yti" style="font-family: Asana-Math, Asana;">
            <line x1="186.9514924668259" y1="17.5" x2="186.9514924668259" y2="960" fill="none" stroke="rgb(50,50,50)" stroke-opacity="1" stroke-width="8"/>
            <line x1="178.9514924668259" y1="937.0617823743241" x2="194.9514924668259" y2="937.0617823743241" fill="none" stroke="rgb(50,50,50)" stroke-opacity="1" stroke-width="8"/>
            <line x1="178.9514924668259" y1="863.4565341218185" x2="194.9514924668259" y2="863.4565341218185" fill="none" stroke="rgb(50,50,50)" stroke-opacity="1" stroke-width="8"/>
            <line x1="178.9514924668259" y1="789.851285869313" x2="194.9514924668259" y2="789.851285869313" fill="none" stroke="rgb(50,50,50)" stroke-opacity="1" stroke-width="8"/>
            <line x1="178.9514924668259" y1="716.2460376168074" x2="194.9514924668259" y2="716.2460376168074" fill="none" stroke="rgb(50,50,50)" stroke-opacity="1" stroke-width="8"/>
            <line x1="178.9514924668259" y1="642.6407893643018" x2="194.9514924668259" y2="642.6407893643018" fill="none" stroke="rgb(50,50,50)" stroke-opacity="1" stroke-width="8"/>
            <line x1="178.9514924668259" y1="569.0355411117962" x2="194.9514924668259" y2="569.0355411117962" fill="none" stroke="rgb(50,50,50)" stroke-opacity="1" stroke-width="8"/>
            <line x1="178.9514924668259" y1="495.4302928592906" x2="194.9514924668259" y2="495.4302928592906" fill="none" stroke="rgb(50,50,50)" stroke-opacity="1" stroke-width="8"/>
            <line x1="178.9514924668259" y1="348.21979635427954" x2="194.9514924668259" y2="348.21979635427954" fill="none" stroke="rgb(50,50,50)" stroke-opacity="1" stroke-width="8"/>
            <line x1="178.9514924668259" y1="274.61454810177395" x2="194.9514924668259" y2="274.61454810177395" fill="none" stroke="rgb(50,50,50)" stroke-opacity="1" stroke-width="8"/>
            <line x1="178.9514924668259" y1="201.00929984926836" x2="194.9514924668259" y2="201.00929984926836" fill="none" stroke="rgb(50,50,50)" stroke-opacity="1" stroke-width="8"/>
            <line x1="178.9514924668259" y1="127.40405159676266" x2="194.9514924668259" y2="127.40405159676266" fill="none" stroke="rgb(50,50,50)" stroke-opacity="1" stroke-width="8"/>
            <line x1="178.9514924668259" y1="53.79880334425718" x2="194.9514924668259" y2="53.79880334425718" fill="none" stroke="rgb(50,50,50)" stroke-opacity="1" stroke-width="8"/>
            <path d="M178.40149246682589,20 L186.9514924668259,1 L195.5014924668259,20 Z" stroke="none" stroke-width="8" fill="rgb(50,50,50)" fill-opacity="1"/>
        </g>
    </g>
    <g class="composite-shape" data-amt="diagram/shapes/plot" transform="matrix(1,0,0,1,1500,0)">

        <path onclick="onClickEvent(evt)" id="8-6-line-4" d=" M0.00,569.04 L0.50,569.04 L1.00,569.04 L1.50,569.04 L2.00,569.04 L2.50,569.04 L3.00,569.04 L3.50,569.04 L4.01,569.04 L4.51,569.04 L5.01,569.04 L5.51,569.04 L6.01,569.04 L6.51,569.04 L7.01,569.04 L7.51,569.04 L8.01,569.04 L8.51,569.04 L9.01,569.04 L9.51,569.04 L10.01,569.04 L10.51,569.04 L11.01,569.04 L11.51,569.04 L12.02,569.04 L12.52,569.04 L13.02,569.04 L13.52,569.04 L14.02,569.04 L14.52,569.04 L15.02,569.04 L15.52,569.04 L16.02,569.04 L16.52,569.04 L17.02,569.04 L17.52,569.04 L18.02,569.04 L18.52,569.04 L19.02,569.04 L19.52,569.04 L20.03,569.04 L20.53,569.04 L21.03,569.04 L21.53,569.04 L22.03,569.04 L22.53,569.04 L23.03,569.04 L23.53,569.04 L24.03,569.04 L24.53,569.04 L25.03,569.04 L25.53,569.04 L26.03,569.04 L26.53,569.04 L27.03,569.04 L27.53,569.04 L28.04,569.04 L28.54,569.04 L29.04,569.04 L29.54,569.04 L30.04,569.04 L30.54,569.04 L31.04,569.04 L31.54,569.04 L32.04,569.04 L32.54,569.04 L33.04,569.04 L33.54,569.04 L34.04,569.04 L34.54,569.04 L35.04,569.04 L35.54,569.04 L36.05,569.04 L36.55,569.04 L37.05,569.04 L37.55,569.04 L38.05,569.04 L38.55,569.04 L39.05,569.04 L39.55,569.04 L40.05,569.04 L40.55,569.04 L41.05,569.04 L41.55,569.04 L42.05,569.04 L42.55,569.04 L43.05,569.04 L43.55,569.04 L44.06,569.04 L44.56,569.04 L45.06,569.04 L45.56,569.04 L46.06,569.04 L46.56,569.04 L47.06,569.04 L47.56,569.04 L48.06,569.04 L48.56,569.04 L49.06,569.04 L49.56,569.04 L50.06,569.04 L50.56,569.04 L51.06,569.04 L51.56,569.04 L52.07,569.04 L52.57,569.04 L53.07,569.04 L53.57,569.04 L54.07,569.04 L54.57,569.04 L55.07,569.04 L55.57,569.04 L56.07,569.04 L56.57,569.04 L57.07,569.04 L57.57,569.04 L58.07,569.04 L58.57,569.04 L59.07,569.04 L59.57,569.04 L60.08,569.04 L60.58,569.04 L61.08,569.04 L61.58,569.04 L62.08,569.04 L62.58,569.04 L63.08,569.04 L63.58,569.04 L64.08,569.04 L64.58,569.04 L65.08,569.04 L65.58,569.04 L66.08,569.04 L66.58,569.04 L67.08,569.04 L67.58,569.04 L68.09,569.04 L68.59,569.04 L69.09,569.04 L69.59,569.04 L70.09,569.04 L70.59,569.04 L71.09,569.04 L71.59,569.04 L72.09,569.04 L72.59,569.04 L73.09,569.04 L73.59,569.04 L74.09,569.04 L74.59,569.04 L75.09,569.04 L75.59,569.04 L76.10,569.04 L76.60,569.04 L77.10,569.04 L77.60,569.04 L78.10,569.04 L78.60,569.04 L79.10,569.04 L79.60,569.04 L80.10,569.04 L80.60,569.04 L81.10,569.04 L81.60,569.04 L82.10,569.04 L82.60,569.04 L83.10,569.04 L83.60,569.04 L84.11,569.04 L84.61,569.04 L85.11,569.04 L85.61,569.04 L86.11,569.04 L86.61,569.04 L87.11,569.04 L87.61,569.04 L88.11,569.04 L88.61,569.04 L89.11,569.04 L89.61,569.04 L90.11,569.04 L90.61,569.04 L91.11,569.04 L91.61,569.04 L92.12,569.04 L92.62,569.04 L93.12,569.04 L93.62,569.04 L94.12,569.04 L94.62,569.04 L95.12,569.04 L95.62,569.04 L96.12,569.04 L96.62,569.04 L97.12,569.04 L97.62,569.04 L98.12,569.04 L98.62,569.04 L99.12,569.04 L99.62,569.04 L100.13,569.04 L100.63,569.04 L101.13,569.04 L101.63,569.04 L102.13,569.04 L102.63,569.04 L103.13,569.04 L103.63,569.04 L104.13,569.04 L104.63,569.04 L105.13,569.04 L105.63,569.04 L106.13,569.04 L106.63,569.04 L107.13,569.04 L107.63,569.04 L108.14,569.04 L108.64,569.04 L109.14,569.04 L109.64,569.04 L110.14,569.04 L110.64,569.04 L111.14,569.04 L111.64,569.04 L112.14,569.04 L112.64,569.04 L113.14,569.04 L113.64,569.04 L114.14,569.04 L114.64,569.04 L115.14,569.04 L115.64,569.04 L116.15,569.04 L116.65,569.04 L117.15,569.04 L117.65,569.04 L118.15,569.04 L118.65,569.04 L119.15,569.04 L119.65,569.04 L120.15,569.04 L120.65,569.04 L121.15,569.04 L121.65,569.04 L122.15,569.04 L122.65,569.04 L123.15,569.04 L123.65,569.04 L124.16,569.04 L124.66,569.04 L125.16,569.04 L125.66,569.04 L126.16,569.04 L126.66,569.04 L127.16,569.04 L127.66,569.04 L128.16,569.04 L128.66,569.04 L129.16,569.04 L129.66,569.04 L130.16,569.04 L130.66,569.04 L131.16,569.04 L131.66,569.04 L132.17,569.04 L132.67,569.04 L133.17,569.04 L133.67,569.04 L134.17,569.04 L134.67,569.04 L135.17,569.04 L135.67,569.04 L136.17,569.04 L136.67,569.04 L137.17,569.04 L137.67,569.04 L138.17,569.04 L138.67,569.04 L139.17,569.04 L139.67,569.04 L140.18,569.04 L140.68,569.04 L141.18,569.04 L141.68,569.04 L142.18,569.04 L142.68,569.04 L143.18,569.04 L143.68,569.04 L144.18,569.04 L144.68,569.04 L145.18,569.04 L145.68,569.04 L146.18,569.04 L146.68,569.04 L147.18,569.04 L147.68,569.04 L148.19,569.04 L148.69,569.04 L149.19,569.04 L149.69,569.04 L150.19,569.04 L150.69,569.04 L151.19,569.04 L151.69,569.04 L152.19,569.04 L152.69,569.04 L153.19,569.04 L153.69,569.04 L154.19,569.04 L154.69,569.04 L155.19,569.04 L155.69,569.04 L156.20,569.04 L156.70,569.04 L157.20,569.04 L157.70,569.04 L158.20,569.04 L158.70,569.04 L159.20,569.04 L159.70,569.04 L160.20,569.04 L160.70,569.04 L161.20,569.04 L161.70,569.04 L162.20,569.04 L162.70,569.04 L163.20,569.04 L163.70,569.04 L164.21,569.04 L164.71,569.04 L165.21,569.04 L165.71,569.04 L166.21,569.04 L166.71,569.04 L167.21,569.04 L167.71,569.04 L168.21,569.04 L168.71,569.04 L169.21,569.04 L169.71,569.04 L170.21,569.04 L170.71,569.04 L171.21,569.04 L171.71,569.04 L172.22,569.04 L172.72,569.04 L173.22,569.04 L173.72,569.04 L174.22,569.04 L174.72,569.04 L175.22,569.04 L175.72,569.04 L176.22,569.04 L176.72,569.04 L177.22,569.04 L177.72,569.04 L178.22,569.04 L178.72,569.04 L179.22,569.04 L179.72,569.04 L180.23,569.04 L180.73,569.04 L181.23,569.04 L181.73,569.04 L182.23,569.04 L182.73,569.04 L183.23,569.04 L183.73,569.04 L184.23,569.04 L184.73,569.04 L185.23,569.04 L185.73,569.04 L186.23,569.04 L186.73,569.04 L187.23,569.04 L187.73,569.04 L188.24,569.04 L188.74,569.04 L189.24,569.04 L189.74,569.04 L190.24,569.04 L190.74,569.04 L191.24,569.04 L191.74,569.04 L192.24,569.04 L192.74,569.04 L193.24,569.04 L193.74,569.04 L194.24,569.04 L194.74,569.04 L195.24,569.04 L195.74,569.04 L196.25,569.04 L196.75,569.04 L197.25,569.04 L197.75,569.04 L198.25,569.04 L198.75,569.04 L199.25,569.04 L199.75,569.04 L200.25,569.04 L200.75,569.04 L201.25,569.04 L201.75,569.04 L202.25,569.04 L202.75,569.04 L203.25,569.04 L203.75,569.04 L204.26,569.04 L204.76,569.04 L205.26,569.04 L205.76,569.04 L206.26,569.04 L206.76,569.04 L207.26,569.04 L207.76,569.04 L208.26,569.04 L208.76,569.04 L209.26,569.04 L209.76,569.04 L210.26,569.04 L210.76,569.04 L211.26,569.04 L211.76,569.04 L212.27,569.04 L212.77,569.04 L213.27,569.04 L213.77,569.04 L214.27,569.04 L214.77,569.04 L215.27,569.04 L215.77,569.04 L216.27,569.04 L216.77,569.04 L217.27,569.04 L217.77,569.04 L218.27,569.04 L218.77,569.04 L219.27,569.04 L219.77,569.04 L220.28,569.04 L220.78,569.04 L221.28,569.04 L221.78,569.04 L222.28,569.04 L222.78,569.04 L223.28,569.04 L223.78,569.04 L224.28,569.04 L224.78,569.04 L225.28,569.04 L225.78,569.04 L226.28,569.04 L226.78,569.04 L227.28,569.04 L227.78,569.04 L228.29,569.04 L228.79,569.04 L229.29,569.04 L229.79,569.04 L230.29,569.04 L230.79,569.04 L231.29,569.04 L231.79,569.04 L232.29,569.04 L232.79,569.04 L233.29,569.04 L233.79,569.04 L234.29,569.04 L234.79,569.04 L235.29,569.04 L235.79,569.04 L236.30,569.04 L236.80,569.04 L237.30,569.04 L237.80,569.04 L238.30,569.04 L238.80,569.04 L239.30,569.04 L239.80,569.04 L240.30,569.04 L240.80,569.04 L241.30,569.04 L241.80,569.04 L242.30,569.04 L242.80,569.04 L243.30,569.04 L243.80,569.04 L244.31,569.04 L244.81,569.04 L245.31,569.04 L245.81,569.04 L246.31,569.04 L246.81,569.04 L247.31,569.04 L247.81,569.04 L248.31,569.04 L248.81,569.04 L249.31,569.04 L249.81,569.04 L250.31,569.04 L250.81,569.04 L251.31,569.04 L251.81,569.04 L252.32,569.04 L252.82,569.04 L253.32,569.04 L253.82,569.04 L254.32,569.04 L254.82,569.04 L255.32,569.04 L255.82,569.04 L256.32,569.04 L256.82,569.04 L257.32,569.04 L257.82,569.04 L258.32,569.04 L258.82,569.04 L259.32,569.04 L259.82,569.04 L260.33,569.04 L260.83,569.04 L261.33,569.04 L261.83,569.04 L262.33,569.04 L262.83,569.04 L263.33,569.04 L263.83,569.04 L264.33,569.04 L264.83,569.04 L265.33,569.04 L265.83,569.04 L266.33,569.04 L266.83,569.04 L267.33,569.04 L267.83,569.04 L268.34,569.04 L268.84,569.04 L269.34,569.04 L269.84,569.04 L270.34,569.04 L270.84,569.04 L271.34,569.04 L271.84,569.04 L272.34,569.04 L272.84,569.04 L273.34,569.04 L273.84,569.04 L274.34,569.04 L274.84,569.04 L275.34,569.04 L275.84,569.04 L276.35,569.04 L276.85,569.04 L277.35,569.04 L277.85,569.04 L278.35,569.04 L278.85,569.04 L279.35,569.04 L279.85,569.04 L280.35,569.04 L280.85,569.04 L281.35,569.04 L281.85,569.04 L282.35,569.04 L282.85,569.04 L283.35,569.04 L283.85,569.04 L284.36,569.04 L284.86,569.04 L285.36,569.04 L285.86,569.04 L286.36,569.04 L286.86,569.04 L287.36,569.04 L287.86,569.04 L288.36,569.04 L288.86,569.04 L289.36,569.04 L289.86,569.04 L290.36,569.04 L290.86,569.04 L291.36,569.04 L291.86,569.04 L292.37,569.04 L292.87,569.04 L293.37,569.04 L293.87,569.04 L294.37,569.04 L294.87,569.04 L295.37,569.04 L295.87,569.04 L296.37,569.04 L296.87,569.04 L297.37,569.04 L297.87,569.04 L298.37,569.04 L298.87,569.04 L299.37,569.04 L299.87,569.04 L300.38,569.04 L300.88,569.04 L301.38,569.04 L301.88,569.04 L302.38,569.04 L302.88,569.04 L303.38,569.04 L303.88,569.04 L304.38,569.04 L304.88,569.04 L305.38,569.04 L305.88,569.04 L306.38,569.04 L306.88,569.04 L307.38,569.04 L307.88,569.04 L308.39,569.04 L308.89,569.04 L309.39,569.04 L309.89,569.04 L310.39,569.04 L310.89,569.04 L311.39,569.04 L311.89,569.04 L312.39,569.04 L312.89,569.04 L313.39,569.04 L313.89,569.04 L314.39,569.04 L314.89,569.04 L315.39,569.04 L315.89,569.04 L316.40,569.04 L316.90,569.04 L317.40,569.04 L317.90,569.04 L318.40,569.04 L318.90,569.04 L319.40,569.04 L319.90,569.04 L320.40,569.04 L320.90,569.04 L321.40,569.04 L321.90,569.04 L322.40,569.04 L322.90,569.04 L323.40,569.04 L323.90,569.04 L324.41,569.04 L324.91,569.04 L325.41,569.04 L325.91,569.04 L326.41,569.04 L326.91,569.04 L327.41,569.04 L327.91,569.04 L328.41,569.04 L328.91,569.04 L329.41,569.04 L329.91,569.04 L330.41,569.04 L330.91,569.04 L331.41,569.04 L331.91,569.04 L332.42,569.04 L332.92,569.04 L333.42,569.04 L333.92,569.04 L334.42,569.04 L334.92,569.04 L335.42,569.04 L335.92,569.04 L336.42,569.04 L336.92,569.04 L337.42,569.04 L337.92,569.04 L338.42,569.04 L338.92,569.04 L339.42,569.04 L339.92,569.04 L340.43,569.04 L340.93,569.04 L341.43,569.04 L341.93,569.04 L342.43,569.04 L342.93,569.04 L343.43,569.04 L343.93,569.04 L344.43,569.04 L344.93,569.04 L345.43,569.04 L345.93,569.04 L346.43,569.04 L346.93,569.04 L347.43,569.04 L347.93,569.04 L348.44,569.04 L348.94,569.04 L349.44,569.04 L349.94,569.04 L350.44,569.04 L350.94,569.04 L351.44,569.04 L351.94,569.04 L352.44,569.04 L352.94,569.04 L353.44,569.04 L353.94,569.04 L354.44,569.04 L354.94,569.04 L355.44,569.04 L355.94,569.04 L356.45,569.04 L356.95,569.04 L357.45,569.04 L357.95,569.04 L358.45,569.04 L358.95,569.04 L359.45,569.04 L359.95,569.04 L360.45,569.04 L360.95,569.04 L361.45,569.04 L361.95,569.04 L362.45,569.04 L362.95,569.04 L363.45,569.04 L363.95,569.04 L364.46,569.04 L364.96,569.04 L365.46,569.04 L365.96,569.04 L366.46,569.04 L366.96,569.04 L367.46,569.04 L367.96,569.04 L368.46,569.04 L368.96,569.04 L369.46,569.04 L369.96,569.04 L370.46,569.04 L370.96,569.04 L371.46,569.04 L371.96,569.04 L372.47,569.04 L372.97,569.04 L373.47,569.04 L373.97,569.04 L374.47,569.04 L374.97,569.04 L375.47,569.04 L375.97,569.04 L376.47,569.04 L376.97,569.04 L377.47,569.04 L377.97,569.04 L378.47,569.04 L378.97,569.04 L379.47,569.04 L379.97,569.04 L380.48,569.04 L380.98,569.04 L381.48,569.04 L381.98,569.04 L382.48,569.04 L382.98,569.04 L383.48,569.04 L383.98,569.04 L384.48,569.04 L384.98,569.04 L385.48,569.04 L385.98,569.04 L386.48,569.04 L386.98,569.04 L387.48,569.04 L387.98,569.04 L388.49,569.04 L388.99,569.04 L389.49,569.04 L389.99,569.04 L390.49,569.04 L390.99,569.04 L391.49,569.04 L391.99,569.04 L392.49,569.04 L392.99,569.04 L393.49,569.04 L393.99,569.04 L394.49,569.04 L394.99,569.04 L395.49,569.04 L395.99,569.04 L396.50,569.04 L397.00,569.04 L397.50,569.04 L398.00,569.04 L398.50,569.04 L399.00,569.04 L399.50,569.04 L400.00,569.04" style="stroke-width: 28; stroke: rgb(74, 144, 226);"/>

        <circle onclick="onClickEvent(evt)" id="8-6-point-10" cx="39.74099596181472" cy="569.0355411117962" r="30" style="stroke-width: 8; stroke: rgb(74, 144, 226); stroke-opacity: 1" fill="white"/>
        <circle onclick="onClickEvent(evt)" id="8-6-point-11" cx="186.9514924668259" cy="569.0355411117962" r="30" style="stroke-width: 8; stroke: rgb(74, 144, 226); stroke-opacity: 1" fill="white"/>
        <circle onclick="onClickEvent(evt)" id="8-6-point-12" cx="334.16198897183705" cy="569.0355411117962" r="30" style="stroke-width: 8; stroke: rgb(74, 144, 226); stroke-opacity: 1" fill="white"/>

        <g class="test-xti" style="font-family: Asana-Math, Asana;">
            <line x1="0" y1="421.825044606785" x2="382.5" y2="421.825044606785" fill="none" stroke="rgb(50,50,50)" stroke-opacity="1" stroke-width="8"/>
            <line x1="39.74099596181472" y1="413.825044606785" x2="39.74099596181472" y2="429.825044606785" fill="none" stroke="rgb(50,50,50)" stroke-opacity="1" stroke-width="8"/>
            <line x1="113.3462442143203" y1="413.825044606785" x2="113.3462442143203" y2="429.825044606785" fill="none" stroke="rgb(50,50,50)" stroke-opacity="1" stroke-width="8"/>
            <line x1="260.55674071933146" y1="413.825044606785" x2="260.55674071933146" y2="429.825044606785" fill="none" stroke="rgb(50,50,50)" stroke-opacity="1" stroke-width="8"/>
            <line x1="334.16198897183705" y1="413.825044606785" x2="334.16198897183705" y2="429.825044606785" fill="none" stroke="rgb(50,50,50)" stroke-opacity="1" stroke-width="8"/>
            <path d="M380,413.275044606785 L399,421.825044606785 L380,430.375044606785 Z" stroke="none" stroke-width="8" fill="rgb(50,50,50)" fill-opacity="1"/>
        </g>
        <g class="test-yti" style="font-family: Asana-Math, Asana;">
            <line x1="186.9514924668259" y1="17.5" x2="186.9514924668259" y2="960" fill="none" stroke="rgb(50,50,50)" stroke-opacity="1" stroke-width="8"/>
            <line x1="178.9514924668259" y1="937.0617823743241" x2="194.9514924668259" y2="937.0617823743241" fill="none" stroke="rgb(50,50,50)" stroke-opacity="1" stroke-width="8"/>
            <line x1="178.9514924668259" y1="863.4565341218185" x2="194.9514924668259" y2="863.4565341218185" fill="none" stroke="rgb(50,50,50)" stroke-opacity="1" stroke-width="8"/>
            <line x1="178.9514924668259" y1="789.851285869313" x2="194.9514924668259" y2="789.851285869313" fill="none" stroke="rgb(50,50,50)" stroke-opacity="1" stroke-width="8"/>
            <line x1="178.9514924668259" y1="716.2460376168074" x2="194.9514924668259" y2="716.2460376168074" fill="none" stroke="rgb(50,50,50)" stroke-opacity="1" stroke-width="8"/>
            <line x1="178.9514924668259" y1="642.6407893643018" x2="194.9514924668259" y2="642.6407893643018" fill="none" stroke="rgb(50,50,50)" stroke-opacity="1" stroke-width="8"/>
            <line x1="178.9514924668259" y1="569.0355411117962" x2="194.9514924668259" y2="569.0355411117962" fill="none" stroke="rgb(50,50,50)" stroke-opacity="1" stroke-width="8"/>
            <line x1="178.9514924668259" y1="495.4302928592906" x2="194.9514924668259" y2="495.4302928592906" fill="none" stroke="rgb(50,50,50)" stroke-opacity="1" stroke-width="8"/>
            <line x1="178.9514924668259" y1="348.21979635427954" x2="194.9514924668259" y2="348.21979635427954" fill="none" stroke="rgb(50,50,50)" stroke-opacity="1" stroke-width="8"/>
            <line x1="178.9514924668259" y1="274.61454810177395" x2="194.9514924668259" y2="274.61454810177395" fill="none" stroke="rgb(50,50,50)" stroke-opacity="1" stroke-width="8"/>
            <line x1="178.9514924668259" y1="201.00929984926836" x2="194.9514924668259" y2="201.00929984926836" fill="none" stroke="rgb(50,50,50)" stroke-opacity="1" stroke-width="8"/>
            <line x1="178.9514924668259" y1="127.40405159676266" x2="194.9514924668259" y2="127.40405159676266" fill="none" stroke="rgb(50,50,50)" stroke-opacity="1" stroke-width="8"/>
            <line x1="178.9514924668259" y1="53.79880334425718" x2="194.9514924668259" y2="53.79880334425718" fill="none" stroke="rgb(50,50,50)" stroke-opacity="1" stroke-width="8"/>
            <path d="M178.40149246682589,20 L186.9514924668259,1 L195.5014924668259,20 Z" stroke="none" stroke-width="8" fill="rgb(50,50,50)" fill-opacity="1"/>
        </g>
    </g>
</svg>