<svg xmlns="http://www.w3.org/2000/svg" xmlns:xlink="http://www.w3.org/1999/xlink" x="0" y="0" width="1922" height="879" style="
        width:1922px;
        height:879px;
        background: #FFF;
        fill: none;
">
        <svg xmlns="http://www.w3.org/2000/svg"/>
        
        <svg xmlns="http://www.w3.org/2000/svg" class="role-diagram-draw-area" style="overflow: visible;"><g class="shapes-region" style="stroke: black; fill: none;"><g class="composite-shape" data-amt="diagram/shapes/plot" transform="matrix(1,0,0,1,200,100)"><g><g><g class="test-xgi"><line x1="64.19097802198858" y1="0" x2="64.19097802198858" y2="700" fill="none" stroke="#c3c3c3" stroke-width="0.5"/><line x1="137.33197315192587" y1="0" x2="137.33197315192587" y2="700" fill="none" stroke="#c3c3c3" stroke-width="0.5"/><line x1="210.4729682818632" y1="0" x2="210.4729682818632" y2="700" fill="none" stroke="#c3c3c3" stroke-width="0.5"/><line x1="283.6139634118005" y1="0" x2="283.6139634118005" y2="700" fill="none" stroke="#c3c3c3" stroke-width="0.5"/><line x1="356.7549585417378" y1="0" x2="356.7549585417378" y2="700" fill="none" stroke="#c3c3c3" stroke-width="0.5"/><line x1="429.8959536716751" y1="0" x2="429.8959536716751" y2="700" fill="none" stroke="#c3c3c3" stroke-width="0.5"/><line x1="503.03694880161237" y1="0" x2="503.03694880161237" y2="700" fill="none" stroke="#c3c3c3" stroke-width="0.5"/><line x1="576.1779439315497" y1="0" x2="576.1779439315497" y2="700" fill="none" stroke="#c3c3c3" stroke-width="0.5"/><line x1="649.318939061487" y1="0" x2="649.318939061487" y2="700" fill="none" stroke="#c3c3c3" stroke-width="0.5"/></g><g class="test-ygi"><line x1="0" y1="666.3537087210286" x2="700" y2="666.3537087210286" fill="none" stroke="#c3c3c3" stroke-width="0.5"/><line x1="0" y1="595.0103417356058" x2="700" y2="595.0103417356058" fill="none" stroke="#c3c3c3" stroke-width="0.5"/><line x1="0" y1="523.6669747501832" x2="700" y2="523.6669747501832" fill="none" stroke="#c3c3c3" stroke-width="0.5"/><line x1="0" y1="452.3236077647605" x2="700" y2="452.3236077647605" fill="none" stroke="#c3c3c3" stroke-width="0.5"/><line x1="0" y1="380.98024077933775" x2="700" y2="380.98024077933775" fill="none" stroke="#c3c3c3" stroke-width="0.5"/><line x1="0" y1="309.6368737939151" x2="700" y2="309.6368737939151" fill="none" stroke="#c3c3c3" stroke-width="0.5"/><line x1="0" y1="238.29350680849234" x2="700" y2="238.29350680849234" fill="none" stroke="#c3c3c3" stroke-width="0.5"/><line x1="0" y1="166.95013982306966" x2="700" y2="166.95013982306966" fill="none" stroke="#c3c3c3" stroke-width="0.5"/><line x1="0" y1="95.60677283764687" x2="700" y2="95.60677283764687" fill="none" stroke="#c3c3c3" stroke-width="0.5"/><line x1="0" y1="24.263405852224196" x2="700" y2="24.263405852224196" fill="none" stroke="#c3c3c3" stroke-width="0.5"/></g></g><g><g class="test-xti" style="font-family: Asana-Math, Asana;"><line x1="0" y1="380.98024077933775" x2="682.5" y2="380.98024077933775" fill="none" stroke="rgb(50,50,50)" stroke-opacity="1" stroke-width="8"/><line x1="64.19097802198858" y1="374.98024077933775" x2="64.19097802198858" y2="386.98024077933775" fill="none" stroke="rgb(50,50,50)" stroke-opacity="1" stroke-width="8"/><line x1="100.76147558695723" y1="374.98024077933775" x2="100.76147558695723" y2="386.98024077933775" fill="none" stroke="rgb(50,50,50)" stroke-opacity="1" stroke-width="8"/><line x1="137.33197315192587" y1="374.98024077933775" x2="137.33197315192587" y2="386.98024077933775" fill="none" stroke="rgb(50,50,50)" stroke-opacity="1" stroke-width="8"/><line x1="173.90247071689456" y1="374.98024077933775" x2="173.90247071689456" y2="386.98024077933775" fill="none" stroke="rgb(50,50,50)" stroke-opacity="1" stroke-width="8"/><line x1="210.4729682818632" y1="374.98024077933775" x2="210.4729682818632" y2="386.98024077933775" fill="none" stroke="rgb(50,50,50)" stroke-opacity="1" stroke-width="8"/><line x1="247.04346584683182" y1="374.98024077933775" x2="247.04346584683182" y2="386.98024077933775" fill="none" stroke="rgb(50,50,50)" stroke-opacity="1" stroke-width="8"/><line x1="283.6139634118005" y1="374.98024077933775" x2="283.6139634118005" y2="386.98024077933775" fill="none" stroke="rgb(50,50,50)" stroke-opacity="1" stroke-width="8"/><line x1="320.1844609767691" y1="374.98024077933775" x2="320.1844609767691" y2="386.98024077933775" fill="none" stroke="rgb(50,50,50)" stroke-opacity="1" stroke-width="8"/><line x1="356.7549585417378" y1="374.98024077933775" x2="356.7549585417378" y2="386.98024077933775" fill="none" stroke="rgb(50,50,50)" stroke-opacity="1" stroke-width="8"/><line x1="393.32545610670644" y1="374.98024077933775" x2="393.32545610670644" y2="386.98024077933775" fill="none" stroke="rgb(50,50,50)" stroke-opacity="1" stroke-width="8"/><line x1="429.8959536716751" y1="374.98024077933775" x2="429.8959536716751" y2="386.98024077933775" fill="none" stroke="rgb(50,50,50)" stroke-opacity="1" stroke-width="8"/><line x1="466.46645123664376" y1="374.98024077933775" x2="466.46645123664376" y2="386.98024077933775" fill="none" stroke="rgb(50,50,50)" stroke-opacity="1" stroke-width="8"/><line x1="503.03694880161237" y1="374.98024077933775" x2="503.03694880161237" y2="386.98024077933775" fill="none" stroke="rgb(50,50,50)" stroke-opacity="1" stroke-width="8"/><line x1="539.607446366581" y1="374.98024077933775" x2="539.607446366581" y2="386.98024077933775" fill="none" stroke="rgb(50,50,50)" stroke-opacity="1" stroke-width="8"/><line x1="576.1779439315497" y1="374.98024077933775" x2="576.1779439315497" y2="386.98024077933775" fill="none" stroke="rgb(50,50,50)" stroke-opacity="1" stroke-width="8"/><line x1="612.7484414965184" y1="374.98024077933775" x2="612.7484414965184" y2="386.98024077933775" fill="none" stroke="rgb(50,50,50)" stroke-opacity="1" stroke-width="8"/><line x1="649.318939061487" y1="374.98024077933775" x2="649.318939061487" y2="386.98024077933775" fill="none" stroke="rgb(50,50,50)" stroke-opacity="1" stroke-width="8"/><line x1="64.19097802198858" y1="374.98024077933775" x2="64.19097802198858" y2="386.98024077933775" fill="none" stroke="rgb(50,50,50)" stroke-opacity="1" stroke-width="8"/><line x1="27.62048045701993" y1="374.98024077933775" x2="27.62048045701993" y2="386.98024077933775" fill="none" stroke="rgb(50,50,50)" stroke-opacity="1" stroke-width="8"/><line x1="64.19097802198858" y1="372.98024077933775" x2="64.19097802198858" y2="388.98024077933775" fill="none" stroke="rgb(50,50,50)" stroke-opacity="1" stroke-width="8"/><line x1="137.33197315192587" y1="372.98024077933775" x2="137.33197315192587" y2="388.98024077933775" fill="none" stroke="rgb(50,50,50)" stroke-opacity="1" stroke-width="8"/><line x1="210.4729682818632" y1="372.98024077933775" x2="210.4729682818632" y2="388.98024077933775" fill="none" stroke="rgb(50,50,50)" stroke-opacity="1" stroke-width="8"/><line x1="283.6139634118005" y1="372.98024077933775" x2="283.6139634118005" y2="388.98024077933775" fill="none" stroke="rgb(50,50,50)" stroke-opacity="1" stroke-width="8"/><line x1="356.7549585417378" y1="372.98024077933775" x2="356.7549585417378" y2="388.98024077933775" fill="none" stroke="rgb(50,50,50)" stroke-opacity="1" stroke-width="8"/><line x1="429.8959536716751" y1="372.98024077933775" x2="429.8959536716751" y2="388.98024077933775" fill="none" stroke="rgb(50,50,50)" stroke-opacity="1" stroke-width="8"/><line x1="576.1779439315497" y1="372.98024077933775" x2="576.1779439315497" y2="388.98024077933775" fill="none" stroke="rgb(50,50,50)" stroke-opacity="1" stroke-width="8"/><line x1="649.318939061487" y1="372.98024077933775" x2="649.318939061487" y2="388.98024077933775" fill="none" stroke="rgb(50,50,50)" stroke-opacity="1" stroke-width="8"/><path d="M680,372.43024077933774 L699,380.98024077933775 L680,389.53024077933776 Z" stroke="none" stroke-width="8" fill="rgb(50,50,50)" fill-opacity="1"/></g><g class="test-yti" style="font-family: Asana-Math, Asana;"><line x1="503.0369488016124" y1="17.5" x2="503.0369488016124" y2="700" fill="none" stroke="rgb(50,50,50)" stroke-opacity="1" stroke-width="8"/><line x1="495.0369488016124" y1="666.3537087210286" x2="511.0369488016124" y2="666.3537087210286" fill="none" stroke="rgb(50,50,50)" stroke-opacity="1" stroke-width="8"/><line x1="495.0369488016124" y1="595.0103417356058" x2="511.0369488016124" y2="595.0103417356058" fill="none" stroke="rgb(50,50,50)" stroke-opacity="1" stroke-width="8"/><line x1="495.0369488016124" y1="523.6669747501832" x2="511.0369488016124" y2="523.6669747501832" fill="none" stroke="rgb(50,50,50)" stroke-opacity="1" stroke-width="8"/><line x1="495.0369488016124" y1="452.3236077647605" x2="511.0369488016124" y2="452.3236077647605" fill="none" stroke="rgb(50,50,50)" stroke-opacity="1" stroke-width="8"/><line x1="495.0369488016124" y1="309.6368737939151" x2="511.0369488016124" y2="309.6368737939151" fill="none" stroke="rgb(50,50,50)" stroke-opacity="1" stroke-width="8"/><line x1="495.0369488016124" y1="238.29350680849234" x2="511.0369488016124" y2="238.29350680849234" fill="none" stroke="rgb(50,50,50)" stroke-opacity="1" stroke-width="8"/><line x1="495.0369488016124" y1="166.95013982306966" x2="511.0369488016124" y2="166.95013982306966" fill="none" stroke="rgb(50,50,50)" stroke-opacity="1" stroke-width="8"/><line x1="495.0369488016124" y1="95.60677283764687" x2="511.0369488016124" y2="95.60677283764687" fill="none" stroke="rgb(50,50,50)" stroke-opacity="1" stroke-width="8"/><line x1="495.0369488016124" y1="24.263405852224196" x2="511.0369488016124" y2="24.263405852224196" fill="none" stroke="rgb(50,50,50)" stroke-opacity="1" stroke-width="8"/><path d="M494.4869488016124,20 L503.0369488016124,1 L511.58694880161244,20 Z" stroke="none" stroke-width="8" fill="rgb(50,50,50)" fill-opacity="1"/></g><g class="test-plot-expression"><defs><clipPath id="cpwt0ydag73dg-full-view"><rect x="1" y="1" width="698" height="698"/></clipPath></defs><g clip-path="url(#cpwt0ydag73dg-full-view)"><path d=" M0.00,166.95 L0.26,166.95 L0.52,166.95 L0.77,166.95 L1.03,166.95 L1.29,166.95 L1.55,166.95 L1.81,166.95 L2.06,166.95 L2.32,166.95 L2.58,166.95 L2.84,166.95 L3.10,166.95 L3.35,166.95 L3.61,166.95 L3.87,166.95 L4.13,166.95 L4.39,166.95 L4.65,166.95 L4.90,166.95 L5.16,166.95 L5.42,166.95 L5.68,166.95 L5.94,166.95 L6.19,166.95 L6.45,166.95 L6.71,166.95 L6.97,166.95 L7.23,166.95 L7.48,166.95 L7.74,166.95 L8.00,166.95 L8.26,166.95 L8.52,166.95 L8.77,166.95 L9.03,166.95 L9.29,166.95 L9.55,166.95 L9.81,166.95 L10.06,166.95 L10.32,166.95 L10.58,166.95 L10.84,166.95 L11.10,166.95 L11.35,166.95 L11.61,166.95 L11.87,166.95 L12.13,166.95 L12.39,166.95 L12.65,166.95 L12.90,166.95 L13.16,166.95 L13.42,166.95 L13.68,166.95 L13.94,166.95 L14.19,166.95 L14.45,166.95 L14.71,166.95 L14.97,166.95 L15.23,166.95 L15.48,166.95 L15.74,166.95 L16.00,166.95 L16.26,166.95 L16.52,166.95 L16.77,166.95 L17.03,166.95 L17.29,166.95 L17.55,166.95 L17.81,166.95 L18.06,166.95 L18.32,166.95 L18.58,166.95 L18.84,166.95 L19.10,166.95 L19.35,166.95 L19.61,166.95 L19.87,166.95 L20.13,166.95 L20.39,166.95 L20.65,166.95 L20.90,166.95 L21.16,166.95 L21.42,166.95 L21.68,166.95 L21.94,166.95 L22.19,166.95 L22.45,166.95 L22.71,166.95 L22.97,166.95 L23.23,166.95 L23.48,166.95 L23.74,166.95 L24.00,166.95 L24.26,166.95 L24.52,166.95 L24.77,166.95 L25.03,166.95 L25.29,166.95 L25.55,166.95 L25.81,166.95 L26.06,166.95 L26.32,166.95 L26.58,166.95 L26.84,166.95 L27.10,166.95 L27.35,166.95 L27.61,166.95 L27.87,166.95 L28.13,166.95 L28.39,166.95 L28.65,166.95 L28.90,166.95 L29.16,166.95 L29.42,166.95 L29.68,166.95 L29.94,166.95 L30.19,166.95 L30.45,166.95 L30.71,166.95 L30.97,166.95 L31.23,166.95 L31.48,166.95 L31.74,166.95 L32.00,166.95 L32.26,166.95 L32.52,166.95 L32.77,166.95 L33.03,166.95 L33.29,166.95 L33.55,166.95 L33.81,166.95 L34.06,166.95 L34.32,166.95 L34.58,166.95 L34.84,166.95 L35.10,166.95 L35.35,166.95 L35.61,166.95 L35.87,166.95 L36.13,166.95 L36.39,166.95 L36.65,166.95 L36.90,166.95 L37.16,166.95 L37.42,166.95 L37.68,166.95 L37.94,166.95 L38.19,166.95 L38.45,166.95 L38.71,166.95 L38.97,166.95 L39.23,166.95 L39.48,166.95 L39.74,166.95 L40.00,166.95 L40.26,166.95 L40.52,166.95 L40.77,166.95 L41.03,166.95 L41.29,166.95 L41.55,166.95 L41.81,166.95 L42.06,166.95 L42.32,166.95 L42.58,166.95 L42.84,166.95 L43.10,166.95 L43.36,166.95 L43.61,166.95 L43.87,166.95 L44.13,166.95 L44.39,166.95 L44.65,166.95 L44.90,166.95 L45.16,166.95 L45.42,166.95 L45.68,166.95 L45.94,166.95 L46.19,166.95 L46.45,166.95 L46.71,166.95 L46.97,166.95 L47.23,166.95 L47.48,166.95 L47.74,166.95 L48.00,166.95 L48.26,166.95 L48.52,166.95 L48.77,166.95 L49.03,166.95 L49.29,166.95 L49.55,166.95 L49.81,166.95 L50.06,166.95 L50.32,166.95 L50.58,166.95 L50.84,166.95 L51.10,166.95 L51.36,166.95 L51.61,166.95 L51.87,166.95 L52.13,166.95 L52.39,166.95 L52.65,166.95 L52.90,166.95 L53.16,166.95 L53.42,166.95 L53.68,166.95 L53.94,166.95 L54.19,166.95 L54.45,166.95 L54.71,166.95 L54.97,166.95 L55.23,166.95 L55.48,166.95 L55.74,166.95 L56.00,166.95 L56.26,166.95 L56.52,166.95 L56.77,166.95 L57.03,166.95 L57.29,166.95 L57.55,166.95 L57.81,166.95 L58.06,166.95 L58.32,166.95 L58.58,166.95 L58.84,166.95 L59.10,166.95 L59.36,166.95 L59.61,166.95 L59.87,166.95 L60.13,166.95 L60.39,166.95 L60.65,166.95 L60.90,166.95 L61.16,166.95 L61.42,166.95 L61.68,166.95 L61.94,166.95 L62.19,166.95 L62.45,166.95 L62.71,166.95 L62.97,166.95 L63.23,166.95 L63.48,166.95 L63.74,166.95 L64.00,166.95 L64.26,166.95 L64.52,166.95 L64.77,166.95 L65.03,166.95 L65.29,166.95 L65.55,166.95 L65.81,166.95 L66.06,166.95 L66.32,166.95 L66.58,166.95 L66.84,166.95 L67.10,166.95 L67.36,166.95 L67.61,166.95 L67.87,166.95 L68.13,166.95 L68.39,166.95 L68.65,166.95 L68.90,166.95 L69.16,166.95 L69.42,166.95 L69.68,166.95 L69.94,166.95 L70.19,166.95 L70.45,166.95 L70.71,166.95 L70.97,166.95 L71.23,166.95 L71.48,166.95 L71.74,166.95 L72.00,166.95 L72.26,166.95 L72.52,166.95 L72.77,166.95 L73.03,166.95 L73.29,166.95 L73.55,166.95 L73.81,166.95 L74.06,166.95 L74.32,166.95 L74.58,166.95 L74.84,166.95 L75.10,166.95 L75.36,166.95 L75.61,166.95 L75.87,166.95 L76.13,166.95 L76.39,166.95 L76.65,166.95 L76.90,166.95 L77.16,166.95 L77.42,166.95 L77.68,166.95 L77.94,166.95 L78.19,166.95 L78.45,166.95 L78.71,166.95 L78.97,166.95 L79.23,166.95 L79.48,166.95 L79.74,166.95 L80.00,166.95 L80.26,166.95 L80.52,166.95 L80.77,166.95 L81.03,166.95 L81.29,166.95 L81.55,166.95 L81.81,166.95 L82.06,166.95 L82.32,166.95 L82.58,166.95 L82.84,166.95 L83.10,166.95 L83.36,166.95 L83.61,166.95 L83.87,166.95 L84.13,166.95 L84.39,166.95 L84.65,166.95 L84.90,166.95 L85.16,166.95 L85.42,166.95 L85.68,166.95 L85.94,166.95 L86.19,166.95 L86.45,166.95 L86.71,166.95 L86.97,166.95 L87.23,166.95 L87.48,166.95 L87.74,166.95 L88.00,166.95 L88.26,166.95 L88.52,166.95 L88.77,166.95 L89.03,166.95 L89.29,166.95 L89.55,166.95 L89.81,166.95 L90.06,166.95 L90.32,166.95 L90.58,166.95 L90.84,166.95 L91.10,166.95 L91.36,166.95 L91.61,166.95 L91.87,166.95 L92.13,166.95 L92.39,166.95 L92.65,166.95 L92.90,166.95 L93.16,166.95 L93.42,166.95 L93.68,166.95 L93.94,166.95 L94.19,166.95 L94.45,166.95 L94.71,166.95 L94.97,166.95 L95.23,166.95 L95.48,166.95 L95.74,166.95 L96.00,166.95 L96.26,166.95 L96.52,166.95 L96.77,166.95 L97.03,166.95 L97.29,166.95 L97.55,166.95 L97.81,166.95 L98.06,166.95 L98.32,166.95 L98.58,166.95 L98.84,166.95 L99.10,166.95 L99.36,166.95 L99.61,166.95 L99.87,166.95 L100.13,166.95 L100.39,166.95 L100.65,166.95 L100.90,166.95 L101.16,166.95 L101.42,166.95 L101.68,166.95 L101.94,166.95 L102.19,166.95 L102.45,166.95 L102.71,166.95 L102.97,166.95 L103.23,166.95 L103.48,166.95 L103.74,166.95 L104.00,166.95 L104.26,166.95 L104.52,166.95 L104.77,166.95 L105.03,166.95 L105.29,166.95 L105.55,166.95 L105.81,166.95 L106.06,166.95 L106.32,166.95 L106.58,166.95 L106.84,166.95 L107.10,166.95 L107.36,166.95 L107.61,166.95 L107.87,166.95 L108.13,166.95 L108.39,166.95 L108.65,166.95 L108.90,166.95 L109.16,166.95 L109.42,166.95 L109.68,166.95 L109.94,166.95 L110.19,166.95 L110.45,166.95 L110.71,166.95 L110.97,166.95 L111.23,166.95 L111.48,166.95 L111.74,166.95 L112.00,166.95 L112.26,166.95 L112.52,166.95 L112.77,166.95 L113.03,166.95 L113.29,166.95 L113.55,166.95 L113.81,166.95 L114.06,166.95 L114.32,166.95 L114.58,166.95 L114.84,166.95 L115.10,166.95 L115.36,166.95 L115.61,166.95 L115.87,166.95 L116.13,166.95 L116.39,166.95 L116.65,166.95 L116.90,166.95 L117.16,166.95 L117.42,166.95 L117.68,166.95 L117.94,166.95 L118.19,166.95 L118.45,166.95 L118.71,166.95 L118.97,166.95 L119.23,166.95 L119.48,166.95 L119.74,166.95 L120.00,166.95 L120.26,166.95 L120.52,166.95 L120.77,166.95 L121.03,166.95 L121.29,166.95 L121.55,166.95 L121.81,166.95 L122.06,166.95 L122.32,166.95 L122.58,166.95 L122.84,166.95 L123.10,166.95 L123.36,166.95 L123.61,166.95 L123.87,166.95 L124.13,166.95 L124.39,166.95 L124.65,166.95 L124.90,166.95 L125.16,166.95 L125.42,166.95 L125.68,166.95 L125.94,166.95 L126.19,166.95 L126.45,166.95 L126.71,166.95 L126.97,166.95 L127.23,166.95 L127.48,166.95 L127.74,166.95 L128.00,166.95 L128.26,166.95 L128.52,166.95 L128.77,166.95 L129.03,166.95 L129.29,166.95 L129.55,166.95 L129.81,166.95 L130.07,166.95 L130.32,166.95 L130.58,166.95 L130.84,166.95 L131.10,166.95 L131.36,166.95 L131.61,166.95 L131.87,166.95 L132.13,166.95 L132.39,166.95 L132.65,166.95 L132.90,166.95 L133.16,166.95 L133.42,166.95 L133.68,166.95 L133.94,166.95 L134.19,166.95 L134.45,166.95 L134.71,166.95 L134.97,166.95 L135.23,166.95 L135.48,166.95 L135.74,166.95 L136.00,166.95 L136.26,166.95 L136.52,166.95 L136.77,166.95 L137.03,166.95 L137.29,166.95 L137.55,166.95 L137.81,166.95 L138.07,166.95 L138.32,166.95 L138.58,166.95 L138.84,166.95 L139.10,166.95 L139.36,166.95 L139.61,166.95 L139.87,166.95 L140.13,166.95 L140.39,166.95 L140.65,166.95 L140.90,166.95 L141.16,166.95 L141.42,166.95 L141.68,166.95 L141.94,166.95 L142.19,166.95 L142.45,166.95 L142.71,166.95 L142.97,166.95 L143.23,166.95 L143.48,166.95 L143.74,166.95 L144.00,166.95 L144.26,166.95 L144.52,166.95 L144.77,166.95 L145.03,166.95 L145.29,166.95 L145.55,166.95 L145.81,166.95 L146.07,166.95 L146.32,166.95 L146.58,166.95 L146.84,166.95 L147.10,166.95 L147.36,166.95 L147.61,166.95 L147.87,166.95 L148.13,166.95 L148.39,166.95 L148.65,166.95 L148.90,166.95 L149.16,166.95 L149.42,166.95 L149.68,166.95 L149.94,166.95 L150.19,166.95 L150.45,166.95 L150.71,166.95 L150.97,166.95 L151.23,166.95 L151.48,166.95 L151.74,166.95 L152.00,166.95 L152.26,166.95 L152.52,166.95 L152.77,166.95 L153.03,166.95 L153.29,166.95 L153.55,166.95 L153.81,166.95 L154.07,166.95 L154.32,166.95 L154.58,166.95 L154.84,166.95 L155.10,166.95 L155.36,166.95 L155.61,166.95 L155.87,166.95 L156.13,166.95 L156.39,166.95 L156.65,166.95 L156.90,166.95 L157.16,166.95 L157.42,166.95 L157.68,166.95 L157.94,166.95 L158.19,166.95 L158.45,166.95 L158.71,166.95 L158.97,166.95 L159.23,166.95 L159.48,166.95 L159.74,166.95 L160.00,166.95 L160.26,166.95 L160.52,166.95 L160.77,166.95 L161.03,166.95 L161.29,166.95 L161.55,166.95 L161.81,166.95 L162.07,166.95 L162.32,166.95 L162.58,166.95 L162.84,166.95 L163.10,166.95 L163.36,166.95 L163.61,166.95 L163.87,166.95 L164.13,166.95 L164.39,166.95 L164.65,166.95 L164.90,166.95 L165.16,166.95 L165.42,166.95 L165.68,166.95 L165.94,166.95 L166.19,166.95 L166.45,166.95 L166.71,166.95 L166.97,166.95 L167.23,166.95 L167.48,166.95 L167.74,166.95 L168.00,166.95 L168.26,166.95 L168.52,166.95 L168.77,166.95 L169.03,166.95 L169.29,166.95 L169.55,166.95 L169.81,166.95 L170.07,166.95 L170.32,166.95 L170.58,166.95 L170.84,166.95 L171.10,166.95 L171.36,166.95 L171.61,166.95 L171.87,166.95 L172.13,166.95 L172.39,166.95 L172.65,166.95 L172.90,166.95 L173.16,166.95 L173.42,166.95 L173.68,166.95 L173.94,166.95 L174.19,166.95 L174.45,166.95 L174.71,166.95 L174.97,166.95 L175.23,166.95 L175.48,166.95 L175.74,166.95 L176.00,166.95 L176.26,166.95 L176.52,166.95 L176.77,166.95 L177.03,166.95 L177.29,166.95 L177.55,166.95 L177.81,166.95 L178.07,166.95 L178.32,166.95 L178.58,166.95 L178.84,166.95 L179.10,166.95 L179.36,166.95 L179.61,166.95 L179.87,166.95 L180.13,166.95 L180.39,166.95 L180.65,166.95 L180.90,166.95 L181.16,166.95 L181.42,166.95 L181.68,166.95 L181.94,166.95 L182.19,166.95 L182.45,166.95 L182.71,166.95 L182.97,166.95 L183.23,166.95 L183.48,166.95 L183.74,166.95 L184.00,166.95 L184.26,166.95 L184.52,166.95 L184.77,166.95 L185.03,166.95 L185.29,166.95 L185.55,166.95 L185.81,166.95 L186.07,166.95 L186.32,166.95 L186.58,166.95 L186.84,166.95 L187.10,166.95 L187.36,166.95 L187.61,166.95 L187.87,166.95 L188.13,166.95 L188.39,166.95 L188.65,166.95 L188.90,166.95 L189.16,166.95 L189.42,166.95 L189.68,166.95 L189.94,166.95 L190.19,166.95 L190.45,166.95 L190.71,166.95 L190.97,166.95 L191.23,166.95 L191.48,166.95 L191.74,166.95 L192.00,166.95 L192.26,166.95 L192.52,166.95 L192.77,166.95 L193.03,166.95 L193.29,166.95 L193.55,166.95 L193.81,166.95 L194.07,166.95 L194.32,166.95 L194.58,166.95 L194.84,166.95 L195.10,166.95 L195.36,166.95 L195.61,166.95 L195.87,166.95 L196.13,166.95 L196.39,166.95 L196.65,166.95 L196.90,166.95 L197.16,166.95 L197.42,166.95 L197.68,166.95 L197.94,166.95 L198.19,166.95 L198.45,166.95 L198.71,166.95 L198.97,166.95 L199.23,166.95 L199.48,166.95 L199.74,166.95 L200.00,166.95 L200.26,166.95 L200.52,166.95 L200.77,166.95 L201.03,166.95 L201.29,166.95 L201.55,166.95 L201.81,166.95 L202.07,166.95 L202.32,166.95 L202.58,166.95 L202.84,166.95 L203.10,166.95 L203.36,166.95 L203.61,166.95 L203.87,166.95 L204.13,166.95 L204.39,166.95 L204.65,166.95 L204.90,166.95 L205.16,166.95 L205.42,166.95 L205.68,166.95 L205.94,166.95 L206.19,166.95 L206.45,166.95 L206.71,166.95 L206.97,166.95 L207.23,166.95 L207.48,166.95 L207.74,166.95 L208.00,166.95 L208.26,166.95 L208.52,166.95 L208.77,166.95 L209.03,166.95 L209.29,166.95 L209.55,166.95 L209.81,166.95 L210.07,166.95 L210.32,166.95 L210.58,166.95 L210.84,166.95 L211.10,166.95 L211.36,166.95 L211.61,166.95 L211.87,166.95 L212.13,166.95 L212.39,166.95 L212.65,166.95 L212.90,166.95 L213.16,166.95 L213.42,166.95 L213.68,166.95 L213.94,166.95 L214.19,166.95 L214.45,166.95 L214.71,166.95 L214.97,166.95 L215.23,166.95 L215.48,166.95 L215.74,166.95 L216.00,166.95 L216.26,166.95 L216.52,166.95 L216.78,166.95 L217.03,166.95 L217.29,166.95 L217.55,166.95 L217.81,166.95 L218.07,166.95 L218.32,166.95 L218.58,166.95 L218.84,166.95 L219.10,166.95 L219.36,166.95 L219.61,166.95 L219.87,166.95 L220.13,166.95 L220.39,166.95 L220.65,166.95 L220.90,166.95 L221.16,166.95 L221.42,166.95 L221.68,166.95 L221.94,166.95 L222.19,166.95 L222.45,166.95 L222.71,166.95 L222.97,166.95 L223.23,166.95 L223.48,166.95 L223.74,166.95 L224.00,166.95 L224.26,166.95 L224.52,166.95 L224.78,166.95 L225.03,166.95 L225.29,166.95 L225.55,166.95 L225.81,166.95 L226.07,166.95 L226.32,166.95 L226.58,166.95 L226.84,166.95 L227.10,166.95 L227.36,166.95 L227.61,166.95 L227.87,166.95 L228.13,166.95 L228.39,166.95 L228.65,166.95 L228.90,166.95 L229.16,166.95 L229.42,166.95 L229.68,166.95 L229.94,166.95 L230.19,166.95 L230.45,166.95 L230.71,166.95 L230.97,166.95 L231.23,166.95 L231.48,166.95 L231.74,166.95 L232.00,166.95 L232.26,166.95 L232.52,166.95 L232.78,166.95 L233.03,166.95 L233.29,166.95 L233.55,166.95 L233.81,166.95 L234.07,166.95 L234.32,166.95 L234.58,166.95 L234.84,166.95 L235.10,166.95 L235.36,166.95 L235.61,166.95 L235.87,166.95 L236.13,166.95 L236.39,166.95 L236.65,166.95 L236.90,166.95 L237.16,166.95 L237.42,166.95 L237.68,166.95 L237.94,166.95 L238.19,166.95 L238.45,166.95 L238.71,166.95 L238.97,166.95 L239.23,166.95 L239.48,166.95 L239.74,166.95 L240.00,166.95 L240.26,166.95 L240.52,166.95 L240.78,166.95 L241.03,166.95 L241.29,166.95 L241.55,166.95 L241.81,166.95 L242.07,166.95 L242.32,166.95 L242.58,166.95 L242.84,166.95 L243.10,166.95 L243.36,166.95 L243.61,166.95 L243.87,166.95 L244.13,166.95 L244.39,166.95 L244.65,166.95 L244.90,166.95 L245.16,166.95 L245.42,166.95 L245.68,166.95 L245.94,166.95 L246.19,166.95 L246.45,166.95 L246.71,166.95 L246.97,166.95 L247.23,166.95 L247.48,166.95 L247.74,166.95 L248.00,166.95 L248.26,166.95 L248.52,166.95 L248.78,166.95 L249.03,166.95 L249.29,166.95 L249.55,166.95 L249.81,166.95 L250.07,166.95 L250.32,166.95 L250.58,166.95 L250.84,166.95 L251.10,166.95 L251.36,166.95 L251.61,166.95 L251.87,166.95 L252.13,166.95 L252.39,166.95 L252.65,166.95 L252.90,166.95 L253.16,166.95 L253.42,166.95 L253.68,166.95 L253.94,166.95 L254.19,166.95 L254.45,166.95 L254.71,166.95 L254.97,166.95 L255.23,166.95 L255.48,166.95 L255.74,166.95 L256.00,166.95 L256.26,166.95 L256.52,166.95 L256.78,166.95 L257.03,166.95 L257.29,166.95 L257.55,166.95 L257.81,166.95 L258.07,166.95 L258.32,166.95 L258.58,166.95 L258.84,166.95 L259.10,166.95 L259.36,166.95 L259.61,166.95 L259.87,166.95 L260.13,166.95 L260.39,166.95 L260.65,166.95 L260.90,166.95 L261.16,166.95 L261.42,166.95 L261.68,166.95 L261.94,166.95 L262.19,166.95 L262.45,166.95 L262.71,166.95 L262.97,166.95 L263.23,166.95 L263.48,166.95 L263.74,166.95 L264.00,166.95 L264.26,166.95 L264.52,166.95 L264.78,166.95 L265.03,166.95 L265.29,166.95 L265.55,166.95 L265.81,166.95 L266.07,166.95 L266.32,166.95 L266.58,166.95 L266.84,166.95 L267.10,166.95 L267.36,166.95 L267.61,166.95 L267.87,166.95 L268.13,166.95 L268.39,166.95 L268.65,166.95 L268.90,166.95 L269.16,166.95 L269.42,166.95 L269.68,166.95 L269.94,166.95 L270.19,166.95 L270.45,166.95 L270.71,166.95 L270.97,166.95 L271.23,166.95 L271.48,166.95 L271.74,166.95 L272.00,166.95 L272.26,166.95 L272.52,166.95 L272.78,166.95 L273.03,166.95 L273.29,166.95 L273.55,166.95 L273.81,166.95 L274.07,166.95 L274.32,166.95 L274.58,166.95 L274.84,166.95 L275.10,166.95 L275.36,166.95 L275.61,166.95 L275.87,166.95 L276.13,166.95 L276.39,166.95 L276.65,166.95 L276.90,166.95 L277.16,166.95 L277.42,166.95 L277.68,166.95 L277.94,166.95 L278.19,166.95 L278.45,166.95 L278.71,166.95 L278.97,166.95 L279.23,166.95 L279.48,166.95 L279.74,166.95 L280.00,166.95 L280.26,166.95 L280.52,166.95 L280.78,166.95 L281.03,166.95 L281.29,166.95 L281.55,166.95 L281.81,166.95 L282.07,166.95 L282.32,166.95 L282.58,166.95 L282.84,166.95 L283.10,166.95 L283.36,166.95 L283.61,166.95" style="stroke-width: 8; stroke: rgb(74, 144, 226); stroke-opacity: 0.8;"/><g><circle cx="283.6139634118005" cy="166.95013982306966" r="4.5" style="stroke-width: 8; stroke: rgb(74, 144, 226); stroke-opacity: 1; fill: rgb(60, 180, 75); fill-opacity: 0.15;"/></g><path d=" M283.61,523.67 L283.99,523.67 L284.37,523.67 L284.75,523.67 L285.13,523.67 L285.51,523.67 L285.89,523.67 L286.27,523.67 L286.64,523.67 L287.02,523.67 L287.40,523.67 L287.78,523.67 L288.16,523.67 L288.54,523.67 L288.92,523.67 L289.30,523.67 L289.68,523.67 L290.05,523.67 L290.43,523.67 L290.81,523.67 L291.19,523.67 L291.57,523.67 L291.95,523.67 L292.33,523.67 L292.71,523.67 L293.09,523.67 L293.46,523.67 L293.84,523.67 L294.22,523.67 L294.60,523.67 L294.98,523.67 L295.36,523.67 L295.74,523.67 L296.12,523.67 L296.50,523.67 L296.87,523.67 L297.25,523.67 L297.63,523.67 L298.01,523.67 L298.39,523.67 L298.77,523.67 L299.15,523.67 L299.53,523.67 L299.91,523.67 L300.28,523.67 L300.66,523.67 L301.04,523.67 L301.42,523.67 L301.80,523.67 L302.18,523.67 L302.56,523.67 L302.94,523.67 L303.32,523.67 L303.69,523.67 L304.07,523.67 L304.45,523.67 L304.83,523.67 L305.21,523.67 L305.59,523.67 L305.97,523.67 L306.35,523.67 L306.73,523.67 L307.10,523.67 L307.48,523.67 L307.86,523.67 L308.24,523.67 L308.62,523.67 L309.00,523.67 L309.38,523.67 L309.76,523.67 L310.14,523.67 L310.51,523.67 L310.89,523.67 L311.27,523.67 L311.65,523.67 L312.03,523.67 L312.41,523.67 L312.79,523.67 L313.17,523.67 L313.55,523.67 L313.92,523.67 L314.30,523.67 L314.68,523.67 L315.06,523.67 L315.44,523.67 L315.82,523.67 L316.20,523.67 L316.58,523.67 L316.96,523.67 L317.33,523.67 L317.71,523.67 L318.09,523.67 L318.47,523.67 L318.85,523.67 L319.23,523.67 L319.61,523.67 L319.99,523.67 L320.37,523.67 L320.74,523.67 L321.12,523.67 L321.50,523.67 L321.88,523.67 L322.26,523.67 L322.64,523.67 L323.02,523.67 L323.40,523.67 L323.77,523.67 L324.15,523.67 L324.53,523.67 L324.91,523.67 L325.29,523.67 L325.67,523.67 L326.05,523.67 L326.43,523.67 L326.81,523.67 L327.18,523.67 L327.56,523.67 L327.94,523.67 L328.32,523.67 L328.70,523.67 L329.08,523.67 L329.46,523.67 L329.84,523.67 L330.22,523.67 L330.59,523.67 L330.97,523.67 L331.35,523.67 L331.73,523.67 L332.11,523.67 L332.49,523.67 L332.87,523.67 L333.25,523.67 L333.63,523.67 L334.00,523.67 L334.38,523.67 L334.76,523.67 L335.14,523.67 L335.52,523.67 L335.90,523.67 L336.28,523.67 L336.66,523.67 L337.04,523.67 L337.41,523.67 L337.79,523.67 L338.17,523.67 L338.55,523.67 L338.93,523.67 L339.31,523.67 L339.69,523.67 L340.07,523.67 L340.45,523.67 L340.82,523.67 L341.20,523.67 L341.58,523.67 L341.96,523.67 L342.34,523.67 L342.72,523.67 L343.10,523.67 L343.48,523.67 L343.86,523.67 L344.23,523.67 L344.61,523.67 L344.99,523.67 L345.37,523.67 L345.75,523.67 L346.13,523.67 L346.51,523.67 L346.89,523.67 L347.27,523.67 L347.64,523.67 L348.02,523.67 L348.40,523.67 L348.78,523.67 L349.16,523.67 L349.54,523.67 L349.92,523.67 L350.30,523.67 L350.68,523.67 L351.05,523.67 L351.43,523.67 L351.81,523.67 L352.19,523.67 L352.57,523.67 L352.95,523.67 L353.33,523.67 L353.71,523.67 L354.09,523.67 L354.46,523.67 L354.84,523.67 L355.22,523.67 L355.60,523.67 L355.98,523.67 L356.36,523.67 L356.74,523.67 L357.12,523.67 L357.50,523.67 L357.87,523.67 L358.25,523.67 L358.63,523.67 L359.01,523.67 L359.39,523.67 L359.77,523.67 L360.15,523.67 L360.53,523.67 L360.90,523.67 L361.28,523.67 L361.66,523.67 L362.04,523.67 L362.42,523.67 L362.80,523.67 L363.18,523.67 L363.56,523.67 L363.94,523.67 L364.31,523.67 L364.69,523.67 L365.07,523.67 L365.45,523.67 L365.83,523.67 L366.21,523.67 L366.59,523.67 L366.97,523.67 L367.35,523.67 L367.72,523.67 L368.10,523.67 L368.48,523.67 L368.86,523.67 L369.24,523.67 L369.62,523.67 L370.00,523.67 L370.38,523.67 L370.76,523.67 L371.13,523.67 L371.51,523.67 L371.89,523.67 L372.27,523.67 L372.65,523.67 L373.03,523.67 L373.41,523.67 L373.79,523.67 L374.17,523.67 L374.54,523.67 L374.92,523.67 L375.30,523.67 L375.68,523.67 L376.06,523.67 L376.44,523.67 L376.82,523.67 L377.20,523.67 L377.58,523.67 L377.95,523.67 L378.33,523.67 L378.71,523.67 L379.09,523.67 L379.47,523.67 L379.85,523.67 L380.23,523.67 L380.61,523.67 L380.99,523.67 L381.36,523.67 L381.74,523.67 L382.12,523.67 L382.50,523.67 L382.88,523.67 L383.26,523.67 L383.64,523.67 L384.02,523.67 L384.40,523.67 L384.77,523.67 L385.15,523.67 L385.53,523.67 L385.91,523.67 L386.29,523.67 L386.67,523.67 L387.05,523.67 L387.43,523.67 L387.81,523.67 L388.18,523.67 L388.56,523.67 L388.94,523.67 L389.32,523.67 L389.70,523.67 L390.08,523.67 L390.46,523.67 L390.84,523.67 L391.22,523.67 L391.59,523.67 L391.97,523.67 L392.35,523.67 L392.73,523.67 L393.11,523.67 L393.49,523.67 L393.87,523.67 L394.25,523.67 L394.62,523.67 L395.00,523.67 L395.38,523.67 L395.76,523.67 L396.14,523.67 L396.52,523.67 L396.90,523.67 L397.28,523.67 L397.66,523.67 L398.03,523.67 L398.41,523.67 L398.79,523.67 L399.17,523.67 L399.55,523.67 L399.93,523.67 L400.31,523.67 L400.69,523.67 L401.07,523.67 L401.44,523.67 L401.82,523.67 L402.20,523.67 L402.58,523.67 L402.96,523.67 L403.34,523.67 L403.72,523.67 L404.10,523.67 L404.48,523.67 L404.85,523.67 L405.23,523.67 L405.61,523.67 L405.99,523.67 L406.37,523.67 L406.75,523.67 L407.13,523.67 L407.51,523.67 L407.89,523.67 L408.26,523.67 L408.64,523.67 L409.02,523.67 L409.40,523.67 L409.78,523.67 L410.16,523.67 L410.54,523.67 L410.92,523.67 L411.30,523.67 L411.67,523.67 L412.05,523.67 L412.43,523.67 L412.81,523.67 L413.19,523.67 L413.57,523.67 L413.95,523.67 L414.33,523.67 L414.71,523.67 L415.08,523.67 L415.46,523.67 L415.84,523.67 L416.22,523.67 L416.60,523.67 L416.98,523.67 L417.36,523.67 L417.74,523.67 L418.12,523.67 L418.49,523.67 L418.87,523.67 L419.25,523.67 L419.63,523.67 L420.01,523.67 L420.39,523.67 L420.77,523.67 L421.15,523.67 L421.53,523.67 L421.90,523.67 L422.28,523.67 L422.66,523.67 L423.04,523.67 L423.42,523.67 L423.80,523.67 L424.18,523.67 L424.56,523.67 L424.94,523.67 L425.31,523.67 L425.69,523.67 L426.07,523.67 L426.45,523.67 L426.83,523.67 L427.21,523.67 L427.59,523.67 L427.97,523.67 L428.35,523.67 L428.72,523.67 L429.10,523.67 L429.48,523.67 L429.86,523.67 L430.24,523.67 L430.62,523.67 L431.00,523.67 L431.38,523.67 L431.75,523.67 L432.13,523.67 L432.51,523.67 L432.89,523.67 L433.27,523.67 L433.65,523.67 L434.03,523.67 L434.41,523.67 L434.79,523.67 L435.16,523.67 L435.54,523.67 L435.92,523.67 L436.30,523.67 L436.68,523.67 L437.06,523.67 L437.44,523.67 L437.82,523.67 L438.20,523.67 L438.57,523.67 L438.95,523.67 L439.33,523.67 L439.71,523.67 L440.09,523.67 L440.47,523.67 L440.85,523.67 L441.23,523.67 L441.61,523.67 L441.98,523.67 L442.36,523.67 L442.74,523.67 L443.12,523.67 L443.50,523.67 L443.88,523.67 L444.26,523.67 L444.64,523.67 L445.02,523.67 L445.39,523.67 L445.77,523.67 L446.15,523.67 L446.53,523.67 L446.91,523.67 L447.29,523.67 L447.67,523.67 L448.05,523.67 L448.43,523.67 L448.80,523.67 L449.18,523.67 L449.56,523.67 L449.94,523.67 L450.32,523.67 L450.70,523.67 L451.08,523.67 L451.46,523.67 L451.84,523.67 L452.21,523.67 L452.59,523.67 L452.97,523.67 L453.35,523.67 L453.73,523.67 L454.11,523.67 L454.49,523.67 L454.87,523.67 L455.25,523.67 L455.62,523.67 L456.00,523.67 L456.38,523.67 L456.76,523.67 L457.14,523.67 L457.52,523.67 L457.90,523.67 L458.28,523.67 L458.66,523.67 L459.03,523.67 L459.41,523.67 L459.79,523.67 L460.17,523.67 L460.55,523.67 L460.93,523.67 L461.31,523.67 L461.69,523.67 L462.07,523.67 L462.44,523.67 L462.82,523.67 L463.20,523.67 L463.58,523.67 L463.96,523.67 L464.34,523.67 L464.72,523.67 L465.10,523.67 L465.48,523.67 L465.85,523.67 L466.23,523.67 L466.61,523.67 L466.99,523.67 L467.37,523.67 L467.75,523.67 L468.13,523.67 L468.51,523.67 L468.88,523.67 L469.26,523.67 L469.64,523.67 L470.02,523.67 L470.40,523.67 L470.78,523.67 L471.16,523.67 L471.54,523.67 L471.92,523.67 L472.29,523.67 L472.67,523.67 L473.05,523.67 L473.43,523.67 L473.81,523.67 L474.19,523.67 L474.57,523.67 L474.95,523.67 L475.33,523.67 L475.70,523.67 L476.08,523.67 L476.46,523.67 L476.84,523.67 L477.22,523.67 L477.60,523.67 L477.98,523.67 L478.36,523.67 L478.74,523.67 L479.11,523.67 L479.49,523.67 L479.87,523.67 L480.25,523.67 L480.63,523.67 L481.01,523.67 L481.39,523.67 L481.77,523.67 L482.15,523.67 L482.52,523.67 L482.90,523.67 L483.28,523.67 L483.66,523.67 L484.04,523.67 L484.42,523.67 L484.80,523.67 L485.18,523.67 L485.56,523.67 L485.93,523.67 L486.31,523.67 L486.69,523.67 L487.07,523.67 L487.45,523.67 L487.83,523.67 L488.21,523.67 L488.59,523.67 L488.97,523.67 L489.34,523.67 L489.72,523.67 L490.10,523.67 L490.48,523.67 L490.86,523.67 L491.24,523.67 L491.62,523.67 L492.00,523.67 L492.38,523.67 L492.75,523.67 L493.13,523.67 L493.51,523.67 L493.89,523.67 L494.27,523.67 L494.65,523.67 L495.03,523.67 L495.41,523.67 L495.79,523.67 L496.16,523.67 L496.54,523.67 L496.92,523.67 L497.30,523.67 L497.68,523.67 L498.06,523.67 L498.44,523.67 L498.82,523.67 L499.20,523.67 L499.57,523.67 L499.95,523.67 L500.33,523.67 L500.71,523.67 L501.09,523.67 L501.47,523.67 L501.85,523.67 L502.23,523.67 L502.60,523.67 L502.98,523.67 L503.36,523.67 L503.74,523.67 L504.12,523.67 L504.50,523.67 L504.88,523.67 L505.26,523.67 L505.64,523.67 L506.01,523.67 L506.39,523.67 L506.77,523.67 L507.15,523.67 L507.53,523.67 L507.91,523.67 L508.29,523.67 L508.67,523.67 L509.05,523.67 L509.42,523.67 L509.80,523.67 L510.18,523.67 L510.56,523.67 L510.94,523.67 L511.32,523.67 L511.70,523.67 L512.08,523.67 L512.46,523.67 L512.83,523.67 L513.21,523.67 L513.59,523.67 L513.97,523.67 L514.35,523.67 L514.73,523.67 L515.11,523.67 L515.49,523.67 L515.87,523.67 L516.24,523.67 L516.62,523.67 L517.00,523.67 L517.38,523.67 L517.76,523.67 L518.14,523.67 L518.52,523.67 L518.90,523.67 L519.28,523.67 L519.65,523.67 L520.03,523.67 L520.41,523.67 L520.79,523.67 L521.17,523.67 L521.55,523.67 L521.93,523.67 L522.31,523.67 L522.69,523.67 L523.06,523.67 L523.44,523.67 L523.82,523.67 L524.20,523.67 L524.58,523.67 L524.96,523.67 L525.34,523.67 L525.72,523.67 L526.10,523.67 L526.47,523.67 L526.85,523.67 L527.23,523.67 L527.61,523.67 L527.99,523.67 L528.37,523.67 L528.75,523.67 L529.13,523.67 L529.51,523.67 L529.88,523.67 L530.26,523.67 L530.64,523.67 L531.02,523.67 L531.40,523.67 L531.78,523.67 L532.16,523.67 L532.54,523.67 L532.92,523.67 L533.29,523.67 L533.67,523.67 L534.05,523.67 L534.43,523.67 L534.81,523.67 L535.19,523.67 L535.57,523.67 L535.95,523.67 L536.33,523.67 L536.70,523.67 L537.08,523.67 L537.46,523.67 L537.84,523.67 L538.22,523.67 L538.60,523.67 L538.98,523.67 L539.36,523.67 L539.73,523.67 L540.11,523.67 L540.49,523.67 L540.87,523.67 L541.25,523.67 L541.63,523.67 L542.01,523.67 L542.39,523.67 L542.77,523.67 L543.14,523.67 L543.52,523.67 L543.90,523.67 L544.28,523.67 L544.66,523.67 L545.04,523.67 L545.42,523.67 L545.80,523.67 L546.18,523.67 L546.55,523.67 L546.93,523.67 L547.31,523.67 L547.69,523.67 L548.07,523.67 L548.45,523.67 L548.83,523.67 L549.21,523.67 L549.59,523.67 L549.96,523.67 L550.34,523.67 L550.72,523.67 L551.10,523.67 L551.48,523.67 L551.86,523.67 L552.24,523.67 L552.62,523.67 L553.00,523.67 L553.37,523.67 L553.75,523.67 L554.13,523.67 L554.51,523.67 L554.89,523.67 L555.27,523.67 L555.65,523.67 L556.03,523.67 L556.41,523.67 L556.78,523.67 L557.16,523.67 L557.54,523.67 L557.92,523.67 L558.30,523.67 L558.68,523.67 L559.06,523.67 L559.44,523.67 L559.82,523.67 L560.19,523.67 L560.57,523.67 L560.95,523.67 L561.33,523.67 L561.71,523.67 L562.09,523.67 L562.47,523.67 L562.85,523.67 L563.23,523.67 L563.60,523.67 L563.98,523.67 L564.36,523.67 L564.74,523.67 L565.12,523.67 L565.50,523.67 L565.88,523.67 L566.26,523.67 L566.64,523.67 L567.01,523.67 L567.39,523.67 L567.77,523.67 L568.15,523.67 L568.53,523.67 L568.91,523.67 L569.29,523.67 L569.67,523.67 L570.05,523.67 L570.42,523.67 L570.80,523.67 L571.18,523.67 L571.56,523.67 L571.94,523.67 L572.32,523.67 L572.70,523.67 L573.08,523.67 L573.46,523.67 L573.83,523.67 L574.21,523.67 L574.59,523.67 L574.97,523.67 L575.35,523.67 L575.73,523.67 L576.11,523.67 L576.49,523.67 L576.86,523.67 L577.24,523.67 L577.62,523.67 L578.00,523.67 L578.38,523.67 L578.76,523.67 L579.14,523.67 L579.52,523.67 L579.90,523.67 L580.27,523.67 L580.65,523.67 L581.03,523.67 L581.41,523.67 L581.79,523.67 L582.17,523.67 L582.55,523.67 L582.93,523.67 L583.31,523.67 L583.68,523.67 L584.06,523.67 L584.44,523.67 L584.82,523.67 L585.20,523.67 L585.58,523.67 L585.96,523.67 L586.34,523.67 L586.72,523.67 L587.09,523.67 L587.47,523.67 L587.85,523.67 L588.23,523.67 L588.61,523.67 L588.99,523.67 L589.37,523.67 L589.75,523.67 L590.13,523.67 L590.50,523.67 L590.88,523.67 L591.26,523.67 L591.64,523.67 L592.02,523.67 L592.40,523.67 L592.78,523.67 L593.16,523.67 L593.54,523.67 L593.91,523.67 L594.29,523.67 L594.67,523.67 L595.05,523.67 L595.43,523.67 L595.81,523.67 L596.19,523.67 L596.57,523.67 L596.95,523.67 L597.32,523.67 L597.70,523.67 L598.08,523.67 L598.46,523.67 L598.84,523.67 L599.22,523.67 L599.60,523.67 L599.98,523.67 L600.36,523.67 L600.73,523.67 L601.11,523.67 L601.49,523.67 L601.87,523.67 L602.25,523.67 L602.63,523.67 L603.01,523.67 L603.39,523.67 L603.77,523.67 L604.14,523.67 L604.52,523.67 L604.90,523.67 L605.28,523.67 L605.66,523.67 L606.04,523.67 L606.42,523.67 L606.80,523.67 L607.18,523.67 L607.55,523.67 L607.93,523.67 L608.31,523.67 L608.69,523.67 L609.07,523.67 L609.45,523.67 L609.83,523.67 L610.21,523.67 L610.58,523.67 L610.96,523.67 L611.34,523.67 L611.72,523.67 L612.10,523.67 L612.48,523.67 L612.86,523.67 L613.24,523.67 L613.62,523.67 L613.99,523.67 L614.37,523.67 L614.75,523.67 L615.13,523.67 L615.51,523.67 L615.89,523.67 L616.27,523.67 L616.65,523.67 L617.03,523.67 L617.40,523.67 L617.78,523.67 L618.16,523.67 L618.54,523.67 L618.92,523.67 L619.30,523.67 L619.68,523.67 L620.06,523.67 L620.44,523.67 L620.81,523.67 L621.19,523.67 L621.57,523.67 L621.95,523.67 L622.33,523.67 L622.71,523.67 L623.09,523.67 L623.47,523.67 L623.85,523.67 L624.22,523.67 L624.60,523.67 L624.98,523.67 L625.36,523.67 L625.74,523.67 L626.12,523.67 L626.50,523.67 L626.88,523.67 L627.26,523.67 L627.63,523.67 L628.01,523.67 L628.39,523.67 L628.77,523.67 L629.15,523.67 L629.53,523.67 L629.91,523.67 L630.29,523.67 L630.67,523.67 L631.04,523.67 L631.42,523.67 L631.80,523.67 L632.18,523.67 L632.56,523.67 L632.94,523.67 L633.32,523.67 L633.70,523.67 L634.08,523.67 L634.45,523.67 L634.83,523.67 L635.21,523.67 L635.59,523.67 L635.97,523.67 L636.35,523.67 L636.73,523.67 L637.11,523.67 L637.49,523.67 L637.86,523.67 L638.24,523.67 L638.62,523.67 L639.00,523.67 L639.38,523.67 L639.76,523.67 L640.14,523.67 L640.52,523.67 L640.90,523.67 L641.27,523.67 L641.65,523.67 L642.03,523.67 L642.41,523.67 L642.79,523.67 L643.17,523.67 L643.55,523.67 L643.93,523.67 L644.31,523.67 L644.68,523.67 L645.06,523.67 L645.44,523.67 L645.82,523.67 L646.20,523.67 L646.58,523.67 L646.96,523.67 L647.34,523.67 L647.71,523.67 L648.09,523.67 L648.47,523.67 L648.85,523.67 L649.23,523.67 L649.61,523.67 L649.99,523.67 L650.37,523.67 L650.75,523.67 L651.12,523.67 L651.50,523.67 L651.88,523.67 L652.26,523.67 L652.64,523.67 L653.02,523.67 L653.40,523.67 L653.78,523.67 L654.16,523.67 L654.53,523.67 L654.91,523.67 L655.29,523.67 L655.67,523.67 L656.05,523.67 L656.43,523.67 L656.81,523.67 L657.19,523.67 L657.57,523.67 L657.94,523.67 L658.32,523.67 L658.70,523.67 L659.08,523.67 L659.46,523.67 L659.84,523.67 L660.22,523.67 L660.60,523.67 L660.98,523.67 L661.35,523.67 L661.73,523.67 L662.11,523.67 L662.49,523.67 L662.87,523.67 L663.25,523.67 L663.63,523.67 L664.01,523.67 L664.39,523.67 L664.76,523.67 L665.14,523.67 L665.52,523.67 L665.90,523.67 L666.28,523.67 L666.66,523.67 L667.04,523.67 L667.42,523.67 L667.80,523.67 L668.17,523.67 L668.55,523.67 L668.93,523.67 L669.31,523.67 L669.69,523.67 L670.07,523.67 L670.45,523.67 L670.83,523.67 L671.21,523.67 L671.58,523.67 L671.96,523.67 L672.34,523.67 L672.72,523.67 L673.10,523.67 L673.48,523.67 L673.86,523.67 L674.24,523.67 L674.62,523.67 L674.99,523.67 L675.37,523.67 L675.75,523.67 L676.13,523.67 L676.51,523.67 L676.89,523.67 L677.27,523.67 L677.65,523.67 L678.03,523.67 L678.40,523.67 L678.78,523.67 L679.16,523.67 L679.54,523.67 L679.92,523.67 L680.30,523.67 L680.68,523.67 L681.06,523.67 L681.44,523.67 L681.81,523.67 L682.19,523.67 L682.57,523.67 L682.95,523.67 L683.33,523.67 L683.71,523.67 L684.09,523.67 L684.47,523.67 L684.84,523.67 L685.22,523.67 L685.60,523.67 L685.98,523.67 L686.36,523.67 L686.74,523.67 L687.12,523.67 L687.50,523.67 L687.88,523.67 L688.25,523.67 L688.63,523.67 L689.01,523.67 L689.39,523.67 L689.77,523.67 L690.15,523.67 L690.53,523.67 L690.91,523.67 L691.29,523.67 L691.66,523.67 L692.04,523.67 L692.42,523.67 L692.80,523.67 L693.18,523.67 L693.56,523.67 L693.94,523.67 L694.32,523.67 L694.70,523.67 L695.07,523.67 L695.45,523.67 L695.83,523.67 L696.21,523.67 L696.59,523.67 L696.97,523.67 L697.35,523.67 L697.73,523.67 L698.11,523.67 L698.48,523.67 L698.86,523.67 L699.24,523.67 L699.62,523.67 L700.00,523.67" style="stroke-width: 8; stroke: rgb(245, 130, 49); stroke-opacity: 0.8;"/><g><circle cx="283.6139634118005" cy="523.6669747501832" r="15" style="stroke-width: 8; stroke: rgb(245, 166, 35); stroke-opacity: 1; fill: rgb(157, 40, 192); fill-opacity: 0.15;"/></g></g></g><g class="test-xtl" style="font-family: &quot;Open Sans&quot;, verdana, arial, sans-serif;"><text text-anchor="middle" font-size="20" dominant-baseline="hanging" stroke="none" fill="rgb(50,50,50)" fill-opacity="1" x="58.49097802198858" y="391.98024077933775">-6</text><text text-anchor="middle" font-size="20" dominant-baseline="hanging" stroke="none" fill="rgb(50,50,50)" fill-opacity="1" x="131.63197315192588" y="391.98024077933775">-5</text><text text-anchor="middle" font-size="20" dominant-baseline="hanging" stroke="none" fill="rgb(50,50,50)" fill-opacity="1" x="204.7729682818632" y="391.98024077933775">-4</text><text text-anchor="middle" font-size="20" dominant-baseline="hanging" stroke="none" fill="rgb(50,50,50)" fill-opacity="1" x="277.9139634118005" y="391.98024077933775">-3</text><text text-anchor="middle" font-size="20" dominant-baseline="hanging" stroke="none" fill="rgb(50,50,50)" fill-opacity="1" x="351.0549585417378" y="391.98024077933775">-2</text><text text-anchor="middle" font-size="20" dominant-baseline="hanging" stroke="none" fill="rgb(50,50,50)" fill-opacity="1" x="424.1959536716751" y="391.98024077933775">-1</text><text text-anchor="middle" font-size="20" dominant-baseline="hanging" stroke="none" fill="rgb(50,50,50)" fill-opacity="1" x="576.1779439315497" y="391.98024077933775">1</text><text text-anchor="middle" font-size="20" dominant-baseline="hanging" stroke="none" fill="rgb(50,50,50)" fill-opacity="1" x="649.318939061487" y="391.98024077933775">2</text><text text-anchor="middle" font-size="20" dominant-baseline="hanging" stroke="none" fill="rgb(50,50,50)" fill-opacity="1" x="491.03694880161237" y="389.98024077933775">0</text></g><g class="test-ytl" style="font-family: &quot;Open Sans&quot;, verdana, arial, sans-serif;"><text text-anchor="end" dominant-baseline="middle" font-size="20" stroke="none" fill="rgb(50,50,50)" fill-opacity="1" x="491.0369488016124" y="666.3537087210286">-4</text><text text-anchor="end" dominant-baseline="middle" font-size="20" stroke="none" fill="rgb(50,50,50)" fill-opacity="1" x="491.0369488016124" y="595.0103417356058">-3</text><text text-anchor="end" dominant-baseline="middle" font-size="20" stroke="none" fill="rgb(50,50,50)" fill-opacity="1" x="491.0369488016124" y="523.6669747501832">-2</text><text text-anchor="end" dominant-baseline="middle" font-size="20" stroke="none" fill="rgb(50,50,50)" fill-opacity="1" x="491.0369488016124" y="452.3236077647605">-1</text><text text-anchor="end" dominant-baseline="middle" font-size="20" stroke="none" fill="rgb(50,50,50)" fill-opacity="1" x="491.0369488016124" y="309.6368737939151">1</text><text text-anchor="end" dominant-baseline="middle" font-size="20" stroke="none" fill="rgb(50,50,50)" fill-opacity="1" x="491.0369488016124" y="238.29350680849234">2</text><text text-anchor="end" dominant-baseline="middle" font-size="20" stroke="none" fill="rgb(50,50,50)" fill-opacity="1" x="491.0369488016124" y="166.95013982306966">3</text><text text-anchor="end" dominant-baseline="middle" font-size="20" stroke="none" fill="rgb(50,50,50)" fill-opacity="1" x="491.0369488016124" y="95.60677283764687">4</text><text text-anchor="end" dominant-baseline="middle" font-size="20" stroke="none" fill="rgb(50,50,50)" fill-opacity="1" x="491.0369488016124" y="24.263405852224196">5</text></g><rect class="real" x="1" y="1" width="698" height="698" style="fill: transparent; stroke: none;"/></g></g></g><g class="composite-shape" data-amt="diagram/shapes/plot" transform="matrix(1,0,0,1,1100,100)"><g><g><g class="test-xgi"><line x1="81.30781250000001" y1="0" x2="81.30781250000001" y2="700" fill="none" stroke="#c3c3c3" stroke-width="0.5"/><line x1="163.7" y1="0" x2="163.7" y2="700" fill="none" stroke="#c3c3c3" stroke-width="0.5"/><line x1="246.0921875" y1="0" x2="246.0921875" y2="700" fill="none" stroke="#c3c3c3" stroke-width="0.5"/><line x1="328.48437499999994" y1="0" x2="328.48437499999994" y2="700" fill="none" stroke="#c3c3c3" stroke-width="0.5"/><line x1="410.8765625" y1="0" x2="410.8765625" y2="700" fill="none" stroke="#c3c3c3" stroke-width="0.5"/><line x1="493.26875" y1="0" x2="493.26875" y2="700" fill="none" stroke="#c3c3c3" stroke-width="0.5"/><line x1="575.6609374999999" y1="0" x2="575.6609374999999" y2="700" fill="none" stroke="#c3c3c3" stroke-width="0.5"/><line x1="658.0531249999999" y1="0" x2="658.0531249999999" y2="700" fill="none" stroke="#c3c3c3" stroke-width="0.5"/></g><g class="test-ygi"><line x1="0" y1="699.9453125" x2="700" y2="699.9453125" fill="none" stroke="#c3c3c3" stroke-width="0.5"/><line x1="0" y1="619.578125" x2="700" y2="619.578125" fill="none" stroke="#c3c3c3" stroke-width="0.5"/><line x1="0" y1="539.2109375" x2="700" y2="539.2109375" fill="none" stroke="#c3c3c3" stroke-width="0.5"/><line x1="0" y1="458.84375" x2="700" y2="458.84375" fill="none" stroke="#c3c3c3" stroke-width="0.5"/><line x1="0" y1="378.47656250000006" x2="700" y2="378.47656250000006" fill="none" stroke="#c3c3c3" stroke-width="0.5"/><line x1="0" y1="298.10937500000006" x2="700" y2="298.10937500000006" fill="none" stroke="#c3c3c3" stroke-width="0.5"/><line x1="0" y1="217.74218750000006" x2="700" y2="217.74218750000006" fill="none" stroke="#c3c3c3" stroke-width="0.5"/><line x1="0" y1="137.375" x2="700" y2="137.375" fill="none" stroke="#c3c3c3" stroke-width="0.5"/><line x1="0" y1="57.0078125" x2="700" y2="57.0078125" fill="none" stroke="#c3c3c3" stroke-width="0.5"/></g></g><g><g class="test-xti" style="font-family: Asana-Math, Asana;"><line x1="0" y1="458.84375" x2="682.5" y2="458.84375" fill="none" stroke="rgb(50,50,50)" stroke-opacity="1" stroke-width="8"/><line x1="81.30781250000001" y1="450.84375" x2="81.30781250000001" y2="466.84375" fill="none" stroke="rgb(50,50,50)" stroke-opacity="1" stroke-width="8"/><line x1="163.7" y1="450.84375" x2="163.7" y2="466.84375" fill="none" stroke="rgb(50,50,50)" stroke-opacity="1" stroke-width="8"/><line x1="246.0921875" y1="450.84375" x2="246.0921875" y2="466.84375" fill="none" stroke="rgb(50,50,50)" stroke-opacity="1" stroke-width="8"/><line x1="410.8765625" y1="450.84375" x2="410.8765625" y2="466.84375" fill="none" stroke="rgb(50,50,50)" stroke-opacity="1" stroke-width="8"/><line x1="493.26875" y1="450.84375" x2="493.26875" y2="466.84375" fill="none" stroke="rgb(50,50,50)" stroke-opacity="1" stroke-width="8"/><line x1="575.6609374999999" y1="450.84375" x2="575.6609374999999" y2="466.84375" fill="none" stroke="rgb(50,50,50)" stroke-opacity="1" stroke-width="8"/><line x1="658.0531249999999" y1="450.84375" x2="658.0531249999999" y2="466.84375" fill="none" stroke="rgb(50,50,50)" stroke-opacity="1" stroke-width="8"/><path d="M680,450.29375 L699,458.84375 L680,467.39375 Z" stroke="none" stroke-width="8" fill="rgb(50,50,50)" fill-opacity="1"/></g><g class="test-yti" style="font-family: Asana-Math, Asana;"><line x1="328.484375" y1="17.5" x2="328.484375" y2="700" fill="none" stroke="rgb(50,50,50)" stroke-opacity="1" stroke-width="8"/><line x1="320.484375" y1="699.9453125" x2="336.484375" y2="699.9453125" fill="none" stroke="rgb(50,50,50)" stroke-opacity="1" stroke-width="8"/><line x1="320.484375" y1="619.578125" x2="336.484375" y2="619.578125" fill="none" stroke="rgb(50,50,50)" stroke-opacity="1" stroke-width="8"/><line x1="320.484375" y1="539.2109375" x2="336.484375" y2="539.2109375" fill="none" stroke="rgb(50,50,50)" stroke-opacity="1" stroke-width="8"/><line x1="320.484375" y1="378.47656250000006" x2="336.484375" y2="378.47656250000006" fill="none" stroke="rgb(50,50,50)" stroke-opacity="1" stroke-width="8"/><line x1="320.484375" y1="298.10937500000006" x2="336.484375" y2="298.10937500000006" fill="none" stroke="rgb(50,50,50)" stroke-opacity="1" stroke-width="8"/><line x1="320.484375" y1="217.74218750000006" x2="336.484375" y2="217.74218750000006" fill="none" stroke="rgb(50,50,50)" stroke-opacity="1" stroke-width="8"/><line x1="320.484375" y1="137.375" x2="336.484375" y2="137.375" fill="none" stroke="rgb(50,50,50)" stroke-opacity="1" stroke-width="8"/><line x1="320.484375" y1="57.0078125" x2="336.484375" y2="57.0078125" fill="none" stroke="rgb(50,50,50)" stroke-opacity="1" stroke-width="8"/><path d="M319.934375,20 L328.484375,1 L337.034375,20 Z" stroke="none" stroke-width="8" fill="rgb(50,50,50)" fill-opacity="1"/></g><g class="test-plot-expression"><defs><clipPath id="cpv375wi5f5dg-full-view"><rect x="1" y="1" width="698" height="698"/></clipPath></defs><g clip-path="url(#cpv375wi5f5dg-full-view)"><path d=" M0.00,779.25 L0.45,778.82 L0.90,778.38 L1.35,777.94 L1.80,777.50 L2.24,777.07 L2.69,776.63 L3.14,776.19 L3.59,775.75 L4.04,775.31 L4.49,774.88 L4.94,774.44 L5.39,774.00 L5.83,773.56 L6.28,773.13 L6.73,772.69 L7.18,772.25 L7.63,771.81 L8.08,771.37 L8.53,770.94 L8.98,770.50 L9.43,770.06 L9.87,769.62 L10.32,769.19 L10.77,768.75 L11.22,768.31 L11.67,767.87 L12.12,767.43 L12.57,767.00 L13.02,766.56 L13.47,766.12 L13.91,765.68 L14.36,765.25 L14.81,764.81 L15.26,764.37 L15.71,763.93 L16.16,763.49 L16.61,763.06 L17.06,762.62 L17.50,762.18 L17.95,761.74 L18.40,761.30 L18.85,760.87 L19.30,760.43 L19.75,759.99 L20.20,759.55 L20.65,759.12 L21.10,758.68 L21.54,758.24 L21.99,757.80 L22.44,757.36 L22.89,756.93 L23.34,756.49 L23.79,756.05 L24.24,755.61 L24.69,755.18 L25.13,754.74 L25.58,754.30 L26.03,753.86 L26.48,753.42 L26.93,752.99 L27.38,752.55 L27.83,752.11 L28.28,751.67 L28.73,751.24 L29.17,750.80 L29.62,750.36 L30.07,749.92 L30.52,749.48 L30.97,749.05 L31.42,748.61 L31.87,748.17 L32.32,747.73 L32.76,747.30 L33.21,746.86 L33.66,746.42 L34.11,745.98 L34.56,745.54 L35.01,745.11 L35.46,744.67 L35.91,744.23 L36.36,743.79 L36.80,743.35 L37.25,742.92 L37.70,742.48 L38.15,742.04 L38.60,741.60 L39.05,741.17 L39.50,740.73 L39.95,740.29 L40.40,739.85 L40.84,739.41 L41.29,738.98 L41.74,738.54 L42.19,738.10 L42.64,737.66 L43.09,737.23 L43.54,736.79 L43.99,736.35 L44.43,735.91 L44.88,735.47 L45.33,735.04 L45.78,734.60 L46.23,734.16 L46.68,733.72 L47.13,733.29 L47.58,732.85 L48.03,732.41 L48.47,731.97 L48.92,731.53 L49.37,731.10 L49.82,730.66 L50.27,730.22 L50.72,729.78 L51.17,729.35 L51.62,728.91 L52.06,728.47 L52.51,728.03 L52.96,727.59 L53.41,727.16 L53.86,726.72 L54.31,726.28 L54.76,725.84 L55.21,725.41 L55.66,724.97 L56.10,724.53 L56.55,724.09 L57.00,723.65 L57.45,723.22 L57.90,722.78 L58.35,722.34 L58.80,721.90 L59.25,721.46 L59.69,721.03 L60.14,720.59 L60.59,720.15 L61.04,719.71 L61.49,719.28 L61.94,718.84 L62.39,718.40 L62.84,717.96 L63.29,717.52 L63.73,717.09 L64.18,716.65 L64.63,716.21 L65.08,715.77 L65.53,715.34 L65.98,714.90 L66.43,714.46 L66.88,714.02 L67.33,713.58 L67.77,713.15 L68.22,712.71 L68.67,712.27 L69.12,711.83 L69.57,711.40 L70.02,710.96 L70.47,710.52 L70.92,710.08 L71.36,709.64 L71.81,709.21 L72.26,708.77 L72.71,708.33 L73.16,707.89 L73.61,707.46 L74.06,707.02 L74.51,706.58 L74.96,706.14 L75.40,705.70 L75.85,705.27 L76.30,704.83 L76.75,704.39 L77.20,703.95 L77.65,703.51 L78.10,703.08 L78.55,702.64 L78.99,702.20 L79.44,701.76 L79.89,701.33 L80.34,700.89 L80.79,700.45 L81.24,700.01 L81.69,699.57 L82.14,699.14 L82.59,698.70 L83.03,698.26 L83.48,697.82 L83.93,697.39 L84.38,696.95 L84.83,696.51 L85.28,696.07 L85.73,695.63 L86.18,695.20 L86.62,694.76 L87.07,694.32 L87.52,693.88 L87.97,693.45 L88.42,693.01 L88.87,692.57 L89.32,692.13 L89.77,691.69 L90.22,691.26 L90.66,690.82 L91.11,690.38 L91.56,689.94 L92.01,689.51 L92.46,689.07 L92.91,688.63 L93.36,688.19 L93.81,687.75 L94.26,687.32 L94.70,686.88 L95.15,686.44 L95.60,686.00 L96.05,685.56 L96.50,685.13 L96.95,684.69 L97.40,684.25 L97.85,683.81 L98.29,683.38 L98.74,682.94 L99.19,682.50 L99.64,682.06 L100.09,681.62 L100.54,681.19 L100.99,680.75 L101.44,680.31 L101.89,679.87 L102.33,679.44 L102.78,679.00 L103.23,678.56 L103.68,678.12 L104.13,677.68 L104.58,677.25 L105.03,676.81 L105.48,676.37 L105.92,675.93 L106.37,675.50 L106.82,675.06 L107.27,674.62 L107.72,674.18 L108.17,673.74 L108.62,673.31 L109.07,672.87 L109.52,672.43 L109.96,671.99 L110.41,671.56 L110.86,671.12 L111.31,670.68 L111.76,670.24 L112.21,669.80 L112.66,669.37 L113.11,668.93 L113.56,668.49 L114.00,668.05 L114.45,667.62 L114.90,667.18 L115.35,666.74 L115.80,666.30 L116.25,665.86 L116.70,665.43 L117.15,664.99 L117.59,664.55 L118.04,664.11 L118.49,663.67 L118.94,663.24 L119.39,662.80 L119.84,662.36 L120.29,661.92 L120.74,661.49 L121.19,661.05 L121.63,660.61 L122.08,660.17 L122.53,659.73 L122.98,659.30 L123.43,658.86 L123.88,658.42 L124.33,657.98 L124.78,657.55 L125.22,657.11 L125.67,656.67 L126.12,656.23 L126.57,655.79 L127.02,655.36 L127.47,654.92 L127.92,654.48 L128.37,654.04 L128.82,653.61 L129.26,653.17 L129.71,652.73 L130.16,652.29 L130.61,651.85 L131.06,651.42 L131.51,650.98 L131.96,650.54 L132.41,650.10 L132.85,649.67 L133.30,649.23 L133.75,648.79 L134.20,648.35 L134.65,647.91 L135.10,647.48 L135.55,647.04 L136.00,646.60 L136.45,646.16 L136.89,645.72 L137.34,645.29 L137.79,644.85 L138.24,644.41 L138.69,643.97 L139.14,643.54 L139.59,643.10 L140.04,642.66 L140.49,642.22 L140.93,641.78 L141.38,641.35 L141.83,640.91 L142.28,640.47 L142.73,640.03 L143.18,639.60 L143.63,639.16 L144.08,638.72 L144.52,638.28 L144.97,637.84 L145.42,637.41 L145.87,636.97 L146.32,636.53 L146.77,636.09 L147.22,635.66 L147.67,635.22 L148.12,634.78 L148.56,634.34 L149.01,633.90 L149.46,633.47 L149.91,633.03 L150.36,632.59 L150.81,632.15 L151.26,631.72 L151.71,631.28 L152.15,630.84 L152.60,630.40 L153.05,629.96 L153.50,629.53 L153.95,629.09 L154.40,628.65 L154.85,628.21 L155.30,627.77 L155.75,627.34 L156.19,626.90 L156.64,626.46 L157.09,626.02 L157.54,625.59 L157.99,625.15 L158.44,624.71 L158.89,624.27 L159.34,623.83 L159.78,623.40 L160.23,622.96 L160.68,622.52 L161.13,622.08 L161.58,621.65 L162.03,621.21 L162.48,620.77 L162.93,620.33 L163.38,619.89 L163.82,619.46 L164.27,619.02 L164.72,618.58 L165.17,618.14 L165.62,617.71 L166.07,617.27 L166.52,616.83 L166.97,616.39 L167.42,615.95 L167.86,615.52 L168.31,615.08 L168.76,614.64 L169.21,614.20 L169.66,613.77 L170.11,613.33 L170.56,612.89 L171.01,612.45 L171.45,612.01 L171.90,611.58 L172.35,611.14 L172.80,610.70 L173.25,610.26 L173.70,609.83 L174.15,609.39 L174.60,608.95 L175.05,608.51 L175.49,608.07 L175.94,607.64 L176.39,607.20 L176.84,606.76 L177.29,606.32 L177.74,605.88 L178.19,605.45 L178.64,605.01 L179.08,604.57 L179.53,604.13 L179.98,603.70 L180.43,603.26 L180.88,602.82 L181.33,602.38 L181.78,601.94 L182.23,601.51 L182.68,601.07 L183.12,600.63 L183.57,600.19 L184.02,599.76 L184.47,599.32 L184.92,598.88 L185.37,598.44 L185.82,598.00 L186.27,597.57 L186.72,597.13 L187.16,596.69 L187.61,596.25 L188.06,595.82 L188.51,595.38 L188.96,594.94 L189.41,594.50 L189.86,594.06 L190.31,593.63 L190.75,593.19 L191.20,592.75 L191.65,592.31 L192.10,591.88 L192.55,591.44 L193.00,591.00 L193.45,590.56 L193.90,590.12 L194.35,589.69 L194.79,589.25 L195.24,588.81 L195.69,588.37 L196.14,587.93 L196.59,587.50 L197.04,587.06 L197.49,586.62 L197.94,586.18 L198.38,585.75 L198.83,585.31 L199.28,584.87 L199.73,584.43 L200.18,583.99 L200.63,583.56 L201.08,583.12 L201.53,582.68 L201.98,582.24 L202.42,581.81 L202.87,581.37 L203.32,580.93 L203.77,580.49 L204.22,580.05 L204.67,579.62 L205.12,579.18 L205.57,578.74 L206.01,578.30 L206.46,577.87 L206.91,577.43 L207.36,576.99 L207.81,576.55 L208.26,576.11 L208.71,575.68 L209.16,575.24 L209.61,574.80 L210.05,574.36 L210.50,573.93 L210.95,573.49 L211.40,573.05 L211.85,572.61 L212.30,572.17 L212.75,571.74 L213.20,571.30 L213.65,570.86 L214.09,570.42 L214.54,569.98 L214.99,569.55 L215.44,569.11 L215.89,568.67 L216.34,568.23 L216.79,567.80 L217.24,567.36 L217.68,566.92 L218.13,566.48 L218.58,566.04 L219.03,565.61 L219.48,565.17 L219.93,564.73 L220.38,564.29 L220.83,563.86 L221.28,563.42 L221.72,562.98 L222.17,562.54 L222.62,562.10 L223.07,561.67 L223.52,561.23 L223.97,560.79 L224.42,560.35 L224.87,559.92 L225.31,559.48 L225.76,559.04 L226.21,558.60 L226.66,558.16 L227.11,557.73 L227.56,557.29 L228.01,556.85 L228.46,556.41 L228.91,555.98 L229.35,555.54 L229.80,555.10 L230.25,554.66 L230.70,554.22 L231.15,553.79 L231.60,553.35 L232.05,552.91 L232.50,552.47 L232.94,552.04 L233.39,551.60 L233.84,551.16 L234.29,550.72 L234.74,550.28 L235.19,549.85 L235.64,549.41 L236.09,548.97 L236.54,548.53 L236.98,548.09 L237.43,547.66 L237.88,547.22 L238.33,546.78 L238.78,546.34 L239.23,545.91 L239.68,545.47 L240.13,545.03 L240.58,544.59 L241.02,544.15 L241.47,543.72 L241.92,543.28 L242.37,542.84 L242.82,542.40 L243.27,541.97 L243.72,541.53 L244.17,541.09 L244.61,540.65 L245.06,540.21 L245.51,539.78 L245.96,539.34 L246.41,538.90 L246.86,538.46 L247.31,538.03 L247.76,537.59 L248.21,537.15 L248.65,536.71 L249.10,536.27 L249.55,535.84 L250.00,535.40 L250.45,534.96 L250.90,534.52 L251.35,534.09 L251.80,533.65 L252.24,533.21 L252.69,532.77 L253.14,532.33 L253.59,531.90 L254.04,531.46 L254.49,531.02 L254.94,530.58 L255.39,530.14 L255.84,529.71 L256.28,529.27 L256.73,528.83 L257.18,528.39 L257.63,527.96 L258.08,527.52 L258.53,527.08 L258.98,526.64 L259.43,526.20 L259.87,525.77 L260.32,525.33 L260.77,524.89 L261.22,524.45 L261.67,524.02 L262.12,523.58 L262.57,523.14 L263.02,522.70 L263.47,522.26 L263.91,521.83 L264.36,521.39 L264.81,520.95 L265.26,520.51 L265.71,520.08 L266.16,519.64 L266.61,519.20 L267.06,518.76 L267.51,518.32 L267.95,517.89 L268.40,517.45 L268.85,517.01 L269.30,516.57 L269.75,516.14 L270.20,515.70 L270.65,515.26 L271.10,514.82 L271.54,514.38 L271.99,513.95 L272.44,513.51 L272.89,513.07 L273.34,512.63 L273.79,512.19 L274.24,511.76 L274.69,511.32 L275.14,510.88 L275.58,510.44 L276.03,510.01 L276.48,509.57 L276.93,509.13 L277.38,508.69 L277.83,508.25 L278.28,507.82 L278.73,507.38 L279.17,506.94 L279.62,506.50 L280.07,506.07 L280.52,505.63 L280.97,505.19 L281.42,504.75 L281.87,504.31 L282.32,503.88 L282.77,503.44 L283.21,503.00 L283.66,502.56 L284.11,502.13 L284.56,501.69 L285.01,501.25 L285.46,500.81 L285.91,500.37 L286.36,499.94 L286.81,499.50 L287.25,499.06 L287.70,498.62 L288.15,498.19 L288.60,497.75 L289.05,497.31 L289.50,496.87 L289.95,496.43 L290.40,496.00 L290.84,495.56 L291.29,495.12 L291.74,494.68 L292.19,494.25 L292.64,493.81 L293.09,493.37 L293.54,492.93 L293.99,492.49 L294.44,492.06 L294.88,491.62 L295.33,491.18 L295.78,490.74 L296.23,490.30 L296.68,489.87 L297.13,489.43 L297.58,488.99 L298.03,488.55 L298.47,488.12 L298.92,487.68 L299.37,487.24 L299.82,486.80 L300.27,486.36 L300.72,485.93 L301.17,485.49 L301.62,485.05 L302.07,484.61 L302.51,484.18 L302.96,483.74 L303.41,483.30 L303.86,482.86 L304.31,482.42 L304.76,481.99 L305.21,481.55 L305.66,481.11 L306.10,480.67 L306.55,480.24 L307.00,479.80 L307.45,479.36 L307.90,478.92 L308.35,478.48 L308.80,478.05 L309.25,477.61 L309.70,477.17 L310.14,476.73 L310.59,476.30 L311.04,475.86 L311.49,475.42 L311.94,474.98 L312.39,474.54 L312.84,474.11 L313.29,473.67 L313.74,473.23 L314.18,472.79 L314.63,472.35 L315.08,471.92 L315.53,471.48 L315.98,471.04 L316.43,470.60 L316.88,470.17 L317.33,469.73 L317.77,469.29 L318.22,468.85 L318.67,468.41 L319.12,467.98 L319.57,467.54 L320.02,467.10 L320.47,466.66 L320.92,466.23 L321.37,465.79 L321.81,465.35 L322.26,464.91 L322.71,464.47 L323.16,464.04 L323.61,463.60 L324.06,463.16 L324.51,462.72 L324.96,462.29 L325.40,461.85 L325.85,461.41 L326.30,460.97 L326.75,460.53 L327.20,460.10 L327.65,459.66 L328.10,459.22 L328.55,458.78 L329.00,458.35 L329.44,457.91 L329.89,457.47 L330.34,457.03 L330.79,456.59 L331.24,456.16 L331.69,455.72 L332.14,455.28 L332.59,454.84 L333.03,454.41 L333.48,453.97 L333.93,453.53 L334.38,453.09 L334.83,452.65 L335.28,452.22 L335.73,451.78 L336.18,451.34 L336.63,450.90 L337.07,450.46 L337.52,450.03 L337.97,449.59 L338.42,449.15 L338.87,448.71 L339.32,448.28 L339.77,447.84 L340.22,447.40 L340.67,446.96 L341.11,446.52 L341.56,446.09 L342.01,445.65 L342.46,445.21 L342.91,444.77 L343.36,444.34 L343.81,443.90 L344.26,443.46 L344.70,443.02 L345.15,442.58 L345.60,442.15 L346.05,441.71 L346.50,441.27 L346.95,440.83 L347.40,440.40 L347.85,439.96 L348.30,439.52 L348.74,439.08 L349.19,438.64 L349.64,438.21 L350.09,437.77 L350.54,437.33 L350.99,436.89 L351.44,436.46 L351.89,436.02 L352.33,435.58 L352.78,435.14 L353.23,434.70 L353.68,434.27 L354.13,433.83 L354.58,433.39 L355.03,432.95 L355.48,432.51 L355.93,432.08 L356.37,431.64 L356.82,431.20 L357.27,430.76 L357.72,430.33 L358.17,429.89 L358.62,429.45 L359.07,429.01 L359.52,428.57 L359.97,428.14 L360.41,427.70 L360.86,427.26 L361.31,426.82 L361.76,426.39 L362.21,425.95 L362.66,425.51 L363.11,425.07 L363.56,424.63 L364.00,424.20 L364.45,423.76 L364.90,423.32 L365.35,422.88 L365.80,422.45 L366.25,422.01 L366.70,421.57 L367.15,421.13 L367.60,420.69 L368.04,420.26 L368.49,419.82 L368.94,419.38 L369.39,418.94 L369.84,418.51 L370.29,418.07 L370.74,417.63 L371.19,417.19 L371.63,416.75 L372.08,416.32 L372.53,415.88 L372.98,415.44 L373.43,415.00 L373.88,414.56 L374.33,414.13 L374.78,413.69 L375.23,413.25 L375.67,412.81 L376.12,412.38 L376.57,411.94 L377.02,411.50 L377.47,411.06 L377.92,410.62 L378.37,410.19 L378.82,409.75 L379.26,409.31 L379.71,408.87 L380.16,408.44 L380.61,408.00 L381.06,407.56 L381.51,407.12 L381.96,406.68 L382.41,406.25 L382.86,405.81 L383.30,405.37 L383.75,404.93 L384.20,404.50 L384.65,404.06 L385.10,403.62 L385.55,403.18 L386.00,402.74 L386.45,402.31 L386.90,401.87 L387.34,401.43 L387.79,400.99 L388.24,400.56 L388.69,400.12 L389.14,399.68 L389.59,399.24 L390.04,398.80 L390.49,398.37 L390.93,397.93 L391.38,397.49 L391.83,397.05 L392.28,396.62 L392.73,396.18 L393.18,395.74 L393.63,395.30 L394.08,394.86 L394.53,394.43 L394.97,393.99 L395.42,393.55 L395.87,393.11 L396.32,392.67 L396.77,392.24 L397.22,391.80 L397.67,391.36 L398.12,390.92 L398.56,390.49 L399.01,390.05 L399.46,389.61 L399.91,389.17 L400.36,388.73 L400.81,388.30 L401.26,387.86 L401.71,387.42 L402.16,386.98 L402.60,386.55 L403.05,386.11 L403.50,385.67 L403.95,385.23 L404.40,384.79 L404.85,384.36 L405.30,383.92 L405.75,383.48 L406.19,383.04 L406.64,382.61 L407.09,382.17 L407.54,381.73 L407.99,381.29 L408.44,380.85 L408.89,380.42 L409.34,379.98 L409.79,379.54 L410.23,379.10 L410.68,378.67 L411.13,378.23 L411.58,377.79 L412.03,377.35 L412.48,376.91 L412.93,376.48 L413.38,376.04 L413.83,375.60 L414.27,375.16 L414.72,374.72 L415.17,374.29 L415.62,373.85 L416.07,373.41 L416.52,372.97 L416.97,372.54 L417.42,372.10 L417.86,371.66 L418.31,371.22 L418.76,370.78 L419.21,370.35 L419.66,369.91 L420.11,369.47 L420.56,369.03 L421.01,368.60 L421.46,368.16 L421.90,367.72 L422.35,367.28 L422.80,366.84 L423.25,366.41 L423.70,365.97 L424.15,365.53 L424.60,365.09 L425.05,364.66 L425.49,364.22 L425.94,363.78 L426.39,363.34 L426.84,362.90 L427.29,362.47 L427.74,362.03 L428.19,361.59 L428.64,361.15 L429.09,360.72 L429.53,360.28 L429.98,359.84 L430.43,359.40 L430.88,358.96 L431.33,358.53 L431.78,358.09 L432.23,357.65 L432.68,357.21 L433.12,356.77 L433.57,356.34 L434.02,355.90 L434.47,355.46 L434.92,355.02 L435.37,354.59 L435.82,354.15 L436.27,353.71 L436.72,353.27 L437.16,352.83 L437.61,352.40 L438.06,351.96 L438.51,351.52 L438.96,351.08 L439.41,350.65 L439.86,350.21 L440.31,349.77 L440.76,349.33 L441.20,348.89 L441.65,348.46 L442.10,348.02 L442.55,347.58 L443.00,347.14 L443.45,346.71 L443.90,346.27 L444.35,345.83 L444.79,345.39 L445.24,344.95 L445.69,344.52 L446.14,344.08 L446.59,343.64 L447.04,343.20 L447.49,342.77 L447.94,342.33 L448.39,341.89 L448.83,341.45 L449.28,341.01 L449.73,340.58 L450.18,340.14 L450.63,339.70 L451.08,339.26 L451.53,338.83 L451.98,338.39 L452.42,337.95 L452.87,337.51 L453.32,337.07 L453.77,336.64 L454.22,336.20 L454.67,335.76 L455.12,335.32 L455.57,334.88 L456.02,334.45 L456.46,334.01 L456.91,333.57 L457.36,333.13 L457.81,332.70 L458.26,332.26 L458.71,331.82 L459.16,331.38 L459.61,330.94 L460.06,330.51 L460.50,330.07 L460.95,329.63 L461.40,329.19 L461.85,328.76 L462.30,328.32 L462.75,327.88 L463.20,327.44 L463.65,327.00 L464.09,326.57 L464.54,326.13 L464.99,325.69 L465.44,325.25 L465.89,324.82 L466.34,324.38 L466.79,323.94 L467.24,323.50 L467.69,323.06 L468.13,322.63 L468.58,322.19 L469.03,321.75 L469.48,321.31 L469.93,320.88 L470.38,320.44 L470.83,320.00 L471.28,319.56 L471.72,319.12 L472.17,318.69 L472.62,318.25 L473.07,317.81 L473.52,317.37 L473.97,316.93 L474.42,316.50 L474.87,316.06 L475.32,315.62 L475.76,315.18 L476.21,314.75 L476.66,314.31 L477.11,313.87 L477.56,313.43 L478.01,312.99 L478.46,312.56 L478.91,312.12 L479.35,311.68 L479.80,311.24 L480.25,310.81 L480.70,310.37 L481.15,309.93 L481.60,309.49 L482.05,309.05 L482.50,308.62 L482.95,308.18 L483.39,307.74 L483.84,307.30 L484.29,306.87 L484.74,306.43 L485.19,305.99 L485.64,305.55 L486.09,305.11 L486.54,304.68 L486.99,304.24 L487.43,303.80 L487.88,303.36 L488.33,302.93 L488.78,302.49 L489.23,302.05 L489.68,301.61 L490.13,301.17 L490.58,300.74 L491.02,300.30 L491.47,299.86 L491.92,299.42 L492.37,298.98 L492.82,298.55 L493.27,298.11" style="stroke-width: 8; stroke: rgb(74, 144, 226); stroke-opacity: 0.8;"/><path d=" M493.27,298.11 L493.46,298.11 L493.64,298.11 L493.83,298.11 L494.02,298.11 L494.21,298.11 L494.40,298.11 L494.59,298.11 L494.77,298.11 L494.96,298.11 L495.15,298.11 L495.34,298.11 L495.53,298.11 L495.71,298.11 L495.90,298.11 L496.09,298.11 L496.28,298.11 L496.47,298.11 L496.65,298.11 L496.84,298.11 L497.03,298.11 L497.22,298.11 L497.41,298.11 L497.60,298.11 L497.78,298.11 L497.97,298.11 L498.16,298.11 L498.35,298.11 L498.54,298.11 L498.72,298.11 L498.91,298.11 L499.10,298.11 L499.29,298.11 L499.48,298.11 L499.66,298.11 L499.85,298.11 L500.04,298.11 L500.23,298.11 L500.42,298.11 L500.60,298.11 L500.79,298.11 L500.98,298.11 L501.17,298.11 L501.36,298.11 L501.55,298.11 L501.73,298.11 L501.92,298.11 L502.11,298.11 L502.30,298.11 L502.49,298.11 L502.67,298.11 L502.86,298.11 L503.05,298.11 L503.24,298.11 L503.43,298.11 L503.61,298.11 L503.80,298.11 L503.99,298.11 L504.18,298.11 L504.37,298.11 L504.56,298.11 L504.74,298.11 L504.93,298.11 L505.12,298.11 L505.31,298.11 L505.50,298.11 L505.68,298.11 L505.87,298.11 L506.06,298.11 L506.25,298.11 L506.44,298.11 L506.62,298.11 L506.81,298.11 L507.00,298.11 L507.19,298.11 L507.38,298.11 L507.56,298.11 L507.75,298.11 L507.94,298.11 L508.13,298.11 L508.32,298.11 L508.51,298.11 L508.69,298.11 L508.88,298.11 L509.07,298.11 L509.26,298.11 L509.45,298.11 L509.63,298.11 L509.82,298.11 L510.01,298.11 L510.20,298.11 L510.39,298.11 L510.57,298.11 L510.76,298.11 L510.95,298.11 L511.14,298.11 L511.33,298.11 L511.52,298.11 L511.70,298.11 L511.89,298.11 L512.08,298.11 L512.27,298.11 L512.46,298.11 L512.64,298.11 L512.83,298.11 L513.02,298.11 L513.21,298.11 L513.40,298.11 L513.58,298.11 L513.77,298.11 L513.96,298.11 L514.15,298.11 L514.34,298.11 L514.53,298.11 L514.71,298.11 L514.90,298.11 L515.09,298.11 L515.28,298.11 L515.47,298.11 L515.65,298.11 L515.84,298.11 L516.03,298.11 L516.22,298.11 L516.41,298.11 L516.59,298.11 L516.78,298.11 L516.97,298.11 L517.16,298.11 L517.35,298.11 L517.53,298.11 L517.72,298.11 L517.91,298.11 L518.10,298.11 L518.29,298.11 L518.48,298.11 L518.66,298.11 L518.85,298.11 L519.04,298.11 L519.23,298.11 L519.42,298.11 L519.60,298.11 L519.79,298.11 L519.98,298.11 L520.17,298.11 L520.36,298.11 L520.54,298.11 L520.73,298.11 L520.92,298.11 L521.11,298.11 L521.30,298.11 L521.49,298.11 L521.67,298.11 L521.86,298.11 L522.05,298.11 L522.24,298.11 L522.43,298.11 L522.61,298.11 L522.80,298.11 L522.99,298.11 L523.18,298.11 L523.37,298.11 L523.55,298.11 L523.74,298.11 L523.93,298.11 L524.12,298.11 L524.31,298.11 L524.49,298.11 L524.68,298.11 L524.87,298.11 L525.06,298.11 L525.25,298.11 L525.44,298.11 L525.62,298.11 L525.81,298.11 L526.00,298.11 L526.19,298.11 L526.38,298.11 L526.56,298.11 L526.75,298.11 L526.94,298.11 L527.13,298.11 L527.32,298.11 L527.50,298.11 L527.69,298.11 L527.88,298.11 L528.07,298.11 L528.26,298.11 L528.45,298.11 L528.63,298.11 L528.82,298.11 L529.01,298.11 L529.20,298.11 L529.39,298.11 L529.57,298.11 L529.76,298.11 L529.95,298.11 L530.14,298.11 L530.33,298.11 L530.51,298.11 L530.70,298.11 L530.89,298.11 L531.08,298.11 L531.27,298.11 L531.45,298.11 L531.64,298.11 L531.83,298.11 L532.02,298.11 L532.21,298.11 L532.40,298.11 L532.58,298.11 L532.77,298.11 L532.96,298.11 L533.15,298.11 L533.34,298.11 L533.52,298.11 L533.71,298.11 L533.90,298.11 L534.09,298.11 L534.28,298.11 L534.46,298.11 L534.65,298.11 L534.84,298.11 L535.03,298.11 L535.22,298.11 L535.41,298.11 L535.59,298.11 L535.78,298.11 L535.97,298.11 L536.16,298.11 L536.35,298.11 L536.53,298.11 L536.72,298.11 L536.91,298.11 L537.10,298.11 L537.29,298.11 L537.47,298.11 L537.66,298.11 L537.85,298.11 L538.04,298.11 L538.23,298.11 L538.41,298.11 L538.60,298.11 L538.79,298.11 L538.98,298.11 L539.17,298.11 L539.36,298.11 L539.54,298.11 L539.73,298.11 L539.92,298.11 L540.11,298.11 L540.30,298.11 L540.48,298.11 L540.67,298.11 L540.86,298.11 L541.05,298.11 L541.24,298.11 L541.42,298.11 L541.61,298.11 L541.80,298.11 L541.99,298.11 L542.18,298.11 L542.37,298.11 L542.55,298.11 L542.74,298.11 L542.93,298.11 L543.12,298.11 L543.31,298.11 L543.49,298.11 L543.68,298.11 L543.87,298.11 L544.06,298.11 L544.25,298.11 L544.43,298.11 L544.62,298.11 L544.81,298.11 L545.00,298.11 L545.19,298.11 L545.37,298.11 L545.56,298.11 L545.75,298.11 L545.94,298.11 L546.13,298.11 L546.32,298.11 L546.50,298.11 L546.69,298.11 L546.88,298.11 L547.07,298.11 L547.26,298.11 L547.44,298.11 L547.63,298.11 L547.82,298.11 L548.01,298.11 L548.20,298.11 L548.38,298.11 L548.57,298.11 L548.76,298.11 L548.95,298.11 L549.14,298.11 L549.33,298.11 L549.51,298.11 L549.70,298.11 L549.89,298.11 L550.08,298.11 L550.27,298.11 L550.45,298.11 L550.64,298.11 L550.83,298.11 L551.02,298.11 L551.21,298.11 L551.39,298.11 L551.58,298.11 L551.77,298.11 L551.96,298.11 L552.15,298.11 L552.33,298.11 L552.52,298.11 L552.71,298.11 L552.90,298.11 L553.09,298.11 L553.28,298.11 L553.46,298.11 L553.65,298.11 L553.84,298.11 L554.03,298.11 L554.22,298.11 L554.40,298.11 L554.59,298.11 L554.78,298.11 L554.97,298.11 L555.16,298.11 L555.34,298.11 L555.53,298.11 L555.72,298.11 L555.91,298.11 L556.10,298.11 L556.29,298.11 L556.47,298.11 L556.66,298.11 L556.85,298.11 L557.04,298.11 L557.23,298.11 L557.41,298.11 L557.60,298.11 L557.79,298.11 L557.98,298.11 L558.17,298.11 L558.35,298.11 L558.54,298.11 L558.73,298.11 L558.92,298.11 L559.11,298.11 L559.29,298.11 L559.48,298.11 L559.67,298.11 L559.86,298.11 L560.05,298.11 L560.24,298.11 L560.42,298.11 L560.61,298.11 L560.80,298.11 L560.99,298.11 L561.18,298.11 L561.36,298.11 L561.55,298.11 L561.74,298.11 L561.93,298.11 L562.12,298.11 L562.30,298.11 L562.49,298.11 L562.68,298.11 L562.87,298.11 L563.06,298.11 L563.25,298.11 L563.43,298.11 L563.62,298.11 L563.81,298.11 L564.00,298.11 L564.19,298.11 L564.37,298.11 L564.56,298.11 L564.75,298.11 L564.94,298.11 L565.13,298.11 L565.31,298.11 L565.50,298.11 L565.69,298.11 L565.88,298.11 L566.07,298.11 L566.25,298.11 L566.44,298.11 L566.63,298.11 L566.82,298.11 L567.01,298.11 L567.20,298.11 L567.38,298.11 L567.57,298.11 L567.76,298.11 L567.95,298.11 L568.14,298.11 L568.32,298.11 L568.51,298.11 L568.70,298.11 L568.89,298.11 L569.08,298.11 L569.26,298.11 L569.45,298.11 L569.64,298.11 L569.83,298.11 L570.02,298.11 L570.21,298.11 L570.39,298.11 L570.58,298.11 L570.77,298.11 L570.96,298.11 L571.15,298.11 L571.33,298.11 L571.52,298.11 L571.71,298.11 L571.90,298.11 L572.09,298.11 L572.27,298.11 L572.46,298.11 L572.65,298.11 L572.84,298.11 L573.03,298.11 L573.21,298.11 L573.40,298.11 L573.59,298.11 L573.78,298.11 L573.97,298.11 L574.16,298.11 L574.34,298.11 L574.53,298.11 L574.72,298.11 L574.91,298.11 L575.10,298.11 L575.28,298.11 L575.47,298.11 L575.66,298.11 L575.85,298.11 L576.04,298.11 L576.22,298.11 L576.41,298.11 L576.60,298.11 L576.79,298.11 L576.98,298.11 L577.17,298.11 L577.35,298.11 L577.54,298.11 L577.73,298.11 L577.92,298.11 L578.11,298.11 L578.29,298.11 L578.48,298.11 L578.67,298.11 L578.86,298.11 L579.05,298.11 L579.23,298.11 L579.42,298.11 L579.61,298.11 L579.80,298.11 L579.99,298.11 L580.17,298.11 L580.36,298.11 L580.55,298.11 L580.74,298.11 L580.93,298.11 L581.12,298.11 L581.30,298.11 L581.49,298.11 L581.68,298.11 L581.87,298.11 L582.06,298.11 L582.24,298.11 L582.43,298.11 L582.62,298.11 L582.81,298.11 L583.00,298.11 L583.18,298.11 L583.37,298.11 L583.56,298.11 L583.75,298.11 L583.94,298.11 L584.13,298.11 L584.31,298.11 L584.50,298.11 L584.69,298.11 L584.88,298.11 L585.07,298.11 L585.25,298.11 L585.44,298.11 L585.63,298.11 L585.82,298.11 L586.01,298.11 L586.19,298.11 L586.38,298.11 L586.57,298.11 L586.76,298.11 L586.95,298.11 L587.13,298.11 L587.32,298.11 L587.51,298.11 L587.70,298.11 L587.89,298.11 L588.08,298.11 L588.26,298.11 L588.45,298.11 L588.64,298.11 L588.83,298.11 L589.02,298.11 L589.20,298.11 L589.39,298.11 L589.58,298.11 L589.77,298.11 L589.96,298.11 L590.14,298.11 L590.33,298.11 L590.52,298.11 L590.71,298.11 L590.90,298.11 L591.09,298.11 L591.27,298.11 L591.46,298.11 L591.65,298.11 L591.84,298.11 L592.03,298.11 L592.21,298.11 L592.40,298.11 L592.59,298.11 L592.78,298.11 L592.97,298.11 L593.15,298.11 L593.34,298.11 L593.53,298.11 L593.72,298.11 L593.91,298.11 L594.09,298.11 L594.28,298.11 L594.47,298.11 L594.66,298.11 L594.85,298.11 L595.04,298.11 L595.22,298.11 L595.41,298.11 L595.60,298.11 L595.79,298.11 L595.98,298.11 L596.16,298.11 L596.35,298.11 L596.54,298.11 L596.73,298.11 L596.92,298.11 L597.10,298.11 L597.29,298.11 L597.48,298.11 L597.67,298.11 L597.86,298.11 L598.05,298.11 L598.23,298.11 L598.42,298.11 L598.61,298.11 L598.80,298.11 L598.99,298.11 L599.17,298.11 L599.36,298.11 L599.55,298.11 L599.74,298.11 L599.93,298.11 L600.11,298.11 L600.30,298.11 L600.49,298.11 L600.68,298.11 L600.87,298.11 L601.05,298.11 L601.24,298.11 L601.43,298.11 L601.62,298.11 L601.81,298.11 L602.00,298.11 L602.18,298.11 L602.37,298.11 L602.56,298.11 L602.75,298.11 L602.94,298.11 L603.12,298.11 L603.31,298.11 L603.50,298.11 L603.69,298.11 L603.88,298.11 L604.06,298.11 L604.25,298.11 L604.44,298.11 L604.63,298.11 L604.82,298.11 L605.01,298.11 L605.19,298.11 L605.38,298.11 L605.57,298.11 L605.76,298.11 L605.95,298.11 L606.13,298.11 L606.32,298.11 L606.51,298.11 L606.70,298.11 L606.89,298.11 L607.07,298.11 L607.26,298.11 L607.45,298.11 L607.64,298.11 L607.83,298.11 L608.01,298.11 L608.20,298.11 L608.39,298.11 L608.58,298.11 L608.77,298.11 L608.96,298.11 L609.14,298.11 L609.33,298.11 L609.52,298.11 L609.71,298.11 L609.90,298.11 L610.08,298.11 L610.27,298.11 L610.46,298.11 L610.65,298.11 L610.84,298.11 L611.02,298.11 L611.21,298.11 L611.40,298.11 L611.59,298.11 L611.78,298.11 L611.97,298.11 L612.15,298.11 L612.34,298.11 L612.53,298.11 L612.72,298.11 L612.91,298.11 L613.09,298.11 L613.28,298.11 L613.47,298.11 L613.66,298.11 L613.85,298.11 L614.03,298.11 L614.22,298.11 L614.41,298.11 L614.60,298.11 L614.79,298.11 L614.97,298.11 L615.16,298.11 L615.35,298.11 L615.54,298.11 L615.73,298.11 L615.92,298.11 L616.10,298.11 L616.29,298.11 L616.48,298.11 L616.67,298.11 L616.86,298.11 L617.04,298.11 L617.23,298.11 L617.42,298.11 L617.61,298.11 L617.80,298.11 L617.98,298.11 L618.17,298.11 L618.36,298.11 L618.55,298.11 L618.74,298.11 L618.93,298.11 L619.11,298.11 L619.30,298.11 L619.49,298.11 L619.68,298.11 L619.87,298.11 L620.05,298.11 L620.24,298.11 L620.43,298.11 L620.62,298.11 L620.81,298.11 L620.99,298.11 L621.18,298.11 L621.37,298.11 L621.56,298.11 L621.75,298.11 L621.93,298.11 L622.12,298.11 L622.31,298.11 L622.50,298.11 L622.69,298.11 L622.88,298.11 L623.06,298.11 L623.25,298.11 L623.44,298.11 L623.63,298.11 L623.82,298.11 L624.00,298.11 L624.19,298.11 L624.38,298.11 L624.57,298.11 L624.76,298.11 L624.94,298.11 L625.13,298.11 L625.32,298.11 L625.51,298.11 L625.70,298.11 L625.89,298.11 L626.07,298.11 L626.26,298.11 L626.45,298.11 L626.64,298.11 L626.83,298.11 L627.01,298.11 L627.20,298.11 L627.39,298.11 L627.58,298.11 L627.77,298.11 L627.95,298.11 L628.14,298.11 L628.33,298.11 L628.52,298.11 L628.71,298.11 L628.89,298.11 L629.08,298.11 L629.27,298.11 L629.46,298.11 L629.65,298.11 L629.84,298.11 L630.02,298.11 L630.21,298.11 L630.40,298.11 L630.59,298.11 L630.78,298.11 L630.96,298.11 L631.15,298.11 L631.34,298.11 L631.53,298.11 L631.72,298.11 L631.90,298.11 L632.09,298.11 L632.28,298.11 L632.47,298.11 L632.66,298.11 L632.85,298.11 L633.03,298.11 L633.22,298.11 L633.41,298.11 L633.60,298.11 L633.79,298.11 L633.97,298.11 L634.16,298.11 L634.35,298.11 L634.54,298.11 L634.73,298.11 L634.91,298.11 L635.10,298.11 L635.29,298.11 L635.48,298.11 L635.67,298.11 L635.85,298.11 L636.04,298.11 L636.23,298.11 L636.42,298.11 L636.61,298.11 L636.80,298.11 L636.98,298.11 L637.17,298.11 L637.36,298.11 L637.55,298.11 L637.74,298.11 L637.92,298.11 L638.11,298.11 L638.30,298.11 L638.49,298.11 L638.68,298.11 L638.86,298.11 L639.05,298.11 L639.24,298.11 L639.43,298.11 L639.62,298.11 L639.81,298.11 L639.99,298.11 L640.18,298.11 L640.37,298.11 L640.56,298.11 L640.75,298.11 L640.93,298.11 L641.12,298.11 L641.31,298.11 L641.50,298.11 L641.69,298.11 L641.87,298.11 L642.06,298.11 L642.25,298.11 L642.44,298.11 L642.63,298.11 L642.82,298.11 L643.00,298.11 L643.19,298.11 L643.38,298.11 L643.57,298.11 L643.76,298.11 L643.94,298.11 L644.13,298.11 L644.32,298.11 L644.51,298.11 L644.70,298.11 L644.88,298.11 L645.07,298.11 L645.26,298.11 L645.45,298.11 L645.64,298.11 L645.82,298.11 L646.01,298.11 L646.20,298.11 L646.39,298.11 L646.58,298.11 L646.77,298.11 L646.95,298.11 L647.14,298.11 L647.33,298.11 L647.52,298.11 L647.71,298.11 L647.89,298.11 L648.08,298.11 L648.27,298.11 L648.46,298.11 L648.65,298.11 L648.83,298.11 L649.02,298.11 L649.21,298.11 L649.40,298.11 L649.59,298.11 L649.78,298.11 L649.96,298.11 L650.15,298.11 L650.34,298.11 L650.53,298.11 L650.72,298.11 L650.90,298.11 L651.09,298.11 L651.28,298.11 L651.47,298.11 L651.66,298.11 L651.84,298.11 L652.03,298.11 L652.22,298.11 L652.41,298.11 L652.60,298.11 L652.78,298.11 L652.97,298.11 L653.16,298.11 L653.35,298.11 L653.54,298.11 L653.73,298.11 L653.91,298.11 L654.10,298.11 L654.29,298.11 L654.48,298.11 L654.67,298.11 L654.85,298.11 L655.04,298.11 L655.23,298.11 L655.42,298.11 L655.61,298.11 L655.79,298.11 L655.98,298.11 L656.17,298.11 L656.36,298.11 L656.55,298.11 L656.74,298.11 L656.92,298.11 L657.11,298.11 L657.30,298.11 L657.49,298.11 L657.68,298.11 L657.86,298.11 L658.05,298.11 L658.24,298.11 L658.43,298.11 L658.62,298.11 L658.80,298.11 L658.99,298.11 L659.18,298.11 L659.37,298.11 L659.56,298.11 L659.74,298.11 L659.93,298.11 L660.12,298.11 L660.31,298.11 L660.50,298.11 L660.69,298.11 L660.87,298.11 L661.06,298.11 L661.25,298.11 L661.44,298.11 L661.63,298.11 L661.81,298.11 L662.00,298.11 L662.19,298.11 L662.38,298.11 L662.57,298.11 L662.75,298.11 L662.94,298.11 L663.13,298.11 L663.32,298.11 L663.51,298.11 L663.70,298.11 L663.88,298.11 L664.07,298.11 L664.26,298.11 L664.45,298.11 L664.64,298.11 L664.82,298.11 L665.01,298.11 L665.20,298.11 L665.39,298.11 L665.58,298.11 L665.76,298.11 L665.95,298.11 L666.14,298.11 L666.33,298.11 L666.52,298.11 L666.70,298.11 L666.89,298.11 L667.08,298.11 L667.27,298.11 L667.46,298.11 L667.65,298.11 L667.83,298.11 L668.02,298.11 L668.21,298.11 L668.40,298.11 L668.59,298.11 L668.77,298.11 L668.96,298.11 L669.15,298.11 L669.34,298.11 L669.53,298.11 L669.71,298.11 L669.90,298.11 L670.09,298.11 L670.28,298.11 L670.47,298.11 L670.66,298.11 L670.84,298.11 L671.03,298.11 L671.22,298.11 L671.41,298.11 L671.60,298.11 L671.78,298.11 L671.97,298.11 L672.16,298.11 L672.35,298.11 L672.54,298.11 L672.72,298.11 L672.91,298.11 L673.10,298.11 L673.29,298.11 L673.48,298.11 L673.66,298.11 L673.85,298.11 L674.04,298.11 L674.23,298.11 L674.42,298.11 L674.61,298.11 L674.79,298.11 L674.98,298.11 L675.17,298.11 L675.36,298.11 L675.55,298.11 L675.73,298.11 L675.92,298.11 L676.11,298.11 L676.30,298.11 L676.49,298.11 L676.67,298.11 L676.86,298.11 L677.05,298.11 L677.24,298.11 L677.43,298.11 L677.62,298.11 L677.80,298.11 L677.99,298.11 L678.18,298.11 L678.37,298.11 L678.56,298.11 L678.74,298.11 L678.93,298.11 L679.12,298.11 L679.31,298.11 L679.50,298.11 L679.68,298.11 L679.87,298.11 L680.06,298.11 L680.25,298.11 L680.44,298.11 L680.62,298.11 L680.81,298.11 L681.00,298.11 L681.19,298.11 L681.38,298.11 L681.57,298.11 L681.75,298.11 L681.94,298.11 L682.13,298.11 L682.32,298.11 L682.51,298.11 L682.69,298.11 L682.88,298.11 L683.07,298.11 L683.26,298.11 L683.45,298.11 L683.63,298.11 L683.82,298.11 L684.01,298.11 L684.20,298.11 L684.39,298.11 L684.58,298.11 L684.76,298.11 L684.95,298.11 L685.14,298.11 L685.33,298.11 L685.52,298.11 L685.70,298.11 L685.89,298.11 L686.08,298.11 L686.27,298.11 L686.46,298.11 L686.64,298.11 L686.83,298.11 L687.02,298.11 L687.21,298.11 L687.40,298.11 L687.58,298.11 L687.77,298.11 L687.96,298.11 L688.15,298.11 L688.34,298.11 L688.53,298.11 L688.71,298.11 L688.90,298.11 L689.09,298.11 L689.28,298.11 L689.47,298.11 L689.65,298.11 L689.84,298.11 L690.03,298.11 L690.22,298.11 L690.41,298.11 L690.59,298.11 L690.78,298.11 L690.97,298.11 L691.16,298.11 L691.35,298.11 L691.54,298.11 L691.72,298.11 L691.91,298.11 L692.10,298.11 L692.29,298.11 L692.48,298.11 L692.66,298.11 L692.85,298.11 L693.04,298.11 L693.23,298.11 L693.42,298.11 L693.60,298.11 L693.79,298.11 L693.98,298.11 L694.17,298.11 L694.36,298.11 L694.54,298.11 L694.73,298.11 L694.92,298.11 L695.11,298.11 L695.30,298.11 L695.49,298.11 L695.67,298.11 L695.86,298.11 L696.05,298.11 L696.24,298.11 L696.43,298.11 L696.61,298.11 L696.80,298.11 L696.99,298.11 L697.18,298.11 L697.37,298.11 L697.55,298.11 L697.74,298.11 L697.93,298.11 L698.12,298.11 L698.31,298.11 L698.50,298.11 L698.68,298.11 L698.87,298.11 L699.06,298.11 L699.25,298.11 L699.44,298.11 L699.62,298.11 L699.81,298.11 L700.00,298.11" style="stroke-width: 8; stroke: rgb(74, 144, 226); stroke-opacity: 1;"/></g></g><g class="test-xtl" style="font-family: &quot;Open Sans&quot;, verdana, arial, sans-serif;"><text text-anchor="middle" font-size="20" dominant-baseline="hanging" stroke="none" fill="rgb(50,50,50)" fill-opacity="1" x="75.60781250000001" y="469.84375">-3</text><text text-anchor="middle" font-size="20" dominant-baseline="hanging" stroke="none" fill="rgb(50,50,50)" fill-opacity="1" x="158" y="469.84375">-2</text><text text-anchor="middle" font-size="20" dominant-baseline="hanging" stroke="none" fill="rgb(50,50,50)" fill-opacity="1" x="240.3921875" y="469.84375">-1</text><text text-anchor="middle" font-size="20" dominant-baseline="hanging" stroke="none" fill="rgb(50,50,50)" fill-opacity="1" x="410.8765625" y="469.84375">1</text><text text-anchor="middle" font-size="20" dominant-baseline="hanging" stroke="none" fill="rgb(50,50,50)" fill-opacity="1" x="493.26875" y="469.84375">2</text><text text-anchor="middle" font-size="20" dominant-baseline="hanging" stroke="none" fill="rgb(50,50,50)" fill-opacity="1" x="575.6609374999999" y="469.84375">3</text><text text-anchor="middle" font-size="20" dominant-baseline="hanging" stroke="none" fill="rgb(50,50,50)" fill-opacity="1" x="658.0531249999999" y="469.84375">4</text><text text-anchor="middle" font-size="20" dominant-baseline="hanging" stroke="none" fill="rgb(50,50,50)" fill-opacity="1" x="316.48437499999994" y="467.84375">0</text></g><g class="test-ytl" style="font-family: &quot;Open Sans&quot;, verdana, arial, sans-serif;"><text text-anchor="end" dominant-baseline="middle" font-size="20" stroke="none" fill="rgb(50,50,50)" fill-opacity="1" x="316.484375" y="699.9453125">-3</text><text text-anchor="end" dominant-baseline="middle" font-size="20" stroke="none" fill="rgb(50,50,50)" fill-opacity="1" x="316.484375" y="619.578125">-2</text><text text-anchor="end" dominant-baseline="middle" font-size="20" stroke="none" fill="rgb(50,50,50)" fill-opacity="1" x="316.484375" y="539.2109375">-1</text><text text-anchor="end" dominant-baseline="middle" font-size="20" stroke="none" fill="rgb(50,50,50)" fill-opacity="1" x="316.484375" y="378.47656250000006">1</text><text text-anchor="end" dominant-baseline="middle" font-size="20" stroke="none" fill="rgb(50,50,50)" fill-opacity="1" x="316.484375" y="298.10937500000006">2</text><text text-anchor="end" dominant-baseline="middle" font-size="20" stroke="none" fill="rgb(50,50,50)" fill-opacity="1" x="316.484375" y="217.74218750000006">3</text><text text-anchor="end" dominant-baseline="middle" font-size="20" stroke="none" fill="rgb(50,50,50)" fill-opacity="1" x="316.484375" y="137.375">4</text><text text-anchor="end" dominant-baseline="middle" font-size="20" stroke="none" fill="rgb(50,50,50)" fill-opacity="1" x="316.484375" y="57.0078125">5</text></g><rect class="real" x="1" y="1" width="698" height="698" style="fill: transparent; stroke: none;"/></g></g></g><g class="composite-shape"><path class="real" d=" M550,50 L900,75 L550,100 L200,75 Z" style="stroke-width: 1; stroke: rgb(0, 0, 0); fill: rgb(139, 87, 42); fill-opacity: 1;"/></g><g class="composite-shape"><path class="real" d=" M1450,50 L1800,75 L1450,100 L1100,75 Z" style="stroke-width: 1; stroke: rgb(0, 0, 0); fill: rgb(139, 87, 42); fill-opacity: 1;"/></g><g/></g><g/><g/><g/></svg>
        <svg xmlns="http://www.w3.org/2000/svg" xmlns:xlink="http://www.w3.org/1999/xlink" width="1920" height="877" style="width:1920px;height:877px;font-family:Asana-Math, Asana;background:#FFF;"></svg>
</svg>
