<svg width="1920" height="960" xmlns="http://www.w3.org/2000/svg">
        <script type="application/ecmascript"> <![CDATA[
    function onClickEvent(evt) {
        Android.showDetail(evt.target.getAttribute("id"));
    }
  ]]> </script>
    <g>
        <path onclick="onClickEvent(evt)" id="1" d=" M0.00,166.95 L0.26,166.95 L0.52,166.95 L0.77,166.95 L1.03,166.95 L1.29,166.95 L1.55,166.95 L1.81,166.95 L2.06,166.95 L2.32,166.95 L2.58,166.95 L2.84,166.95 L3.10,166.95 L3.35,166.95 L3.61,166.95 L3.87,166.95 L4.13,166.95 L4.39,166.95 L4.65,166.95 L4.90,166.95 L5.16,166.95 L5.42,166.95 L5.68,166.95 L5.94,166.95 L6.19,166.95 L6.45,166.95 L6.71,166.95 L6.97,166.95 L7.23,166.95 L7.48,166.95 L7.74,166.95 L8.00,166.95 L8.26,166.95 L8.52,166.95 L8.77,166.95 L9.03,166.95 L9.29,166.95 L9.55,166.95 L9.81,166.95 L10.06,166.95 L10.32,166.95 L10.58,166.95 L10.84,166.95 L11.10,166.95 L11.35,166.95 L11.61,166.95 L11.87,166.95 L12.13,166.95 L12.39,166.95 L12.65,166.95 L12.90,166.95 L13.16,166.95 L13.42,166.95 L13.68,166.95 L13.94,166.95 L14.19,166.95 L14.45,166.95 L14.71,166.95 L14.97,166.95 L15.23,166.95 L15.48,166.95 L15.74,166.95 L16.00,166.95 L16.26,166.95 L16.52,166.95 L16.77,166.95 L17.03,166.95 L17.29,166.95 L17.55,166.95 L17.81,166.95 L18.06,166.95 L18.32,166.95 L18.58,166.95 L18.84,166.95 L19.10,166.95 L19.35,166.95 L19.61,166.95 L19.87,166.95 L20.13,166.95 L20.39,166.95 L20.65,166.95 L20.90,166.95 L21.16,166.95 L21.42,166.95 L21.68,166.95 L21.94,166.95 L22.19,166.95 L22.45,166.95 L22.71,166.95 L22.97,166.95 L23.23,166.95 L23.48,166.95 L23.74,166.95 L24.00,166.95 L24.26,166.95 L24.52,166.95 L24.77,166.95 L25.03,166.95 L25.29,166.95 L25.55,166.95 L25.81,166.95 L26.06,166.95 L26.32,166.95 L26.58,166.95 L26.84,166.95 L27.10,166.95 L27.35,166.95 L27.61,166.95 L27.87,166.95 L28.13,166.95 L28.39,166.95 L28.65,166.95 L28.90,166.95 L29.16,166.95 L29.42,166.95 L29.68,166.95 L29.94,166.95 L30.19,166.95 L30.45,166.95 L30.71,166.95 L30.97,166.95 L31.23,166.95 L31.48,166.95 L31.74,166.95 L32.00,166.95 L32.26,166.95 L32.52,166.95 L32.77,166.95 L33.03,166.95 L33.29,166.95 L33.55,166.95 L33.81,166.95 L34.06,166.95 L34.32,166.95 L34.58,166.95 L34.84,166.95 L35.10,166.95 L35.35,166.95 L35.61,166.95 L35.87,166.95 L36.13,166.95 L36.39,166.95 L36.65,166.95 L36.90,166.95 L37.16,166.95 L37.42,166.95 L37.68,166.95 L37.94,166.95 L38.19,166.95 L38.45,166.95 L38.71,166.95 L38.97,166.95 L39.23,166.95 L39.48,166.95 L39.74,166.95 L40.00,166.95 L40.26,166.95 L40.52,166.95 L40.77,166.95 L41.03,166.95 L41.29,166.95 L41.55,166.95 L41.81,166.95 L42.06,166.95 L42.32,166.95 L42.58,166.95 L42.84,166.95 L43.10,166.95 L43.36,166.95 L43.61,166.95 L43.87,166.95 L44.13,166.95 L44.39,166.95 L44.65,166.95 L44.90,166.95 L45.16,166.95 L45.42,166.95 L45.68,166.95 L45.94,166.95 L46.19,166.95 L46.45,166.95 L46.71,166.95 L46.97,166.95 L47.23,166.95 L47.48,166.95 L47.74,166.95 L48.00,166.95 L48.26,166.95 L48.52,166.95 L48.77,166.95 L49.03,166.95 L49.29,166.95 L49.55,166.95 L49.81,166.95 L50.06,166.95 L50.32,166.95 L50.58,166.95 L50.84,166.95 L51.10,166.95 L51.36,166.95 L51.61,166.95 L51.87,166.95 L52.13,166.95 L52.39,166.95 L52.65,166.95 L52.90,166.95 L53.16,166.95 L53.42,166.95 L53.68,166.95 L53.94,166.95 L54.19,166.95 L54.45,166.95 L54.71,166.95 L54.97,166.95 L55.23,166.95 L55.48,166.95 L55.74,166.95 L56.00,166.95 L56.26,166.95 L56.52,166.95 L56.77,166.95 L57.03,166.95 L57.29,166.95 L57.55,166.95 L57.81,166.95 L58.06,166.95 L58.32,166.95 L58.58,166.95 L58.84,166.95 L59.10,166.95 L59.36,166.95 L59.61,166.95 L59.87,166.95 L60.13,166.95 L60.39,166.95 L60.65,166.95 L60.90,166.95 L61.16,166.95 L61.42,166.95 L61.68,166.95 L61.94,166.95 L62.19,166.95 L62.45,166.95 L62.71,166.95 L62.97,166.95 L63.23,166.95 L63.48,166.95 L63.74,166.95 L64.00,166.95 L64.26,166.95 L64.52,166.95 L64.77,166.95 L65.03,166.95 L65.29,166.95 L65.55,166.95 L65.81,166.95 L66.06,166.95 L66.32,166.95 L66.58,166.95 L66.84,166.95 L67.10,166.95 L67.36,166.95 L67.61,166.95 L67.87,166.95 L68.13,166.95 L68.39,166.95 L68.65,166.95 L68.90,166.95 L69.16,166.95 L69.42,166.95 L69.68,166.95 L69.94,166.95 L70.19,166.95 L70.45,166.95 L70.71,166.95 L70.97,166.95 L71.23,166.95 L71.48,166.95 L71.74,166.95 L72.00,166.95 L72.26,166.95 L72.52,166.95 L72.77,166.95 L73.03,166.95 L73.29,166.95 L73.55,166.95 L73.81,166.95 L74.06,166.95 L74.32,166.95 L74.58,166.95 L74.84,166.95 L75.10,166.95 L75.36,166.95 L75.61,166.95 L75.87,166.95 L76.13,166.95 L76.39,166.95 L76.65,166.95 L76.90,166.95 L77.16,166.95 L77.42,166.95 L77.68,166.95 L77.94,166.95 L78.19,166.95 L78.45,166.95 L78.71,166.95 L78.97,166.95 L79.23,166.95 L79.48,166.95 L79.74,166.95 L80.00,166.95 L80.26,166.95 L80.52,166.95 L80.77,166.95 L81.03,166.95 L81.29,166.95 L81.55,166.95 L81.81,166.95 L82.06,166.95 L82.32,166.95 L82.58,166.95 L82.84,166.95 L83.10,166.95 L83.36,166.95 L83.61,166.95 L83.87,166.95 L84.13,166.95 L84.39,166.95 L84.65,166.95 L84.90,166.95 L85.16,166.95 L85.42,166.95 L85.68,166.95 L85.94,166.95 L86.19,166.95 L86.45,166.95 L86.71,166.95 L86.97,166.95 L87.23,166.95 L87.48,166.95 L87.74,166.95 L88.00,166.95 L88.26,166.95 L88.52,166.95 L88.77,166.95 L89.03,166.95 L89.29,166.95 L89.55,166.95 L89.81,166.95 L90.06,166.95 L90.32,166.95 L90.58,166.95 L90.84,166.95 L91.10,166.95 L91.36,166.95 L91.61,166.95 L91.87,166.95 L92.13,166.95 L92.39,166.95 L92.65,166.95 L92.90,166.95 L93.16,166.95 L93.42,166.95 L93.68,166.95 L93.94,166.95 L94.19,166.95 L94.45,166.95 L94.71,166.95 L94.97,166.95 L95.23,166.95 L95.48,166.95 L95.74,166.95 L96.00,166.95 L96.26,166.95 L96.52,166.95 L96.77,166.95 L97.03,166.95 L97.29,166.95 L97.55,166.95 L97.81,166.95 L98.06,166.95 L98.32,166.95 L98.58,166.95 L98.84,166.95 L99.10,166.95 L99.36,166.95 L99.61,166.95 L99.87,166.95 L100.13,166.95 L100.39,166.95 L100.65,166.95 L100.90,166.95 L101.16,166.95 L101.42,166.95 L101.68,166.95 L101.94,166.95 L102.19,166.95 L102.45,166.95 L102.71,166.95 L102.97,166.95 L103.23,166.95 L103.48,166.95 L103.74,166.95 L104.00,166.95 L104.26,166.95 L104.52,166.95 L104.77,166.95 L105.03,166.95 L105.29,166.95 L105.55,166.95 L105.81,166.95 L106.06,166.95 L106.32,166.95 L106.58,166.95 L106.84,166.95 L107.10,166.95 L107.36,166.95 L107.61,166.95 L107.87,166.95 L108.13,166.95 L108.39,166.95 L108.65,166.95 L108.90,166.95 L109.16,166.95 L109.42,166.95 L109.68,166.95 L109.94,166.95 L110.19,166.95 L110.45,166.95 L110.71,166.95 L110.97,166.95 L111.23,166.95 L111.48,166.95 L111.74,166.95 L112.00,166.95 L112.26,166.95 L112.52,166.95 L112.77,166.95 L113.03,166.95 L113.29,166.95 L113.55,166.95 L113.81,166.95 L114.06,166.95 L114.32,166.95 L114.58,166.95 L114.84,166.95 L115.10,166.95 L115.36,166.95 L115.61,166.95 L115.87,166.95 L116.13,166.95 L116.39,166.95 L116.65,166.95 L116.90,166.95 L117.16,166.95 L117.42,166.95 L117.68,166.95 L117.94,166.95 L118.19,166.95 L118.45,166.95 L118.71,166.95 L118.97,166.95 L119.23,166.95 L119.48,166.95 L119.74,166.95 L120.00,166.95 L120.26,166.95 L120.52,166.95 L120.77,166.95 L121.03,166.95 L121.29,166.95 L121.55,166.95 L121.81,166.95 L122.06,166.95 L122.32,166.95 L122.58,166.95 L122.84,166.95 L123.10,166.95 L123.36,166.95 L123.61,166.95 L123.87,166.95 L124.13,166.95 L124.39,166.95 L124.65,166.95 L124.90,166.95 L125.16,166.95 L125.42,166.95 L125.68,166.95 L125.94,166.95 L126.19,166.95 L126.45,166.95 L126.71,166.95 L126.97,166.95 L127.23,166.95 L127.48,166.95 L127.74,166.95 L128.00,166.95 L128.26,166.95 L128.52,166.95 L128.77,166.95 L129.03,166.95 L129.29,166.95 L129.55,166.95 L129.81,166.95 L130.07,166.95 L130.32,166.95 L130.58,166.95 L130.84,166.95 L131.10,166.95 L131.36,166.95 L131.61,166.95 L131.87,166.95 L132.13,166.95 L132.39,166.95 L132.65,166.95 L132.90,166.95 L133.16,166.95 L133.42,166.95 L133.68,166.95 L133.94,166.95 L134.19,166.95 L134.45,166.95 L134.71,166.95 L134.97,166.95 L135.23,166.95 L135.48,166.95 L135.74,166.95 L136.00,166.95 L136.26,166.95 L136.52,166.95 L136.77,166.95 L137.03,166.95 L137.29,166.95 L137.55,166.95 L137.81,166.95 L138.07,166.95 L138.32,166.95 L138.58,166.95 L138.84,166.95 L139.10,166.95 L139.36,166.95 L139.61,166.95 L139.87,166.95 L140.13,166.95 L140.39,166.95 L140.65,166.95 L140.90,166.95 L141.16,166.95 L141.42,166.95 L141.68,166.95 L141.94,166.95 L142.19,166.95 L142.45,166.95 L142.71,166.95 L142.97,166.95 L143.23,166.95 L143.48,166.95 L143.74,166.95 L144.00,166.95 L144.26,166.95 L144.52,166.95 L144.77,166.95 L145.03,166.95 L145.29,166.95 L145.55,166.95 L145.81,166.95 L146.07,166.95 L146.32,166.95 L146.58,166.95 L146.84,166.95 L147.10,166.95 L147.36,166.95 L147.61,166.95 L147.87,166.95 L148.13,166.95 L148.39,166.95 L148.65,166.95 L148.90,166.95 L149.16,166.95 L149.42,166.95 L149.68,166.95 L149.94,166.95 L150.19,166.95 L150.45,166.95 L150.71,166.95 L150.97,166.95 L151.23,166.95 L151.48,166.95 L151.74,166.95 L152.00,166.95 L152.26,166.95 L152.52,166.95 L152.77,166.95 L153.03,166.95 L153.29,166.95 L153.55,166.95 L153.81,166.95 L154.07,166.95 L154.32,166.95 L154.58,166.95 L154.84,166.95 L155.10,166.95 L155.36,166.95 L155.61,166.95 L155.87,166.95 L156.13,166.95 L156.39,166.95 L156.65,166.95 L156.90,166.95 L157.16,166.95 L157.42,166.95 L157.68,166.95 L157.94,166.95 L158.19,166.95 L158.45,166.95 L158.71,166.95 L158.97,166.95 L159.23,166.95 L159.48,166.95 L159.74,166.95 L160.00,166.95 L160.26,166.95 L160.52,166.95 L160.77,166.95 L161.03,166.95 L161.29,166.95 L161.55,166.95 L161.81,166.95 L162.07,166.95 L162.32,166.95 L162.58,166.95 L162.84,166.95 L163.10,166.95 L163.36,166.95 L163.61,166.95 L163.87,166.95 L164.13,166.95 L164.39,166.95 L164.65,166.95 L164.90,166.95 L165.16,166.95 L165.42,166.95 L165.68,166.95 L165.94,166.95 L166.19,166.95 L166.45,166.95 L166.71,166.95 L166.97,166.95 L167.23,166.95 L167.48,166.95 L167.74,166.95 L168.00,166.95 L168.26,166.95 L168.52,166.95 L168.77,166.95 L169.03,166.95 L169.29,166.95 L169.55,166.95 L169.81,166.95 L170.07,166.95 L170.32,166.95 L170.58,166.95 L170.84,166.95 L171.10,166.95 L171.36,166.95 L171.61,166.95 L171.87,166.95 L172.13,166.95 L172.39,166.95 L172.65,166.95 L172.90,166.95 L173.16,166.95 L173.42,166.95 L173.68,166.95 L173.94,166.95 L174.19,166.95 L174.45,166.95 L174.71,166.95 L174.97,166.95 L175.23,166.95 L175.48,166.95 L175.74,166.95 L176.00,166.95 L176.26,166.95 L176.52,166.95 L176.77,166.95 L177.03,166.95 L177.29,166.95 L177.55,166.95 L177.81,166.95 L178.07,166.95 L178.32,166.95 L178.58,166.95 L178.84,166.95 L179.10,166.95 L179.36,166.95 L179.61,166.95 L179.87,166.95 L180.13,166.95 L180.39,166.95 L180.65,166.95 L180.90,166.95 L181.16,166.95 L181.42,166.95 L181.68,166.95 L181.94,166.95 L182.19,166.95 L182.45,166.95 L182.71,166.95 L182.97,166.95 L183.23,166.95 L183.48,166.95 L183.74,166.95 L184.00,166.95 L184.26,166.95 L184.52,166.95 L184.77,166.95 L185.03,166.95 L185.29,166.95 L185.55,166.95 L185.81,166.95 L186.07,166.95 L186.32,166.95 L186.58,166.95 L186.84,166.95 L187.10,166.95 L187.36,166.95 L187.61,166.95 L187.87,166.95 L188.13,166.95 L188.39,166.95 L188.65,166.95 L188.90,166.95 L189.16,166.95 L189.42,166.95 L189.68,166.95 L189.94,166.95 L190.19,166.95 L190.45,166.95 L190.71,166.95 L190.97,166.95 L191.23,166.95 L191.48,166.95 L191.74,166.95 L192.00,166.95 L192.26,166.95 L192.52,166.95 L192.77,166.95 L193.03,166.95 L193.29,166.95 L193.55,166.95 L193.81,166.95 L194.07,166.95 L194.32,166.95 L194.58,166.95 L194.84,166.95 L195.10,166.95 L195.36,166.95 L195.61,166.95 L195.87,166.95 L196.13,166.95 L196.39,166.95 L196.65,166.95 L196.90,166.95 L197.16,166.95 L197.42,166.95 L197.68,166.95 L197.94,166.95 L198.19,166.95 L198.45,166.95 L198.71,166.95 L198.97,166.95 L199.23,166.95 L199.48,166.95 L199.74,166.95 L200.00,166.95 L200.26,166.95 L200.52,166.95 L200.77,166.95 L201.03,166.95 L201.29,166.95 L201.55,166.95 L201.81,166.95 L202.07,166.95 L202.32,166.95 L202.58,166.95 L202.84,166.95 L203.10,166.95 L203.36,166.95 L203.61,166.95 L203.87,166.95 L204.13,166.95 L204.39,166.95 L204.65,166.95 L204.90,166.95 L205.16,166.95 L205.42,166.95 L205.68,166.95 L205.94,166.95 L206.19,166.95 L206.45,166.95 L206.71,166.95 L206.97,166.95 L207.23,166.95 L207.48,166.95 L207.74,166.95 L208.00,166.95 L208.26,166.95 L208.52,166.95 L208.77,166.95 L209.03,166.95 L209.29,166.95 L209.55,166.95 L209.81,166.95 L210.07,166.95 L210.32,166.95 L210.58,166.95 L210.84,166.95 L211.10,166.95 L211.36,166.95 L211.61,166.95 L211.87,166.95 L212.13,166.95 L212.39,166.95 L212.65,166.95 L212.90,166.95 L213.16,166.95 L213.42,166.95 L213.68,166.95 L213.94,166.95 L214.19,166.95 L214.45,166.95 L214.71,166.95 L214.97,166.95 L215.23,166.95 L215.48,166.95 L215.74,166.95 L216.00,166.95 L216.26,166.95 L216.52,166.95 L216.78,166.95 L217.03,166.95 L217.29,166.95 L217.55,166.95 L217.81,166.95 L218.07,166.95 L218.32,166.95 L218.58,166.95 L218.84,166.95 L219.10,166.95 L219.36,166.95 L219.61,166.95 L219.87,166.95 L220.13,166.95 L220.39,166.95 L220.65,166.95 L220.90,166.95 L221.16,166.95 L221.42,166.95 L221.68,166.95 L221.94,166.95 L222.19,166.95 L222.45,166.95 L222.71,166.95 L222.97,166.95 L223.23,166.95 L223.48,166.95 L223.74,166.95 L224.00,166.95 L224.26,166.95 L224.52,166.95 L224.78,166.95 L225.03,166.95 L225.29,166.95 L225.55,166.95 L225.81,166.95 L226.07,166.95 L226.32,166.95 L226.58,166.95 L226.84,166.95 L227.10,166.95 L227.36,166.95 L227.61,166.95 L227.87,166.95 L228.13,166.95 L228.39,166.95 L228.65,166.95 L228.90,166.95 L229.16,166.95 L229.42,166.95 L229.68,166.95 L229.94,166.95 L230.19,166.95 L230.45,166.95 L230.71,166.95 L230.97,166.95 L231.23,166.95 L231.48,166.95 L231.74,166.95 L232.00,166.95 L232.26,166.95 L232.52,166.95 L232.78,166.95 L233.03,166.95 L233.29,166.95 L233.55,166.95 L233.81,166.95 L234.07,166.95 L234.32,166.95 L234.58,166.95 L234.84,166.95 L235.10,166.95 L235.36,166.95 L235.61,166.95 L235.87,166.95 L236.13,166.95 L236.39,166.95 L236.65,166.95 L236.90,166.95 L237.16,166.95 L237.42,166.95 L237.68,166.95 L237.94,166.95 L238.19,166.95 L238.45,166.95 L238.71,166.95 L238.97,166.95 L239.23,166.95 L239.48,166.95 L239.74,166.95 L240.00,166.95 L240.26,166.95 L240.52,166.95 L240.78,166.95 L241.03,166.95 L241.29,166.95 L241.55,166.95 L241.81,166.95 L242.07,166.95 L242.32,166.95 L242.58,166.95 L242.84,166.95 L243.10,166.95 L243.36,166.95 L243.61,166.95 L243.87,166.95 L244.13,166.95 L244.39,166.95 L244.65,166.95 L244.90,166.95 L245.16,166.95 L245.42,166.95 L245.68,166.95 L245.94,166.95 L246.19,166.95 L246.45,166.95 L246.71,166.95 L246.97,166.95 L247.23,166.95 L247.48,166.95 L247.74,166.95 L248.00,166.95 L248.26,166.95 L248.52,166.95 L248.78,166.95 L249.03,166.95 L249.29,166.95 L249.55,166.95 L249.81,166.95 L250.07,166.95 L250.32,166.95 L250.58,166.95 L250.84,166.95 L251.10,166.95 L251.36,166.95 L251.61,166.95 L251.87,166.95 L252.13,166.95 L252.39,166.95 L252.65,166.95 L252.90,166.95 L253.16,166.95 L253.42,166.95 L253.68,166.95 L253.94,166.95 L254.19,166.95 L254.45,166.95 L254.71,166.95 L254.97,166.95 L255.23,166.95 L255.48,166.95 L255.74,166.95 L256.00,166.95 L256.26,166.95 L256.52,166.95 L256.78,166.95 L257.03,166.95 L257.29,166.95 L257.55,166.95 L257.81,166.95 L258.07,166.95 L258.32,166.95 L258.58,166.95 L258.84,166.95 L259.10,166.95 L259.36,166.95 L259.61,166.95 L259.87,166.95 L260.13,166.95 L260.39,166.95 L260.65,166.95 L260.90,166.95 L261.16,166.95 L261.42,166.95 L261.68,166.95 L261.94,166.95 L262.19,166.95 L262.45,166.95 L262.71,166.95 L262.97,166.95 L263.23,166.95 L263.48,166.95 L263.74,166.95 L264.00,166.95 L264.26,166.95 L264.52,166.95 L264.78,166.95 L265.03,166.95 L265.29,166.95 L265.55,166.95 L265.81,166.95 L266.07,166.95 L266.32,166.95 L266.58,166.95 L266.84,166.95 L267.10,166.95 L267.36,166.95 L267.61,166.95 L267.87,166.95 L268.13,166.95 L268.39,166.95 L268.65,166.95 L268.90,166.95 L269.16,166.95 L269.42,166.95 L269.68,166.95 L269.94,166.95 L270.19,166.95 L270.45,166.95 L270.71,166.95 L270.97,166.95 L271.23,166.95 L271.48,166.95 L271.74,166.95 L272.00,166.95 L272.26,166.95 L272.52,166.95 L272.78,166.95 L273.03,166.95 L273.29,166.95 L273.55,166.95 L273.81,166.95 L274.07,166.95 L274.32,166.95 L274.58,166.95 L274.84,166.95 L275.10,166.95 L275.36,166.95 L275.61,166.95 L275.87,166.95 L276.13,166.95 L276.39,166.95 L276.65,166.95 L276.90,166.95 L277.16,166.95 L277.42,166.95 L277.68,166.95 L277.94,166.95 L278.19,166.95 L278.45,166.95 L278.71,166.95 L278.97,166.95 L279.23,166.95 L279.48,166.95 L279.74,166.95 L280.00,166.95 L280.26,166.95 L280.52,166.95 L280.78,166.95 L281.03,166.95 L281.29,166.95 L281.55,166.95 L281.81,166.95 L282.07,166.95 L282.32,166.95 L282.58,166.95 L282.84,166.95 L283.10,166.95 L283.36,166.95 L283.61,166.95" style="stroke-width: 20; stroke: rgb(74, 144, 226); stroke-opacity: 0.8;"/>
        <path onclick="onClickEvent(evt)" id="2" d=" M283.61,523.67 L283.99,523.67 L284.37,523.67 L284.75,523.67 L285.13,523.67 L285.51,523.67 L285.89,523.67 L286.27,523.67 L286.64,523.67 L287.02,523.67 L287.40,523.67 L287.78,523.67 L288.16,523.67 L288.54,523.67 L288.92,523.67 L289.30,523.67 L289.68,523.67 L290.05,523.67 L290.43,523.67 L290.81,523.67 L291.19,523.67 L291.57,523.67 L291.95,523.67 L292.33,523.67 L292.71,523.67 L293.09,523.67 L293.46,523.67 L293.84,523.67 L294.22,523.67 L294.60,523.67 L294.98,523.67 L295.36,523.67 L295.74,523.67 L296.12,523.67 L296.50,523.67 L296.87,523.67 L297.25,523.67 L297.63,523.67 L298.01,523.67 L298.39,523.67 L298.77,523.67 L299.15,523.67 L299.53,523.67 L299.91,523.67 L300.28,523.67 L300.66,523.67 L301.04,523.67 L301.42,523.67 L301.80,523.67 L302.18,523.67 L302.56,523.67 L302.94,523.67 L303.32,523.67 L303.69,523.67 L304.07,523.67 L304.45,523.67 L304.83,523.67 L305.21,523.67 L305.59,523.67 L305.97,523.67 L306.35,523.67 L306.73,523.67 L307.10,523.67 L307.48,523.67 L307.86,523.67 L308.24,523.67 L308.62,523.67 L309.00,523.67 L309.38,523.67 L309.76,523.67 L310.14,523.67 L310.51,523.67 L310.89,523.67 L311.27,523.67 L311.65,523.67 L312.03,523.67 L312.41,523.67 L312.79,523.67 L313.17,523.67 L313.55,523.67 L313.92,523.67 L314.30,523.67 L314.68,523.67 L315.06,523.67 L315.44,523.67 L315.82,523.67 L316.20,523.67 L316.58,523.67 L316.96,523.67 L317.33,523.67 L317.71,523.67 L318.09,523.67 L318.47,523.67 L318.85,523.67 L319.23,523.67 L319.61,523.67 L319.99,523.67 L320.37,523.67 L320.74,523.67 L321.12,523.67 L321.50,523.67 L321.88,523.67 L322.26,523.67 L322.64,523.67 L323.02,523.67 L323.40,523.67 L323.77,523.67 L324.15,523.67 L324.53,523.67 L324.91,523.67 L325.29,523.67 L325.67,523.67 L326.05,523.67 L326.43,523.67 L326.81,523.67 L327.18,523.67 L327.56,523.67 L327.94,523.67 L328.32,523.67 L328.70,523.67 L329.08,523.67 L329.46,523.67 L329.84,523.67 L330.22,523.67 L330.59,523.67 L330.97,523.67 L331.35,523.67 L331.73,523.67 L332.11,523.67 L332.49,523.67 L332.87,523.67 L333.25,523.67 L333.63,523.67 L334.00,523.67 L334.38,523.67 L334.76,523.67 L335.14,523.67 L335.52,523.67 L335.90,523.67 L336.28,523.67 L336.66,523.67 L337.04,523.67 L337.41,523.67 L337.79,523.67 L338.17,523.67 L338.55,523.67 L338.93,523.67 L339.31,523.67 L339.69,523.67 L340.07,523.67 L340.45,523.67 L340.82,523.67 L341.20,523.67 L341.58,523.67 L341.96,523.67 L342.34,523.67 L342.72,523.67 L343.10,523.67 L343.48,523.67 L343.86,523.67 L344.23,523.67 L344.61,523.67 L344.99,523.67 L345.37,523.67 L345.75,523.67 L346.13,523.67 L346.51,523.67 L346.89,523.67 L347.27,523.67 L347.64,523.67 L348.02,523.67 L348.40,523.67 L348.78,523.67 L349.16,523.67 L349.54,523.67 L349.92,523.67 L350.30,523.67 L350.68,523.67 L351.05,523.67 L351.43,523.67 L351.81,523.67 L352.19,523.67 L352.57,523.67 L352.95,523.67 L353.33,523.67 L353.71,523.67 L354.09,523.67 L354.46,523.67 L354.84,523.67 L355.22,523.67 L355.60,523.67 L355.98,523.67 L356.36,523.67 L356.74,523.67 L357.12,523.67 L357.50,523.67 L357.87,523.67 L358.25,523.67 L358.63,523.67 L359.01,523.67 L359.39,523.67 L359.77,523.67 L360.15,523.67 L360.53,523.67 L360.90,523.67 L361.28,523.67 L361.66,523.67 L362.04,523.67 L362.42,523.67 L362.80,523.67 L363.18,523.67 L363.56,523.67 L363.94,523.67 L364.31,523.67 L364.69,523.67 L365.07,523.67 L365.45,523.67 L365.83,523.67 L366.21,523.67 L366.59,523.67 L366.97,523.67 L367.35,523.67 L367.72,523.67 L368.10,523.67 L368.48,523.67 L368.86,523.67 L369.24,523.67 L369.62,523.67 L370.00,523.67 L370.38,523.67 L370.76,523.67 L371.13,523.67 L371.51,523.67 L371.89,523.67 L372.27,523.67 L372.65,523.67 L373.03,523.67 L373.41,523.67 L373.79,523.67 L374.17,523.67 L374.54,523.67 L374.92,523.67 L375.30,523.67 L375.68,523.67 L376.06,523.67 L376.44,523.67 L376.82,523.67 L377.20,523.67 L377.58,523.67 L377.95,523.67 L378.33,523.67 L378.71,523.67 L379.09,523.67 L379.47,523.67 L379.85,523.67 L380.23,523.67 L380.61,523.67 L380.99,523.67 L381.36,523.67 L381.74,523.67 L382.12,523.67 L382.50,523.67 L382.88,523.67 L383.26,523.67 L383.64,523.67 L384.02,523.67 L384.40,523.67 L384.77,523.67 L385.15,523.67 L385.53,523.67 L385.91,523.67 L386.29,523.67 L386.67,523.67 L387.05,523.67 L387.43,523.67 L387.81,523.67 L388.18,523.67 L388.56,523.67 L388.94,523.67 L389.32,523.67 L389.70,523.67 L390.08,523.67 L390.46,523.67 L390.84,523.67 L391.22,523.67 L391.59,523.67 L391.97,523.67 L392.35,523.67 L392.73,523.67 L393.11,523.67 L393.49,523.67 L393.87,523.67 L394.25,523.67 L394.62,523.67 L395.00,523.67 L395.38,523.67 L395.76,523.67 L396.14,523.67 L396.52,523.67 L396.90,523.67 L397.28,523.67 L397.66,523.67 L398.03,523.67 L398.41,523.67 L398.79,523.67 L399.17,523.67 L399.55,523.67 L399.93,523.67 L400.31,523.67 L400.69,523.67 L401.07,523.67 L401.44,523.67 L401.82,523.67 L402.20,523.67 L402.58,523.67 L402.96,523.67 L403.34,523.67 L403.72,523.67 L404.10,523.67 L404.48,523.67 L404.85,523.67 L405.23,523.67 L405.61,523.67 L405.99,523.67 L406.37,523.67 L406.75,523.67 L407.13,523.67 L407.51,523.67 L407.89,523.67 L408.26,523.67 L408.64,523.67 L409.02,523.67 L409.40,523.67 L409.78,523.67 L410.16,523.67 L410.54,523.67 L410.92,523.67 L411.30,523.67 L411.67,523.67 L412.05,523.67 L412.43,523.67 L412.81,523.67 L413.19,523.67 L413.57,523.67 L413.95,523.67 L414.33,523.67 L414.71,523.67 L415.08,523.67 L415.46,523.67 L415.84,523.67 L416.22,523.67 L416.60,523.67 L416.98,523.67 L417.36,523.67 L417.74,523.67 L418.12,523.67 L418.49,523.67 L418.87,523.67 L419.25,523.67 L419.63,523.67 L420.01,523.67 L420.39,523.67 L420.77,523.67 L421.15,523.67 L421.53,523.67 L421.90,523.67 L422.28,523.67 L422.66,523.67 L423.04,523.67 L423.42,523.67 L423.80,523.67 L424.18,523.67 L424.56,523.67 L424.94,523.67 L425.31,523.67 L425.69,523.67 L426.07,523.67 L426.45,523.67 L426.83,523.67 L427.21,523.67 L427.59,523.67 L427.97,523.67 L428.35,523.67 L428.72,523.67 L429.10,523.67 L429.48,523.67 L429.86,523.67 L430.24,523.67 L430.62,523.67 L431.00,523.67 L431.38,523.67 L431.75,523.67 L432.13,523.67 L432.51,523.67 L432.89,523.67 L433.27,523.67 L433.65,523.67 L434.03,523.67 L434.41,523.67 L434.79,523.67 L435.16,523.67 L435.54,523.67 L435.92,523.67 L436.30,523.67 L436.68,523.67 L437.06,523.67 L437.44,523.67 L437.82,523.67 L438.20,523.67 L438.57,523.67 L438.95,523.67 L439.33,523.67 L439.71,523.67 L440.09,523.67 L440.47,523.67 L440.85,523.67 L441.23,523.67 L441.61,523.67 L441.98,523.67 L442.36,523.67 L442.74,523.67 L443.12,523.67 L443.50,523.67 L443.88,523.67 L444.26,523.67 L444.64,523.67 L445.02,523.67 L445.39,523.67 L445.77,523.67 L446.15,523.67 L446.53,523.67 L446.91,523.67 L447.29,523.67 L447.67,523.67 L448.05,523.67 L448.43,523.67 L448.80,523.67 L449.18,523.67 L449.56,523.67 L449.94,523.67 L450.32,523.67 L450.70,523.67 L451.08,523.67 L451.46,523.67 L451.84,523.67 L452.21,523.67 L452.59,523.67 L452.97,523.67 L453.35,523.67 L453.73,523.67 L454.11,523.67 L454.49,523.67 L454.87,523.67 L455.25,523.67 L455.62,523.67 L456.00,523.67 L456.38,523.67 L456.76,523.67 L457.14,523.67 L457.52,523.67 L457.90,523.67 L458.28,523.67 L458.66,523.67 L459.03,523.67 L459.41,523.67 L459.79,523.67 L460.17,523.67 L460.55,523.67 L460.93,523.67 L461.31,523.67 L461.69,523.67 L462.07,523.67 L462.44,523.67 L462.82,523.67 L463.20,523.67 L463.58,523.67 L463.96,523.67 L464.34,523.67 L464.72,523.67 L465.10,523.67 L465.48,523.67 L465.85,523.67 L466.23,523.67 L466.61,523.67 L466.99,523.67 L467.37,523.67 L467.75,523.67 L468.13,523.67 L468.51,523.67 L468.88,523.67 L469.26,523.67 L469.64,523.67 L470.02,523.67 L470.40,523.67 L470.78,523.67 L471.16,523.67 L471.54,523.67 L471.92,523.67 L472.29,523.67 L472.67,523.67 L473.05,523.67 L473.43,523.67 L473.81,523.67 L474.19,523.67 L474.57,523.67 L474.95,523.67 L475.33,523.67 L475.70,523.67 L476.08,523.67 L476.46,523.67 L476.84,523.67 L477.22,523.67 L477.60,523.67 L477.98,523.67 L478.36,523.67 L478.74,523.67 L479.11,523.67 L479.49,523.67 L479.87,523.67 L480.25,523.67 L480.63,523.67 L481.01,523.67 L481.39,523.67 L481.77,523.67 L482.15,523.67 L482.52,523.67 L482.90,523.67 L483.28,523.67 L483.66,523.67 L484.04,523.67 L484.42,523.67 L484.80,523.67 L485.18,523.67 L485.56,523.67 L485.93,523.67 L486.31,523.67 L486.69,523.67 L487.07,523.67 L487.45,523.67 L487.83,523.67 L488.21,523.67 L488.59,523.67 L488.97,523.67 L489.34,523.67 L489.72,523.67 L490.10,523.67 L490.48,523.67 L490.86,523.67 L491.24,523.67 L491.62,523.67 L492.00,523.67 L492.38,523.67 L492.75,523.67 L493.13,523.67 L493.51,523.67 L493.89,523.67 L494.27,523.67 L494.65,523.67 L495.03,523.67 L495.41,523.67 L495.79,523.67 L496.16,523.67 L496.54,523.67 L496.92,523.67 L497.30,523.67 L497.68,523.67 L498.06,523.67 L498.44,523.67 L498.82,523.67 L499.20,523.67 L499.57,523.67 L499.95,523.67 L500.33,523.67 L500.71,523.67 L501.09,523.67 L501.47,523.67 L501.85,523.67 L502.23,523.67 L502.60,523.67 L502.98,523.67 L503.36,523.67 L503.74,523.67 L504.12,523.67 L504.50,523.67 L504.88,523.67 L505.26,523.67 L505.64,523.67 L506.01,523.67 L506.39,523.67 L506.77,523.67 L507.15,523.67 L507.53,523.67 L507.91,523.67 L508.29,523.67 L508.67,523.67 L509.05,523.67 L509.42,523.67 L509.80,523.67 L510.18,523.67 L510.56,523.67 L510.94,523.67 L511.32,523.67 L511.70,523.67 L512.08,523.67 L512.46,523.67 L512.83,523.67 L513.21,523.67 L513.59,523.67 L513.97,523.67 L514.35,523.67 L514.73,523.67 L515.11,523.67 L515.49,523.67 L515.87,523.67 L516.24,523.67 L516.62,523.67 L517.00,523.67 L517.38,523.67 L517.76,523.67 L518.14,523.67 L518.52,523.67 L518.90,523.67 L519.28,523.67 L519.65,523.67 L520.03,523.67 L520.41,523.67 L520.79,523.67 L521.17,523.67 L521.55,523.67 L521.93,523.67 L522.31,523.67 L522.69,523.67 L523.06,523.67 L523.44,523.67 L523.82,523.67 L524.20,523.67 L524.58,523.67 L524.96,523.67 L525.34,523.67 L525.72,523.67 L526.10,523.67 L526.47,523.67 L526.85,523.67 L527.23,523.67 L527.61,523.67 L527.99,523.67 L528.37,523.67 L528.75,523.67 L529.13,523.67 L529.51,523.67 L529.88,523.67 L530.26,523.67 L530.64,523.67 L531.02,523.67 L531.40,523.67 L531.78,523.67 L532.16,523.67 L532.54,523.67 L532.92,523.67 L533.29,523.67 L533.67,523.67 L534.05,523.67 L534.43,523.67 L534.81,523.67 L535.19,523.67 L535.57,523.67 L535.95,523.67 L536.33,523.67 L536.70,523.67 L537.08,523.67 L537.46,523.67 L537.84,523.67 L538.22,523.67 L538.60,523.67 L538.98,523.67 L539.36,523.67 L539.73,523.67 L540.11,523.67 L540.49,523.67 L540.87,523.67 L541.25,523.67 L541.63,523.67 L542.01,523.67 L542.39,523.67 L542.77,523.67 L543.14,523.67 L543.52,523.67 L543.90,523.67 L544.28,523.67 L544.66,523.67 L545.04,523.67 L545.42,523.67 L545.80,523.67 L546.18,523.67 L546.55,523.67 L546.93,523.67 L547.31,523.67 L547.69,523.67 L548.07,523.67 L548.45,523.67 L548.83,523.67 L549.21,523.67 L549.59,523.67 L549.96,523.67 L550.34,523.67 L550.72,523.67 L551.10,523.67 L551.48,523.67 L551.86,523.67 L552.24,523.67 L552.62,523.67 L553.00,523.67 L553.37,523.67 L553.75,523.67 L554.13,523.67 L554.51,523.67 L554.89,523.67 L555.27,523.67 L555.65,523.67 L556.03,523.67 L556.41,523.67 L556.78,523.67 L557.16,523.67 L557.54,523.67 L557.92,523.67 L558.30,523.67 L558.68,523.67 L559.06,523.67 L559.44,523.67 L559.82,523.67 L560.19,523.67 L560.57,523.67 L560.95,523.67 L561.33,523.67 L561.71,523.67 L562.09,523.67 L562.47,523.67 L562.85,523.67 L563.23,523.67 L563.60,523.67 L563.98,523.67 L564.36,523.67 L564.74,523.67 L565.12,523.67 L565.50,523.67 L565.88,523.67 L566.26,523.67 L566.64,523.67 L567.01,523.67 L567.39,523.67 L567.77,523.67 L568.15,523.67 L568.53,523.67 L568.91,523.67 L569.29,523.67 L569.67,523.67 L570.05,523.67 L570.42,523.67 L570.80,523.67 L571.18,523.67 L571.56,523.67 L571.94,523.67 L572.32,523.67 L572.70,523.67 L573.08,523.67 L573.46,523.67 L573.83,523.67 L574.21,523.67 L574.59,523.67 L574.97,523.67 L575.35,523.67 L575.73,523.67 L576.11,523.67 L576.49,523.67 L576.86,523.67 L577.24,523.67 L577.62,523.67 L578.00,523.67 L578.38,523.67 L578.76,523.67 L579.14,523.67 L579.52,523.67 L579.90,523.67 L580.27,523.67 L580.65,523.67 L581.03,523.67 L581.41,523.67 L581.79,523.67 L582.17,523.67 L582.55,523.67 L582.93,523.67 L583.31,523.67 L583.68,523.67 L584.06,523.67 L584.44,523.67 L584.82,523.67 L585.20,523.67 L585.58,523.67 L585.96,523.67 L586.34,523.67 L586.72,523.67 L587.09,523.67 L587.47,523.67 L587.85,523.67 L588.23,523.67 L588.61,523.67 L588.99,523.67 L589.37,523.67 L589.75,523.67 L590.13,523.67 L590.50,523.67 L590.88,523.67 L591.26,523.67 L591.64,523.67 L592.02,523.67 L592.40,523.67 L592.78,523.67 L593.16,523.67 L593.54,523.67 L593.91,523.67 L594.29,523.67 L594.67,523.67 L595.05,523.67 L595.43,523.67 L595.81,523.67 L596.19,523.67 L596.57,523.67 L596.95,523.67 L597.32,523.67 L597.70,523.67 L598.08,523.67 L598.46,523.67 L598.84,523.67 L599.22,523.67 L599.60,523.67 L599.98,523.67 L600.36,523.67 L600.73,523.67 L601.11,523.67 L601.49,523.67 L601.87,523.67 L602.25,523.67 L602.63,523.67 L603.01,523.67 L603.39,523.67 L603.77,523.67 L604.14,523.67 L604.52,523.67 L604.90,523.67 L605.28,523.67 L605.66,523.67 L606.04,523.67 L606.42,523.67 L606.80,523.67 L607.18,523.67 L607.55,523.67 L607.93,523.67 L608.31,523.67 L608.69,523.67 L609.07,523.67 L609.45,523.67 L609.83,523.67 L610.21,523.67 L610.58,523.67 L610.96,523.67 L611.34,523.67 L611.72,523.67 L612.10,523.67 L612.48,523.67 L612.86,523.67 L613.24,523.67 L613.62,523.67 L613.99,523.67 L614.37,523.67 L614.75,523.67 L615.13,523.67 L615.51,523.67 L615.89,523.67 L616.27,523.67 L616.65,523.67 L617.03,523.67 L617.40,523.67 L617.78,523.67 L618.16,523.67 L618.54,523.67 L618.92,523.67 L619.30,523.67 L619.68,523.67 L620.06,523.67 L620.44,523.67 L620.81,523.67 L621.19,523.67 L621.57,523.67 L621.95,523.67 L622.33,523.67 L622.71,523.67 L623.09,523.67 L623.47,523.67 L623.85,523.67 L624.22,523.67 L624.60,523.67 L624.98,523.67 L625.36,523.67 L625.74,523.67 L626.12,523.67 L626.50,523.67 L626.88,523.67 L627.26,523.67 L627.63,523.67 L628.01,523.67 L628.39,523.67 L628.77,523.67 L629.15,523.67 L629.53,523.67 L629.91,523.67 L630.29,523.67 L630.67,523.67 L631.04,523.67 L631.42,523.67 L631.80,523.67 L632.18,523.67 L632.56,523.67 L632.94,523.67 L633.32,523.67 L633.70,523.67 L634.08,523.67 L634.45,523.67 L634.83,523.67 L635.21,523.67 L635.59,523.67 L635.97,523.67 L636.35,523.67 L636.73,523.67 L637.11,523.67 L637.49,523.67 L637.86,523.67 L638.24,523.67 L638.62,523.67 L639.00,523.67 L639.38,523.67 L639.76,523.67 L640.14,523.67 L640.52,523.67 L640.90,523.67 L641.27,523.67 L641.65,523.67 L642.03,523.67 L642.41,523.67 L642.79,523.67 L643.17,523.67 L643.55,523.67 L643.93,523.67 L644.31,523.67 L644.68,523.67 L645.06,523.67 L645.44,523.67 L645.82,523.67 L646.20,523.67 L646.58,523.67 L646.96,523.67 L647.34,523.67 L647.71,523.67 L648.09,523.67 L648.47,523.67 L648.85,523.67 L649.23,523.67 L649.61,523.67 L649.99,523.67 L650.37,523.67 L650.75,523.67 L651.12,523.67 L651.50,523.67 L651.88,523.67 L652.26,523.67 L652.64,523.67 L653.02,523.67 L653.40,523.67 L653.78,523.67 L654.16,523.67 L654.53,523.67 L654.91,523.67 L655.29,523.67 L655.67,523.67 L656.05,523.67 L656.43,523.67 L656.81,523.67 L657.19,523.67 L657.57,523.67 L657.94,523.67 L658.32,523.67 L658.70,523.67 L659.08,523.67 L659.46,523.67 L659.84,523.67 L660.22,523.67 L660.60,523.67 L660.98,523.67 L661.35,523.67 L661.73,523.67 L662.11,523.67 L662.49,523.67 L662.87,523.67 L663.25,523.67 L663.63,523.67 L664.01,523.67 L664.39,523.67 L664.76,523.67 L665.14,523.67 L665.52,523.67 L665.90,523.67 L666.28,523.67 L666.66,523.67 L667.04,523.67 L667.42,523.67 L667.80,523.67 L668.17,523.67 L668.55,523.67 L668.93,523.67 L669.31,523.67 L669.69,523.67 L670.07,523.67 L670.45,523.67 L670.83,523.67 L671.21,523.67 L671.58,523.67 L671.96,523.67 L672.34,523.67 L672.72,523.67 L673.10,523.67 L673.48,523.67 L673.86,523.67 L674.24,523.67 L674.62,523.67 L674.99,523.67 L675.37,523.67 L675.75,523.67 L676.13,523.67 L676.51,523.67 L676.89,523.67 L677.27,523.67 L677.65,523.67 L678.03,523.67 L678.40,523.67 L678.78,523.67 L679.16,523.67 L679.54,523.67 L679.92,523.67 L680.30,523.67 L680.68,523.67 L681.06,523.67 L681.44,523.67 L681.81,523.67 L682.19,523.67 L682.57,523.67 L682.95,523.67 L683.33,523.67 L683.71,523.67 L684.09,523.67 L684.47,523.67 L684.84,523.67 L685.22,523.67 L685.60,523.67 L685.98,523.67 L686.36,523.67 L686.74,523.67 L687.12,523.67 L687.50,523.67 L687.88,523.67 L688.25,523.67 L688.63,523.67 L689.01,523.67 L689.39,523.67 L689.77,523.67 L690.15,523.67 L690.53,523.67 L690.91,523.67 L691.29,523.67 L691.66,523.67 L692.04,523.67 L692.42,523.67 L692.80,523.67 L693.18,523.67 L693.56,523.67 L693.94,523.67 L694.32,523.67 L694.70,523.67 L695.07,523.67 L695.45,523.67 L695.83,523.67 L696.21,523.67 L696.59,523.67 L696.97,523.67 L697.35,523.67 L697.73,523.67 L698.11,523.67 L698.48,523.67 L698.86,523.67 L699.24,523.67 L699.62,523.67 L700.00,523.67" style="stroke-width: 20; stroke: rgb(245, 130, 49); stroke-opacity: 0.8;"/>
    </g>
        <g class="shapes-region" style="stroke: black; fill: none;">
            <g>
                <g class="test-xti" style="font-family: Asana-Math, Asana;">
                    <line x1="0" y1="380.98024077933775" x2="682.5" y2="380.98024077933775" fill="none" stroke="rgb(50,50,50)" stroke-opacity="1" stroke-width="8"/>
                    <line x1="64.19097802198858" y1="374.98024077933775" x2="64.19097802198858" y2="386.98024077933775" fill="none" stroke="rgb(50,50,50)" stroke-opacity="1" stroke-width="8"/>
                    <line x1="100.76147558695723" y1="374.98024077933775" x2="100.76147558695723" y2="386.98024077933775" fill="none" stroke="rgb(50,50,50)" stroke-opacity="1" stroke-width="8"/>
                    <line x1="137.33197315192587" y1="374.98024077933775" x2="137.33197315192587" y2="386.98024077933775" fill="none" stroke="rgb(50,50,50)" stroke-opacity="1" stroke-width="8"/>
                    <line x1="173.90247071689456" y1="374.98024077933775" x2="173.90247071689456" y2="386.98024077933775" fill="none" stroke="rgb(50,50,50)" stroke-opacity="1" stroke-width="8"/>
                    <line x1="210.4729682818632" y1="374.98024077933775" x2="210.4729682818632" y2="386.98024077933775" fill="none" stroke="rgb(50,50,50)" stroke-opacity="1" stroke-width="8"/>
                    <line x1="247.04346584683182" y1="374.98024077933775" x2="247.04346584683182" y2="386.98024077933775" fill="none" stroke="rgb(50,50,50)" stroke-opacity="1" stroke-width="8"/>
                    <line x1="283.6139634118005" y1="374.98024077933775" x2="283.6139634118005" y2="386.98024077933775" fill="none" stroke="rgb(50,50,50)" stroke-opacity="1" stroke-width="8"/>
                    <line x1="320.1844609767691" y1="374.98024077933775" x2="320.1844609767691" y2="386.98024077933775" fill="none" stroke="rgb(50,50,50)" stroke-opacity="1" stroke-width="8"/>
                    <line x1="356.7549585417378" y1="374.98024077933775" x2="356.7549585417378" y2="386.98024077933775" fill="none" stroke="rgb(50,50,50)" stroke-opacity="1" stroke-width="8"/>
                    <line x1="393.32545610670644" y1="374.98024077933775" x2="393.32545610670644" y2="386.98024077933775" fill="none" stroke="rgb(50,50,50)" stroke-opacity="1" stroke-width="8"/>
                    <line x1="429.8959536716751" y1="374.98024077933775" x2="429.8959536716751" y2="386.98024077933775" fill="none" stroke="rgb(50,50,50)" stroke-opacity="1" stroke-width="8"/>
                    <line x1="466.46645123664376" y1="374.98024077933775" x2="466.46645123664376" y2="386.98024077933775" fill="none" stroke="rgb(50,50,50)" stroke-opacity="1" stroke-width="8"/>
                    <line x1="503.03694880161237" y1="374.98024077933775" x2="503.03694880161237" y2="386.98024077933775" fill="none" stroke="rgb(50,50,50)" stroke-opacity="1" stroke-width="8"/>
                    <line x1="539.607446366581" y1="374.98024077933775" x2="539.607446366581" y2="386.98024077933775" fill="none" stroke="rgb(50,50,50)" stroke-opacity="1" stroke-width="8"/>
                    <line x1="576.1779439315497" y1="374.98024077933775" x2="576.1779439315497" y2="386.98024077933775" fill="none" stroke="rgb(50,50,50)" stroke-opacity="1" stroke-width="8"/>
                    <line x1="612.7484414965184" y1="374.98024077933775" x2="612.7484414965184" y2="386.98024077933775" fill="none" stroke="rgb(50,50,50)" stroke-opacity="1" stroke-width="8"/>
                    <line x1="649.318939061487" y1="374.98024077933775" x2="649.318939061487" y2="386.98024077933775" fill="none" stroke="rgb(50,50,50)" stroke-opacity="1" stroke-width="8"/>
                    <line x1="64.19097802198858" y1="374.98024077933775" x2="64.19097802198858" y2="386.98024077933775" fill="none" stroke="rgb(50,50,50)" stroke-opacity="1" stroke-width="8"/>
                    <line x1="27.62048045701993" y1="374.98024077933775" x2="27.62048045701993" y2="386.98024077933775" fill="none" stroke="rgb(50,50,50)" stroke-opacity="1" stroke-width="8"/>
                    <line x1="64.19097802198858" y1="372.98024077933775" x2="64.19097802198858" y2="388.98024077933775" fill="none" stroke="rgb(50,50,50)" stroke-opacity="1" stroke-width="8"/>
                    <line x1="137.33197315192587" y1="372.98024077933775" x2="137.33197315192587" y2="388.98024077933775" fill="none" stroke="rgb(50,50,50)" stroke-opacity="1" stroke-width="8"/>
                    <line x1="210.4729682818632" y1="372.98024077933775" x2="210.4729682818632" y2="388.98024077933775" fill="none" stroke="rgb(50,50,50)" stroke-opacity="1" stroke-width="8"/>
                    <line x1="283.6139634118005" y1="372.98024077933775" x2="283.6139634118005" y2="388.98024077933775" fill="none" stroke="rgb(50,50,50)" stroke-opacity="1" stroke-width="8"/>
                    <line x1="356.7549585417378" y1="372.98024077933775" x2="356.7549585417378" y2="388.98024077933775" fill="none" stroke="rgb(50,50,50)" stroke-opacity="1" stroke-width="8"/>
                    <line x1="429.8959536716751" y1="372.98024077933775" x2="429.8959536716751" y2="388.98024077933775" fill="none" stroke="rgb(50,50,50)" stroke-opacity="1" stroke-width="8"/>
                    <line x1="576.1779439315497" y1="372.98024077933775" x2="576.1779439315497" y2="388.98024077933775" fill="none" stroke="rgb(50,50,50)" stroke-opacity="1" stroke-width="8"/>
                    <line x1="649.318939061487" y1="372.98024077933775" x2="649.318939061487" y2="388.98024077933775" fill="none" stroke="rgb(50,50,50)" stroke-opacity="1" stroke-width="8"/>
                    <path d="M680,372.43024077933774 L699,380.98024077933775 L680,389.53024077933776 Z" stroke="none" stroke-width="8" fill="rgb(50,50,50)" fill-opacity="1"/>
                </g>
                <g class="test-yti" style="font-family: Asana-Math, Asana;">
                    <line x1="503.0369488016124" y1="17.5" x2="503.0369488016124" y2="700" fill="none" stroke="rgb(50,50,50)" stroke-opacity="1" stroke-width="8"/>
                    <line x1="495.0369488016124" y1="666.3537087210286" x2="511.0369488016124" y2="666.3537087210286" fill="none" stroke="rgb(50,50,50)" stroke-opacity="1" stroke-width="8"/>
                    <line x1="495.0369488016124" y1="595.0103417356058" x2="511.0369488016124" y2="595.0103417356058" fill="none" stroke="rgb(50,50,50)" stroke-opacity="1" stroke-width="8"/>
                    <line x1="495.0369488016124" y1="523.6669747501832" x2="511.0369488016124" y2="523.6669747501832" fill="none" stroke="rgb(50,50,50)" stroke-opacity="1" stroke-width="8"/>
                    <line x1="495.0369488016124" y1="452.3236077647605" x2="511.0369488016124" y2="452.3236077647605" fill="none" stroke="rgb(50,50,50)" stroke-opacity="1" stroke-width="8"/>
                    <line x1="495.0369488016124" y1="309.6368737939151" x2="511.0369488016124" y2="309.6368737939151" fill="none" stroke="rgb(50,50,50)" stroke-opacity="1" stroke-width="8"/>
                    <line x1="495.0369488016124" y1="238.29350680849234" x2="511.0369488016124" y2="238.29350680849234" fill="none" stroke="rgb(50,50,50)" stroke-opacity="1" stroke-width="8"/>
                    <line x1="495.0369488016124" y1="166.95013982306966" x2="511.0369488016124" y2="166.95013982306966" fill="none" stroke="rgb(50,50,50)" stroke-opacity="1" stroke-width="8"/>
                    <line x1="495.0369488016124" y1="95.60677283764687" x2="511.0369488016124" y2="95.60677283764687" fill="none" stroke="rgb(50,50,50)" stroke-opacity="1" stroke-width="8"/>
                    <line x1="495.0369488016124" y1="24.263405852224196" x2="511.0369488016124" y2="24.263405852224196" fill="none" stroke="rgb(50,50,50)" stroke-opacity="1" stroke-width="8"/>
                    <path d="M494.4869488016124,20 L503.0369488016124,1 L511.58694880161244,20 Z" stroke="none" stroke-width="8" fill="rgb(50,50,50)" fill-opacity="1"/>
                </g>
                <g class="test-plot-expression">
                    <defs>
                        <clipPath id="cpwt0ydag73dg-full-view">
                            <rect x="1" y="1" width="698" height="698"/>
                        </clipPath>
                    </defs>
                    <g clip-path="url(#cpwt0ydag73dg-full-view)">

                        <g>
                            <circle cx="283.6139634118005" cy="166.95013982306966" r="4.5" style="stroke-width: 8; stroke: rgb(74, 144, 226); stroke-opacity: 1; fill: rgb(60, 180, 75); fill-opacity: 0.15;"/>
                        </g>

                        <g>
                            <circle cx="283.6139634118005" cy="523.6669747501832" r="15" style="stroke-width: 8; stroke: rgb(245, 166, 35); stroke-opacity: 1; fill: rgb(157, 40, 192); fill-opacity: 0.15;"/>
                        </g>
                    </g>
                </g>
                <g class="test-xtl" style="font-family: &quot;Open Sans&quot;, verdana, arial, sans-serif;">
                    <text text-anchor="middle" font-size="20" dominant-baseline="hanging" stroke="none" fill="rgb(50,50,50)" fill-opacity="1" x="58.49097802198858" y="391.98024077933775">-6</text>
                    <text text-anchor="middle" font-size="20" dominant-baseline="hanging" stroke="none" fill="rgb(50,50,50)" fill-opacity="1" x="131.63197315192588" y="391.98024077933775">-5</text>
                    <text text-anchor="middle" font-size="20" dominant-baseline="hanging" stroke="none" fill="rgb(50,50,50)" fill-opacity="1" x="204.7729682818632" y="391.98024077933775">-4</text>
                    <text text-anchor="middle" font-size="20" dominant-baseline="hanging" stroke="none" fill="rgb(50,50,50)" fill-opacity="1" x="277.9139634118005" y="391.98024077933775">-3</text>
                    <text text-anchor="middle" font-size="20" dominant-baseline="hanging" stroke="none" fill="rgb(50,50,50)" fill-opacity="1" x="351.0549585417378" y="391.98024077933775">-2</text>
                    <text text-anchor="middle" font-size="20" dominant-baseline="hanging" stroke="none" fill="rgb(50,50,50)" fill-opacity="1" x="424.1959536716751" y="391.98024077933775">-1</text>
                    <text text-anchor="middle" font-size="20" dominant-baseline="hanging" stroke="none" fill="rgb(50,50,50)" fill-opacity="1" x="576.1779439315497" y="391.98024077933775">1</text>
                    <text text-anchor="middle" font-size="20" dominant-baseline="hanging" stroke="none" fill="rgb(50,50,50)" fill-opacity="1" x="649.318939061487" y="391.98024077933775">2</text>
                    <text text-anchor="middle" font-size="20" dominant-baseline="hanging" stroke="none" fill="rgb(50,50,50)" fill-opacity="1" x="491.03694880161237" y="389.98024077933775">0</text>
                </g>
                <g class="test-ytl" style="font-family: &quot;Open Sans&quot;, verdana, arial, sans-serif;">
                    <text text-anchor="end" dominant-baseline="middle" font-size="20" stroke="none" fill="rgb(50,50,50)" fill-opacity="1" x="491.0369488016124" y="666.3537087210286">-4</text>
                    <text text-anchor="end" dominant-baseline="middle" font-size="20" stroke="none" fill="rgb(50,50,50)" fill-opacity="1" x="491.0369488016124" y="595.0103417356058">-3</text>
                    <text text-anchor="end" dominant-baseline="middle" font-size="20" stroke="none" fill="rgb(50,50,50)" fill-opacity="1" x="491.0369488016124" y="523.6669747501832">-2</text>
                    <text text-anchor="end" dominant-baseline="middle" font-size="20" stroke="none" fill="rgb(50,50,50)" fill-opacity="1" x="491.0369488016124" y="452.3236077647605">-1</text>
                    <text text-anchor="end" dominant-baseline="middle" font-size="20" stroke="none" fill="rgb(50,50,50)" fill-opacity="1" x="491.0369488016124" y="309.6368737939151">1</text>
                    <text text-anchor="end" dominant-baseline="middle" font-size="20" stroke="none" fill="rgb(50,50,50)" fill-opacity="1" x="491.0369488016124" y="238.29350680849234">2</text>
                    <text text-anchor="end" dominant-baseline="middle" font-size="20" stroke="none" fill="rgb(50,50,50)" fill-opacity="1" x="491.0369488016124" y="166.95013982306966">3</text>
                    <text text-anchor="end" dominant-baseline="middle" font-size="20" stroke="none" fill="rgb(50,50,50)" fill-opacity="1" x="491.0369488016124" y="95.60677283764687">4</text>
                    <text text-anchor="end" dominant-baseline="middle" font-size="20" stroke="none" fill="rgb(50,50,50)" fill-opacity="1" x="491.0369488016124" y="24.263405852224196">5</text>
                </g>
                <rect class="real" x="1" y="1" width="698" height="698" style="fill: transparent; stroke: none;"/>
            </g>
        </g>
        <g/>
        <g/>
        <g/>
    </svg>