<svg width="1920" height="960" xmlns="http://www.w3.org/2000/svg">
    <script type="application/ecmascript"> <![CDATA[
    function onClickEvent(evt) {
        Android.showDetail(evt.target.getAttribute("id"));
    }
  ]]> </script>
    <line x1="6.195554397143616" y1="0" x2="6.195554397143616" y2="960" fill="none" stroke="#c3c3c3" stroke-width="0.5"/>
    <line x1="80.39555439714361" y1="0" x2="80.39555439714361" y2="960" fill="none" stroke="#c3c3c3" stroke-width="0.5"/>
    <line x1="154.59555439714362" y1="0" x2="154.59555439714362" y2="960" fill="none" stroke="#c3c3c3" stroke-width="0.5"/>
    <line x1="228.7955543971436" y1="0" x2="228.7955543971436" y2="960" fill="none" stroke="#c3c3c3" stroke-width="0.5"/>
    <line x1="302.9955543971436" y1="0" x2="302.9955543971436" y2="960" fill="none" stroke="#c3c3c3" stroke-width="0.5"/>
    <line x1="377.1955543971436" y1="0" x2="377.1955543971436" y2="960" fill="none" stroke="#c3c3c3" stroke-width="0.5"/>
    <line x1="451.3955543971436" y1="0" x2="451.3955543971436" y2="960" fill="none" stroke="#c3c3c3" stroke-width="0.5"/>
    <line x1="525.5955543971436" y1="0" x2="525.5955543971436" y2="960" fill="none" stroke="#c3c3c3" stroke-width="0.5"/>
    <line x1="599.7955543971435" y1="0" x2="599.7955543971435" y2="960" fill="none" stroke="#c3c3c3" stroke-width="0.5"/>
    <line x1="673.9955543971437" y1="0" x2="673.9955543971437" y2="960" fill="none" stroke="#c3c3c3" stroke-width="0.5"/>
    <line x1="748.1955543971436" y1="0" x2="748.1955543971436" y2="960" fill="none" stroke="#c3c3c3" stroke-width="0.5"/>
    <line x1="822.3955543971437" y1="0" x2="822.3955543971437" y2="960" fill="none" stroke="#c3c3c3" stroke-width="0.5"/>
    <line x1="896.5955543971436" y1="0" x2="896.5955543971436" y2="960" fill="none" stroke="#c3c3c3" stroke-width="0.5"/>
    <line x1="970.7955543971436" y1="0" x2="970.7955543971436" y2="960" fill="none" stroke="#c3c3c3" stroke-width="0.5"/>
    <line x1="1044.9955543971437" y1="0" x2="1044.9955543971437" y2="960" fill="none" stroke="#c3c3c3" stroke-width="0.5"/>
    <line x1="1119.1955543971437" y1="0" x2="1119.1955543971437" y2="960" fill="none" stroke="#c3c3c3" stroke-width="0.5"/>
    <line x1="1193.3955543971435" y1="0" x2="1193.3955543971435" y2="960" fill="none" stroke="#c3c3c3" stroke-width="0.5"/>
    <line x1="1267.5955543971436" y1="0" x2="1267.5955543971436" y2="960" fill="none" stroke="#c3c3c3" stroke-width="0.5"/>
    <line x1="1341.7955543971436" y1="0" x2="1341.7955543971436" y2="960" fill="none" stroke="#c3c3c3" stroke-width="0.5"/>
    <line x1="1415.9955543971437" y1="0" x2="1415.9955543971437" y2="960" fill="none" stroke="#c3c3c3" stroke-width="0.5"/>
    <line x1="1490.1955543971437" y1="0" x2="1490.1955543971437" y2="960" fill="none" stroke="#c3c3c3" stroke-width="0.5"/>
    <line x1="1564.3955543971435" y1="0" x2="1564.3955543971435" y2="960" fill="none" stroke="#c3c3c3" stroke-width="0.5"/>
    <line x1="1638.5955543971436" y1="0" x2="1638.5955543971436" y2="960" fill="none" stroke="#c3c3c3" stroke-width="0.5"/>
    <line x1="1712.7955543971436" y1="0" x2="1712.7955543971436" y2="960" fill="none" stroke="#c3c3c3" stroke-width="0.5"/>
    <line x1="1786.9955543971437" y1="0" x2="1786.9955543971437" y2="960" fill="none" stroke="#c3c3c3" stroke-width="0.5"/>
    <line x1="1861.1955543971437" y1="0" x2="1861.1955543971437" y2="960" fill="none" stroke="#c3c3c3" stroke-width="0.5"/>

    <line x1="0" y1="959.4042463718274" x2="1920" y2="959.4042463718274" fill="none" stroke="#c3c3c3" stroke-width="0.5"/>
    <line x1="0" y1="906.1042463718273" x2="1920" y2="906.1042463718273" fill="none" stroke="#c3c3c3" stroke-width="0.5"/>
    <line x1="0" y1="852.8042463718274" x2="1920" y2="852.8042463718274" fill="none" stroke="#c3c3c3" stroke-width="0.5"/>
    <line x1="0" y1="799.5042463718274" x2="1920" y2="799.5042463718274" fill="none" stroke="#c3c3c3" stroke-width="0.5"/>
    <line x1="0" y1="746.2042463718274" x2="1920" y2="746.2042463718274" fill="none" stroke="#c3c3c3" stroke-width="0.5"/>
    <line x1="0" y1="692.9042463718274" x2="1920" y2="692.9042463718274" fill="none" stroke="#c3c3c3" stroke-width="0.5"/>
    <line x1="0" y1="639.6042463718275" x2="1920" y2="639.6042463718275" fill="none" stroke="#c3c3c3" stroke-width="0.5"/>
    <line x1="0" y1="586.3042463718275" x2="1920" y2="586.3042463718275" fill="none" stroke="#c3c3c3" stroke-width="0.5"/>
    <line x1="0" y1="533.0042463718274" x2="1920" y2="533.0042463718274" fill="none" stroke="#c3c3c3" stroke-width="0.5"/>
    <line x1="0" y1="479.7042463718275" x2="1920" y2="479.7042463718275" fill="none" stroke="#c3c3c3" stroke-width="0.5"/>
    <line x1="0" y1="426.4042463718274" x2="1920" y2="426.4042463718274" fill="none" stroke="#c3c3c3" stroke-width="0.5"/>
    <line x1="0" y1="373.10424637182757" x2="1920" y2="373.10424637182757" fill="none" stroke="#c3c3c3" stroke-width="0.5"/>
    <line x1="0" y1="319.8042463718275" x2="1920" y2="319.8042463718275" fill="none" stroke="#c3c3c3" stroke-width="0.5"/>
    <line x1="0" y1="266.50424637182743" x2="1920" y2="266.50424637182743" fill="none" stroke="#c3c3c3" stroke-width="0.5"/>
    <line x1="0" y1="213.20424637182748" x2="1920" y2="213.20424637182748" fill="none" stroke="#c3c3c3" stroke-width="0.5"/>
    <line x1="0" y1="159.90424637182753" x2="1920" y2="159.90424637182753" fill="none" stroke="#c3c3c3" stroke-width="0.5"/>
    <line x1="0" y1="106.60424637182746" x2="1920" y2="106.60424637182746" fill="none" stroke="#c3c3c3" stroke-width="0.5"/>
    <line x1="0" y1="53.30424637182739" x2="1920" y2="53.30424637182739" fill="none" stroke="#c3c3c3" stroke-width="0.5"/>
    <line x1="0" y1="0.004246371827548501" x2="1920" y2="0.004246371827548501" fill="none" stroke="#c3c3c3" stroke-width="0.5"/>

    <line x1="0" y1="479.7042463718274" x2="1902.5" y2="479.7042463718274" fill="none" stroke="rgb(50,50,50)" stroke-opacity="1" stroke-width="8"/>
    <line x1="6.195554397143616" y1="471.7042463718274" x2="6.195554397143616" y2="487.7042463718274" fill="none" stroke="rgb(50,50,50)" stroke-opacity="1" stroke-width="8"/>
    <line x1="80.39555439714361" y1="471.7042463718274" x2="80.39555439714361" y2="487.7042463718274" fill="none" stroke="rgb(50,50,50)" stroke-opacity="1" stroke-width="8"/>
    <line x1="154.59555439714362" y1="471.7042463718274" x2="154.59555439714362" y2="487.7042463718274" fill="none" stroke="rgb(50,50,50)" stroke-opacity="1" stroke-width="8"/>
    <line x1="228.7955543971436" y1="471.7042463718274" x2="228.7955543971436" y2="487.7042463718274" fill="none" stroke="rgb(50,50,50)" stroke-opacity="1" stroke-width="8"/>
    <line x1="302.9955543971436" y1="471.7042463718274" x2="302.9955543971436" y2="487.7042463718274" fill="none" stroke="rgb(50,50,50)" stroke-opacity="1" stroke-width="8"/>
    <line x1="377.1955543971436" y1="471.7042463718274" x2="377.1955543971436" y2="487.7042463718274" fill="none" stroke="rgb(50,50,50)" stroke-opacity="1" stroke-width="8"/>
    <line x1="451.3955543971436" y1="471.7042463718274" x2="451.3955543971436" y2="487.7042463718274" fill="none" stroke="rgb(50,50,50)" stroke-opacity="1" stroke-width="8"/>
    <line x1="525.5955543971436" y1="471.7042463718274" x2="525.5955543971436" y2="487.7042463718274" fill="none" stroke="rgb(50,50,50)" stroke-opacity="1" stroke-width="8"/>
    <line x1="599.7955543971435" y1="471.7042463718274" x2="599.7955543971435" y2="487.7042463718274" fill="none" stroke="rgb(50,50,50)" stroke-opacity="1" stroke-width="8"/>
    <line x1="673.9955543971437" y1="471.7042463718274" x2="673.9955543971437" y2="487.7042463718274" fill="none" stroke="rgb(50,50,50)" stroke-opacity="1" stroke-width="8"/>
    <line x1="748.1955543971436" y1="471.7042463718274" x2="748.1955543971436" y2="487.7042463718274" fill="none" stroke="rgb(50,50,50)" stroke-opacity="1" stroke-width="8"/>
    <line x1="822.3955543971437" y1="471.7042463718274" x2="822.3955543971437" y2="487.7042463718274" fill="none" stroke="rgb(50,50,50)" stroke-opacity="1" stroke-width="8"/>
    <line x1="970.7955543971436" y1="471.7042463718274" x2="970.7955543971436" y2="487.7042463718274" fill="none" stroke="rgb(50,50,50)" stroke-opacity="1" stroke-width="8"/>
    <line x1="1044.9955543971437" y1="471.7042463718274" x2="1044.9955543971437" y2="487.7042463718274" fill="none" stroke="rgb(50,50,50)" stroke-opacity="1" stroke-width="8"/>
    <line x1="1119.1955543971437" y1="471.7042463718274" x2="1119.1955543971437" y2="487.7042463718274" fill="none" stroke="rgb(50,50,50)" stroke-opacity="1" stroke-width="8"/>
    <line x1="1193.3955543971435" y1="471.7042463718274" x2="1193.3955543971435" y2="487.7042463718274" fill="none" stroke="rgb(50,50,50)" stroke-opacity="1" stroke-width="8"/>
    <line x1="1267.5955543971436" y1="471.7042463718274" x2="1267.5955543971436" y2="487.7042463718274" fill="none" stroke="rgb(50,50,50)" stroke-opacity="1" stroke-width="8"/>
    <line x1="1341.7955543971436" y1="471.7042463718274" x2="1341.7955543971436" y2="487.7042463718274" fill="none" stroke="rgb(50,50,50)" stroke-opacity="1" stroke-width="8"/>
    <line x1="1415.9955543971437" y1="471.7042463718274" x2="1415.9955543971437" y2="487.7042463718274" fill="none" stroke="rgb(50,50,50)" stroke-opacity="1" stroke-width="8"/>
    <line x1="1490.1955543971437" y1="471.7042463718274" x2="1490.1955543971437" y2="487.7042463718274" fill="none" stroke="rgb(50,50,50)" stroke-opacity="1" stroke-width="8"/>
    <line x1="1564.3955543971435" y1="471.7042463718274" x2="1564.3955543971435" y2="487.7042463718274" fill="none" stroke="rgb(50,50,50)" stroke-opacity="1" stroke-width="8"/>
    <line x1="1638.5955543971436" y1="471.7042463718274" x2="1638.5955543971436" y2="487.7042463718274" fill="none" stroke="rgb(50,50,50)" stroke-opacity="1" stroke-width="8"/>
    <line x1="1712.7955543971436" y1="471.7042463718274" x2="1712.7955543971436" y2="487.7042463718274" fill="none" stroke="rgb(50,50,50)" stroke-opacity="1" stroke-width="8"/>
    <line x1="1786.9955543971437" y1="471.7042463718274" x2="1786.9955543971437" y2="487.7042463718274" fill="none" stroke="rgb(50,50,50)" stroke-opacity="1" stroke-width="8"/>
    <line x1="1861.1955543971437" y1="471.7042463718274" x2="1861.1955543971437" y2="487.7042463718274" fill="none" stroke="rgb(50,50,50)" stroke-opacity="1" stroke-width="8"/>
    <path d="M1900,471.1542463718274 L1919,479.7042463718274 L1900,488.25424637182743 Z" stroke="none" stroke-width="8" fill="rgb(50,50,50)" fill-opacity="1"/>

    <line x1="896.5955543971436" y1="17.5" x2="896.5955543971436" y2="960" fill="none" stroke="rgb(50,50,50)" stroke-opacity="1" stroke-width="8"/>
    <line x1="888.5955543971436" y1="959.4042463718274" x2="904.5955543971436" y2="959.4042463718274" fill="none" stroke="rgb(50,50,50)" stroke-opacity="1" stroke-width="8"/>
    <line x1="888.5955543971436" y1="906.1042463718273" x2="904.5955543971436" y2="906.1042463718273" fill="none" stroke="rgb(50,50,50)" stroke-opacity="1" stroke-width="8"/>
    <line x1="888.5955543971436" y1="852.8042463718274" x2="904.5955543971436" y2="852.8042463718274" fill="none" stroke="rgb(50,50,50)" stroke-opacity="1" stroke-width="8"/>
    <line x1="888.5955543971436" y1="799.5042463718274" x2="904.5955543971436" y2="799.5042463718274" fill="none" stroke="rgb(50,50,50)" stroke-opacity="1" stroke-width="8"/>
    <line x1="888.5955543971436" y1="746.2042463718274" x2="904.5955543971436" y2="746.2042463718274" fill="none" stroke="rgb(50,50,50)" stroke-opacity="1" stroke-width="8"/>
    <line x1="888.5955543971436" y1="692.9042463718274" x2="904.5955543971436" y2="692.9042463718274" fill="none" stroke="rgb(50,50,50)" stroke-opacity="1" stroke-width="8"/>
    <line x1="888.5955543971436" y1="639.6042463718275" x2="904.5955543971436" y2="639.6042463718275" fill="none" stroke="rgb(50,50,50)" stroke-opacity="1" stroke-width="8"/>
    <line x1="888.5955543971436" y1="586.3042463718275" x2="904.5955543971436" y2="586.3042463718275" fill="none" stroke="rgb(50,50,50)" stroke-opacity="1" stroke-width="8"/>
    <line x1="888.5955543971436" y1="533.0042463718274" x2="904.5955543971436" y2="533.0042463718274" fill="none" stroke="rgb(50,50,50)" stroke-opacity="1" stroke-width="8"/>
    <line x1="888.5955543971436" y1="426.4042463718274" x2="904.5955543971436" y2="426.4042463718274" fill="none" stroke="rgb(50,50,50)" stroke-opacity="1" stroke-width="8"/>
    <line x1="888.5955543971436" y1="373.10424637182757" x2="904.5955543971436" y2="373.10424637182757" fill="none" stroke="rgb(50,50,50)" stroke-opacity="1" stroke-width="8"/>
    <line x1="888.5955543971436" y1="319.8042463718275" x2="904.5955543971436" y2="319.8042463718275" fill="none" stroke="rgb(50,50,50)" stroke-opacity="1" stroke-width="8"/>
    <line x1="888.5955543971436" y1="266.50424637182743" x2="904.5955543971436" y2="266.50424637182743" fill="none" stroke="rgb(50,50,50)" stroke-opacity="1" stroke-width="8"/>
    <line x1="888.5955543971436" y1="213.20424637182748" x2="904.5955543971436" y2="213.20424637182748" fill="none" stroke="rgb(50,50,50)" stroke-opacity="1" stroke-width="8"/>
    <line x1="888.5955543971436" y1="159.90424637182753" x2="904.5955543971436" y2="159.90424637182753" fill="none" stroke="rgb(50,50,50)" stroke-opacity="1" stroke-width="8"/>
    <line x1="888.5955543971436" y1="106.60424637182746" x2="904.5955543971436" y2="106.60424637182746" fill="none" stroke="rgb(50,50,50)" stroke-opacity="1" stroke-width="8"/>
    <line x1="888.5955543971436" y1="53.30424637182739" x2="904.5955543971436" y2="53.30424637182739" fill="none" stroke="rgb(50,50,50)" stroke-opacity="1" stroke-width="8"/>
    <line x1="888.5955543971436" y1="0.004246371827548501" x2="904.5955543971436" y2="0.004246371827548501" fill="none" stroke="rgb(50,50,50)" stroke-opacity="1" stroke-width="8"/>
    <path d="M888.0455543971436,20 L896.5955543971436,1 L905.1455543971435,20 Z" stroke="none" stroke-width="8" fill="rgb(50,50,50)" fill-opacity="1"/>

    <path onclick="onClickEvent(evt)" id="Base" d=" M0.00,-960.00 L1.75,-960.00 L3.49,-960.00 L5.24,-960.00 L6.99,-960.00 L8.74,-960.00 L10.48,-960.00 L12.23,-960.00 L13.98,-960.00 L15.72,-960.00 L17.47,-960.00 L19.22,-960.00 L20.96,-960.00 L22.71,-960.00 L24.46,-960.00 L26.21,-960.00 L27.95,-960.00 L29.70,-960.00 L31.45,-960.00 L33.19,-960.00 L34.94,-960.00 L36.69,-960.00 L38.43,-960.00 L40.18,-960.00 L41.93,-960.00 L43.68,-960.00 L45.42,-960.00 L47.17,-960.00 L48.92,-960.00 L50.66,-960.00 L52.41,-960.00 L54.16,-960.00 L55.91,-960.00 L57.65,-960.00 L59.40,-960.00 L61.15,-960.00 L62.89,-960.00 L64.64,-960.00 L66.39,-960.00 L68.13,-960.00 L69.88,-960.00 L71.63,-960.00 L73.38,-960.00 L75.12,-960.00 L76.87,-960.00 L78.62,-960.00 L80.36,-960.00 L82.11,-960.00 L83.86,-960.00 L85.61,-960.00 L87.35,-960.00 L89.10,-960.00 L90.85,-960.00 L92.59,-960.00 L94.34,-960.00 L96.09,-960.00 L97.83,-960.00 L99.58,-960.00 L101.33,-960.00 L103.08,-960.00 L104.82,-960.00 L106.57,-960.00 L108.32,-960.00 L110.06,-960.00 L111.81,-960.00 L113.56,-960.00 L115.30,-960.00 L117.05,-960.00 L118.80,-960.00 L120.55,-960.00 L122.29,-960.00 L124.04,-960.00 L125.79,-960.00 L127.53,-960.00 L129.28,-960.00 L131.03,-960.00 L132.78,-960.00 L134.52,-960.00 L136.27,-960.00 L138.02,-960.00 L139.76,-960.00 L141.51,-960.00 L143.26,-960.00 L145.00,-960.00 L146.75,-960.00 L148.50,-960.00 L150.25,-960.00 L151.99,-960.00 L153.74,-960.00 L155.49,-960.00 L157.23,-960.00 L158.98,-960.00 L160.73,-960.00 L162.47,-960.00 L164.22,-960.00 L165.97,-960.00 L167.72,-960.00 L169.46,-960.00 L171.21,-960.00 L172.96,-960.00 L174.70,-960.00 L176.45,-960.00 L178.20,-960.00 L179.95,-960.00 L181.69,-960.00 L183.44,-960.00 L185.19,-960.00 L186.93,-960.00 L188.68,-960.00 L190.43,-960.00 L192.17,-960.00 L193.92,-960.00 L195.67,-960.00 L197.42,-960.00 L199.16,-960.00 L200.91,-960.00 L202.66,-960.00 L204.40,-960.00 L206.15,-960.00 L207.90,-960.00 L209.65,-960.00 L211.39,-960.00 L213.14,-960.00 L214.89,-960.00 L216.63,-960.00 L218.38,-960.00 L220.13,-960.00 L221.87,-960.00 L223.62,-960.00 L225.37,-960.00 L227.12,-960.00 L228.86,-960.00 L230.61,-960.00 L232.36,-960.00 L234.10,-960.00 L235.85,-960.00 L237.60,-960.00 L239.34,-960.00 L241.09,-960.00 L242.84,-960.00 L244.59,-960.00 L246.33,-960.00 L248.08,-960.00 L249.83,-960.00 L251.57,-960.00 L253.32,-960.00 L255.07,-960.00 L256.82,-960.00 L258.56,-960.00 L260.31,-960.00 L262.06,-960.00 L263.80,-960.00 L265.55,-960.00 L267.30,-960.00 L269.04,-960.00 L270.79,-960.00 L272.54,-960.00 L274.29,-960.00 L276.03,-960.00 L277.78,-960.00 L279.53,-960.00 L281.27,-960.00 L283.02,-960.00 L284.77,-960.00 L286.52,-960.00 L288.26,-960.00 L290.01,-960.00 L291.76,-960.00 L293.50,-960.00 L295.25,-960.00 L297.00,-960.00 L298.74,-960.00 L300.49,-960.00 L302.24,-960.00 L303.99,-960.00 L305.73,-960.00 L307.48,-960.00 L309.23,-960.00 L310.97,-960.00 L312.72,-960.00 L314.47,-960.00 L316.21,-960.00 L317.96,-960.00 L319.71,-960.00 L321.46,-960.00 L323.20,-960.00 L324.95,-960.00 L326.70,-960.00 L328.44,-960.00 L330.19,-960.00 L331.94,-960.00 L333.69,-960.00 L335.43,-960.00 L337.18,-960.00 L338.93,-960.00 L340.67,-960.00 L342.42,-960.00 L344.17,-960.00 L345.91,-960.00 L347.66,-960.00 L349.41,-960.00 L351.16,-960.00 L352.90,-951.15 L354.65,-941.97 L356.40,-932.82 L358.14,-923.70 L359.89,-914.61 L361.64,-905.55 L363.38,-896.51 L365.13,-887.51 L366.88,-878.54 L368.63,-869.59 L370.37,-860.68 L372.12,-851.79 L373.87,-842.94 L375.61,-834.11 L377.36,-825.31 L379.11,-816.55 L380.86,-807.81 L382.60,-799.10 L384.35,-790.42 L386.10,-781.77 L387.84,-773.15 L389.59,-764.56 L391.34,-756.00 L393.08,-747.47 L394.83,-738.97 L396.58,-730.50 L398.33,-722.06 L400.07,-713.65 L401.82,-705.26 L403.57,-696.91 L405.31,-688.59 L407.06,-680.29 L408.81,-672.03 L410.56,-663.79 L412.30,-655.59 L414.05,-647.41 L415.80,-639.26 L417.54,-631.15 L419.29,-623.06 L421.04,-615.00 L422.78,-606.97 L424.53,-598.97 L426.28,-591.00 L428.03,-583.06 L429.77,-575.15 L431.52,-567.27 L433.27,-559.42 L435.01,-551.60 L436.76,-543.81 L438.51,-536.05 L440.25,-528.31 L442.00,-520.61 L443.75,-512.94 L445.50,-505.29 L447.24,-497.68 L448.99,-490.09 L450.74,-482.54 L452.48,-475.01 L454.23,-467.51 L455.98,-460.05 L457.73,-452.61 L459.47,-445.20 L461.22,-437.82 L462.97,-430.47 L464.71,-423.15 L466.46,-415.87 L468.21,-408.61 L469.95,-401.37 L471.70,-394.17 L473.45,-387.00 L475.20,-379.86 L476.94,-372.75 L478.69,-365.66 L480.44,-358.61 L482.18,-351.59 L483.93,-344.59 L485.68,-337.63 L487.42,-330.69 L489.17,-323.79 L490.92,-316.91 L492.67,-310.07 L494.41,-303.25 L496.16,-296.46 L497.91,-289.70 L499.65,-282.98 L501.40,-276.28 L503.15,-269.61 L504.90,-262.97 L506.64,-256.36 L508.39,-249.78 L510.14,-243.23 L511.88,-236.70 L513.63,-230.21 L515.38,-223.75 L517.12,-217.32 L518.87,-210.91 L520.62,-204.54 L522.37,-198.20 L524.11,-191.88 L525.86,-185.60 L527.61,-179.34 L529.35,-173.12 L531.10,-166.92 L532.85,-160.75 L534.60,-154.61 L536.34,-148.51 L538.09,-142.43 L539.84,-136.38 L541.58,-130.36 L543.33,-124.37 L545.08,-118.41 L546.82,-112.48 L548.57,-106.58 L550.32,-100.71 L552.07,-94.87 L553.81,-89.05 L555.56,-83.27 L557.31,-77.52 L559.05,-71.79 L560.80,-66.10 L562.55,-60.44 L564.29,-54.80 L566.04,-49.20 L567.79,-43.62 L569.54,-38.07 L571.28,-32.56 L573.03,-27.07 L574.78,-21.61 L576.52,-16.18 L578.27,-10.78 L580.02,-5.42 L581.77,-0.08 L583.51,5.23 L585.26,10.51 L587.01,15.77 L588.75,20.99 L590.50,26.18 L592.25,31.34 L593.99,36.47 L595.74,41.58 L597.49,46.65 L599.24,51.69 L600.98,56.71 L602.73,61.69 L604.48,66.65 L606.22,71.57 L607.97,76.47 L609.72,81.34 L611.46,86.17 L613.21,90.98 L614.96,95.76 L616.71,100.51 L618.45,105.23 L620.20,109.92 L621.95,114.58 L623.69,119.21 L625.44,123.81 L627.19,128.38 L628.94,132.92 L630.68,137.43 L632.43,141.92 L634.18,146.37 L635.92,150.79 L637.67,155.19 L639.42,159.55 L641.16,163.89 L642.91,168.19 L644.66,172.47 L646.41,176.71 L648.15,180.93 L649.90,185.12 L651.65,189.28 L653.39,193.40 L655.14,197.50 L656.89,201.57 L658.64,205.61 L660.38,209.62 L662.13,213.60 L663.88,217.55 L665.62,221.47 L667.37,225.36 L669.12,229.23 L670.86,233.06 L672.61,236.86 L674.36,240.64 L676.11,244.38 L677.85,248.09 L679.60,251.78 L681.35,255.43 L683.09,259.06 L684.84,262.66 L686.59,266.22 L688.33,269.76 L690.08,273.27 L691.83,276.75 L693.58,280.19 L695.32,283.61 L697.07,287.00 L698.82,290.36 L700.56,293.69 L702.31,296.99 L704.06,300.26 L705.81,303.51 L707.55,306.72 L709.30,309.90 L711.05,313.05 L712.79,316.18 L714.54,319.27 L716.29,322.34 L718.03,325.37 L719.78,328.38 L721.53,331.35 L723.28,334.30 L725.02,337.21 L726.77,340.10 L728.52,342.96 L730.26,345.79 L732.01,348.58 L733.76,351.35 L735.51,354.09 L737.25,356.80 L739.00,359.48 L740.75,362.13 L742.49,364.75 L744.24,367.35 L745.99,369.91 L747.73,372.44 L749.48,374.94 L751.23,377.42 L752.98,379.86 L754.72,382.27 L756.47,384.66 L758.22,387.01 L759.96,389.34 L761.71,391.64 L763.46,393.90 L765.20,396.14 L766.95,398.35 L768.70,400.53 L770.45,402.67 L772.19,404.79 L773.94,406.88 L775.69,408.94 L777.43,410.97 L779.18,412.97 L780.93,414.94 L782.68,416.89 L784.42,418.80 L786.17,420.68 L787.92,422.53 L789.66,424.36 L791.41,426.15 L793.16,427.91 L794.90,429.65 L796.65,431.35 L798.40,433.03 L800.15,434.68 L801.89,436.29 L803.64,437.88 L805.39,439.44 L807.13,440.96 L808.88,442.46 L810.63,443.93 L812.37,445.37 L814.12,446.78 L815.87,448.16 L817.62,449.51 L819.36,450.83 L821.11,452.12 L822.86,453.38 L824.60,454.62 L826.35,455.82 L828.10,456.99 L829.85,458.14 L831.59,459.25 L833.34,460.34 L835.09,461.39 L836.83,462.42 L838.58,463.41 L840.33,464.38 L842.07,465.32 L843.82,466.22 L845.57,467.10 L847.32,467.95 L849.06,468.77 L850.81,469.56 L852.56,470.32 L854.30,471.05 L856.05,471.75 L857.80,472.42 L859.55,473.06 L861.29,473.67 L863.04,474.25 L864.79,474.81 L866.53,475.33 L868.28,475.82 L870.03,476.29 L871.77,476.72 L873.52,477.13 L875.27,477.50 L877.02,477.85 L878.76,478.16 L880.51,478.45 L882.26,478.71 L884.00,478.94 L885.75,479.13 L887.50,479.30 L889.24,479.44 L890.99,479.55 L892.74,479.63 L894.49,479.68 L896.23,479.70 L897.98,479.69 L899.73,479.66 L901.47,479.59 L903.22,479.49 L904.97,479.36 L906.72,479.21 L908.46,479.02 L910.21,478.81 L911.96,478.56 L913.70,478.29 L915.45,477.98 L917.20,477.65 L918.94,477.29 L920.69,476.89 L922.44,476.47 L924.19,476.02 L925.93,475.54 L927.68,475.03 L929.43,474.49 L931.17,473.92 L932.92,473.32 L934.67,472.69 L936.41,472.03 L938.16,471.34 L939.91,470.62 L941.66,469.88 L943.40,469.10 L945.15,468.29 L946.90,467.46 L948.64,466.59 L950.39,465.70 L952.14,464.77 L953.89,463.82 L955.63,462.83 L957.38,461.82 L959.13,460.78 L960.87,459.70 L962.62,458.60 L964.37,457.47 L966.11,456.31 L967.86,455.12 L969.61,453.90 L971.36,452.65 L973.10,451.37 L974.85,450.06 L976.60,448.72 L978.34,447.36 L980.09,445.96 L981.84,444.53 L983.59,443.08 L985.33,441.59 L987.08,440.07 L988.83,438.53 L990.57,436.95 L992.32,435.35 L994.07,433.72 L995.81,432.05 L997.56,430.36 L999.31,428.64 L1001.06,426.89 L1002.80,425.10 L1004.55,423.29 L1006.30,421.45 L1008.04,419.58 L1009.79,417.68 L1011.54,415.75 L1013.28,413.79 L1015.03,411.81 L1016.78,409.79 L1018.53,407.74 L1020.27,405.66 L1022.02,403.56 L1023.77,401.42 L1025.51,399.26 L1027.26,397.06 L1029.01,394.84 L1030.76,392.58 L1032.50,390.30 L1034.25,387.98 L1036.00,385.64 L1037.74,383.27 L1039.49,380.87 L1041.24,378.43 L1042.98,375.97 L1044.73,373.48 L1046.48,370.96 L1048.23,368.41 L1049.97,365.83 L1051.72,363.23 L1053.47,360.59 L1055.21,357.92 L1056.96,355.22 L1058.71,352.49 L1060.45,349.74 L1062.20,346.95 L1063.95,344.14 L1065.70,341.29 L1067.44,338.42 L1069.19,335.51 L1070.94,332.58 L1072.68,329.61 L1074.43,326.62 L1076.18,323.60 L1077.93,320.55 L1079.67,317.46 L1081.42,314.35 L1083.17,311.21 L1084.91,308.04 L1086.66,304.84 L1088.41,301.61 L1090.15,298.35 L1091.90,295.07 L1093.65,291.75 L1095.40,288.40 L1097.14,285.02 L1098.89,281.62 L1100.64,278.18 L1102.38,274.71 L1104.13,271.22 L1105.88,267.69 L1107.63,264.14 L1109.37,260.56 L1111.12,256.94 L1112.87,253.30 L1114.61,249.63 L1116.36,245.93 L1118.11,242.19 L1119.85,238.43 L1121.60,234.64 L1123.35,230.82 L1125.10,226.97 L1126.84,223.09 L1128.59,219.18 L1130.34,215.24 L1132.08,211.28 L1133.83,207.28 L1135.58,203.25 L1137.32,199.19 L1139.07,195.11 L1140.82,190.99 L1142.57,186.85 L1144.31,182.67 L1146.06,178.47 L1147.81,174.23 L1149.55,169.97 L1151.30,165.68 L1153.05,161.35 L1154.80,157.00 L1156.54,152.62 L1158.29,148.21 L1160.04,143.77 L1161.78,139.30 L1163.53,134.80 L1165.28,130.27 L1167.02,125.71 L1168.77,121.12 L1170.52,116.50 L1172.27,111.86 L1174.01,107.18 L1175.76,102.47 L1177.51,97.74 L1179.25,92.97 L1181.00,88.17 L1182.75,83.35 L1184.49,78.49 L1186.24,73.61 L1187.99,68.70 L1189.74,63.75 L1191.48,58.78 L1193.23,53.78 L1194.98,48.75 L1196.72,43.69 L1198.47,38.60 L1200.22,33.47 L1201.97,28.32 L1203.71,23.15 L1205.46,17.94 L1207.21,12.70 L1208.95,7.43 L1210.70,2.13 L1212.45,-3.20 L1214.19,-8.55 L1215.94,-13.94 L1217.69,-19.35 L1219.44,-24.80 L1221.18,-30.28 L1222.93,-35.78 L1224.68,-41.31 L1226.42,-46.88 L1228.17,-52.47 L1229.92,-58.09 L1231.67,-63.75 L1233.41,-69.43 L1235.16,-75.14 L1236.91,-80.88 L1238.65,-86.65 L1240.40,-92.45 L1242.15,-98.28 L1243.89,-104.14 L1245.64,-110.03 L1247.39,-115.95 L1249.14,-121.89 L1250.88,-127.87 L1252.63,-133.88 L1254.38,-139.91 L1256.12,-145.98 L1257.87,-152.08 L1259.62,-158.20 L1261.36,-164.36 L1263.11,-170.54 L1264.86,-176.75 L1266.61,-183.00 L1268.35,-189.27 L1270.10,-195.57 L1271.85,-201.90 L1273.59,-208.26 L1275.34,-214.66 L1277.09,-221.08 L1278.84,-227.53 L1280.58,-234.01 L1282.33,-240.52 L1284.08,-247.05 L1285.82,-253.62 L1287.57,-260.22 L1289.32,-266.85 L1291.06,-273.50 L1292.81,-280.19 L1294.56,-286.91 L1296.31,-293.65 L1298.05,-300.43 L1299.80,-307.23 L1301.55,-314.07 L1303.29,-320.93 L1305.04,-327.82 L1306.79,-334.75 L1308.54,-341.70 L1310.28,-348.68 L1312.03,-355.69 L1313.78,-362.73 L1315.52,-369.80 L1317.27,-376.90 L1319.02,-384.03 L1320.76,-391.19 L1322.51,-398.38 L1324.26,-405.60 L1326.01,-412.85 L1327.75,-420.13 L1329.50,-427.43 L1331.25,-434.77 L1332.99,-442.13 L1334.74,-449.53 L1336.49,-456.96 L1338.23,-464.41 L1339.98,-471.89 L1341.73,-479.41 L1343.48,-486.95 L1345.22,-494.52 L1346.97,-502.13 L1348.72,-509.76 L1350.46,-517.42 L1352.21,-525.11 L1353.96,-532.83 L1355.71,-540.58 L1357.45,-548.36 L1359.20,-556.17 L1360.95,-564.01 L1362.69,-571.88 L1364.44,-579.78 L1366.19,-587.70 L1367.93,-595.66 L1369.68,-603.65 L1371.43,-611.66 L1373.18,-619.71 L1374.92,-627.78 L1376.67,-635.89 L1378.42,-644.02 L1380.16,-652.19 L1381.91,-660.38 L1383.66,-668.60 L1385.40,-676.86 L1387.15,-685.14 L1388.90,-693.45 L1390.65,-701.79 L1392.39,-710.16 L1394.14,-718.56 L1395.89,-726.99 L1397.63,-735.45 L1399.38,-743.94 L1401.13,-752.46 L1402.88,-761.01 L1404.62,-769.58 L1406.37,-778.19 L1408.12,-786.83 L1409.86,-795.49 L1411.61,-804.19 L1413.36,-812.91 L1415.10,-821.67 L1416.85,-830.45 L1418.60,-839.27 L1420.35,-848.11 L1422.09,-856.98 L1423.84,-865.89 L1425.59,-874.82 L1427.33,-883.78 L1429.08,-892.77 L1430.83,-901.79 L1432.58,-910.84 L1434.32,-919.92 L1436.07,-929.03 L1437.82,-938.17 L1439.56,-947.34 L1441.31,-956.54 L1443.06,-960.00 L1444.80,-960.00 L1446.55,-960.00 L1448.30,-960.00 L1450.05,-960.00 L1451.79,-960.00 L1453.54,-960.00 L1455.29,-960.00 L1457.03,-960.00 L1458.78,-960.00 L1460.53,-960.00 L1462.27,-960.00 L1464.02,-960.00 L1465.77,-960.00 L1467.52,-960.00 L1469.26,-960.00 L1471.01,-960.00 L1472.76,-960.00 L1474.50,-960.00 L1476.25,-960.00 L1478.00,-960.00 L1479.75,-960.00 L1481.49,-960.00 L1483.24,-960.00 L1484.99,-960.00 L1486.73,-960.00 L1488.48,-960.00 L1490.23,-960.00 L1491.97,-960.00 L1493.72,-960.00 L1495.47,-960.00 L1497.22,-960.00 L1498.96,-960.00 L1500.71,-960.00 L1502.46,-960.00 L1504.20,-960.00 L1505.95,-960.00 L1507.70,-960.00 L1509.44,-960.00 L1511.19,-960.00 L1512.94,-960.00 L1514.69,-960.00 L1516.43,-960.00 L1518.18,-960.00 L1519.93,-960.00 L1521.67,-960.00 L1523.42,-960.00 L1525.17,-960.00 L1526.92,-960.00 L1528.66,-960.00 L1530.41,-960.00 L1532.16,-960.00 L1533.90,-960.00 L1535.65,-960.00 L1537.40,-960.00 L1539.14,-960.00 L1540.89,-960.00 L1542.64,-960.00 L1544.39,-960.00 L1546.13,-960.00 L1547.88,-960.00 L1549.63,-960.00 L1551.37,-960.00 L1553.12,-960.00 L1554.87,-960.00 L1556.62,-960.00 L1558.36,-960.00 L1560.11,-960.00 L1561.86,-960.00 L1563.60,-960.00 L1565.35,-960.00 L1567.10,-960.00 L1568.84,-960.00 L1570.59,-960.00 L1572.34,-960.00 L1574.09,-960.00 L1575.83,-960.00 L1577.58,-960.00 L1579.33,-960.00 L1581.07,-960.00 L1582.82,-960.00 L1584.57,-960.00 L1586.31,-960.00 L1588.06,-960.00 L1589.81,-960.00 L1591.56,-960.00 L1593.30,-960.00 L1595.05,-960.00 L1596.80,-960.00 L1598.54,-960.00 L1600.29,-960.00 L1602.04,-960.00 L1603.79,-960.00 L1605.53,-960.00 L1607.28,-960.00 L1609.03,-960.00 L1610.77,-960.00 L1612.52,-960.00 L1614.27,-960.00 L1616.01,-960.00 L1617.76,-960.00 L1619.51,-960.00 L1621.26,-960.00 L1623.00,-960.00 L1624.75,-960.00 L1626.50,-960.00 L1628.24,-960.00 L1629.99,-960.00 L1631.74,-960.00 L1633.48,-960.00 L1635.23,-960.00 L1636.98,-960.00 L1638.73,-960.00 L1640.47,-960.00 L1642.22,-960.00 L1643.97,-960.00 L1645.71,-960.00 L1647.46,-960.00 L1649.21,-960.00 L1650.96,-960.00 L1652.70,-960.00 L1654.45,-960.00 L1656.20,-960.00 L1657.94,-960.00 L1659.69,-960.00 L1661.44,-960.00 L1663.18,-960.00 L1664.93,-960.00 L1666.68,-960.00 L1668.43,-960.00 L1670.17,-960.00 L1671.92,-960.00 L1673.67,-960.00 L1675.41,-960.00 L1677.16,-960.00 L1678.91,-960.00 L1680.66,-960.00 L1682.40,-960.00 L1684.15,-960.00 L1685.90,-960.00 L1687.64,-960.00 L1689.39,-960.00 L1691.14,-960.00 L1692.88,-960.00 L1694.63,-960.00 L1696.38,-960.00 L1698.13,-960.00 L1699.87,-960.00 L1701.62,-960.00 L1703.37,-960.00 L1705.11,-960.00 L1706.86,-960.00 L1708.61,-960.00 L1710.35,-960.00 L1712.10,-960.00 L1713.85,-960.00 L1715.60,-960.00 L1717.34,-960.00 L1719.09,-960.00 L1720.84,-960.00 L1722.58,-960.00 L1724.33,-960.00 L1726.08,-960.00 L1727.83,-960.00 L1729.57,-960.00 L1731.32,-960.00 L1733.07,-960.00 L1734.81,-960.00 L1736.56,-960.00 L1738.31,-960.00 L1740.05,-960.00 L1741.80,-960.00 L1743.55,-960.00 L1745.30,-960.00 L1747.04,-960.00 L1748.79,-960.00 L1750.54,-960.00 L1752.28,-960.00 L1754.03,-960.00 L1755.78,-960.00 L1757.53,-960.00 L1759.27,-960.00 L1761.02,-960.00 L1762.77,-960.00 L1764.51,-960.00 L1766.26,-960.00 L1768.01,-960.00 L1769.75,-960.00 L1771.50,-960.00 L1773.25,-960.00 L1775.00,-960.00 L1776.74,-960.00 L1778.49,-960.00 L1780.24,-960.00 L1781.98,-960.00 L1783.73,-960.00 L1785.48,-960.00 L1787.22,-960.00 L1788.97,-960.00 L1790.72,-960.00 L1792.47,-960.00 L1794.21,-960.00 L1795.96,-960.00 L1797.71,-960.00 L1799.45,-960.00 L1801.20,-960.00 L1802.95,-960.00 L1804.70,-960.00 L1806.44,-960.00 L1808.19,-960.00 L1809.94,-960.00 L1811.68,-960.00 L1813.43,-960.00 L1815.18,-960.00 L1816.92,-960.00 L1818.67,-960.00 L1820.42,-960.00 L1822.17,-960.00 L1823.91,-960.00 L1825.66,-960.00 L1827.41,-960.00 L1829.15,-960.00 L1830.90,-960.00 L1832.65,-960.00 L1834.39,-960.00 L1836.14,-960.00 L1837.89,-960.00 L1839.64,-960.00 L1841.38,-960.00 L1843.13,-960.00 L1844.88,-960.00 L1846.62,-960.00 L1848.37,-960.00 L1850.12,-960.00 L1851.87,-960.00 L1853.61,-960.00 L1855.36,-960.00 L1857.11,-960.00 L1858.85,-960.00 L1860.60,-960.00 L1862.35,-960.00 L1864.09,-960.00 L1865.84,-960.00 L1867.59,-960.00 L1869.34,-960.00 L1871.08,-960.00 L1872.83,-960.00 L1874.58,-960.00 L1876.32,-960.00 L1878.07,-960.00 L1879.82,-960.00 L1881.57,-960.00 L1883.31,-960.00 L1885.06,-960.00 L1886.81,-960.00 L1888.55,-960.00 L1890.30,-960.00 L1892.05,-960.00 L1893.79,-960.00 L1895.54,-960.00 L1897.29,-960.00 L1899.04,-960.00 L1900.78,-960.00 L1902.53,-960.00 L1904.28,-960.00 L1906.02,-960.00 L1907.77,-960.00 L1909.52,-960.00 L1911.26,-960.00 L1913.01,-960.00 L1914.76,-960.00 L1916.51,-960.00 L1918.25,-960.00 L1920.00,-960.00" style="stroke-width: 25; stroke: rgb(74, 144, 226);" fill="none"/>
    <path onclick="onClickEvent(evt)" id="Base-y3" d=" M0.00,-960.00 L1.75,-960.00 L3.49,-960.00 L5.24,-960.00 L6.99,-960.00 L8.74,-960.00 L10.48,-960.00 L12.23,-960.00 L13.98,-960.00 L15.72,-960.00 L17.47,-960.00 L19.22,-960.00 L20.96,-960.00 L22.71,-960.00 L24.46,-960.00 L26.21,-960.00 L27.95,-960.00 L29.70,-960.00 L31.45,-960.00 L33.19,-960.00 L34.94,-960.00 L36.69,-960.00 L38.43,-960.00 L40.18,-960.00 L41.93,-960.00 L43.68,-960.00 L45.42,-960.00 L47.17,-960.00 L48.92,-960.00 L50.66,-960.00 L52.41,-960.00 L54.16,-960.00 L55.91,-960.00 L57.65,-960.00 L59.40,-960.00 L61.15,-960.00 L62.89,-960.00 L64.64,-960.00 L66.39,-960.00 L68.13,-960.00 L69.88,-960.00 L71.63,-960.00 L73.38,-960.00 L75.12,-960.00 L76.87,-960.00 L78.62,-960.00 L80.36,-960.00 L82.11,-960.00 L83.86,-960.00 L85.61,-960.00 L87.35,-960.00 L89.10,-960.00 L90.85,-960.00 L92.59,-960.00 L94.34,-960.00 L96.09,-960.00 L97.83,-960.00 L99.58,-960.00 L101.33,-960.00 L103.08,-960.00 L104.82,-960.00 L106.57,-960.00 L108.32,-960.00 L110.06,-960.00 L111.81,-960.00 L113.56,-960.00 L115.30,-960.00 L117.05,-960.00 L118.80,-960.00 L120.55,-960.00 L122.29,-960.00 L124.04,-960.00 L125.79,-960.00 L127.53,-960.00 L129.28,-960.00 L131.03,-960.00 L132.78,-960.00 L134.52,-960.00 L136.27,-960.00 L138.02,-960.00 L139.76,-960.00 L141.51,-960.00 L143.26,-960.00 L145.00,-960.00 L146.75,-960.00 L148.50,-960.00 L150.25,-960.00 L151.99,-960.00 L153.74,-960.00 L155.49,-960.00 L157.23,-960.00 L158.98,-960.00 L160.73,-960.00 L162.47,-960.00 L164.22,-960.00 L165.97,-960.00 L167.72,-960.00 L169.46,-960.00 L171.21,-960.00 L172.96,-960.00 L174.70,-960.00 L176.45,-960.00 L178.20,-960.00 L179.95,-960.00 L181.69,-960.00 L183.44,-960.00 L185.19,-960.00 L186.93,-960.00 L188.68,-960.00 L190.43,-960.00 L192.17,-960.00 L193.92,-960.00 L195.67,-960.00 L197.42,-960.00 L199.16,-960.00 L200.91,-960.00 L202.66,-960.00 L204.40,-960.00 L206.15,-960.00 L207.90,-960.00 L209.65,-960.00 L211.39,-960.00 L213.14,-960.00 L214.89,-960.00 L216.63,-960.00 L218.38,-960.00 L220.13,-960.00 L221.87,-960.00 L223.62,-960.00 L225.37,-960.00 L227.12,-960.00 L228.86,-960.00 L230.61,-960.00 L232.36,-960.00 L234.10,-960.00 L235.85,-960.00 L237.60,-960.00 L239.34,-960.00 L241.09,-960.00 L242.84,-960.00 L244.59,-960.00 L246.33,-960.00 L248.08,-960.00 L249.83,-960.00 L251.57,-960.00 L253.32,-960.00 L255.07,-960.00 L256.82,-960.00 L258.56,-960.00 L260.31,-960.00 L262.06,-960.00 L263.80,-960.00 L265.55,-960.00 L267.30,-960.00 L269.04,-960.00 L270.79,-960.00 L272.54,-960.00 L274.29,-960.00 L276.03,-960.00 L277.78,-960.00 L279.53,-960.00 L281.27,-960.00 L283.02,-960.00 L284.77,-960.00 L286.52,-960.00 L288.26,-960.00 L290.01,-960.00 L291.76,-960.00 L293.50,-960.00 L295.25,-960.00 L297.00,-960.00 L298.74,-960.00 L300.49,-960.00 L302.24,-960.00 L303.99,-960.00 L305.73,-960.00 L307.48,-960.00 L309.23,-960.00 L310.97,-960.00 L312.72,-960.00 L314.47,-960.00 L316.21,-960.00 L317.96,-960.00 L319.71,-960.00 L321.46,-960.00 L323.20,-951.85 L324.95,-942.17 L326.70,-932.51 L328.44,-922.89 L330.19,-913.29 L331.94,-903.73 L333.69,-894.19 L335.43,-884.69 L337.18,-875.21 L338.93,-865.76 L340.67,-856.35 L342.42,-846.96 L344.17,-837.60 L345.91,-828.27 L347.66,-818.97 L349.41,-809.70 L351.16,-800.46 L352.90,-791.25 L354.65,-782.07 L356.40,-772.92 L358.14,-763.80 L359.89,-754.71 L361.64,-745.65 L363.38,-736.61 L365.13,-727.61 L366.88,-718.64 L368.63,-709.69 L370.37,-700.78 L372.12,-691.89 L373.87,-683.04 L375.61,-674.21 L377.36,-665.41 L379.11,-656.65 L380.86,-647.91 L382.60,-639.20 L384.35,-630.52 L386.10,-621.87 L387.84,-613.25 L389.59,-604.66 L391.34,-596.10 L393.08,-587.57 L394.83,-579.07 L396.58,-570.60 L398.33,-562.16 L400.07,-553.75 L401.82,-545.36 L403.57,-537.01 L405.31,-528.69 L407.06,-520.39 L408.81,-512.13 L410.56,-503.89 L412.30,-495.69 L414.05,-487.51 L415.80,-479.36 L417.54,-471.25 L419.29,-463.16 L421.04,-455.10 L422.78,-447.07 L424.53,-439.07 L426.28,-431.10 L428.03,-423.16 L429.77,-415.25 L431.52,-407.37 L433.27,-399.52 L435.01,-391.70 L436.76,-383.91 L438.51,-376.15 L440.25,-368.41 L442.00,-360.71 L443.75,-353.04 L445.50,-345.39 L447.24,-337.78 L448.99,-330.19 L450.74,-322.64 L452.48,-315.11 L454.23,-307.61 L455.98,-300.15 L457.73,-292.71 L459.47,-285.30 L461.22,-277.92 L462.97,-270.57 L464.71,-263.25 L466.46,-255.97 L468.21,-248.71 L469.95,-241.47 L471.70,-234.27 L473.45,-227.10 L475.20,-219.96 L476.94,-212.85 L478.69,-205.76 L480.44,-198.71 L482.18,-191.69 L483.93,-184.69 L485.68,-177.73 L487.42,-170.79 L489.17,-163.89 L490.92,-157.01 L492.67,-150.17 L494.41,-143.35 L496.16,-136.56 L497.91,-129.80 L499.65,-123.08 L501.40,-116.38 L503.15,-109.71 L504.90,-103.07 L506.64,-96.46 L508.39,-89.88 L510.14,-83.33 L511.88,-76.80 L513.63,-70.31 L515.38,-63.85 L517.12,-57.42 L518.87,-51.01 L520.62,-44.64 L522.37,-38.30 L524.11,-31.98 L525.86,-25.70 L527.61,-19.44 L529.35,-13.22 L531.10,-7.02 L532.85,-0.85 L534.60,5.29 L536.34,11.39 L538.09,17.47 L539.84,23.52 L541.58,29.54 L543.33,35.53 L545.08,41.49 L546.82,47.42 L548.57,53.32 L550.32,59.19 L552.07,65.03 L553.81,70.85 L555.56,76.63 L557.31,82.38 L559.05,88.11 L560.80,93.80 L562.55,99.46 L564.29,105.10 L566.04,110.70 L567.79,116.28 L569.54,121.83 L571.28,127.34 L573.03,132.83 L574.78,138.29 L576.52,143.72 L578.27,149.12 L580.02,154.48 L581.77,159.82 L583.51,165.13 L585.26,170.41 L587.01,175.67 L588.75,180.89 L590.50,186.08 L592.25,191.24 L593.99,196.37 L595.74,201.48 L597.49,206.55 L599.24,211.59 L600.98,216.61 L602.73,221.59 L604.48,226.55 L606.22,231.47 L607.97,236.37 L609.72,241.24 L611.46,246.07 L613.21,250.88 L614.96,255.66 L616.71,260.41 L618.45,265.13 L620.20,269.82 L621.95,274.48 L623.69,279.11 L625.44,283.71 L627.19,288.28 L628.94,292.82 L630.68,297.33 L632.43,301.82 L634.18,306.27 L635.92,310.69 L637.67,315.09 L639.42,319.45 L641.16,323.79 L642.91,328.09 L644.66,332.37 L646.41,336.61 L648.15,340.83 L649.90,345.02 L651.65,349.18 L653.39,353.30 L655.14,357.40 L656.89,361.47 L658.64,365.51 L660.38,369.52 L662.13,373.50 L663.88,377.45 L665.62,381.37 L667.37,385.26 L669.12,389.13 L670.86,392.96 L672.61,396.76 L674.36,400.54 L676.11,404.28 L677.85,407.99 L679.60,411.68 L681.35,415.33 L683.09,418.96 L684.84,422.56 L686.59,426.12 L688.33,429.66 L690.08,433.17 L691.83,436.65 L693.58,440.09 L695.32,443.51 L697.07,446.90 L698.82,450.26 L700.56,453.59 L702.31,456.89 L704.06,460.16 L705.81,463.41 L707.55,466.62 L709.30,469.80 L711.05,472.95 L712.79,476.08 L714.54,479.17 L716.29,482.24 L718.03,485.27 L719.78,488.28 L721.53,491.25 L723.28,494.20 L725.02,497.11 L726.77,500.00 L728.52,502.86 L730.26,505.69 L732.01,508.48 L733.76,511.25 L735.51,513.99 L737.25,516.70 L739.00,519.38 L740.75,522.03 L742.49,524.65 L744.24,527.25 L745.99,529.81 L747.73,532.34 L749.48,534.84 L751.23,537.32 L752.98,539.76 L754.72,542.17 L756.47,544.56 L758.22,546.91 L759.96,549.24 L761.71,551.54 L763.46,553.80 L765.20,556.04 L766.95,558.25 L768.70,560.43 L770.45,562.57 L772.19,564.69 L773.94,566.78 L775.69,568.84 L777.43,570.87 L779.18,572.87 L780.93,574.84 L782.68,576.79 L784.42,578.70 L786.17,580.58 L787.92,582.43 L789.66,584.26 L791.41,586.05 L793.16,587.81 L794.90,589.55 L796.65,591.25 L798.40,592.93 L800.15,594.58 L801.89,596.19 L803.64,597.78 L805.39,599.34 L807.13,600.86 L808.88,602.36 L810.63,603.83 L812.37,605.27 L814.12,606.68 L815.87,608.06 L817.62,609.41 L819.36,610.73 L821.11,612.02 L822.86,613.28 L824.60,614.52 L826.35,615.72 L828.10,616.89 L829.85,618.04 L831.59,619.15 L833.34,620.24 L835.09,621.29 L836.83,622.32 L838.58,623.31 L840.33,624.28 L842.07,625.22 L843.82,626.12 L845.57,627.00 L847.32,627.85 L849.06,628.67 L850.81,629.46 L852.56,630.22 L854.30,630.95 L856.05,631.65 L857.80,632.32 L859.55,632.96 L861.29,633.57 L863.04,634.15 L864.79,634.71 L866.53,635.23 L868.28,635.72 L870.03,636.19 L871.77,636.62 L873.52,637.03 L875.27,637.40 L877.02,637.75 L878.76,638.06 L880.51,638.35 L882.26,638.61 L884.00,638.84 L885.75,639.03 L887.50,639.20 L889.24,639.34 L890.99,639.45 L892.74,639.53 L894.49,639.58 L896.23,639.60 L897.98,639.59 L899.73,639.56 L901.47,639.49 L903.22,639.39 L904.97,639.26 L906.72,639.11 L908.46,638.92 L910.21,638.71 L911.96,638.46 L913.70,638.19 L915.45,637.88 L917.20,637.55 L918.94,637.19 L920.69,636.79 L922.44,636.37 L924.19,635.92 L925.93,635.44 L927.68,634.93 L929.43,634.39 L931.17,633.82 L932.92,633.22 L934.67,632.59 L936.41,631.93 L938.16,631.24 L939.91,630.52 L941.66,629.78 L943.40,629.00 L945.15,628.19 L946.90,627.36 L948.64,626.49 L950.39,625.60 L952.14,624.67 L953.89,623.72 L955.63,622.73 L957.38,621.72 L959.13,620.68 L960.87,619.60 L962.62,618.50 L964.37,617.37 L966.11,616.21 L967.86,615.02 L969.61,613.80 L971.36,612.55 L973.10,611.27 L974.85,609.96 L976.60,608.62 L978.34,607.26 L980.09,605.86 L981.84,604.43 L983.59,602.98 L985.33,601.49 L987.08,599.97 L988.83,598.43 L990.57,596.85 L992.32,595.25 L994.07,593.62 L995.81,591.95 L997.56,590.26 L999.31,588.54 L1001.06,586.79 L1002.80,585.00 L1004.55,583.19 L1006.30,581.35 L1008.04,579.48 L1009.79,577.58 L1011.54,575.65 L1013.28,573.69 L1015.03,571.71 L1016.78,569.69 L1018.53,567.64 L1020.27,565.56 L1022.02,563.46 L1023.77,561.32 L1025.51,559.16 L1027.26,556.96 L1029.01,554.74 L1030.76,552.48 L1032.50,550.20 L1034.25,547.88 L1036.00,545.54 L1037.74,543.17 L1039.49,540.77 L1041.24,538.33 L1042.98,535.87 L1044.73,533.38 L1046.48,530.86 L1048.23,528.31 L1049.97,525.73 L1051.72,523.13 L1053.47,520.49 L1055.21,517.82 L1056.96,515.12 L1058.71,512.39 L1060.45,509.64 L1062.20,506.85 L1063.95,504.04 L1065.70,501.19 L1067.44,498.32 L1069.19,495.41 L1070.94,492.48 L1072.68,489.51 L1074.43,486.52 L1076.18,483.50 L1077.93,480.45 L1079.67,477.36 L1081.42,474.25 L1083.17,471.11 L1084.91,467.94 L1086.66,464.74 L1088.41,461.51 L1090.15,458.25 L1091.90,454.97 L1093.65,451.65 L1095.40,448.30 L1097.14,444.92 L1098.89,441.52 L1100.64,438.08 L1102.38,434.61 L1104.13,431.12 L1105.88,427.59 L1107.63,424.04 L1109.37,420.46 L1111.12,416.84 L1112.87,413.20 L1114.61,409.53 L1116.36,405.83 L1118.11,402.09 L1119.85,398.33 L1121.60,394.54 L1123.35,390.72 L1125.10,386.87 L1126.84,382.99 L1128.59,379.08 L1130.34,375.14 L1132.08,371.18 L1133.83,367.18 L1135.58,363.15 L1137.32,359.09 L1139.07,355.01 L1140.82,350.89 L1142.57,346.75 L1144.31,342.57 L1146.06,338.37 L1147.81,334.13 L1149.55,329.87 L1151.30,325.58 L1153.05,321.25 L1154.80,316.90 L1156.54,312.52 L1158.29,308.11 L1160.04,303.67 L1161.78,299.20 L1163.53,294.70 L1165.28,290.17 L1167.02,285.61 L1168.77,281.02 L1170.52,276.40 L1172.27,271.76 L1174.01,267.08 L1175.76,262.37 L1177.51,257.64 L1179.25,252.87 L1181.00,248.07 L1182.75,243.25 L1184.49,238.39 L1186.24,233.51 L1187.99,228.60 L1189.74,223.65 L1191.48,218.68 L1193.23,213.68 L1194.98,208.65 L1196.72,203.59 L1198.47,198.50 L1200.22,193.37 L1201.97,188.22 L1203.71,183.05 L1205.46,177.84 L1207.21,172.60 L1208.95,167.33 L1210.70,162.03 L1212.45,156.70 L1214.19,151.35 L1215.94,145.96 L1217.69,140.55 L1219.44,135.10 L1221.18,129.62 L1222.93,124.12 L1224.68,118.59 L1226.42,113.02 L1228.17,107.43 L1229.92,101.81 L1231.67,96.15 L1233.41,90.47 L1235.16,84.76 L1236.91,79.02 L1238.65,73.25 L1240.40,67.45 L1242.15,61.62 L1243.89,55.76 L1245.64,49.87 L1247.39,43.95 L1249.14,38.01 L1250.88,32.03 L1252.63,26.02 L1254.38,19.99 L1256.12,13.92 L1257.87,7.82 L1259.62,1.70 L1261.36,-4.46 L1263.11,-10.64 L1264.86,-16.85 L1266.61,-23.10 L1268.35,-29.37 L1270.10,-35.67 L1271.85,-42.00 L1273.59,-48.36 L1275.34,-54.76 L1277.09,-61.18 L1278.84,-67.63 L1280.58,-74.11 L1282.33,-80.62 L1284.08,-87.15 L1285.82,-93.72 L1287.57,-100.32 L1289.32,-106.95 L1291.06,-113.60 L1292.81,-120.29 L1294.56,-127.01 L1296.31,-133.75 L1298.05,-140.53 L1299.80,-147.33 L1301.55,-154.17 L1303.29,-161.03 L1305.04,-167.92 L1306.79,-174.85 L1308.54,-181.80 L1310.28,-188.78 L1312.03,-195.79 L1313.78,-202.83 L1315.52,-209.90 L1317.27,-217.00 L1319.02,-224.13 L1320.76,-231.29 L1322.51,-238.48 L1324.26,-245.70 L1326.01,-252.95 L1327.75,-260.23 L1329.50,-267.53 L1331.25,-274.87 L1332.99,-282.23 L1334.74,-289.63 L1336.49,-297.06 L1338.23,-304.51 L1339.98,-311.99 L1341.73,-319.51 L1343.48,-327.05 L1345.22,-334.62 L1346.97,-342.23 L1348.72,-349.86 L1350.46,-357.52 L1352.21,-365.21 L1353.96,-372.93 L1355.71,-380.68 L1357.45,-388.46 L1359.20,-396.27 L1360.95,-404.11 L1362.69,-411.98 L1364.44,-419.88 L1366.19,-427.80 L1367.93,-435.76 L1369.68,-443.75 L1371.43,-451.76 L1373.18,-459.81 L1374.92,-467.88 L1376.67,-475.99 L1378.42,-484.12 L1380.16,-492.29 L1381.91,-500.48 L1383.66,-508.70 L1385.40,-516.96 L1387.15,-525.24 L1388.90,-533.55 L1390.65,-541.89 L1392.39,-550.26 L1394.14,-558.66 L1395.89,-567.09 L1397.63,-575.55 L1399.38,-584.04 L1401.13,-592.56 L1402.88,-601.11 L1404.62,-609.68 L1406.37,-618.29 L1408.12,-626.93 L1409.86,-635.59 L1411.61,-644.29 L1413.36,-653.01 L1415.10,-661.77 L1416.85,-670.55 L1418.60,-679.37 L1420.35,-688.21 L1422.09,-697.08 L1423.84,-705.99 L1425.59,-714.92 L1427.33,-723.88 L1429.08,-732.87 L1430.83,-741.89 L1432.58,-750.94 L1434.32,-760.02 L1436.07,-769.13 L1437.82,-778.27 L1439.56,-787.44 L1441.31,-796.64 L1443.06,-805.87 L1444.80,-815.12 L1446.55,-824.41 L1448.30,-833.73 L1450.05,-843.07 L1451.79,-852.45 L1453.54,-861.85 L1455.29,-871.29 L1457.03,-880.75 L1458.78,-890.24 L1460.53,-899.77 L1462.27,-909.32 L1464.02,-918.90 L1465.77,-928.51 L1467.52,-938.15 L1469.26,-947.82 L1471.01,-957.53 L1472.76,-960.00 L1474.50,-960.00 L1476.25,-960.00 L1478.00,-960.00 L1479.75,-960.00 L1481.49,-960.00 L1483.24,-960.00 L1484.99,-960.00 L1486.73,-960.00 L1488.48,-960.00 L1490.23,-960.00 L1491.97,-960.00 L1493.72,-960.00 L1495.47,-960.00 L1497.22,-960.00 L1498.96,-960.00 L1500.71,-960.00 L1502.46,-960.00 L1504.20,-960.00 L1505.95,-960.00 L1507.70,-960.00 L1509.44,-960.00 L1511.19,-960.00 L1512.94,-960.00 L1514.69,-960.00 L1516.43,-960.00 L1518.18,-960.00 L1519.93,-960.00 L1521.67,-960.00 L1523.42,-960.00 L1525.17,-960.00 L1526.92,-960.00 L1528.66,-960.00 L1530.41,-960.00 L1532.16,-960.00 L1533.90,-960.00 L1535.65,-960.00 L1537.40,-960.00 L1539.14,-960.00 L1540.89,-960.00 L1542.64,-960.00 L1544.39,-960.00 L1546.13,-960.00 L1547.88,-960.00 L1549.63,-960.00 L1551.37,-960.00 L1553.12,-960.00 L1554.87,-960.00 L1556.62,-960.00 L1558.36,-960.00 L1560.11,-960.00 L1561.86,-960.00 L1563.60,-960.00 L1565.35,-960.00 L1567.10,-960.00 L1568.84,-960.00 L1570.59,-960.00 L1572.34,-960.00 L1574.09,-960.00 L1575.83,-960.00 L1577.58,-960.00 L1579.33,-960.00 L1581.07,-960.00 L1582.82,-960.00 L1584.57,-960.00 L1586.31,-960.00 L1588.06,-960.00 L1589.81,-960.00 L1591.56,-960.00 L1593.30,-960.00 L1595.05,-960.00 L1596.80,-960.00 L1598.54,-960.00 L1600.29,-960.00 L1602.04,-960.00 L1603.79,-960.00 L1605.53,-960.00 L1607.28,-960.00 L1609.03,-960.00 L1610.77,-960.00 L1612.52,-960.00 L1614.27,-960.00 L1616.01,-960.00 L1617.76,-960.00 L1619.51,-960.00 L1621.26,-960.00 L1623.00,-960.00 L1624.75,-960.00 L1626.50,-960.00 L1628.24,-960.00 L1629.99,-960.00 L1631.74,-960.00 L1633.48,-960.00 L1635.23,-960.00 L1636.98,-960.00 L1638.73,-960.00 L1640.47,-960.00 L1642.22,-960.00 L1643.97,-960.00 L1645.71,-960.00 L1647.46,-960.00 L1649.21,-960.00 L1650.96,-960.00 L1652.70,-960.00 L1654.45,-960.00 L1656.20,-960.00 L1657.94,-960.00 L1659.69,-960.00 L1661.44,-960.00 L1663.18,-960.00 L1664.93,-960.00 L1666.68,-960.00 L1668.43,-960.00 L1670.17,-960.00 L1671.92,-960.00 L1673.67,-960.00 L1675.41,-960.00 L1677.16,-960.00 L1678.91,-960.00 L1680.66,-960.00 L1682.40,-960.00 L1684.15,-960.00 L1685.90,-960.00 L1687.64,-960.00 L1689.39,-960.00 L1691.14,-960.00 L1692.88,-960.00 L1694.63,-960.00 L1696.38,-960.00 L1698.13,-960.00 L1699.87,-960.00 L1701.62,-960.00 L1703.37,-960.00 L1705.11,-960.00 L1706.86,-960.00 L1708.61,-960.00 L1710.35,-960.00 L1712.10,-960.00 L1713.85,-960.00 L1715.60,-960.00 L1717.34,-960.00 L1719.09,-960.00 L1720.84,-960.00 L1722.58,-960.00 L1724.33,-960.00 L1726.08,-960.00 L1727.83,-960.00 L1729.57,-960.00 L1731.32,-960.00 L1733.07,-960.00 L1734.81,-960.00 L1736.56,-960.00 L1738.31,-960.00 L1740.05,-960.00 L1741.80,-960.00 L1743.55,-960.00 L1745.30,-960.00 L1747.04,-960.00 L1748.79,-960.00 L1750.54,-960.00 L1752.28,-960.00 L1754.03,-960.00 L1755.78,-960.00 L1757.53,-960.00 L1759.27,-960.00 L1761.02,-960.00 L1762.77,-960.00 L1764.51,-960.00 L1766.26,-960.00 L1768.01,-960.00 L1769.75,-960.00 L1771.50,-960.00 L1773.25,-960.00 L1775.00,-960.00 L1776.74,-960.00 L1778.49,-960.00 L1780.24,-960.00 L1781.98,-960.00 L1783.73,-960.00 L1785.48,-960.00 L1787.22,-960.00 L1788.97,-960.00 L1790.72,-960.00 L1792.47,-960.00 L1794.21,-960.00 L1795.96,-960.00 L1797.71,-960.00 L1799.45,-960.00 L1801.20,-960.00 L1802.95,-960.00 L1804.70,-960.00 L1806.44,-960.00 L1808.19,-960.00 L1809.94,-960.00 L1811.68,-960.00 L1813.43,-960.00 L1815.18,-960.00 L1816.92,-960.00 L1818.67,-960.00 L1820.42,-960.00 L1822.17,-960.00 L1823.91,-960.00 L1825.66,-960.00 L1827.41,-960.00 L1829.15,-960.00 L1830.90,-960.00 L1832.65,-960.00 L1834.39,-960.00 L1836.14,-960.00 L1837.89,-960.00 L1839.64,-960.00 L1841.38,-960.00 L1843.13,-960.00 L1844.88,-960.00 L1846.62,-960.00 L1848.37,-960.00 L1850.12,-960.00 L1851.87,-960.00 L1853.61,-960.00 L1855.36,-960.00 L1857.11,-960.00 L1858.85,-960.00 L1860.60,-960.00 L1862.35,-960.00 L1864.09,-960.00 L1865.84,-960.00 L1867.59,-960.00 L1869.34,-960.00 L1871.08,-960.00 L1872.83,-960.00 L1874.58,-960.00 L1876.32,-960.00 L1878.07,-960.00 L1879.82,-960.00 L1881.57,-960.00 L1883.31,-960.00 L1885.06,-960.00 L1886.81,-960.00 L1888.55,-960.00 L1890.30,-960.00 L1892.05,-960.00 L1893.79,-960.00 L1895.54,-960.00 L1897.29,-960.00 L1899.04,-960.00 L1900.78,-960.00 L1902.53,-960.00 L1904.28,-960.00 L1906.02,-960.00 L1907.77,-960.00 L1909.52,-960.00 L1911.26,-960.00 L1913.01,-960.00 L1914.76,-960.00 L1916.51,-960.00 L1918.25,-960.00 L1920.00,-960.00" style="stroke-width: 25; stroke: rgb(60, 180, 75);" fill="none"/>
    <path onclick="onClickEvent(evt)" id="Base-x2" d=" M0.00,-960.00 L1.75,-960.00 L3.49,-960.00 L5.24,-960.00 L6.99,-960.00 L8.74,-960.00 L10.48,-960.00 L12.23,-960.00 L13.98,-960.00 L15.72,-960.00 L17.47,-960.00 L19.22,-960.00 L20.96,-960.00 L22.71,-960.00 L24.46,-960.00 L26.21,-960.00 L27.95,-960.00 L29.70,-960.00 L31.45,-960.00 L33.19,-960.00 L34.94,-960.00 L36.69,-960.00 L38.43,-960.00 L40.18,-960.00 L41.93,-960.00 L43.68,-960.00 L45.42,-960.00 L47.17,-960.00 L48.92,-960.00 L50.66,-960.00 L52.41,-960.00 L54.16,-960.00 L55.91,-960.00 L57.65,-960.00 L59.40,-960.00 L61.15,-960.00 L62.89,-960.00 L64.64,-960.00 L66.39,-960.00 L68.13,-960.00 L69.88,-960.00 L71.63,-960.00 L73.38,-960.00 L75.12,-960.00 L76.87,-960.00 L78.62,-960.00 L80.36,-960.00 L82.11,-960.00 L83.86,-960.00 L85.61,-960.00 L87.35,-960.00 L89.10,-960.00 L90.85,-960.00 L92.59,-960.00 L94.34,-960.00 L96.09,-960.00 L97.83,-960.00 L99.58,-960.00 L101.33,-960.00 L103.08,-960.00 L104.82,-960.00 L106.57,-960.00 L108.32,-960.00 L110.06,-960.00 L111.81,-960.00 L113.56,-960.00 L115.30,-960.00 L117.05,-960.00 L118.80,-960.00 L120.55,-960.00 L122.29,-960.00 L124.04,-960.00 L125.79,-960.00 L127.53,-960.00 L129.28,-960.00 L131.03,-960.00 L132.78,-960.00 L134.52,-960.00 L136.27,-960.00 L138.02,-960.00 L139.76,-960.00 L141.51,-960.00 L143.26,-960.00 L145.00,-960.00 L146.75,-960.00 L148.50,-960.00 L150.25,-960.00 L151.99,-960.00 L153.74,-960.00 L155.49,-960.00 L157.23,-960.00 L158.98,-960.00 L160.73,-960.00 L162.47,-960.00 L164.22,-960.00 L165.97,-960.00 L167.72,-960.00 L169.46,-960.00 L171.21,-960.00 L172.96,-960.00 L174.70,-960.00 L176.45,-960.00 L178.20,-960.00 L179.95,-960.00 L181.69,-960.00 L183.44,-960.00 L185.19,-960.00 L186.93,-960.00 L188.68,-960.00 L190.43,-960.00 L192.17,-960.00 L193.92,-960.00 L195.67,-960.00 L197.42,-960.00 L199.16,-960.00 L200.91,-960.00 L202.66,-960.00 L204.40,-960.00 L206.15,-960.00 L207.90,-960.00 L209.65,-960.00 L211.39,-960.00 L213.14,-960.00 L214.89,-960.00 L216.63,-960.00 L218.38,-960.00 L220.13,-960.00 L221.87,-960.00 L223.62,-960.00 L225.37,-960.00 L227.12,-960.00 L228.86,-960.00 L230.61,-960.00 L232.36,-960.00 L234.10,-960.00 L235.85,-960.00 L237.60,-960.00 L239.34,-960.00 L241.09,-960.00 L242.84,-960.00 L244.59,-960.00 L246.33,-960.00 L248.08,-960.00 L249.83,-960.00 L251.57,-960.00 L253.32,-960.00 L255.07,-960.00 L256.82,-960.00 L258.56,-960.00 L260.31,-960.00 L262.06,-960.00 L263.80,-960.00 L265.55,-960.00 L267.30,-960.00 L269.04,-960.00 L270.79,-960.00 L272.54,-960.00 L274.29,-960.00 L276.03,-960.00 L277.78,-960.00 L279.53,-960.00 L281.27,-960.00 L283.02,-960.00 L284.77,-960.00 L286.52,-960.00 L288.26,-960.00 L290.01,-960.00 L291.76,-960.00 L293.50,-960.00 L295.25,-960.00 L297.00,-960.00 L298.74,-960.00 L300.49,-960.00 L302.24,-960.00 L303.99,-960.00 L305.73,-960.00 L307.48,-960.00 L309.23,-960.00 L310.97,-960.00 L312.72,-960.00 L314.47,-960.00 L316.21,-960.00 L317.96,-960.00 L319.71,-960.00 L321.46,-960.00 L323.20,-960.00 L324.95,-960.00 L326.70,-960.00 L328.44,-960.00 L330.19,-960.00 L331.94,-960.00 L333.69,-960.00 L335.43,-960.00 L337.18,-960.00 L338.93,-960.00 L340.67,-960.00 L342.42,-960.00 L344.17,-960.00 L345.91,-960.00 L347.66,-960.00 L349.41,-960.00 L351.16,-960.00 L352.90,-960.00 L354.65,-960.00 L356.40,-960.00 L358.14,-960.00 L359.89,-960.00 L361.64,-960.00 L363.38,-960.00 L365.13,-960.00 L366.88,-960.00 L368.63,-960.00 L370.37,-960.00 L372.12,-960.00 L373.87,-960.00 L375.61,-960.00 L377.36,-960.00 L379.11,-960.00 L380.86,-960.00 L382.60,-960.00 L384.35,-960.00 L386.10,-960.00 L387.84,-960.00 L389.59,-960.00 L391.34,-960.00 L393.08,-960.00 L394.83,-960.00 L396.58,-960.00 L398.33,-960.00 L400.07,-960.00 L401.82,-960.00 L403.57,-960.00 L405.31,-960.00 L407.06,-960.00 L408.81,-960.00 L410.56,-960.00 L412.30,-960.00 L414.05,-960.00 L415.80,-960.00 L417.54,-960.00 L419.29,-960.00 L421.04,-960.00 L422.78,-960.00 L424.53,-960.00 L426.28,-960.00 L428.03,-960.00 L429.77,-960.00 L431.52,-960.00 L433.27,-960.00 L435.01,-960.00 L436.76,-960.00 L438.51,-960.00 L440.25,-960.00 L442.00,-960.00 L443.75,-960.00 L445.50,-960.00 L447.24,-960.00 L448.99,-960.00 L450.74,-960.00 L452.48,-960.00 L454.23,-960.00 L455.98,-960.00 L457.73,-960.00 L459.47,-960.00 L461.22,-960.00 L462.97,-960.00 L464.71,-960.00 L466.46,-960.00 L468.21,-960.00 L469.95,-960.00 L471.70,-960.00 L473.45,-960.00 L475.20,-960.00 L476.94,-960.00 L478.69,-960.00 L480.44,-960.00 L482.18,-960.00 L483.93,-960.00 L485.68,-960.00 L487.42,-960.00 L489.17,-960.00 L490.92,-960.00 L492.67,-960.00 L494.41,-960.00 L496.16,-960.00 L497.91,-960.00 L499.65,-960.00 L501.40,-960.00 L503.15,-960.00 L504.90,-960.00 L506.64,-960.00 L508.39,-960.00 L510.14,-960.00 L511.88,-960.00 L513.63,-960.00 L515.38,-960.00 L517.12,-960.00 L518.87,-960.00 L520.62,-960.00 L522.37,-960.00 L524.11,-960.00 L525.86,-960.00 L527.61,-960.00 L529.35,-960.00 L531.10,-960.00 L532.85,-960.00 L534.60,-960.00 L536.34,-960.00 L538.09,-960.00 L539.84,-960.00 L541.58,-960.00 L543.33,-960.00 L545.08,-960.00 L546.82,-960.00 L548.57,-960.00 L550.32,-960.00 L552.07,-960.00 L553.81,-960.00 L555.56,-960.00 L557.31,-960.00 L559.05,-960.00 L560.80,-960.00 L562.55,-960.00 L564.29,-960.00 L566.04,-960.00 L567.79,-960.00 L569.54,-960.00 L571.28,-960.00 L573.03,-960.00 L574.78,-960.00 L576.52,-960.00 L578.27,-960.00 L580.02,-960.00 L581.77,-960.00 L583.51,-960.00 L585.26,-960.00 L587.01,-960.00 L588.75,-960.00 L590.50,-960.00 L592.25,-960.00 L593.99,-960.00 L595.74,-960.00 L597.49,-960.00 L599.24,-960.00 L600.98,-960.00 L602.73,-960.00 L604.48,-960.00 L606.22,-960.00 L607.97,-960.00 L609.72,-960.00 L611.46,-960.00 L613.21,-960.00 L614.96,-960.00 L616.71,-960.00 L618.45,-960.00 L620.20,-960.00 L621.95,-960.00 L623.69,-960.00 L625.44,-960.00 L627.19,-960.00 L628.94,-960.00 L630.68,-960.00 L632.43,-960.00 L634.18,-960.00 L635.92,-960.00 L637.67,-960.00 L639.42,-960.00 L641.16,-960.00 L642.91,-960.00 L644.66,-960.00 L646.41,-960.00 L648.15,-959.32 L649.90,-950.12 L651.65,-940.94 L653.39,-931.79 L655.14,-922.67 L656.89,-913.58 L658.64,-904.52 L660.38,-895.50 L662.13,-886.49 L663.88,-877.52 L665.62,-868.58 L667.37,-859.67 L669.12,-850.79 L670.86,-841.94 L672.61,-833.11 L674.36,-824.32 L676.11,-815.56 L677.85,-806.82 L679.60,-798.12 L681.35,-789.44 L683.09,-780.80 L684.84,-772.18 L686.59,-763.60 L688.33,-755.04 L690.08,-746.51 L691.83,-738.01 L693.58,-729.55 L695.32,-721.11 L697.07,-712.70 L698.82,-704.32 L700.56,-695.97 L702.31,-687.65 L704.06,-679.36 L705.81,-671.09 L707.55,-662.86 L709.30,-654.66 L711.05,-646.49 L712.79,-638.34 L714.54,-630.23 L716.29,-622.15 L718.03,-614.09 L719.78,-606.07 L721.53,-598.07 L723.28,-590.11 L725.02,-582.17 L726.77,-574.26 L728.52,-566.39 L730.26,-558.54 L732.01,-550.72 L733.76,-542.93 L735.51,-535.17 L737.25,-527.44 L739.00,-519.74 L740.75,-512.07 L742.49,-504.43 L744.24,-496.82 L745.99,-489.24 L747.73,-481.68 L749.48,-474.16 L751.23,-466.67 L752.98,-459.21 L754.72,-451.77 L756.47,-444.37 L758.22,-436.99 L759.96,-429.65 L761.71,-422.33 L763.46,-415.04 L765.20,-407.79 L766.95,-400.56 L768.70,-393.36 L770.45,-386.19 L772.19,-379.06 L773.94,-371.95 L775.69,-364.87 L777.43,-357.82 L779.18,-350.80 L780.93,-343.81 L782.68,-336.84 L784.42,-329.91 L786.17,-323.01 L787.92,-316.14 L789.66,-309.29 L791.41,-302.48 L793.16,-295.70 L794.90,-288.94 L796.65,-282.22 L798.40,-275.52 L800.15,-268.86 L801.89,-262.22 L803.64,-255.61 L805.39,-249.04 L807.13,-242.49 L808.88,-235.97 L810.63,-229.48 L812.37,-223.02 L814.12,-216.59 L815.87,-210.19 L817.62,-203.82 L819.36,-197.48 L821.11,-191.17 L822.86,-184.89 L824.60,-178.64 L826.35,-172.41 L828.10,-166.22 L829.85,-160.06 L831.59,-153.92 L833.34,-147.82 L835.09,-141.74 L836.83,-135.70 L838.58,-129.68 L840.33,-123.70 L842.07,-117.74 L843.82,-111.81 L845.57,-105.92 L847.32,-100.05 L849.06,-94.21 L850.81,-88.40 L852.56,-82.62 L854.30,-76.87 L856.05,-71.15 L857.80,-65.46 L859.55,-59.80 L861.29,-54.17 L863.04,-48.56 L864.79,-42.99 L866.53,-37.45 L868.28,-31.94 L870.03,-26.45 L871.77,-21.00 L873.52,-15.57 L875.27,-10.18 L877.02,-4.81 L878.76,0.52 L880.51,5.83 L882.26,11.11 L884.00,16.36 L885.75,21.57 L887.50,26.76 L889.24,31.92 L890.99,37.05 L892.74,42.15 L894.49,47.22 L896.23,52.26 L897.98,57.27 L899.73,62.25 L901.47,67.21 L903.22,72.13 L904.97,77.02 L906.72,81.89 L908.46,86.72 L910.21,91.52 L911.96,96.30 L913.70,101.04 L915.45,105.76 L917.20,110.45 L918.94,115.10 L920.69,119.73 L922.44,124.33 L924.19,128.89 L925.93,133.43 L927.68,137.94 L929.43,142.42 L931.17,146.87 L932.92,151.29 L934.67,155.68 L936.41,160.04 L938.16,164.37 L939.91,168.68 L941.66,172.95 L943.40,177.19 L945.15,181.41 L946.90,185.59 L948.64,189.74 L950.39,193.87 L952.14,197.96 L953.89,202.03 L955.63,206.06 L957.38,210.07 L959.13,214.05 L960.87,218.00 L962.62,221.91 L964.37,225.80 L966.11,229.66 L967.86,233.49 L969.61,237.29 L971.36,241.06 L973.10,244.80 L974.85,248.51 L976.60,252.19 L978.34,255.85 L980.09,259.47 L981.84,263.06 L983.59,266.62 L985.33,270.16 L987.08,273.66 L988.83,277.14 L990.57,280.58 L992.32,284.00 L994.07,287.38 L995.81,290.74 L997.56,294.07 L999.31,297.36 L1001.06,300.63 L1002.80,303.87 L1004.55,307.08 L1006.30,310.26 L1008.04,313.41 L1009.79,316.53 L1011.54,319.62 L1013.28,322.68 L1015.03,325.71 L1016.78,328.71 L1018.53,331.69 L1020.27,334.63 L1022.02,337.54 L1023.77,340.42 L1025.51,343.28 L1027.26,346.10 L1029.01,348.90 L1030.76,351.66 L1032.50,354.40 L1034.25,357.11 L1036.00,359.78 L1037.74,362.43 L1039.49,365.05 L1041.24,367.64 L1042.98,370.20 L1044.73,372.72 L1046.48,375.22 L1048.23,377.69 L1049.97,380.13 L1051.72,382.55 L1053.47,384.93 L1055.21,387.28 L1056.96,389.60 L1058.71,391.89 L1060.45,394.16 L1062.20,396.39 L1063.95,398.60 L1065.70,400.77 L1067.44,402.91 L1069.19,405.03 L1070.94,407.12 L1072.68,409.17 L1074.43,411.20 L1076.18,413.20 L1077.93,415.16 L1079.67,417.10 L1081.42,419.01 L1083.17,420.89 L1084.91,422.74 L1086.66,424.56 L1088.41,426.35 L1090.15,428.11 L1091.90,429.84 L1093.65,431.54 L1095.40,433.22 L1097.14,434.86 L1098.89,436.47 L1100.64,438.06 L1102.38,439.61 L1104.13,441.13 L1105.88,442.63 L1107.63,444.09 L1109.37,445.53 L1111.12,446.94 L1112.87,448.31 L1114.61,449.66 L1116.36,450.98 L1118.11,452.27 L1119.85,453.53 L1121.60,454.75 L1123.35,455.95 L1125.10,457.12 L1126.84,458.26 L1128.59,459.38 L1130.34,460.46 L1132.08,461.51 L1133.83,462.53 L1135.58,463.52 L1137.32,464.49 L1139.07,465.42 L1140.82,466.32 L1142.57,467.20 L1144.31,468.04 L1146.06,468.86 L1147.81,469.64 L1149.55,470.40 L1151.30,471.13 L1153.05,471.82 L1154.80,472.49 L1156.54,473.13 L1158.29,473.74 L1160.04,474.32 L1161.78,474.87 L1163.53,475.39 L1165.28,475.88 L1167.02,476.34 L1168.77,476.77 L1170.52,477.17 L1172.27,477.54 L1174.01,477.89 L1175.76,478.20 L1177.51,478.48 L1179.25,478.74 L1181.00,478.96 L1182.75,479.16 L1184.49,479.32 L1186.24,479.46 L1187.99,479.56 L1189.74,479.64 L1191.48,479.69 L1193.23,479.70 L1194.98,479.69 L1196.72,479.65 L1198.47,479.58 L1200.22,479.48 L1201.97,479.35 L1203.71,479.19 L1205.46,479.00 L1207.21,478.78 L1208.95,478.53 L1210.70,478.25 L1212.45,477.95 L1214.19,477.61 L1215.94,477.24 L1217.69,476.85 L1219.44,476.42 L1221.18,475.97 L1222.93,475.48 L1224.68,474.97 L1226.42,474.42 L1228.17,473.85 L1229.92,473.25 L1231.67,472.62 L1233.41,471.95 L1235.16,471.26 L1236.91,470.54 L1238.65,469.79 L1240.40,469.01 L1242.15,468.20 L1243.89,467.36 L1245.64,466.49 L1247.39,465.59 L1249.14,464.67 L1250.88,463.71 L1252.63,462.72 L1254.38,461.70 L1256.12,460.66 L1257.87,459.58 L1259.62,458.48 L1261.36,457.34 L1263.11,456.18 L1264.86,454.98 L1266.61,453.76 L1268.35,452.51 L1270.10,451.22 L1271.85,449.91 L1273.59,448.57 L1275.34,447.20 L1277.09,445.80 L1278.84,444.37 L1280.58,442.91 L1282.33,441.42 L1284.08,439.90 L1285.82,438.35 L1287.57,436.77 L1289.32,435.17 L1291.06,433.53 L1292.81,431.86 L1294.56,430.17 L1296.31,428.44 L1298.05,426.69 L1299.80,424.90 L1301.55,423.09 L1303.29,421.24 L1305.04,419.37 L1306.79,417.47 L1308.54,415.53 L1310.28,413.57 L1312.03,411.58 L1313.78,409.56 L1315.52,407.51 L1317.27,405.43 L1319.02,403.32 L1320.76,401.18 L1322.51,399.01 L1324.26,396.81 L1326.01,394.58 L1327.75,392.32 L1329.50,390.04 L1331.25,387.72 L1332.99,385.37 L1334.74,383.00 L1336.49,380.59 L1338.23,378.16 L1339.98,375.69 L1341.73,373.20 L1343.48,370.68 L1345.22,368.12 L1346.97,365.54 L1348.72,362.93 L1350.46,360.29 L1352.21,357.62 L1353.96,354.91 L1355.71,352.18 L1357.45,349.42 L1359.20,346.63 L1360.95,343.82 L1362.69,340.97 L1364.44,338.09 L1366.19,335.18 L1367.93,332.24 L1369.68,329.28 L1371.43,326.28 L1373.18,323.26 L1374.92,320.20 L1376.67,317.12 L1378.42,314.00 L1380.16,310.86 L1381.91,307.68 L1383.66,304.48 L1385.40,301.25 L1387.15,297.98 L1388.90,294.69 L1390.65,291.37 L1392.39,288.02 L1394.14,284.64 L1395.89,281.23 L1397.63,277.79 L1399.38,274.32 L1401.13,270.82 L1402.88,267.29 L1404.62,263.74 L1406.37,260.15 L1408.12,256.53 L1409.86,252.89 L1411.61,249.21 L1413.36,245.51 L1415.10,241.77 L1416.85,238.01 L1418.60,234.21 L1420.35,230.39 L1422.09,226.53 L1423.84,222.65 L1425.59,218.74 L1427.33,214.80 L1429.08,210.83 L1430.83,206.83 L1432.58,202.80 L1434.32,198.74 L1436.07,194.65 L1437.82,190.53 L1439.56,186.38 L1441.31,182.20 L1443.06,177.99 L1444.80,173.75 L1446.55,169.49 L1448.30,165.19 L1450.05,160.87 L1451.79,156.51 L1453.54,152.12 L1455.29,147.71 L1457.03,143.27 L1458.78,138.79 L1460.53,134.29 L1462.27,129.76 L1464.02,125.19 L1465.77,120.60 L1467.52,115.98 L1469.26,111.33 L1471.01,106.65 L1472.76,101.94 L1474.50,97.20 L1476.25,92.43 L1478.00,87.63 L1479.75,82.80 L1481.49,77.94 L1483.24,73.06 L1484.99,68.14 L1486.73,63.19 L1488.48,58.22 L1490.23,53.21 L1491.97,48.18 L1493.72,43.11 L1495.47,38.02 L1497.22,32.89 L1498.96,27.74 L1500.71,22.56 L1502.46,17.35 L1504.20,12.10 L1505.95,6.83 L1507.70,1.53 L1509.44,-3.80 L1511.19,-9.16 L1512.94,-14.55 L1514.69,-19.97 L1516.43,-25.42 L1518.18,-30.90 L1519.93,-36.40 L1521.67,-41.94 L1523.42,-47.51 L1525.17,-53.10 L1526.92,-58.73 L1528.66,-64.39 L1530.41,-70.07 L1532.16,-75.79 L1533.90,-81.53 L1535.65,-87.30 L1537.40,-93.11 L1539.14,-98.94 L1540.89,-104.80 L1542.64,-110.69 L1544.39,-116.62 L1546.13,-122.57 L1547.88,-128.55 L1549.63,-134.56 L1551.37,-140.60 L1553.12,-146.67 L1554.87,-152.77 L1556.62,-158.89 L1558.36,-165.05 L1560.11,-171.24 L1561.86,-177.46 L1563.60,-183.70 L1565.35,-189.98 L1567.10,-196.29 L1568.84,-202.62 L1570.59,-208.99 L1572.34,-215.38 L1574.09,-221.80 L1575.83,-228.26 L1577.58,-234.74 L1579.33,-241.25 L1581.07,-247.79 L1582.82,-254.37 L1584.57,-260.97 L1586.31,-267.60 L1588.06,-274.26 L1589.81,-280.95 L1591.56,-287.67 L1593.30,-294.42 L1595.05,-301.19 L1596.80,-308.00 L1598.54,-314.84 L1600.29,-321.71 L1602.04,-328.60 L1603.79,-335.53 L1605.53,-342.49 L1607.28,-349.47 L1609.03,-356.49 L1610.77,-363.53 L1612.52,-370.60 L1614.27,-377.71 L1616.01,-384.84 L1617.76,-392.00 L1619.51,-399.20 L1621.26,-406.42 L1623.00,-413.67 L1624.75,-420.95 L1626.50,-428.26 L1628.24,-435.60 L1629.99,-442.97 L1631.74,-450.37 L1633.48,-457.80 L1635.23,-465.25 L1636.98,-472.74 L1638.73,-480.26 L1640.47,-487.81 L1642.22,-495.38 L1643.97,-502.99 L1645.71,-510.62 L1647.46,-518.29 L1649.21,-525.98 L1650.96,-533.71 L1652.70,-541.46 L1654.45,-549.24 L1656.20,-557.06 L1657.94,-564.90 L1659.69,-572.77 L1661.44,-580.67 L1663.18,-588.60 L1664.93,-596.56 L1666.68,-604.55 L1668.43,-612.57 L1670.17,-620.62 L1671.92,-628.70 L1673.67,-636.81 L1675.41,-644.94 L1677.16,-653.11 L1678.91,-661.31 L1680.66,-669.53 L1682.40,-677.79 L1684.15,-686.08 L1685.90,-694.39 L1687.64,-702.73 L1689.39,-711.11 L1691.14,-719.51 L1692.88,-727.95 L1694.63,-736.41 L1696.38,-744.90 L1698.13,-753.42 L1699.87,-761.97 L1701.62,-770.55 L1703.37,-779.16 L1705.11,-787.80 L1706.86,-796.47 L1708.61,-805.17 L1710.35,-813.90 L1712.10,-822.66 L1713.85,-831.45 L1715.60,-840.27 L1717.34,-849.11 L1719.09,-857.99 L1720.84,-866.89 L1722.58,-875.83 L1724.33,-884.79 L1726.08,-893.79 L1727.83,-902.81 L1729.57,-911.87 L1731.32,-920.95 L1733.07,-930.06 L1734.81,-939.21 L1736.56,-948.38 L1738.31,-957.58 L1740.05,-960.00 L1741.80,-960.00 L1743.55,-960.00 L1745.30,-960.00 L1747.04,-960.00 L1748.79,-960.00 L1750.54,-960.00 L1752.28,-960.00 L1754.03,-960.00 L1755.78,-960.00 L1757.53,-960.00 L1759.27,-960.00 L1761.02,-960.00 L1762.77,-960.00 L1764.51,-960.00 L1766.26,-960.00 L1768.01,-960.00 L1769.75,-960.00 L1771.50,-960.00 L1773.25,-960.00 L1775.00,-960.00 L1776.74,-960.00 L1778.49,-960.00 L1780.24,-960.00 L1781.98,-960.00 L1783.73,-960.00 L1785.48,-960.00 L1787.22,-960.00 L1788.97,-960.00 L1790.72,-960.00 L1792.47,-960.00 L1794.21,-960.00 L1795.96,-960.00 L1797.71,-960.00 L1799.45,-960.00 L1801.20,-960.00 L1802.95,-960.00 L1804.70,-960.00 L1806.44,-960.00 L1808.19,-960.00 L1809.94,-960.00 L1811.68,-960.00 L1813.43,-960.00 L1815.18,-960.00 L1816.92,-960.00 L1818.67,-960.00 L1820.42,-960.00 L1822.17,-960.00 L1823.91,-960.00 L1825.66,-960.00 L1827.41,-960.00 L1829.15,-960.00 L1830.90,-960.00 L1832.65,-960.00 L1834.39,-960.00 L1836.14,-960.00 L1837.89,-960.00 L1839.64,-960.00 L1841.38,-960.00 L1843.13,-960.00 L1844.88,-960.00 L1846.62,-960.00 L1848.37,-960.00 L1850.12,-960.00 L1851.87,-960.00 L1853.61,-960.00 L1855.36,-960.00 L1857.11,-960.00 L1858.85,-960.00 L1860.60,-960.00 L1862.35,-960.00 L1864.09,-960.00 L1865.84,-960.00 L1867.59,-960.00 L1869.34,-960.00 L1871.08,-960.00 L1872.83,-960.00 L1874.58,-960.00 L1876.32,-960.00 L1878.07,-960.00 L1879.82,-960.00 L1881.57,-960.00 L1883.31,-960.00 L1885.06,-960.00 L1886.81,-960.00 L1888.55,-960.00 L1890.30,-960.00 L1892.05,-960.00 L1893.79,-960.00 L1895.54,-960.00 L1897.29,-960.00 L1899.04,-960.00 L1900.78,-960.00 L1902.53,-960.00 L1904.28,-960.00 L1906.02,-960.00 L1907.77,-960.00 L1909.52,-960.00 L1911.26,-960.00 L1913.01,-960.00 L1914.76,-960.00 L1916.51,-960.00 L1918.25,-960.00 L1920.00,-960.00" style="stroke-width: 25; stroke: rgb(245, 130, 49);" fill="none"/>
    <path onclick="onClickEvent(evt)" id="Result" d=" M0.00,-960.00 L1.75,-960.00 L3.49,-960.00 L5.24,-960.00 L6.99,-960.00 L8.74,-960.00 L10.48,-960.00 L12.23,-960.00 L13.98,-960.00 L15.72,-960.00 L17.47,-960.00 L19.22,-960.00 L20.96,-960.00 L22.71,-960.00 L24.46,-960.00 L26.21,-960.00 L27.95,-960.00 L29.70,-960.00 L31.45,-960.00 L33.19,-960.00 L34.94,-960.00 L36.69,-960.00 L38.43,-960.00 L40.18,-960.00 L41.93,-960.00 L43.68,-960.00 L45.42,-960.00 L47.17,-960.00 L48.92,-960.00 L50.66,-960.00 L52.41,-960.00 L54.16,-960.00 L55.91,-960.00 L57.65,-960.00 L59.40,-960.00 L61.15,-960.00 L62.89,-960.00 L64.64,-960.00 L66.39,-960.00 L68.13,-960.00 L69.88,-960.00 L71.63,-960.00 L73.38,-960.00 L75.12,-960.00 L76.87,-960.00 L78.62,-960.00 L80.36,-960.00 L82.11,-960.00 L83.86,-960.00 L85.61,-960.00 L87.35,-960.00 L89.10,-960.00 L90.85,-960.00 L92.59,-960.00 L94.34,-960.00 L96.09,-960.00 L97.83,-960.00 L99.58,-960.00 L101.33,-960.00 L103.08,-960.00 L104.82,-960.00 L106.57,-960.00 L108.32,-960.00 L110.06,-960.00 L111.81,-960.00 L113.56,-960.00 L115.30,-960.00 L117.05,-960.00 L118.80,-960.00 L120.55,-960.00 L122.29,-960.00 L124.04,-960.00 L125.79,-960.00 L127.53,-960.00 L129.28,-960.00 L131.03,-960.00 L132.78,-960.00 L134.52,-960.00 L136.27,-960.00 L138.02,-960.00 L139.76,-960.00 L141.51,-960.00 L143.26,-960.00 L145.00,-960.00 L146.75,-960.00 L148.50,-960.00 L150.25,-960.00 L151.99,-960.00 L153.74,-960.00 L155.49,-960.00 L157.23,-960.00 L158.98,-960.00 L160.73,-960.00 L162.47,-960.00 L164.22,-960.00 L165.97,-960.00 L167.72,-960.00 L169.46,-960.00 L171.21,-960.00 L172.96,-960.00 L174.70,-960.00 L176.45,-960.00 L178.20,-960.00 L179.95,-960.00 L181.69,-960.00 L183.44,-960.00 L185.19,-960.00 L186.93,-960.00 L188.68,-960.00 L190.43,-960.00 L192.17,-960.00 L193.92,-960.00 L195.67,-960.00 L197.42,-960.00 L199.16,-960.00 L200.91,-960.00 L202.66,-960.00 L204.40,-960.00 L206.15,-960.00 L207.90,-960.00 L209.65,-960.00 L211.39,-960.00 L213.14,-960.00 L214.89,-960.00 L216.63,-960.00 L218.38,-960.00 L220.13,-960.00 L221.87,-960.00 L223.62,-960.00 L225.37,-960.00 L227.12,-960.00 L228.86,-960.00 L230.61,-960.00 L232.36,-960.00 L234.10,-960.00 L235.85,-960.00 L237.60,-960.00 L239.34,-960.00 L241.09,-960.00 L242.84,-960.00 L244.59,-960.00 L246.33,-960.00 L248.08,-960.00 L249.83,-960.00 L251.57,-960.00 L253.32,-960.00 L255.07,-960.00 L256.82,-960.00 L258.56,-960.00 L260.31,-960.00 L262.06,-960.00 L263.80,-960.00 L265.55,-960.00 L267.30,-960.00 L269.04,-960.00 L270.79,-960.00 L272.54,-960.00 L274.29,-960.00 L276.03,-960.00 L277.78,-960.00 L279.53,-960.00 L281.27,-960.00 L283.02,-960.00 L284.77,-960.00 L286.52,-960.00 L288.26,-960.00 L290.01,-960.00 L291.76,-960.00 L293.50,-960.00 L295.25,-960.00 L297.00,-960.00 L298.74,-960.00 L300.49,-960.00 L302.24,-960.00 L303.99,-960.00 L305.73,-960.00 L307.48,-960.00 L309.23,-960.00 L310.97,-960.00 L312.72,-960.00 L314.47,-960.00 L316.21,-960.00 L317.96,-960.00 L319.71,-960.00 L321.46,-960.00 L323.20,-960.00 L324.95,-960.00 L326.70,-960.00 L328.44,-960.00 L330.19,-960.00 L331.94,-960.00 L333.69,-960.00 L335.43,-960.00 L337.18,-960.00 L338.93,-960.00 L340.67,-960.00 L342.42,-960.00 L344.17,-960.00 L345.91,-960.00 L347.66,-960.00 L349.41,-960.00 L351.16,-960.00 L352.90,-960.00 L354.65,-960.00 L356.40,-960.00 L358.14,-960.00 L359.89,-960.00 L361.64,-960.00 L363.38,-960.00 L365.13,-960.00 L366.88,-960.00 L368.63,-960.00 L370.37,-960.00 L372.12,-960.00 L373.87,-960.00 L375.61,-960.00 L377.36,-960.00 L379.11,-960.00 L380.86,-960.00 L382.60,-960.00 L384.35,-960.00 L386.10,-960.00 L387.84,-960.00 L389.59,-960.00 L391.34,-960.00 L393.08,-960.00 L394.83,-960.00 L396.58,-960.00 L398.33,-960.00 L400.07,-960.00 L401.82,-960.00 L403.57,-960.00 L405.31,-960.00 L407.06,-960.00 L408.81,-960.00 L410.56,-960.00 L412.30,-960.00 L414.05,-960.00 L415.80,-960.00 L417.54,-960.00 L419.29,-960.00 L421.04,-960.00 L422.78,-960.00 L424.53,-960.00 L426.28,-960.00 L428.03,-960.00 L429.77,-960.00 L431.52,-960.00 L433.27,-960.00 L435.01,-960.00 L436.76,-960.00 L438.51,-960.00 L440.25,-960.00 L442.00,-960.00 L443.75,-960.00 L445.50,-960.00 L447.24,-960.00 L448.99,-960.00 L450.74,-960.00 L452.48,-960.00 L454.23,-960.00 L455.98,-960.00 L457.73,-960.00 L459.47,-960.00 L461.22,-960.00 L462.97,-960.00 L464.71,-960.00 L466.46,-960.00 L468.21,-960.00 L469.95,-960.00 L471.70,-960.00 L473.45,-960.00 L475.20,-960.00 L476.94,-960.00 L478.69,-960.00 L480.44,-960.00 L482.18,-960.00 L483.93,-960.00 L485.68,-960.00 L487.42,-960.00 L489.17,-960.00 L490.92,-960.00 L492.67,-960.00 L494.41,-960.00 L496.16,-960.00 L497.91,-960.00 L499.65,-960.00 L501.40,-960.00 L503.15,-960.00 L504.90,-960.00 L506.64,-960.00 L508.39,-960.00 L510.14,-960.00 L511.88,-960.00 L513.63,-960.00 L515.38,-960.00 L517.12,-960.00 L518.87,-960.00 L520.62,-960.00 L522.37,-960.00 L524.11,-960.00 L525.86,-960.00 L527.61,-960.00 L529.35,-960.00 L531.10,-960.00 L532.85,-960.00 L534.60,-960.00 L536.34,-960.00 L538.09,-960.00 L539.84,-960.00 L541.58,-960.00 L543.33,-960.00 L545.08,-960.00 L546.82,-960.00 L548.57,-960.00 L550.32,-960.00 L552.07,-960.00 L553.81,-960.00 L555.56,-960.00 L557.31,-960.00 L559.05,-960.00 L560.80,-960.00 L562.55,-960.00 L564.29,-960.00 L566.04,-960.00 L567.79,-960.00 L569.54,-960.00 L571.28,-960.00 L573.03,-960.00 L574.78,-960.00 L576.52,-960.00 L578.27,-960.00 L580.02,-960.00 L581.77,-960.00 L583.51,-960.00 L585.26,-960.00 L587.01,-960.00 L588.75,-960.00 L590.50,-960.00 L592.25,-960.00 L593.99,-960.00 L595.74,-960.00 L597.49,-960.00 L599.24,-960.00 L600.98,-960.00 L602.73,-960.00 L604.48,-960.00 L606.22,-960.00 L607.97,-960.00 L609.72,-960.00 L611.46,-960.00 L613.21,-960.00 L614.96,-960.00 L616.71,-960.00 L618.45,-960.00 L620.20,-950.75 L621.95,-941.07 L623.69,-931.42 L625.44,-921.80 L627.19,-912.21 L628.94,-902.65 L630.68,-893.12 L632.43,-883.62 L634.18,-874.14 L635.92,-864.70 L637.67,-855.29 L639.42,-845.90 L641.16,-836.55 L642.91,-827.22 L644.66,-817.93 L646.41,-808.66 L648.15,-799.42 L649.90,-790.22 L651.65,-781.04 L653.39,-771.89 L655.14,-762.77 L656.89,-753.68 L658.64,-744.62 L660.38,-735.60 L662.13,-726.59 L663.88,-717.62 L665.62,-708.68 L667.37,-699.77 L669.12,-690.89 L670.86,-682.04 L672.61,-673.21 L674.36,-664.42 L676.11,-655.66 L677.85,-646.92 L679.60,-638.22 L681.35,-629.54 L683.09,-620.90 L684.84,-612.28 L686.59,-603.70 L688.33,-595.14 L690.08,-586.61 L691.83,-578.11 L693.58,-569.65 L695.32,-561.21 L697.07,-552.80 L698.82,-544.42 L700.56,-536.07 L702.31,-527.75 L704.06,-519.46 L705.81,-511.19 L707.55,-502.96 L709.30,-494.76 L711.05,-486.59 L712.79,-478.44 L714.54,-470.33 L716.29,-462.25 L718.03,-454.19 L719.78,-446.17 L721.53,-438.17 L723.28,-430.21 L725.02,-422.27 L726.77,-414.36 L728.52,-406.49 L730.26,-398.64 L732.01,-390.82 L733.76,-383.03 L735.51,-375.27 L737.25,-367.54 L739.00,-359.84 L740.75,-352.17 L742.49,-344.53 L744.24,-336.92 L745.99,-329.34 L747.73,-321.78 L749.48,-314.26 L751.23,-306.77 L752.98,-299.31 L754.72,-291.87 L756.47,-284.47 L758.22,-277.09 L759.96,-269.75 L761.71,-262.43 L763.46,-255.14 L765.20,-247.89 L766.95,-240.66 L768.70,-233.46 L770.45,-226.29 L772.19,-219.16 L773.94,-212.05 L775.69,-204.97 L777.43,-197.92 L779.18,-190.90 L780.93,-183.91 L782.68,-176.94 L784.42,-170.01 L786.17,-163.11 L787.92,-156.24 L789.66,-149.39 L791.41,-142.58 L793.16,-135.80 L794.90,-129.04 L796.65,-122.32 L798.40,-115.62 L800.15,-108.96 L801.89,-102.32 L803.64,-95.71 L805.39,-89.14 L807.13,-82.59 L808.88,-76.07 L810.63,-69.58 L812.37,-63.12 L814.12,-56.69 L815.87,-50.29 L817.62,-43.92 L819.36,-37.58 L821.11,-31.27 L822.86,-24.99 L824.60,-18.74 L826.35,-12.51 L828.10,-6.32 L829.85,-0.16 L831.59,5.98 L833.34,12.08 L835.09,18.16 L836.83,24.20 L838.58,30.22 L840.33,36.20 L842.07,42.16 L843.82,48.09 L845.57,53.98 L847.32,59.85 L849.06,65.69 L850.81,71.50 L852.56,77.28 L854.30,83.03 L856.05,88.75 L857.80,94.44 L859.55,100.10 L861.29,105.73 L863.04,111.34 L864.79,116.91 L866.53,122.45 L868.28,127.96 L870.03,133.45 L871.77,138.90 L873.52,144.33 L875.27,149.72 L877.02,155.09 L878.76,160.42 L880.51,165.73 L882.26,171.01 L884.00,176.26 L885.75,181.47 L887.50,186.66 L889.24,191.82 L890.99,196.95 L892.74,202.05 L894.49,207.12 L896.23,212.16 L897.98,217.17 L899.73,222.15 L901.47,227.11 L903.22,232.03 L904.97,236.92 L906.72,241.79 L908.46,246.62 L910.21,251.42 L911.96,256.20 L913.70,260.94 L915.45,265.66 L917.20,270.35 L918.94,275.00 L920.69,279.63 L922.44,284.23 L924.19,288.79 L925.93,293.33 L927.68,297.84 L929.43,302.32 L931.17,306.77 L932.92,311.19 L934.67,315.58 L936.41,319.94 L938.16,324.27 L939.91,328.58 L941.66,332.85 L943.40,337.09 L945.15,341.31 L946.90,345.49 L948.64,349.64 L950.39,353.77 L952.14,357.86 L953.89,361.93 L955.63,365.96 L957.38,369.97 L959.13,373.95 L960.87,377.90 L962.62,381.81 L964.37,385.70 L966.11,389.56 L967.86,393.39 L969.61,397.19 L971.36,400.96 L973.10,404.70 L974.85,408.41 L976.60,412.09 L978.34,415.75 L980.09,419.37 L981.84,422.96 L983.59,426.52 L985.33,430.06 L987.08,433.56 L988.83,437.04 L990.57,440.48 L992.32,443.90 L994.07,447.28 L995.81,450.64 L997.56,453.97 L999.31,457.26 L1001.06,460.53 L1002.80,463.77 L1004.55,466.98 L1006.30,470.16 L1008.04,473.31 L1009.79,476.43 L1011.54,479.52 L1013.28,482.58 L1015.03,485.61 L1016.78,488.61 L1018.53,491.59 L1020.27,494.53 L1022.02,497.44 L1023.77,500.32 L1025.51,503.18 L1027.26,506.00 L1029.01,508.80 L1030.76,511.56 L1032.50,514.30 L1034.25,517.01 L1036.00,519.68 L1037.74,522.33 L1039.49,524.95 L1041.24,527.54 L1042.98,530.10 L1044.73,532.62 L1046.48,535.12 L1048.23,537.59 L1049.97,540.03 L1051.72,542.45 L1053.47,544.83 L1055.21,547.18 L1056.96,549.50 L1058.71,551.79 L1060.45,554.06 L1062.20,556.29 L1063.95,558.50 L1065.70,560.67 L1067.44,562.81 L1069.19,564.93 L1070.94,567.02 L1072.68,569.07 L1074.43,571.10 L1076.18,573.10 L1077.93,575.06 L1079.67,577.00 L1081.42,578.91 L1083.17,580.79 L1084.91,582.64 L1086.66,584.46 L1088.41,586.25 L1090.15,588.01 L1091.90,589.74 L1093.65,591.44 L1095.40,593.12 L1097.14,594.76 L1098.89,596.37 L1100.64,597.96 L1102.38,599.51 L1104.13,601.03 L1105.88,602.53 L1107.63,603.99 L1109.37,605.43 L1111.12,606.84 L1112.87,608.21 L1114.61,609.56 L1116.36,610.88 L1118.11,612.17 L1119.85,613.43 L1121.60,614.65 L1123.35,615.85 L1125.10,617.02 L1126.84,618.16 L1128.59,619.28 L1130.34,620.36 L1132.08,621.41 L1133.83,622.43 L1135.58,623.42 L1137.32,624.39 L1139.07,625.32 L1140.82,626.22 L1142.57,627.10 L1144.31,627.94 L1146.06,628.76 L1147.81,629.54 L1149.55,630.30 L1151.30,631.03 L1153.05,631.72 L1154.80,632.39 L1156.54,633.03 L1158.29,633.64 L1160.04,634.22 L1161.78,634.77 L1163.53,635.29 L1165.28,635.78 L1167.02,636.24 L1168.77,636.67 L1170.52,637.07 L1172.27,637.44 L1174.01,637.79 L1175.76,638.10 L1177.51,638.38 L1179.25,638.64 L1181.00,638.86 L1182.75,639.06 L1184.49,639.22 L1186.24,639.36 L1187.99,639.46 L1189.74,639.54 L1191.48,639.59 L1193.23,639.60 L1194.98,639.59 L1196.72,639.55 L1198.47,639.48 L1200.22,639.38 L1201.97,639.25 L1203.71,639.09 L1205.46,638.90 L1207.21,638.68 L1208.95,638.43 L1210.70,638.15 L1212.45,637.85 L1214.19,637.51 L1215.94,637.14 L1217.69,636.75 L1219.44,636.32 L1221.18,635.87 L1222.93,635.38 L1224.68,634.87 L1226.42,634.32 L1228.17,633.75 L1229.92,633.15 L1231.67,632.52 L1233.41,631.85 L1235.16,631.16 L1236.91,630.44 L1238.65,629.69 L1240.40,628.91 L1242.15,628.10 L1243.89,627.26 L1245.64,626.39 L1247.39,625.49 L1249.14,624.57 L1250.88,623.61 L1252.63,622.62 L1254.38,621.60 L1256.12,620.56 L1257.87,619.48 L1259.62,618.38 L1261.36,617.24 L1263.11,616.08 L1264.86,614.88 L1266.61,613.66 L1268.35,612.41 L1270.10,611.12 L1271.85,609.81 L1273.59,608.47 L1275.34,607.10 L1277.09,605.70 L1278.84,604.27 L1280.58,602.81 L1282.33,601.32 L1284.08,599.80 L1285.82,598.25 L1287.57,596.67 L1289.32,595.07 L1291.06,593.43 L1292.81,591.76 L1294.56,590.07 L1296.31,588.34 L1298.05,586.59 L1299.80,584.80 L1301.55,582.99 L1303.29,581.14 L1305.04,579.27 L1306.79,577.37 L1308.54,575.43 L1310.28,573.47 L1312.03,571.48 L1313.78,569.46 L1315.52,567.41 L1317.27,565.33 L1319.02,563.22 L1320.76,561.08 L1322.51,558.91 L1324.26,556.71 L1326.01,554.48 L1327.75,552.22 L1329.50,549.94 L1331.25,547.62 L1332.99,545.27 L1334.74,542.90 L1336.49,540.49 L1338.23,538.06 L1339.98,535.59 L1341.73,533.10 L1343.48,530.58 L1345.22,528.02 L1346.97,525.44 L1348.72,522.83 L1350.46,520.19 L1352.21,517.52 L1353.96,514.81 L1355.71,512.08 L1357.45,509.32 L1359.20,506.53 L1360.95,503.72 L1362.69,500.87 L1364.44,497.99 L1366.19,495.08 L1367.93,492.14 L1369.68,489.18 L1371.43,486.18 L1373.18,483.16 L1374.92,480.10 L1376.67,477.02 L1378.42,473.90 L1380.16,470.76 L1381.91,467.58 L1383.66,464.38 L1385.40,461.15 L1387.15,457.88 L1388.90,454.59 L1390.65,451.27 L1392.39,447.92 L1394.14,444.54 L1395.89,441.13 L1397.63,437.69 L1399.38,434.22 L1401.13,430.72 L1402.88,427.19 L1404.62,423.64 L1406.37,420.05 L1408.12,416.43 L1409.86,412.79 L1411.61,409.11 L1413.36,405.41 L1415.10,401.67 L1416.85,397.91 L1418.60,394.11 L1420.35,390.29 L1422.09,386.43 L1423.84,382.55 L1425.59,378.64 L1427.33,374.70 L1429.08,370.73 L1430.83,366.73 L1432.58,362.70 L1434.32,358.64 L1436.07,354.55 L1437.82,350.43 L1439.56,346.28 L1441.31,342.10 L1443.06,337.89 L1444.80,333.65 L1446.55,329.39 L1448.30,325.09 L1450.05,320.77 L1451.79,316.41 L1453.54,312.02 L1455.29,307.61 L1457.03,303.17 L1458.78,298.69 L1460.53,294.19 L1462.27,289.66 L1464.02,285.09 L1465.77,280.50 L1467.52,275.88 L1469.26,271.23 L1471.01,266.55 L1472.76,261.84 L1474.50,257.10 L1476.25,252.33 L1478.00,247.53 L1479.75,242.70 L1481.49,237.84 L1483.24,232.96 L1484.99,228.04 L1486.73,223.09 L1488.48,218.12 L1490.23,213.11 L1491.97,208.08 L1493.72,203.01 L1495.47,197.92 L1497.22,192.79 L1498.96,187.64 L1500.71,182.46 L1502.46,177.25 L1504.20,172.00 L1505.95,166.73 L1507.70,161.43 L1509.44,156.10 L1511.19,150.74 L1512.94,145.35 L1514.69,139.93 L1516.43,134.48 L1518.18,129.00 L1519.93,123.50 L1521.67,117.96 L1523.42,112.39 L1525.17,106.80 L1526.92,101.17 L1528.66,95.51 L1530.41,89.83 L1532.16,84.11 L1533.90,78.37 L1535.65,72.60 L1537.40,66.79 L1539.14,60.96 L1540.89,55.10 L1542.64,49.21 L1544.39,43.28 L1546.13,37.33 L1547.88,31.35 L1549.63,25.34 L1551.37,19.30 L1553.12,13.23 L1554.87,7.13 L1556.62,1.01 L1558.36,-5.15 L1560.11,-11.34 L1561.86,-17.56 L1563.60,-23.80 L1565.35,-30.08 L1567.10,-36.39 L1568.84,-42.72 L1570.59,-49.09 L1572.34,-55.48 L1574.09,-61.90 L1575.83,-68.36 L1577.58,-74.84 L1579.33,-81.35 L1581.07,-87.89 L1582.82,-94.47 L1584.57,-101.07 L1586.31,-107.70 L1588.06,-114.36 L1589.81,-121.05 L1591.56,-127.77 L1593.30,-134.52 L1595.05,-141.29 L1596.80,-148.10 L1598.54,-154.94 L1600.29,-161.81 L1602.04,-168.70 L1603.79,-175.63 L1605.53,-182.59 L1607.28,-189.57 L1609.03,-196.59 L1610.77,-203.63 L1612.52,-210.70 L1614.27,-217.81 L1616.01,-224.94 L1617.76,-232.10 L1619.51,-239.30 L1621.26,-246.52 L1623.00,-253.77 L1624.75,-261.05 L1626.50,-268.36 L1628.24,-275.70 L1629.99,-283.07 L1631.74,-290.47 L1633.48,-297.90 L1635.23,-305.35 L1636.98,-312.84 L1638.73,-320.36 L1640.47,-327.91 L1642.22,-335.48 L1643.97,-343.09 L1645.71,-350.72 L1647.46,-358.39 L1649.21,-366.08 L1650.96,-373.81 L1652.70,-381.56 L1654.45,-389.34 L1656.20,-397.16 L1657.94,-405.00 L1659.69,-412.87 L1661.44,-420.77 L1663.18,-428.70 L1664.93,-436.66 L1666.68,-444.65 L1668.43,-452.67 L1670.17,-460.72 L1671.92,-468.80 L1673.67,-476.91 L1675.41,-485.04 L1677.16,-493.21 L1678.91,-501.41 L1680.66,-509.63 L1682.40,-517.89 L1684.15,-526.18 L1685.90,-534.49 L1687.64,-542.83 L1689.39,-551.21 L1691.14,-559.61 L1692.88,-568.05 L1694.63,-576.51 L1696.38,-585.00 L1698.13,-593.52 L1699.87,-602.07 L1701.62,-610.65 L1703.37,-619.26 L1705.11,-627.90 L1706.86,-636.57 L1708.61,-645.27 L1710.35,-654.00 L1712.10,-662.76 L1713.85,-671.55 L1715.60,-680.37 L1717.34,-689.21 L1719.09,-698.09 L1720.84,-706.99 L1722.58,-715.93 L1724.33,-724.89 L1726.08,-733.89 L1727.83,-742.91 L1729.57,-751.97 L1731.32,-761.05 L1733.07,-770.16 L1734.81,-779.31 L1736.56,-788.48 L1738.31,-797.68 L1740.05,-806.91 L1741.80,-816.17 L1743.55,-825.46 L1745.30,-834.78 L1747.04,-844.13 L1748.79,-853.51 L1750.54,-862.92 L1752.28,-872.35 L1754.03,-881.82 L1755.78,-891.32 L1757.53,-900.84 L1759.27,-910.40 L1761.02,-919.98 L1762.77,-929.60 L1764.51,-939.24 L1766.26,-948.92 L1768.01,-958.62 L1769.75,-960.00 L1771.50,-960.00 L1773.25,-960.00 L1775.00,-960.00 L1776.74,-960.00 L1778.49,-960.00 L1780.24,-960.00 L1781.98,-960.00 L1783.73,-960.00 L1785.48,-960.00 L1787.22,-960.00 L1788.97,-960.00 L1790.72,-960.00 L1792.47,-960.00 L1794.21,-960.00 L1795.96,-960.00 L1797.71,-960.00 L1799.45,-960.00 L1801.20,-960.00 L1802.95,-960.00 L1804.70,-960.00 L1806.44,-960.00 L1808.19,-960.00 L1809.94,-960.00 L1811.68,-960.00 L1813.43,-960.00 L1815.18,-960.00 L1816.92,-960.00 L1818.67,-960.00 L1820.42,-960.00 L1822.17,-960.00 L1823.91,-960.00 L1825.66,-960.00 L1827.41,-960.00 L1829.15,-960.00 L1830.90,-960.00 L1832.65,-960.00 L1834.39,-960.00 L1836.14,-960.00 L1837.89,-960.00 L1839.64,-960.00 L1841.38,-960.00 L1843.13,-960.00 L1844.88,-960.00 L1846.62,-960.00 L1848.37,-960.00 L1850.12,-960.00 L1851.87,-960.00 L1853.61,-960.00 L1855.36,-960.00 L1857.11,-960.00 L1858.85,-960.00 L1860.60,-960.00 L1862.35,-960.00 L1864.09,-960.00 L1865.84,-960.00 L1867.59,-960.00 L1869.34,-960.00 L1871.08,-960.00 L1872.83,-960.00 L1874.58,-960.00 L1876.32,-960.00 L1878.07,-960.00 L1879.82,-960.00 L1881.57,-960.00 L1883.31,-960.00 L1885.06,-960.00 L1886.81,-960.00 L1888.55,-960.00 L1890.30,-960.00 L1892.05,-960.00 L1893.79,-960.00 L1895.54,-960.00 L1897.29,-960.00 L1899.04,-960.00 L1900.78,-960.00 L1902.53,-960.00 L1904.28,-960.00 L1906.02,-960.00 L1907.77,-960.00 L1909.52,-960.00 L1911.26,-960.00 L1913.01,-960.00 L1914.76,-960.00 L1916.51,-960.00 L1918.25,-960.00 L1920.00,-960.00" style="stroke-width: 25; stroke: rgb(157, 40, 192);" fill="none"/>

    <text text-anchor="middle" font-size="20" dominant-baseline="hanging" stroke="none" fill="rgb(50,50,50)" fill-opacity="1" x="0.49555439714361693" y="490.7042463718274">-6</text>
    <text text-anchor="middle" font-size="20" dominant-baseline="hanging" stroke="none" fill="rgb(50,50,50)" fill-opacity="1" x="74.69555439714361" y="490.7042463718274">-5.5</text>
    <text text-anchor="middle" font-size="20" dominant-baseline="hanging" stroke="none" fill="rgb(50,50,50)" fill-opacity="1" x="148.89555439714363" y="490.7042463718274">-5</text>
    <text text-anchor="middle" font-size="20" dominant-baseline="hanging" stroke="none" fill="rgb(50,50,50)" fill-opacity="1" x="223.09555439714362" y="490.7042463718274">-4.5</text>
    <text text-anchor="middle" font-size="20" dominant-baseline="hanging" stroke="none" fill="rgb(50,50,50)" fill-opacity="1" x="297.29555439714363" y="490.7042463718274">-4</text>
    <text text-anchor="middle" font-size="20" dominant-baseline="hanging" stroke="none" fill="rgb(50,50,50)" fill-opacity="1" x="371.4955543971436" y="490.7042463718274">-3.5</text>
    <text text-anchor="middle" font-size="20" dominant-baseline="hanging" stroke="none" fill="rgb(50,50,50)" fill-opacity="1" x="445.6955543971436" y="490.7042463718274">-3</text>
    <text text-anchor="middle" font-size="20" dominant-baseline="hanging" stroke="none" fill="rgb(50,50,50)" fill-opacity="1" x="519.8955543971435" y="490.7042463718274">-2.5</text>
    <text text-anchor="middle" font-size="20" dominant-baseline="hanging" stroke="none" fill="rgb(50,50,50)" fill-opacity="1" x="594.0955543971435" y="490.7042463718274">-2</text>
    <text text-anchor="middle" font-size="20" dominant-baseline="hanging" stroke="none" fill="rgb(50,50,50)" fill-opacity="1" x="668.2955543971436" y="490.7042463718274">-1.5</text>
    <text text-anchor="middle" font-size="20" dominant-baseline="hanging" stroke="none" fill="rgb(50,50,50)" fill-opacity="1" x="742.4955543971436" y="490.7042463718274">-1</text>
    <text text-anchor="middle" font-size="20" dominant-baseline="hanging" stroke="none" fill="rgb(50,50,50)" fill-opacity="1" x="816.6955543971436" y="490.7042463718274">-0.5</text>
    <text text-anchor="middle" font-size="20" dominant-baseline="hanging" stroke="none" fill="rgb(50,50,50)" fill-opacity="1" x="970.7955543971436" y="490.7042463718274">0.5</text>
    <text text-anchor="middle" font-size="20" dominant-baseline="hanging" stroke="none" fill="rgb(50,50,50)" fill-opacity="1" x="1044.9955543971437" y="490.7042463718274">1</text>
    <text text-anchor="middle" font-size="20" dominant-baseline="hanging" stroke="none" fill="rgb(50,50,50)" fill-opacity="1" x="1119.1955543971437" y="490.7042463718274">1.5</text>
    <text text-anchor="middle" font-size="20" dominant-baseline="hanging" stroke="none" fill="rgb(50,50,50)" fill-opacity="1" x="1193.3955543971435" y="490.7042463718274">2</text>
    <text text-anchor="middle" font-size="20" dominant-baseline="hanging" stroke="none" fill="rgb(50,50,50)" fill-opacity="1" x="1267.5955543971436" y="490.7042463718274">2.5</text>
    <text text-anchor="middle" font-size="20" dominant-baseline="hanging" stroke="none" fill="rgb(50,50,50)" fill-opacity="1" x="1341.7955543971436" y="490.7042463718274">3</text>
    <text text-anchor="middle" font-size="20" dominant-baseline="hanging" stroke="none" fill="rgb(50,50,50)" fill-opacity="1" x="1415.9955543971437" y="490.7042463718274">3.5</text>
    <text text-anchor="middle" font-size="20" dominant-baseline="hanging" stroke="none" fill="rgb(50,50,50)" fill-opacity="1" x="1490.1955543971437" y="490.7042463718274">4</text>
    <text text-anchor="middle" font-size="20" dominant-baseline="hanging" stroke="none" fill="rgb(50,50,50)" fill-opacity="1" x="1564.3955543971435" y="490.7042463718274">4.5</text>
    <text text-anchor="middle" font-size="20" dominant-baseline="hanging" stroke="none" fill="rgb(50,50,50)" fill-opacity="1" x="1638.5955543971436" y="490.7042463718274">5</text>
    <text text-anchor="middle" font-size="20" dominant-baseline="hanging" stroke="none" fill="rgb(50,50,50)" fill-opacity="1" x="1712.7955543971436" y="490.7042463718274">5.5</text>
    <text text-anchor="middle" font-size="20" dominant-baseline="hanging" stroke="none" fill="rgb(50,50,50)" fill-opacity="1" x="1786.9955543971437" y="490.7042463718274">6</text>
    <text text-anchor="middle" font-size="20" dominant-baseline="hanging" stroke="none" fill="rgb(50,50,50)" fill-opacity="1" x="1861.1955543971437" y="490.7042463718274">6.5</text>
    <text text-anchor="middle" font-size="20" dominant-baseline="hanging" stroke="none" fill="rgb(50,50,50)" fill-opacity="1" x="884.5955543971436" y="488.7042463718274">0</text>

    <text text-anchor="end" dominant-baseline="middle" font-size="11" stroke="none" fill="rgb(50,50,50)" fill-opacity="1" x="884.5955543971436" y="959.4042463718274">-9</text>
    <text text-anchor="end" dominant-baseline="middle" font-size="11" stroke="none" fill="rgb(50,50,50)" fill-opacity="1" x="884.5955543971436" y="906.1042463718273">-8</text>
    <text text-anchor="end" dominant-baseline="middle" font-size="11" stroke="none" fill="rgb(50,50,50)" fill-opacity="1" x="884.5955543971436" y="852.8042463718274">-7</text>
    <text text-anchor="end" dominant-baseline="middle" font-size="11" stroke="none" fill="rgb(50,50,50)" fill-opacity="1" x="884.5955543971436" y="799.5042463718274">-6</text>
    <text text-anchor="end" dominant-baseline="middle" font-size="11" stroke="none" fill="rgb(50,50,50)" fill-opacity="1" x="884.5955543971436" y="746.2042463718274">-5</text>
    <text text-anchor="end" dominant-baseline="middle" font-size="11" stroke="none" fill="rgb(50,50,50)" fill-opacity="1" x="884.5955543971436" y="692.9042463718274">-4</text>
    <text text-anchor="end" dominant-baseline="middle" font-size="11" stroke="none" fill="rgb(50,50,50)" fill-opacity="1" x="884.5955543971436" y="639.6042463718275">-3</text>
    <text text-anchor="end" dominant-baseline="middle" font-size="11" stroke="none" fill="rgb(50,50,50)" fill-opacity="1" x="884.5955543971436" y="586.3042463718275">-2</text>
    <text text-anchor="end" dominant-baseline="middle" font-size="11" stroke="none" fill="rgb(50,50,50)" fill-opacity="1" x="884.5955543971436" y="533.0042463718274">-1</text>
    <text text-anchor="end" dominant-baseline="middle" font-size="11" stroke="none" fill="rgb(50,50,50)" fill-opacity="1" x="884.5955543971436" y="426.4042463718274">1</text>
    <text text-anchor="end" dominant-baseline="middle" font-size="11" stroke="none" fill="rgb(50,50,50)" fill-opacity="1" x="884.5955543971436" y="373.10424637182757">2</text>
    <text text-anchor="end" dominant-baseline="middle" font-size="11" stroke="none" fill="rgb(50,50,50)" fill-opacity="1" x="884.5955543971436" y="319.8042463718275">3</text>
    <text text-anchor="end" dominant-baseline="middle" font-size="11" stroke="none" fill="rgb(50,50,50)" fill-opacity="1" x="884.5955543971436" y="266.50424637182743">4</text>
    <text text-anchor="end" dominant-baseline="middle" font-size="11" stroke="none" fill="rgb(50,50,50)" fill-opacity="1" x="884.5955543971436" y="213.20424637182748">5</text>
    <text text-anchor="end" dominant-baseline="middle" font-size="11" stroke="none" fill="rgb(50,50,50)" fill-opacity="1" x="884.5955543971436" y="159.90424637182753">6</text>
    <text text-anchor="end" dominant-baseline="middle" font-size="11" stroke="none" fill="rgb(50,50,50)" fill-opacity="1" x="884.5955543971436" y="106.60424637182746">7</text>
    <text text-anchor="end" dominant-baseline="middle" font-size="11" stroke="none" fill="rgb(50,50,50)" fill-opacity="1" x="884.5955543971436" y="53.30424637182739">8</text>
    <text text-anchor="end" dominant-baseline="middle" font-size="11" stroke="none" fill="rgb(50,50,50)" fill-opacity="1" x="884.5955543971436" y="0.004246371827548501">9</text>
</svg>
