<svg width="1920" height="960"
    xmlns="http://www.w3.org/2000/svg" version="1.1">
    <desc>Example script01 - invoke an ECMAScript function from an onclick event
    </desc>
    <!-- ECMAScript to change the radius with each click -->
    <script type="application/ecmascript">
        <![CDATA[
    function circle_click(evt) {
        Android.showDetail(evt.target.getAttribute("id"));
    }

  ]]>
    </script>
    <path onclick="circle_click(evt)" fill="none" stroke="#000" stroke-width="30" id="svg_1" d="m125.00002,129.1961c4.28572,0 13.89104,1.51498 22.85714,-5.71428c14.96188,-12.06358 27.36765,-23.02068 52.85715,-31.42857c27.67075,-9.1274 57.99632,-17.26155 75.71428,-24.28572c18.4494,-7.31415 20.67322,-12.08395 30,-14.28571c4.17108,-0.98466 8.57144,0 12.85715,0c4.28571,0 8.57144,0 12.85715,0c4.28571,0 12.64462,7.54639 25.71429,24.28571c9.50958,12.17963 18.24536,31.15579 32.85715,51.42857c7.70108,10.68469 10.27963,16.98817 15.71426,27.14287c6.02917,11.26564 12.54446,25.74818 20,32.85713c6.02859,5.74835 10.61261,9.24438 34.28574,12.85715c24.00775,3.66385 48.57141,0 65.71426,0c15.71429,0 30,0 45.71429,0c15.71429,0 29.46588,-1.06403 54.28571,-12.85715c36.42737,-17.30841 67.84973,-30.30211 95.71429,-48.57143c30.83118,-20.21437 63.81891,-42.06934 87.14288,-58.57143c25.2287,-17.84969 35.71423,-22.85715 41.42853,-28.57143l4.28571,-1.42857l1.42859,-2.85715"/>
    <path onclick="circle_click(evt)" fill="none" stroke="#000" stroke-width="10" id="svg_2" d="m150.71428,377.76785c1.42857,1.42859 9.3201,35.85703 17.14287,71.42859c7.88867,35.87125 16.44759,82.96451 24.28571,131.42856c7.87454,48.68927 15.73878,85.08038 22.85715,111.42859c8.17157,30.24658 14.74458,46.47552 18.57143,55.71429c2.31941,5.59955 7.69966,6.1261 12.85715,-1.42859c48.35478,-70.8302 86.38612,-140.54016 125.71428,-204.28571c40.94724,-66.36987 63.36487,-117.43478 82.85715,-152.85715c19.09897,-34.70761 22.39352,-53.82205 31.42856,-62.85715c2.25876,-2.25879 3.44113,1.47028 4.28574,10c2.87109,28.99542 22.93182,102.83069 54.28571,191.42859c34.36761,97.11389 56.78619,176.31372 78.57141,231.42853c11.27515,28.52521 18.55273,53.93872 20,62.85718c0.68646,4.23035 0,8.57141 2.85718,10c2.85712,1.42853 6.27063,2.12415 10,-1.42859c29.58325,-28.18188 65.24976,-89.68243 108.57141,-145.71429c47.25812,-61.12329 78.91107,-115.44586 101.42859,-144.28571c23.21051,-29.72745 39.59338,-53.96643 47.14282,-67.14285c2.24585,-3.91974 4.28571,-8.57144 8.57147,-14.28571l2.85712,-2.85715"/>
    <path onclick="circle_click(evt)" fill="none" stroke="#000" stroke-width="20" id="svg_3" d="m1392.14255,57.76756c-11.42859,-4.28571 -28.57141,-11.42857 -40,-11.42857c-8.57141,0 -17.14282,0 -25.71423,0c-8.57141,0 -17.14294,0 -27.14294,0c-8.57141,0 -13.06714,-1.32535 -17.14282,0c-18.47815,6.00883 -21.54675,13.43623 -25.71423,22.85714c-2.38293,5.38664 -7.14294,20 -7.14294,31.42857c0,8.57143 0,12.85715 0,17.14285c0,4.28572 -1.35522,8.79137 0,12.85715c2.25879,6.77632 7.4115,8.6086 14.28577,12.85715c7.68567,4.75003 18.57141,7.14285 32.85718,7.14285c12.85706,0 22.81287,0.2307 37.14282,2.85715c8.54724,1.56657 12.85718,1.42857 21.42859,1.42857c4.28564,0 7.37976,1.03006 10,2.85713c10.61133,7.39911 22.22595,2.17044 27.14282,5.71429c5.18286,3.73561 12.85718,7.14288 17.14282,11.42857c4.28577,4.28575 9.60571,8.8896 14.28577,14.28572c5.2948,6.10495 12.45056,11.10925 20,24.28571c4.49158,7.83951 8.82141,17.08981 11.42859,30c3.16162,15.65588 2.85718,31.42856 2.85718,40c0,4.28571 1.60181,17.27197 0,27.14285c-1.44727,8.91843 -6.57898,14.54675 -11.42859,24.28571c-5.13403,10.31 -6.45618,15.08316 -10,20c-3.7356,5.18286 -10,14.28574 -12.85718,18.57144c-2.85718,4.28571 -7.22375,9.88217 -11.42859,12.85715c-5.83093,4.12549 -9.10583,13.405 -20,17.14285c-9.55481,3.27832 -15.86707,5.82996 -21.42859,7.14285c-9.32678,2.20175 -16.99731,4.85571 -27.14282,7.14285c-8.47693,1.91098 -18.57141,1.42859 -31.42859,1.42859c-8.57141,0 -18.57141,0 -28.57141,0c-8.57141,0 -12.85718,0 -17.14282,0c-4.28577,0 -12.85718,0 -18.57141,0c-4.28577,0 -8.57153,0 -12.85718,0c-4.28577,0 -13.08582,-8.01404 -15.71436,-18.57144c-4.15613,-16.69266 -5.84961,-32.93054 -7.14282,-44.28571c-2.15662,-18.9371 -4.28564,-25.71429 -4.28564,-30c0,-4.28574 2.02686,-6.31268 4.28564,-8.57144c2.25879,-2.25876 7.14282,-2.85715 12.85718,-5.71429c2.85718,-1.42856 7.14282,-1.42856 15.71423,-1.42856c4.28577,0 8.57141,0 12.85718,0c4.28577,0 8.57141,0 12.85718,0c4.28564,0 8.57141,0 12.85706,0c4.28577,0 12.85718,0 17.14294,0c4.28564,0 7.25757,-1.96631 12.85706,-4.28571c3.95947,-1.64011 6.42517,-2.75113 7.14294,-10c0.8446,-8.52972 -3.33936,-19.01431 -5.71436,-22.85715c-4.24854,-6.87427 -12.17041,-15.08316 -15.71423,-20c-3.7356,-5.18286 -9.52856,-11.5639 -15.71436,-17.14285c-5.3042,-4.78384 -14.40039,-14.82346 -20,-17.14285c-3.95947,-1.64005 -12.52844,-0.78375 -18.57141,-2.85715c-6.89001,-2.36401 -11.42859,-1.42859 -15.71423,-1.42859c-4.28577,0 -12.85718,0 -17.14282,0c-4.28577,0 -8.65906,-0.86169 -12.85718,0c-10.65747,2.18753 -17.771,7.76602 -25.71436,17.14285c-3.9176,4.62457 -7.67419,4.83591 -12.85706,8.57144c-4.91687,3.54388 -7.14294,5.71426 -15.71436,14.28571c-12.85706,12.85712 -17.85583,26.13876 -25.71423,38.57144c-6.56592,10.38788 -7.93982,18.77634 -12.85718,32.85715c-2.53638,7.26294 -5.71423,21.42856 -5.71423,30c0,18.57141 0,32.85715 0,50c0,14.28571 0.13013,28.52911 2.85706,37.14282c4.50159,14.21924 17.45581,30.60541 22.85718,44.28577c6.48926,16.43573 7.25378,23.65424 12.85718,31.42853c3.54382,4.91681 11.87146,11.91077 15.71423,14.28571c5.15576,3.18646 14.78455,8.47253 30,14.28577c5.96802,2.28015 17.37061,8.13708 28.57141,14.28571c14.60413,8.01691 23.71838,9.45691 30,12.85712c14.70496,7.95978 24.4386,8.68713 30,10c9.3269,2.20172 26.63879,5.24872 31.42859,7.14288c8.08069,3.19556 10,4.28571 12.85718,5.71429l5.71423,2.85712"/>
    <path onclick="circle_click(evt)" fill="none" stroke="#000" stroke-width="5" id="svg_4" d="m1160.71432,882.05359c4.28564,0 24.35388,1.92413 51.42859,0c40.30444,-2.86438 82.58667,-11.27026 120,-18.57147c35.4989,-6.92755 55.66565,-12.14209 71.42859,-12.85712c8.56262,-0.38843 12.85706,0 17.14282,0c4.28564,0 7.74121,-0.59839 10,-2.85712c2.25879,-2.25879 8.9314,-8.40076 12.85718,-17.14288c9.45459,-21.05383 14.28284,-34.15234 15.71423,-57.14288c0.97644,-15.68384 0,-32.85712 0,-41.42853c0,-4.28571 2.25317,-9.21155 0,-12.85718c-1.67944,-2.71729 -5.71423,-2.85712 -10,-2.85712c-4.28577,0 -8.57141,0 -17.14282,0c-14.28577,0 -35.15796,2.4425 -61.42859,7.14282c-16.93335,3.02966 -31.70215,6.26007 -51.42859,12.85718c-18.87036,6.31079 -32.72302,15.69653 -54.28577,25.71429c-17.6217,8.18683 -43.73877,11.6098 -54.28564,20c-9.48621,7.54645 -12.85718,11.42853 -15.71436,12.85712c-5.71423,2.85718 -8.76001,3.93622 -14.28564,7.14288c-4.45496,2.58533 -5.67358,5.79883 -8.57141,7.14282c-9.86975,4.57758 -12.17041,7.94031 -15.71436,12.85718c-1.8678,2.59137 -3.46106,7.7829 -5.71423,11.42853c-1.67944,2.71735 -6.31262,6.31268 -8.57141,8.57147c-2.25879,2.25879 -6.45618,2.22601 -10,7.14282c-1.8678,2.59143 -5.02759,3.6546 -8.57141,8.57147c-1.8678,2.59143 0.59827,4.88409 2.85706,7.14282c2.25879,2.25879 4.03394,4.98035 7.14294,5.71429c2.78064,0.65643 6.31262,0.59833 8.57141,2.85712c2.25867,2.25873 7.14282,1.42859 11.42859,1.42859c4.28564,0 8.78894,-1.09332 11.42847,0c1.86658,0.77313 2.85718,2.85718 4.28577,4.28571l1.42859,1.42859"/>

</svg>