<svg xmlns="http://www.w3.org/2000/svg" xmlns:xlink="http://www.w3.org/1999/xlink" x="0" y="0" width="1922.2222900390625" height="964.0798950195312" style="
        width:1922.2222900390625px;
        height:964.0798950195312px;
        background: #FFF;
        fill: none;
">
<script type="application/ecmascript"> <![CDATA[
    function onClickEvent(evt) {
        Android.showDetail(evt.target.getAttribute("id"));
    }
  ]]> </script>
    <g class="composite-shape" data-amt="diagram/shapes/plot">
    <path onclick="onClickEvent(evt)" id="4-5-1-line-1" d=" M0.00,261.38 L0.31,261.38 L0.61,261.38 L0.92,261.38 L1.22,261.38 L1.53,261.38 L1.83,261.38 L2.14,261.38 L2.44,261.38 L2.75,261.38 L3.05,261.38 L3.36,261.38 L3.66,261.38 L3.97,261.38 L4.28,261.38 L4.58,261.38 L4.89,261.38 L5.19,261.38 L5.50,261.38 L5.80,261.38 L6.11,261.38 L6.41,261.38 L6.72,261.38 L7.02,261.38 L7.33,261.38 L7.63,261.38 L7.94,261.38 L8.24,261.38 L8.55,261.38 L8.86,261.38 L9.16,261.38 L9.47,261.38 L9.77,261.38 L10.08,261.38 L10.38,261.38 L10.69,261.38 L10.99,261.38 L11.30,261.38 L11.60,261.38 L11.91,261.38 L12.21,261.38 L12.52,261.38 L12.83,261.38 L13.13,261.38 L13.44,261.38 L13.74,261.38 L14.05,261.38 L14.35,261.38 L14.66,261.38 L14.96,261.38 L15.27,261.38 L15.57,261.38 L15.88,261.38 L16.18,261.38 L16.49,261.38 L16.80,261.38 L17.10,261.38 L17.41,261.38 L17.71,261.38 L18.02,261.38 L18.32,261.38 L18.63,261.38 L18.93,261.38 L19.24,261.38 L19.54,261.38 L19.85,261.38 L20.15,261.38 L20.46,261.38 L20.77,261.38 L21.07,261.38 L21.38,261.38 L21.68,261.38 L21.99,261.38 L22.29,261.38 L22.60,261.38 L22.90,261.38 L23.21,261.38 L23.51,261.38 L23.82,261.38 L24.12,261.38 L24.43,261.38 L24.73,261.38 L25.04,261.38 L25.35,261.38 L25.65,261.38 L25.96,261.38 L26.26,261.38 L26.57,261.38 L26.87,261.38 L27.18,261.38 L27.48,261.38 L27.79,261.38 L28.09,261.38 L28.40,261.38 L28.70,261.38 L29.01,261.38 L29.32,261.38 L29.62,261.38 L29.93,261.38 L30.23,261.38 L30.54,261.38 L30.84,261.38 L31.15,261.38 L31.45,261.38 L31.76,261.38 L32.06,261.38 L32.37,261.38 L32.67,261.38 L32.98,261.38 L33.29,261.38 L33.59,261.38 L33.90,261.38 L34.20,261.38 L34.51,261.38 L34.81,261.38 L35.12,261.38 L35.42,261.38 L35.73,261.38 L36.03,261.38 L36.34,261.38 L36.64,261.38 L36.95,261.38 L37.26,261.38 L37.56,261.38 L37.87,261.38 L38.17,261.38 L38.48,261.38 L38.78,261.38 L39.09,261.38 L39.39,261.38 L39.70,261.38 L40.00,261.38 L40.31,261.38 L40.61,261.38 L40.92,261.38 L41.22,261.38 L41.53,261.38 L41.84,261.38 L42.14,261.38 L42.45,261.38 L42.75,261.38 L43.06,261.38 L43.36,261.38 L43.67,261.38 L43.97,261.38 L44.28,261.38 L44.58,261.38 L44.89,261.38 L45.19,261.38 L45.50,261.38 L45.81,261.38 L46.11,261.38 L46.42,261.38 L46.72,261.38 L47.03,261.38 L47.33,261.38 L47.64,261.38 L47.94,261.38 L48.25,261.38 L48.55,261.38 L48.86,261.38 L49.16,261.38 L49.47,261.38 L49.78,261.38 L50.08,261.38 L50.39,261.38 L50.69,261.38 L51.00,261.38 L51.30,261.38 L51.61,261.38 L51.91,261.38 L52.22,261.38 L52.52,261.38 L52.83,261.38 L53.13,261.38 L53.44,261.38 L53.75,261.38 L54.05,261.38 L54.36,261.38 L54.66,261.38 L54.97,261.38 L55.27,261.38 L55.58,261.38 L55.88,261.38 L56.19,261.38 L56.49,261.38 L56.80,261.38 L57.10,261.38 L57.41,261.38 L57.71,261.38 L58.02,261.38 L58.33,261.38 L58.63,261.38 L58.94,261.38 L59.24,261.38 L59.55,261.38 L59.85,261.38 L60.16,261.38 L60.46,261.38 L60.77,261.38 L61.07,261.38 L61.38,261.38 L61.68,261.38 L61.99,261.38 L62.30,261.38 L62.60,261.38 L62.91,261.38 L63.21,261.38 L63.52,261.38 L63.82,261.38 L64.13,261.38 L64.43,261.38 L64.74,261.38 L65.04,261.38 L65.35,261.38 L65.65,261.38 L65.96,261.38 L66.27,261.38 L66.57,261.38 L66.88,261.38 L67.18,261.38 L67.49,261.38 L67.79,261.38 L68.10,261.38 L68.40,261.38 L68.71,261.38 L69.01,261.38 L69.32,261.38 L69.62,261.38 L69.93,261.38 L70.24,261.38 L70.54,261.38 L70.85,261.38 L71.15,261.38 L71.46,261.38 L71.76,261.38 L72.07,261.38 L72.37,261.38 L72.68,261.38 L72.98,261.38 L73.29,261.38 L73.59,261.38 L73.90,261.38 L74.20,261.38 L74.51,261.38 L74.82,261.38 L75.12,261.38 L75.43,261.38 L75.73,261.38 L76.04,261.38 L76.34,261.38 L76.65,261.38 L76.95,261.38 L77.26,261.38 L77.56,261.38 L77.87,261.38 L78.17,261.38 L78.48,261.38 L78.79,261.38 L79.09,261.38 L79.40,261.38 L79.70,261.38 L80.01,261.38 L80.31,261.38 L80.62,261.38 L80.92,261.38 L81.23,261.38 L81.53,261.38 L81.84,261.38 L82.14,261.38 L82.45,261.38 L82.76,261.38 L83.06,261.38 L83.37,261.38 L83.67,261.38 L83.98,261.38 L84.28,261.38 L84.59,261.38 L84.89,261.38 L85.20,261.38 L85.50,261.38 L85.81,261.38 L86.11,261.38 L86.42,261.38 L86.73,261.38 L87.03,261.38 L87.34,261.38 L87.64,261.38 L87.95,261.38 L88.25,261.38 L88.56,261.38 L88.86,261.38 L89.17,261.38 L89.47,261.38 L89.78,261.38 L90.08,261.38 L90.39,261.38 L90.69,261.38 L91.00,261.38 L91.31,261.38 L91.61,261.38 L91.92,261.38 L92.22,261.38 L92.53,261.38 L92.83,261.38 L93.14,261.38 L93.44,261.38 L93.75,261.38 L94.05,261.38 L94.36,261.38 L94.66,261.38 L94.97,261.38 L95.28,261.38 L95.58,261.38 L95.89,261.38 L96.19,261.38 L96.50,261.38 L96.80,261.38 L97.11,261.38 L97.41,261.38 L97.72,261.38 L98.02,261.38 L98.33,261.38 L98.63,261.38 L98.94,261.38 L99.25,261.38 L99.55,261.38 L99.86,261.38 L100.16,261.38 L100.47,261.38 L100.77,261.38 L101.08,261.38 L101.38,261.38 L101.69,261.38 L101.99,261.38 L102.30,261.38 L102.60,261.38 L102.91,261.38 L103.22,261.38 L103.52,261.38 L103.83,261.38 L104.13,261.38 L104.44,261.38 L104.74,261.38 L105.05,261.38 L105.35,261.38 L105.66,261.38 L105.96,261.38 L106.27,261.38 L106.57,261.38 L106.88,261.38 L107.18,261.38 L107.49,261.38 L107.80,261.38 L108.10,261.38 L108.41,261.38 L108.71,261.38 L109.02,261.38 L109.32,261.38 L109.63,261.38 L109.93,261.38 L110.24,261.38 L110.54,261.38 L110.85,261.38 L111.15,261.38 L111.46,261.38 L111.77,261.38 L112.07,261.38 L112.38,261.38 L112.68,261.38 L112.99,261.38 L113.29,261.38 L113.60,261.38 L113.90,261.38 L114.21,261.38 L114.51,261.38 L114.82,261.38 L115.12,261.38 L115.43,261.38 L115.74,261.38 L116.04,261.38 L116.35,261.38 L116.65,261.38 L116.96,261.38 L117.26,261.38 L117.57,261.38 L117.87,261.38 L118.18,261.38 L118.48,261.38 L118.79,261.38 L119.09,261.38 L119.40,261.38 L119.71,261.38 L120.01,261.38 L120.32,261.38 L120.62,261.38 L120.93,261.38 L121.23,261.38 L121.54,261.38 L121.84,261.38 L122.15,261.38 L122.45,261.38 L122.76,261.38 L123.06,261.38 L123.37,261.38 L123.67,261.38 L123.98,261.38 L124.29,261.38 L124.59,261.38 L124.90,261.38 L125.20,261.38 L125.51,261.38 L125.81,261.38 L126.12,261.38 L126.42,261.38 L126.73,261.38 L127.03,261.38 L127.34,261.38 L127.64,261.38 L127.95,261.38 L128.26,261.38 L128.56,261.38 L128.87,261.38 L129.17,261.38 L129.48,261.38 L129.78,261.38 L130.09,261.38 L130.39,261.38 L130.70,261.38 L131.00,261.38 L131.31,261.38 L131.61,261.38 L131.92,261.38 L132.23,261.38 L132.53,261.38 L132.84,261.38 L133.14,261.38 L133.45,261.38 L133.75,261.38 L134.06,261.38 L134.36,261.38 L134.67,261.38 L134.97,261.38 L135.28,261.38 L135.58,261.38 L135.89,261.38 L136.20,261.38 L136.50,261.38 L136.81,261.38 L137.11,261.38 L137.42,261.38 L137.72,261.38 L138.03,261.38 L138.33,261.38 L138.64,261.38 L138.94,261.38 L139.25,261.38 L139.55,261.38 L139.86,261.38 L140.16,261.38 L140.47,261.38 L140.78,261.38 L141.08,261.38 L141.39,261.38 L141.69,261.38 L142.00,261.38 L142.30,261.38 L142.61,261.38 L142.91,261.38 L143.22,261.38 L143.52,261.38 L143.83,261.38 L144.13,261.38 L144.44,261.38 L144.75,261.38 L145.05,261.38 L145.36,261.38 L145.66,261.38 L145.97,261.38 L146.27,261.38 L146.58,261.38 L146.88,261.38 L147.19,261.38 L147.49,261.38 L147.80,261.38 L148.10,261.38 L148.41,261.38 L148.72,261.38 L149.02,261.38 L149.33,261.38 L149.63,261.38 L149.94,261.38 L150.24,261.38 L150.55,261.38 L150.85,261.38 L151.16,261.38 L151.46,261.38 L151.77,261.38 L152.07,261.38 L152.38,261.38 L152.69,261.38 L152.99,261.38 L153.30,261.38 L153.60,261.38 L153.91,261.38 L154.21,261.38 L154.52,261.38 L154.82,261.38 L155.13,261.38 L155.43,261.38 L155.74,261.38 L156.04,261.38 L156.35,261.38 L156.65,261.38 L156.96,261.38 L157.27,261.38 L157.57,261.38 L157.88,261.38 L158.18,261.38 L158.49,261.38 L158.79,261.38 L159.10,261.38 L159.40,261.38 L159.71,261.38 L160.01,261.38 L160.32,261.38 L160.62,261.38 L160.93,261.38 L161.24,261.38 L161.54,261.38 L161.85,261.38 L162.15,261.38 L162.46,261.38 L162.76,261.38 L163.07,261.38 L163.37,261.38 L163.68,261.38 L163.98,261.38 L164.29,261.38 L164.59,261.38 L164.90,261.38 L165.21,261.38 L165.51,261.38 L165.82,261.38 L166.12,261.38 L166.43,261.38 L166.73,261.38 L167.04,261.38 L167.34,261.38 L167.65,261.38 L167.95,261.38 L168.26,261.38 L168.56,261.38 L168.87,261.38 L169.18,261.38 L169.48,261.38 L169.79,261.38 L170.09,261.38 L170.40,261.38 L170.70,261.38 L171.01,261.38 L171.31,261.38 L171.62,261.38 L171.92,261.38 L172.23,261.38 L172.53,261.38 L172.84,261.38 L173.14,261.38 L173.45,261.38 L173.76,261.38 L174.06,261.38 L174.37,261.38 L174.67,261.38 L174.98,261.38 L175.28,261.38 L175.59,261.38 L175.89,261.38 L176.20,261.38 L176.50,261.38 L176.81,261.38 L177.11,261.38 L177.42,261.38 L177.73,261.38 L178.03,261.38 L178.34,261.38 L178.64,261.38 L178.95,261.38 L179.25,261.38 L179.56,261.38 L179.86,261.38 L180.17,261.38 L180.47,261.38 L180.78,261.38 L181.08,261.38 L181.39,261.38 L181.70,261.38 L182.00,261.38 L182.31,261.38 L182.61,261.38 L182.92,261.38 L183.22,261.38 L183.53,261.38 L183.83,261.38 L184.14,261.38 L184.44,261.38 L184.75,261.38 L185.05,261.38 L185.36,261.38 L185.67,261.38 L185.97,261.38 L186.28,261.38 L186.58,261.38 L186.89,261.38 L187.19,261.38 L187.50,261.38 L187.80,261.38 L188.11,261.38 L188.41,261.38 L188.72,261.38 L189.02,261.38 L189.33,261.38 L189.63,261.38 L189.94,261.38 L190.25,261.38 L190.55,261.38 L190.86,261.38 L191.16,261.38 L191.47,261.38 L191.77,261.38 L192.08,261.38 L192.38,261.38 L192.69,261.38 L192.99,261.38 L193.30,261.38 L193.60,261.38 L193.91,261.38 L194.22,261.38 L194.52,261.38 L194.83,261.38 L195.13,261.38 L195.44,261.38 L195.74,261.38 L196.05,261.38 L196.35,261.38 L196.66,261.38 L196.96,261.38 L197.27,261.38 L197.57,261.38 L197.88,261.38 L198.19,261.38 L198.49,261.38 L198.80,261.38 L199.10,261.38 L199.41,261.38 L199.71,261.38 L200.02,261.38 L200.32,261.38 L200.63,261.38 L200.93,261.38 L201.24,261.38 L201.54,261.38 L201.85,261.38 L202.16,261.38 L202.46,261.38 L202.77,261.38 L203.07,261.38 L203.38,261.38 L203.68,261.38 L203.99,261.38 L204.29,261.38 L204.60,261.38 L204.90,261.38 L205.21,261.38 L205.51,261.38 L205.82,261.38 L206.12,261.38 L206.43,261.38 L206.74,261.38 L207.04,261.38 L207.35,261.38 L207.65,261.38 L207.96,261.38 L208.26,261.38 L208.57,261.38 L208.87,261.38 L209.18,261.38 L209.48,261.38 L209.79,261.38 L210.09,261.38 L210.40,261.38 L210.71,261.38 L211.01,261.38 L211.32,261.38 L211.62,261.38 L211.93,261.38 L212.23,261.38 L212.54,261.38 L212.84,261.38 L213.15,261.38 L213.45,261.38 L213.76,261.38 L214.06,261.38 L214.37,261.38 L214.68,261.38 L214.98,261.38 L215.29,261.38 L215.59,261.38 L215.90,261.38 L216.20,261.38 L216.51,261.38 L216.81,261.38 L217.12,261.38 L217.42,261.38 L217.73,261.38 L218.03,261.38 L218.34,261.38 L218.65,261.38 L218.95,261.38 L219.26,261.38 L219.56,261.38 L219.87,261.38 L220.17,261.38 L220.48,261.38 L220.78,261.38 L221.09,261.38 L221.39,261.38 L221.70,261.38 L222.00,261.38 L222.31,261.38 L222.61,261.38 L222.92,261.38 L223.23,261.38 L223.53,261.38 L223.84,261.38 L224.14,261.38 L224.45,261.38 L224.75,261.38 L225.06,261.38 L225.36,261.38 L225.67,261.38 L225.97,261.38 L226.28,261.38 L226.58,261.38 L226.89,261.38 L227.20,261.38 L227.50,261.38 L227.81,261.38 L228.11,261.38 L228.42,261.38 L228.72,261.38 L229.03,261.38 L229.33,261.38 L229.64,261.38 L229.94,261.38 L230.25,261.38 L230.55,261.38 L230.86,261.38 L231.17,261.38 L231.47,261.38 L231.78,261.38 L232.08,261.38 L232.39,261.38 L232.69,261.38 L233.00,261.38 L233.30,261.38 L233.61,261.38 L233.91,261.38 L234.22,261.38 L234.52,261.38 L234.83,261.38 L235.14,261.38 L235.44,261.38 L235.75,261.38 L236.05,261.38 L236.36,261.38 L236.66,261.38 L236.97,261.38 L237.27,261.38 L237.58,261.38 L237.88,261.38 L238.19,261.38 L238.49,261.38 L238.80,261.38 L239.10,261.38 L239.41,261.38 L239.72,261.38 L240.02,261.38 L240.33,261.38 L240.63,261.38 L240.94,261.38 L241.24,261.38 L241.55,261.38 L241.85,261.38 L242.16,261.38 L242.46,261.38 L242.77,261.38 L243.07,261.38 L243.38,261.38 L243.69,261.38 L243.99,261.38 L244.30,261.38 L244.60,261.38 L244.91,261.38 L245.21,261.38 L245.52,261.38 L245.82,261.38 L246.13,261.38 L246.43,261.38 L246.74,261.38 L247.04,261.38 L247.35,261.38 L247.66,261.38 L247.96,261.38 L248.27,261.38 L248.57,261.38 L248.88,261.38 L249.18,261.38 L249.49,261.38 L249.79,261.38 L250.10,261.38 L250.40,261.38 L250.71,261.38 L251.01,261.38 L251.32,261.38 L251.63,261.38 L251.93,261.38 L252.24,261.38 L252.54,261.38 L252.85,261.38 L253.15,261.38 L253.46,261.38 L253.76,261.38 L254.07,261.38 L254.37,261.38 L254.68,261.38 L254.98,261.38 L255.29,261.38 L255.59,261.38 L255.90,261.38 L256.21,261.38 L256.51,261.38 L256.82,261.38 L257.12,261.38 L257.43,261.38 L257.73,261.38 L258.04,261.38 L258.34,261.38 L258.65,261.38 L258.95,261.38 L259.26,261.38 L259.56,261.38 L259.87,261.38 L260.18,261.38 L260.48,261.38 L260.79,261.38 L261.09,261.38 L261.40,261.38 L261.70,261.38 L262.01,261.38 L262.31,261.38 L262.62,261.38 L262.92,261.38 L263.23,261.38 L263.53,261.38 L263.84,261.38 L264.15,261.38 L264.45,261.38 L264.76,261.38 L265.06,261.38 L265.37,261.38 L265.67,261.38 L265.98,261.38 L266.28,261.38 L266.59,261.38 L266.89,261.38 L267.20,261.38 L267.50,261.38 L267.81,261.38 L268.12,261.38 L268.42,261.38 L268.73,261.38 L269.03,261.38 L269.34,261.38 L269.64,261.38 L269.95,261.38 L270.25,261.38 L270.56,261.38 L270.86,261.38 L271.17,261.38 L271.47,261.38 L271.78,261.38 L272.08,261.38 L272.39,261.38 L272.70,261.38 L273.00,261.38 L273.31,261.38 L273.61,261.38 L273.92,261.38 L274.22,261.38 L274.53,261.38 L274.83,261.38 L275.14,261.38 L275.44,261.38 L275.75,261.38 L276.05,261.38 L276.36,261.38 L276.67,261.38 L276.97,261.38 L277.28,261.38 L277.58,261.38 L277.89,261.38 L278.19,261.38 L278.50,261.38 L278.80,261.38 L279.11,261.38 L279.41,261.38 L279.72,261.38 L280.02,261.38 L280.33,261.38 L280.64,261.38 L280.94,261.38 L281.25,261.38 L281.55,261.38 L281.86,261.38 L282.16,261.38 L282.47,261.38 L282.77,261.38 L283.08,261.38 L283.38,261.38 L283.69,261.38 L283.99,261.38 L284.30,261.38 L284.61,261.38 L284.91,261.38 L285.22,261.38 L285.52,261.38 L285.83,261.38 L286.13,261.38 L286.44,261.38 L286.74,261.38 L287.05,261.38 L287.35,261.38 L287.66,261.38 L287.96,261.38 L288.27,261.38 L288.57,261.38 L288.88,261.38 L289.19,261.38 L289.49,261.38 L289.80,261.38 L290.10,261.38 L290.41,261.38 L290.71,261.38 L291.02,261.38 L291.32,261.38 L291.63,261.38 L291.93,261.38 L292.24,261.38 L292.54,261.38 L292.85,261.38 L293.16,261.38 L293.46,261.38 L293.77,261.38 L294.07,261.38 L294.38,261.38 L294.68,261.38 L294.99,261.38 L295.29,261.38 L295.60,261.38 L295.90,261.38 L296.21,261.38 L296.51,261.38 L296.82,261.38 L297.13,261.38 L297.43,261.38 L297.74,261.38 L298.04,261.38 L298.35,261.38 L298.65,261.38 L298.96,261.38 L299.26,261.38 L299.57,261.38 L299.87,261.38 L300.18,261.38 L300.48,261.38 L300.79,261.38 L301.10,261.38 L301.40,261.38 L301.71,261.38 L302.01,261.38 L302.32,261.38 L302.62,261.38 L302.93,261.38 L303.23,261.38 L303.54,261.38 L303.84,261.38 L304.15,261.38 L304.45,261.38 L304.76,261.38 L305.06,261.38 L305.37,261.38 L305.68,261.38 L305.98,261.38 L306.29,261.38 L306.59,261.38 L306.90,261.38 L307.20,261.38 L307.51,261.38 L307.81,261.38 L308.12,261.38 L308.42,261.38 L308.73,261.38 L309.03,261.38 L309.34,261.38 L309.65,261.38 L309.95,261.38 L310.26,261.38 L310.56,261.38 L310.87,261.38 L311.17,261.38 L311.48,261.38 L311.78,261.38 L312.09,261.38 L312.39,261.38 L312.70,261.38 L313.00,261.38 L313.31,261.38 L313.62,261.38 L313.92,261.38 L314.23,261.38 L314.53,261.38 L314.84,261.38 L315.14,261.38 L315.45,261.38 L315.75,261.38 L316.06,261.38 L316.36,261.38 L316.67,261.38 L316.97,261.38 L317.28,261.38 L317.59,261.38 L317.89,261.38 L318.20,261.38 L318.50,261.38 L318.81,261.38 L319.11,261.38 L319.42,261.38 L319.72,261.38 L320.03,261.38 L320.33,261.38 L320.64,261.38 L320.94,261.38 L321.25,261.38 L321.55,261.38 L321.86,261.38 L322.17,261.38 L322.47,261.38 L322.78,261.38 L323.08,261.38 L323.39,261.38 L323.69,261.38 L324.00,261.38 L324.30,261.38 L324.61,261.38 L324.91,261.38 L325.22,261.38 L325.52,261.38 L325.83,261.38 L326.14,261.38 L326.44,261.38 L326.75,261.38 L327.05,261.38 L327.36,261.38 L327.66,261.38 L327.97,261.38 L328.27,261.38 L328.58,261.38 L328.88,261.38 L329.19,261.38 L329.49,261.38 L329.80,261.38 L330.11,261.38 L330.41,261.38 L330.72,261.38 L331.02,261.38 L331.33,261.38 L331.63,261.38 L331.94,261.38 L332.24,261.38 L332.55,261.38 L332.85,261.38 L333.16,261.38 L333.46,261.38 L333.77,261.38 L334.08,261.38 L334.38,261.38 L334.69,261.38 L334.99,261.38 L335.30,261.38 L335.60,261.38" style="stroke-width: 28; stroke: rgb(74, 144, 226); stroke-opacity: 0.8;"/>
    <circle onclick="onClickEvent(evt)" id="4-5-1-point-1" cx="335.6019115970896" cy="261.3772711329889" r="15" style="stroke-width: 30; stroke: rgb(74, 144, 226); stroke-opacity: 1"  fill="rgb(60, 180, 75)"/>
    <path onclick="onClickEvent(evt)" id="4-5-1-line-2" d=" M360.14,664.67 L389.49,664.67 L389.93,664.67 L390.36,664.67 L390.80,664.67 L391.24,664.67 L391.68,664.67 L392.12,664.67 L392.56,664.67 L393.00,664.67 L393.44,664.67 L393.88,664.67 L394.32,664.67 L394.76,664.67 L395.20,664.67 L395.64,664.67 L396.08,664.67 L396.52,664.67 L396.96,664.67 L397.39,664.67 L397.83,664.67 L398.27,664.67 L398.71,664.67 L399.15,664.67 L399.59,664.67 L400.03,664.67 L400.47,664.67 L400.91,664.67 L401.35,664.67 L401.79,664.67 L402.23,664.67 L402.67,664.67 L403.11,664.67 L403.55,664.67 L403.98,664.67 L404.42,664.67 L404.86,664.67 L405.30,664.67 L405.74,664.67 L406.18,664.67 L406.62,664.67 L407.06,664.67 L407.50,664.67 L407.94,664.67 L408.38,664.67 L408.82,664.67 L409.26,664.67 L409.70,664.67 L410.14,664.67 L410.58,664.67 L411.01,664.67 L411.45,664.67 L411.89,664.67 L412.33,664.67 L412.77,664.67 L413.21,664.67 L413.65,664.67 L414.09,664.67 L414.53,664.67 L414.97,664.67 L415.41,664.67 L415.85,664.67 L416.29,664.67 L416.73,664.67 L417.17,664.67 L417.61,664.67 L418.04,664.67 L418.48,664.67 L418.92,664.67 L419.36,664.67 L419.80,664.67 L420.24,664.67 L420.68,664.67 L421.12,664.67 L421.56,664.67 L422.00,664.67 L422.44,664.67 L422.88,664.67 L423.32,664.67 L423.76,664.67 L424.20,664.67 L424.63,664.67 L425.07,664.67 L425.51,664.67 L425.95,664.67 L426.39,664.67 L426.83,664.67 L427.27,664.67 L427.71,664.67 L428.15,664.67 L428.59,664.67 L429.03,664.67 L429.47,664.67 L429.91,664.67 L430.35,664.67 L430.79,664.67 L431.23,664.67 L431.66,664.67 L432.10,664.67 L432.54,664.67 L432.98,664.67 L433.42,664.67 L433.86,664.67 L434.30,664.67 L434.74,664.67 L435.18,664.67 L435.62,664.67 L436.06,664.67 L436.50,664.67 L436.94,664.67 L437.38,664.67 L437.82,664.67 L438.26,664.67 L438.69,664.67 L439.13,664.67 L439.57,664.67 L440.01,664.67 L440.45,664.67 L440.89,664.67 L441.33,664.67 L441.77,664.67 L442.21,664.67 L442.65,664.67 L443.09,664.67 L443.53,664.67 L443.97,664.67 L444.41,664.67 L444.85,664.67 L445.28,664.67 L445.72,664.67 L446.16,664.67 L446.60,664.67 L447.04,664.67 L447.48,664.67 L447.92,664.67 L448.36,664.67 L448.80,664.67 L449.24,664.67 L449.68,664.67 L450.12,664.67 L450.56,664.67 L451.00,664.67 L451.44,664.67 L451.88,664.67 L452.31,664.67 L452.75,664.67 L453.19,664.67 L453.63,664.67 L454.07,664.67 L454.51,664.67 L454.95,664.67 L455.39,664.67 L455.83,664.67 L456.27,664.67 L456.71,664.67 L457.15,664.67 L457.59,664.67 L458.03,664.67 L458.47,664.67 L458.91,664.67 L459.34,664.67 L459.78,664.67 L460.22,664.67 L460.66,664.67 L461.10,664.67 L461.54,664.67 L461.98,664.67 L462.42,664.67 L462.86,664.67 L463.30,664.67 L463.74,664.67 L464.18,664.67 L464.62,664.67 L465.06,664.67 L465.50,664.67 L465.94,664.67 L466.37,664.67 L466.81,664.67 L467.25,664.67 L467.69,664.67 L468.13,664.67 L468.57,664.67 L469.01,664.67 L469.45,664.67 L469.89,664.67 L470.33,664.67 L470.77,664.67 L471.21,664.67 L471.65,664.67 L472.09,664.67 L472.53,664.67 L472.96,664.67 L473.40,664.67 L473.84,664.67 L474.28,664.67 L474.72,664.67 L475.16,664.67 L475.60,664.67 L476.04,664.67 L476.48,664.67 L476.92,664.67 L477.36,664.67 L477.80,664.67 L478.24,664.67 L478.68,664.67 L479.12,664.67 L479.56,664.67 L479.99,664.67 L480.43,664.67 L480.87,664.67 L481.31,664.67 L481.75,664.67 L482.19,664.67 L482.63,664.67 L483.07,664.67 L483.51,664.67 L483.95,664.67 L484.39,664.67 L484.83,664.67 L485.27,664.67 L485.71,664.67 L486.15,664.67 L486.59,664.67 L487.02,664.67 L487.46,664.67 L487.90,664.67 L488.34,664.67 L488.78,664.67 L489.22,664.67 L489.66,664.67 L490.10,664.67 L490.54,664.67 L490.98,664.67 L491.42,664.67 L491.86,664.67 L492.30,664.67 L492.74,664.67 L493.18,664.67 L493.61,664.67 L494.05,664.67 L494.49,664.67 L494.93,664.67 L495.37,664.67 L495.81,664.67 L496.25,664.67 L496.69,664.67 L497.13,664.67 L497.57,664.67 L498.01,664.67 L498.45,664.67 L498.89,664.67 L499.33,664.67 L499.77,664.67 L500.21,664.67 L500.64,664.67 L501.08,664.67 L501.52,664.67 L501.96,664.67 L502.40,664.67 L502.84,664.67 L503.28,664.67 L503.72,664.67 L504.16,664.67 L504.60,664.67 L505.04,664.67 L505.48,664.67 L505.92,664.67 L506.36,664.67 L506.80,664.67 L507.24,664.67 L507.67,664.67 L508.11,664.67 L508.55,664.67 L508.99,664.67 L509.43,664.67 L509.87,664.67 L510.31,664.67 L510.75,664.67 L511.19,664.67 L511.63,664.67 L512.07,664.67 L512.51,664.67 L512.95,664.67 L513.39,664.67 L513.83,664.67 L514.26,664.67 L514.70,664.67 L515.14,664.67 L515.58,664.67 L516.02,664.67 L516.46,664.67 L516.90,664.67 L517.34,664.67 L517.78,664.67 L518.22,664.67 L518.66,664.67 L519.10,664.67 L519.54,664.67 L519.98,664.67 L520.42,664.67 L520.86,664.67 L521.29,664.67 L521.73,664.67 L522.17,664.67 L522.61,664.67 L523.05,664.67 L523.49,664.67 L523.93,664.67 L524.37,664.67 L524.81,664.67 L525.25,664.67 L525.69,664.67 L526.13,664.67 L526.57,664.67 L527.01,664.67 L527.45,664.67 L527.89,664.67 L528.32,664.67 L528.76,664.67 L529.20,664.67 L529.64,664.67 L530.08,664.67 L530.52,664.67 L530.96,664.67 L531.40,664.67 L531.84,664.67 L532.28,664.67 L532.72,664.67 L533.16,664.67 L533.60,664.67 L534.04,664.67 L534.48,664.67 L534.92,664.67 L535.35,664.67 L535.79,664.67 L536.23,664.67 L536.67,664.67 L537.11,664.67 L537.55,664.67 L537.99,664.67 L538.43,664.67 L538.87,664.67 L539.31,664.67 L539.75,664.67 L540.19,664.67 L540.63,664.67 L541.07,664.67 L541.51,664.67 L541.94,664.67 L542.38,664.67 L542.82,664.67 L543.26,664.67 L543.70,664.67 L544.14,664.67 L544.58,664.67 L545.02,664.67 L545.46,664.67 L545.90,664.67 L546.34,664.67 L546.78,664.67 L547.22,664.67 L547.66,664.67 L548.10,664.67 L548.54,664.67 L548.97,664.67 L549.41,664.67 L549.85,664.67 L550.29,664.67 L550.73,664.67 L551.17,664.67 L551.61,664.67 L552.05,664.67 L552.49,664.67 L552.93,664.67 L553.37,664.67 L553.81,664.67 L554.25,664.67 L554.69,664.67 L555.13,664.67 L555.57,664.67 L556.00,664.67 L556.44,664.67 L556.88,664.67 L557.32,664.67 L557.76,664.67 L558.20,664.67 L558.64,664.67 L559.08,664.67 L559.52,664.67 L559.96,664.67 L560.40,664.67 L560.84,664.67 L561.28,664.67 L561.72,664.67 L562.16,664.67 L562.59,664.67 L563.03,664.67 L563.47,664.67 L563.91,664.67 L564.35,664.67 L564.79,664.67 L565.23,664.67 L565.67,664.67 L566.11,664.67 L566.55,664.67 L566.99,664.67 L567.43,664.67 L567.87,664.67 L568.31,664.67 L568.75,664.67 L569.19,664.67 L569.62,664.67 L570.06,664.67 L570.50,664.67 L570.94,664.67 L571.38,664.67 L571.82,664.67 L572.26,664.67 L572.70,664.67 L573.14,664.67 L573.58,664.67 L574.02,664.67 L574.46,664.67 L574.90,664.67 L575.34,664.67 L575.78,664.67 L576.22,664.67 L576.65,664.67 L577.09,664.67 L577.53,664.67 L577.97,664.67 L578.41,664.67 L578.85,664.67 L579.29,664.67 L579.73,664.67 L580.17,664.67 L580.61,664.67 L581.05,664.67 L581.49,664.67 L581.93,664.67 L582.37,664.67 L582.81,664.67 L583.24,664.67 L583.68,664.67 L584.12,664.67 L584.56,664.67 L585.00,664.67 L585.44,664.67 L585.88,664.67 L586.32,664.67 L586.76,664.67 L587.20,664.67 L587.64,664.67 L588.08,664.67 L588.52,664.67 L588.96,664.67 L589.40,664.67 L589.84,664.67 L590.27,664.67 L590.71,664.67 L591.15,664.67 L591.59,664.67 L592.03,664.67 L592.47,664.67 L592.91,664.67 L593.35,664.67 L593.79,664.67 L594.23,664.67 L594.67,664.67 L595.11,664.67 L595.55,664.67 L595.99,664.67 L596.43,664.67 L596.87,664.67 L597.30,664.67 L597.74,664.67 L598.18,664.67 L598.62,664.67 L599.06,664.67 L599.50,664.67 L599.94,664.67 L600.38,664.67 L600.82,664.67 L601.26,664.67 L601.70,664.67 L602.14,664.67 L602.58,664.67 L603.02,664.67 L603.46,664.67 L603.90,664.67 L604.33,664.67 L604.77,664.67 L605.21,664.67 L605.65,664.67 L606.09,664.67 L606.53,664.67 L606.97,664.67 L607.41,664.67 L607.85,664.67 L608.29,664.67 L608.73,664.67 L609.17,664.67 L609.61,664.67 L610.05,664.67 L610.49,664.67 L610.92,664.67 L611.36,664.67 L611.80,664.67 L612.24,664.67 L612.68,664.67 L613.12,664.67 L613.56,664.67 L614.00,664.67 L614.44,664.67 L614.88,664.67 L615.32,664.67 L615.76,664.67 L616.20,664.67 L616.64,664.67 L617.08,664.67 L617.52,664.67 L617.95,664.67 L618.39,664.67 L618.83,664.67 L619.27,664.67 L619.71,664.67 L620.15,664.67 L620.59,664.67 L621.03,664.67 L621.47,664.67 L621.91,664.67 L622.35,664.67 L622.79,664.67 L623.23,664.67 L623.67,664.67 L624.11,664.67 L624.55,664.67 L624.98,664.67 L625.42,664.67 L625.86,664.67 L626.30,664.67 L626.74,664.67 L627.18,664.67 L627.62,664.67 L628.06,664.67 L628.50,664.67 L628.94,664.67 L629.38,664.67 L629.82,664.67 L630.26,664.67 L630.70,664.67 L631.14,664.67 L631.57,664.67 L632.01,664.67 L632.45,664.67 L632.89,664.67 L633.33,664.67 L633.77,664.67 L634.21,664.67 L634.65,664.67 L635.09,664.67 L635.53,664.67 L635.97,664.67 L636.41,664.67 L636.85,664.67 L637.29,664.67 L637.73,664.67 L638.17,664.67 L638.60,664.67 L639.04,664.67 L639.48,664.67 L639.92,664.67 L640.36,664.67 L640.80,664.67 L641.24,664.67 L641.68,664.67 L642.12,664.67 L642.56,664.67 L643.00,664.67 L643.44,664.67 L643.88,664.67 L644.32,664.67 L644.76,664.67 L645.20,664.67 L645.63,664.67 L646.07,664.67 L646.51,664.67 L646.95,664.67 L647.39,664.67 L647.83,664.67 L648.27,664.67 L648.71,664.67 L649.15,664.67 L649.59,664.67 L650.03,664.67 L650.47,664.67 L650.91,664.67 L651.35,664.67 L651.79,664.67 L652.22,664.67 L652.66,664.67 L653.10,664.67 L653.54,664.67 L653.98,664.67 L654.42,664.67 L654.86,664.67 L655.30,664.67 L655.74,664.67 L656.18,664.67 L656.62,664.67 L657.06,664.67 L657.50,664.67 L657.94,664.67 L658.38,664.67 L658.82,664.67 L659.25,664.67 L659.69,664.67 L660.13,664.67 L660.57,664.67 L661.01,664.67 L661.45,664.67 L661.89,664.67 L662.33,664.67 L662.77,664.67 L663.21,664.67 L663.65,664.67 L664.09,664.67 L664.53,664.67 L664.97,664.67 L665.41,664.67 L665.85,664.67 L666.28,664.67 L666.72,664.67 L667.16,664.67 L667.60,664.67 L668.04,664.67 L668.48,664.67 L668.92,664.67 L669.36,664.67 L669.80,664.67 L670.24,664.67 L670.68,664.67 L671.12,664.67 L671.56,664.67 L672.00,664.67 L672.44,664.67 L672.88,664.67 L673.31,664.67 L673.75,664.67 L674.19,664.67 L674.63,664.67 L675.07,664.67 L675.51,664.67 L675.95,664.67 L676.39,664.67 L676.83,664.67 L677.27,664.67 L677.71,664.67 L678.15,664.67 L678.59,664.67 L679.03,664.67 L679.47,664.67 L679.90,664.67 L680.34,664.67 L680.78,664.67 L681.22,664.67 L681.66,664.67 L682.10,664.67 L682.54,664.67 L682.98,664.67 L683.42,664.67 L683.86,664.67 L684.30,664.67 L684.74,664.67 L685.18,664.67 L685.62,664.67 L686.06,664.67 L686.50,664.67 L686.93,664.67 L687.37,664.67 L687.81,664.67 L688.25,664.67 L688.69,664.67 L689.13,664.67 L689.57,664.67 L690.01,664.67 L690.45,664.67 L690.89,664.67 L691.33,664.67 L691.77,664.67 L692.21,664.67 L692.65,664.67 L693.09,664.67 L693.53,664.67 L693.96,664.67 L694.40,664.67 L694.84,664.67 L695.28,664.67 L695.72,664.67 L696.16,664.67 L696.60,664.67 L697.04,664.67 L697.48,664.67 L697.92,664.67 L698.36,664.67 L698.80,664.67 L699.24,664.67 L699.68,664.67 L700.12,664.67 L700.55,664.67 L700.99,664.67 L701.43,664.67 L701.87,664.67 L702.31,664.67 L702.75,664.67 L703.19,664.67 L703.63,664.67 L704.07,664.67 L704.51,664.67 L704.95,664.67 L705.39,664.67 L705.83,664.67 L706.27,664.67 L706.71,664.67 L707.15,664.67 L707.58,664.67 L708.02,664.67 L708.46,664.67 L708.90,664.67 L709.34,664.67 L709.78,664.67 L710.22,664.67 L710.66,664.67 L711.10,664.67 L711.54,664.67 L711.98,664.67 L712.42,664.67 L712.86,664.67 L713.30,664.67 L713.74,664.67 L714.18,664.67 L714.61,664.67 L715.05,664.67 L715.49,664.67 L715.93,664.67 L716.37,664.67 L716.81,664.67 L717.25,664.67 L717.69,664.67 L718.13,664.67 L718.57,664.67 L719.01,664.67 L719.45,664.67 L719.89,664.67 L720.33,664.67 L720.77,664.67 L721.20,664.67 L721.64,664.67 L722.08,664.67 L722.52,664.67 L722.96,664.67 L723.40,664.67 L723.84,664.67 L724.28,664.67 L724.72,664.67 L725.16,664.67 L725.60,664.67 L726.04,664.67 L726.48,664.67 L726.92,664.67 L727.36,664.67 L727.80,664.67 L728.23,664.67 L728.67,664.67 L729.11,664.67 L729.55,664.67 L729.99,664.67 L730.43,664.67 L730.87,664.67 L731.31,664.67 L731.75,664.67 L732.19,664.67 L732.63,664.67 L733.07,664.67 L733.51,664.67 L733.95,664.67 L734.39,664.67 L734.83,664.67 L735.26,664.67 L735.70,664.67 L736.14,664.67 L736.58,664.67 L737.02,664.67 L737.46,664.67 L737.90,664.67 L738.34,664.67 L738.78,664.67 L739.22,664.67 L739.66,664.67 L740.10,664.67 L740.54,664.67 L740.98,664.67 L741.42,664.67 L741.86,664.67 L742.29,664.67 L742.73,664.67 L743.17,664.67 L743.61,664.67 L744.05,664.67 L744.49,664.67 L744.93,664.67 L745.37,664.67 L745.81,664.67 L746.25,664.67 L746.69,664.67 L747.13,664.67 L747.57,664.67 L748.01,664.67 L748.45,664.67 L748.88,664.67 L749.32,664.67 L749.76,664.67 L750.20,664.67 L750.64,664.67 L751.08,664.67 L751.52,664.67 L751.96,664.67 L752.40,664.67 L752.84,664.67 L753.28,664.67 L753.72,664.67 L754.16,664.67 L754.60,664.67 L755.04,664.67 L755.48,664.67 L755.91,664.67 L756.35,664.67 L756.79,664.67 L757.23,664.67 L757.67,664.67 L758.11,664.67 L758.55,664.67 L758.99,664.67 L759.43,664.67 L759.87,664.67 L760.31,664.67 L760.75,664.67 L761.19,664.67 L761.63,664.67 L762.07,664.67 L762.51,664.67 L762.94,664.67 L763.38,664.67 L763.82,664.67 L764.26,664.67 L764.70,664.67 L765.14,664.67 L765.58,664.67 L766.02,664.67 L766.46,664.67 L766.90,664.67 L767.34,664.67 L767.78,664.67 L768.22,664.67 L768.66,664.67 L769.10,664.67 L769.53,664.67 L769.97,664.67 L770.41,664.67 L770.85,664.67 L771.29,664.67 L771.73,664.67 L772.17,664.67 L772.61,664.67 L773.05,664.67 L773.49,664.67 L773.93,664.67 L774.37,664.67 L774.81,664.67 L775.25,664.67 L775.69,664.67 L776.13,664.67 L776.56,664.67 L777.00,664.67 L777.44,664.67 L777.88,664.67 L778.32,664.67 L778.76,664.67 L779.20,664.67 L779.64,664.67 L780.08,664.67 L780.52,664.67 L780.96,664.67 L781.40,664.67 L781.84,664.67 L782.28,664.67 L782.72,664.67 L783.16,664.67 L783.59,664.67 L784.03,664.67 L784.47,664.67 L784.91,664.67 L785.35,664.67 L785.79,664.67 L786.23,664.67 L786.67,664.67 L787.11,664.67 L787.55,664.67 L787.99,664.67 L788.43,664.67 L788.87,664.67 L789.31,664.67 L789.75,664.67 L790.18,664.67 L790.62,664.67 L791.06,664.67 L791.50,664.67 L791.94,664.67 L792.38,664.67 L792.82,664.67 L793.26,664.67 L793.70,664.67 L794.14,664.67 L794.58,664.67 L795.02,664.67 L795.46,664.67 L795.90,664.67 L796.34,664.67 L796.78,664.67 L797.21,664.67 L797.65,664.67 L798.09,664.67 L798.53,664.67 L798.97,664.67 L799.41,664.67 L799.85,664.67 L800.29,664.67 L800.73,664.67 L801.17,664.67 L801.61,664.67 L802.05,664.67 L802.49,664.67 L802.93,664.67 L803.37,664.67 L803.81,664.67 L804.24,664.67 L804.68,664.67 L805.12,664.67 L805.56,664.67 L806.00,664.67 L806.44,664.67 L806.88,664.67 L807.32,664.67 L807.76,664.67 L808.20,664.67 L808.64,664.67 L809.08,664.67 L809.52,664.67 L809.96,664.67 L810.40,664.67 L810.84,664.67 L811.27,664.67 L811.71,664.67 L812.15,664.67 L812.59,664.67 L813.03,664.67 L813.47,664.67 L813.91,664.67 L814.35,664.67 L814.79,664.67 L815.23,664.67 L815.67,664.67 L816.11,664.67 L816.55,664.67 L816.99,664.67 L817.43,664.67 L817.86,664.67 L818.30,664.67 L818.74,664.67 L819.18,664.67 L819.62,664.67 L820.06,664.67 L820.50,664.67 L820.94,664.67 L821.38,664.67 L821.82,664.67 L822.26,664.67 L822.70,664.67 L823.14,664.67 L823.58,664.67 L824.02,664.67 L824.46,664.67 L824.89,664.67 L825.33,664.67 L825.77,664.67 L826.21,664.67 L826.65,664.67 L827.09,664.67 L827.53,664.67 L827.97,664.67 L828.41,664.67 L828.85,664.67 L829.29,664.67 L829.73,664.67 L830.17,664.67 L830.61,664.67 L831.05,664.67 L831.49,664.67 L831.92,664.67 L832.36,664.67 L832.80,664.67 L833.24,664.67 L833.68,664.67 L834.12,664.67 L834.56,664.67 L835.00,664.67" style="stroke-width: 28; stroke: rgb(245, 130, 49);"/>
    <circle onclick="onClickEvent(evt)" id="4-5-1-point-2" cx="335.6019115970896" cy="664.6678709289611" r="30" style="stroke-width: 10; stroke: rgb(245, 166, 35)" fill="white"/>


    <g class="test-xti" style="font-family: Asana-Math, Asana;">
        <line x1="0" y1="503.3516310105722" x2="817.5" y2="503.3516310105722" fill="none" stroke="rgb(50,50,50)" stroke-opacity="1" stroke-width="8"/>
        <line x1="4.840109433715885" y1="497.3516310105722" x2="4.840109433715885" y2="509.3516310105722" fill="none" stroke="rgb(50,50,50)" stroke-opacity="1" stroke-width="8"/>
        <line x1="46.1853347041376" y1="497.3516310105722" x2="46.1853347041376" y2="509.3516310105722" fill="none" stroke="rgb(50,50,50)" stroke-opacity="1" stroke-width="8"/>
        <line x1="87.53055997455931" y1="497.3516310105722" x2="87.53055997455931" y2="509.3516310105722" fill="none" stroke="rgb(50,50,50)" stroke-opacity="1" stroke-width="8"/>
        <line x1="128.87578524498102" y1="497.3516310105722" x2="128.87578524498102" y2="509.3516310105722" fill="none" stroke="rgb(50,50,50)" stroke-opacity="1" stroke-width="8"/>
        <line x1="170.22101051540275" y1="497.3516310105722" x2="170.22101051540275" y2="509.3516310105722" fill="none" stroke="rgb(50,50,50)" stroke-opacity="1" stroke-width="8"/>
        <line x1="211.56623578582443" y1="497.3516310105722" x2="211.56623578582443" y2="509.3516310105722" fill="none" stroke="rgb(50,50,50)" stroke-opacity="1" stroke-width="8"/>
        <line x1="252.91146105624617" y1="497.3516310105722" x2="252.91146105624617" y2="509.3516310105722" fill="none" stroke="rgb(50,50,50)" stroke-opacity="1" stroke-width="8"/>
        <line x1="294.2566863266679" y1="497.3516310105722" x2="294.2566863266679" y2="509.3516310105722" fill="none" stroke="rgb(50,50,50)" stroke-opacity="1" stroke-width="8"/>
        <line x1="335.6019115970896" y1="497.3516310105722" x2="335.6019115970896" y2="509.3516310105722" fill="none" stroke="rgb(50,50,50)" stroke-opacity="1" stroke-width="8"/>
        <line x1="376.9471368675113" y1="497.3516310105722" x2="376.9471368675113" y2="509.3516310105722" fill="none" stroke="rgb(50,50,50)" stroke-opacity="1" stroke-width="8"/>
        <line x1="418.292362137933" y1="497.3516310105722" x2="418.292362137933" y2="509.3516310105722" fill="none" stroke="rgb(50,50,50)" stroke-opacity="1" stroke-width="8"/>
        <line x1="459.63758740835476" y1="497.3516310105722" x2="459.63758740835476" y2="509.3516310105722" fill="none" stroke="rgb(50,50,50)" stroke-opacity="1" stroke-width="8"/>
        <line x1="500.98281267877644" y1="497.3516310105722" x2="500.98281267877644" y2="509.3516310105722" fill="none" stroke="rgb(50,50,50)" stroke-opacity="1" stroke-width="8"/>
        <line x1="542.3280379491982" y1="497.3516310105722" x2="542.3280379491982" y2="509.3516310105722" fill="none" stroke="rgb(50,50,50)" stroke-opacity="1" stroke-width="8"/>
        <line x1="583.6732632196199" y1="497.3516310105722" x2="583.6732632196199" y2="509.3516310105722" fill="none" stroke="rgb(50,50,50)" stroke-opacity="1" stroke-width="8"/>
        <line x1="625.0184884900416" y1="497.3516310105722" x2="625.0184884900416" y2="509.3516310105722" fill="none" stroke="rgb(50,50,50)" stroke-opacity="1" stroke-width="8"/>
        <line x1="666.3637137604634" y1="497.3516310105722" x2="666.3637137604634" y2="509.3516310105722" fill="none" stroke="rgb(50,50,50)" stroke-opacity="1" stroke-width="8"/>
        <line x1="707.7089390308851" y1="497.3516310105722" x2="707.7089390308851" y2="509.3516310105722" fill="none" stroke="rgb(50,50,50)" stroke-opacity="1" stroke-width="8"/>
        <line x1="749.0541643013067" y1="497.3516310105722" x2="749.0541643013067" y2="509.3516310105722" fill="none" stroke="rgb(50,50,50)" stroke-opacity="1" stroke-width="8"/>
        <line x1="790.3993895717285" y1="497.3516310105722" x2="790.3993895717285" y2="509.3516310105722" fill="none" stroke="rgb(50,50,50)" stroke-opacity="1" stroke-width="8"/>
        <line x1="4.840109433715885" y1="497.3516310105722" x2="4.840109433715885" y2="509.3516310105722" fill="none" stroke="rgb(50,50,50)" stroke-opacity="1" stroke-width="8"/>
        <line x1="4.840109433715885" y1="495.3516310105722" x2="4.840109433715885" y2="511.3516310105722" fill="none" stroke="rgb(50,50,50)" stroke-opacity="1" stroke-width="8"/>
        <line x1="87.53055997455931" y1="495.3516310105722" x2="87.53055997455931" y2="511.3516310105722" fill="none" stroke="rgb(50,50,50)" stroke-opacity="1" stroke-width="8"/>
        <line x1="170.22101051540275" y1="495.3516310105722" x2="170.22101051540275" y2="511.3516310105722" fill="none" stroke="rgb(50,50,50)" stroke-opacity="1" stroke-width="8"/>
        <line x1="252.91146105624617" y1="495.3516310105722" x2="252.91146105624617" y2="511.3516310105722" fill="none" stroke="rgb(50,50,50)" stroke-opacity="1" stroke-width="8"/>
        <line x1="335.6019115970896" y1="495.3516310105722" x2="335.6019115970896" y2="511.3516310105722" fill="none" stroke="rgb(50,50,50)" stroke-opacity="1" stroke-width="8"/>
        <line x1="418.292362137933" y1="495.3516310105722" x2="418.292362137933" y2="511.3516310105722" fill="none" stroke="rgb(50,50,50)" stroke-opacity="1" stroke-width="8"/>
        <line x1="500.98281267877644" y1="495.3516310105722" x2="500.98281267877644" y2="511.3516310105722" fill="none" stroke="rgb(50,50,50)" stroke-opacity="1" stroke-width="8"/>
        <line x1="666.3637137604634" y1="495.3516310105722" x2="666.3637137604634" y2="511.3516310105722" fill="none" stroke="rgb(50,50,50)" stroke-opacity="1" stroke-width="8"/>
        <line x1="749.0541643013067" y1="495.3516310105722" x2="749.0541643013067" y2="511.3516310105722" fill="none" stroke="rgb(50,50,50)" stroke-opacity="1" stroke-width="8"/>
        <line x1="831.7446148421502" y1="495.3516310105722" x2="831.7446148421502" y2="511.3516310105722" fill="none" stroke="rgb(50,50,50)" stroke-opacity="1" stroke-width="8"/>
        <path d="M815,494.8016310105722 L834,503.3516310105722 L815,511.9016310105722 Z" stroke="none" stroke-width="8" fill="rgb(50,50,50)" fill-opacity="1"/>
    </g>
    <g class="test-yti" style="font-family: Asana-Math, Asana;">
        <line x1="583.6732632196199" y1="17.5" x2="583.6732632196199" y2="960" fill="none" stroke="rgb(50,50,50)" stroke-opacity="1" stroke-width="8"/>
        <line x1="575.6732632196199" y1="906.6422308065444" x2="591.6732632196199" y2="906.6422308065444" fill="none" stroke="rgb(50,50,50)" stroke-opacity="1" stroke-width="8"/>
        <line x1="575.6732632196199" y1="825.9841108473499" x2="591.6732632196199" y2="825.9841108473499" fill="none" stroke="rgb(50,50,50)" stroke-opacity="1" stroke-width="8"/>
        <line x1="575.6732632196199" y1="745.3259908881555" x2="591.6732632196199" y2="745.3259908881555" fill="none" stroke="rgb(50,50,50)" stroke-opacity="1" stroke-width="8"/>
        <line x1="575.6732632196199" y1="664.6678709289611" x2="591.6732632196199" y2="664.6678709289611" fill="none" stroke="rgb(50,50,50)" stroke-opacity="1" stroke-width="8"/>
        <line x1="575.6732632196199" y1="584.0097509697666" x2="591.6732632196199" y2="584.0097509697666" fill="none" stroke="rgb(50,50,50)" stroke-opacity="1" stroke-width="8"/>
        <line x1="575.6732632196199" y1="422.69351105137775" x2="591.6732632196199" y2="422.69351105137775" fill="none" stroke="rgb(50,50,50)" stroke-opacity="1" stroke-width="8"/>
        <line x1="575.6732632196199" y1="342.0353910921832" x2="591.6732632196199" y2="342.0353910921832" fill="none" stroke="rgb(50,50,50)" stroke-opacity="1" stroke-width="8"/>
        <line x1="575.6732632196199" y1="261.3772711329889" x2="591.6732632196199" y2="261.3772711329889" fill="none" stroke="rgb(50,50,50)" stroke-opacity="1" stroke-width="8"/>
        <line x1="575.6732632196199" y1="180.71915117379444" x2="591.6732632196199" y2="180.71915117379444" fill="none" stroke="rgb(50,50,50)" stroke-opacity="1" stroke-width="8"/>
        <line x1="575.6732632196199" y1="100.0610312145999" x2="591.6732632196199" y2="100.0610312145999" fill="none" stroke="rgb(50,50,50)" stroke-opacity="1" stroke-width="8"/>
        <line x1="575.6732632196199" y1="19.40291125540557" x2="591.6732632196199" y2="19.40291125540557" fill="none" stroke="rgb(50,50,50)" stroke-opacity="1" stroke-width="8"/>
        <path d="M575.12326321962,20 L583.6732632196199,1 L592.2232632196199,20 Z" stroke="none" stroke-width="8" fill="rgb(50,50,50)" fill-opacity="1"/>
    </g>

    <g class="test-xtl" style="font-family: &quot;Open Sans&quot;, verdana, arial, sans-serif;">
        <text text-anchor="middle" font-size="20" dominant-baseline="hanging" stroke="none" fill="rgb(50,50,50)" fill-opacity="1" x="-0.8598905662841139" y="514.3516310105722">-7</text>
        <text text-anchor="middle" font-size="20" dominant-baseline="hanging" stroke="none" fill="rgb(50,50,50)" fill-opacity="1" x="81.8305599745593" y="514.3516310105722">-6</text>
        <text text-anchor="middle" font-size="20" dominant-baseline="hanging" stroke="none" fill="rgb(50,50,50)" fill-opacity="1" x="164.52101051540276" y="514.3516310105722">-5</text>
        <text text-anchor="middle" font-size="20" dominant-baseline="hanging" stroke="none" fill="rgb(50,50,50)" fill-opacity="1" x="247.21146105624618" y="514.3516310105722">-4</text>
        <text text-anchor="middle" font-size="20" dominant-baseline="hanging" stroke="none" fill="rgb(50,50,50)" fill-opacity="1" x="329.9019115970896" y="514.3516310105722">-3</text>
        <text text-anchor="middle" font-size="20" dominant-baseline="hanging" stroke="none" fill="rgb(50,50,50)" fill-opacity="1" x="412.59236213793304" y="514.3516310105722">-2</text>
        <text text-anchor="middle" font-size="20" dominant-baseline="hanging" stroke="none" fill="rgb(50,50,50)" fill-opacity="1" x="495.28281267877645" y="514.3516310105722">-1</text>
        <text text-anchor="middle" font-size="20" dominant-baseline="hanging" stroke="none" fill="rgb(50,50,50)" fill-opacity="1" x="666.3637137604634" y="514.3516310105722">1</text>
        <text text-anchor="middle" font-size="20" dominant-baseline="hanging" stroke="none" fill="rgb(50,50,50)" fill-opacity="1" x="749.0541643013067" y="514.3516310105722">2</text>
        <text text-anchor="middle" font-size="20" dominant-baseline="hanging" stroke="none" fill="rgb(50,50,50)" fill-opacity="1" x="831.7446148421502" y="514.3516310105722">3</text>
        <text text-anchor="middle" font-size="20" dominant-baseline="hanging" stroke="none" fill="rgb(50,50,50)" fill-opacity="1" x="571.6732632196199" y="512.3516310105722">0</text>
    </g>
    <g class="test-ytl" style="font-family: &quot;Open Sans&quot;, verdana, arial, sans-serif;">
        <text text-anchor="end" dominant-baseline="middle" font-size="20" stroke="none" fill="rgb(50,50,50)" fill-opacity="1" x="571.6732632196199" y="906.6422308065444">-5</text>
        <text text-anchor="end" dominant-baseline="middle" font-size="20" stroke="none" fill="rgb(50,50,50)" fill-opacity="1" x="571.6732632196199" y="825.9841108473499">-4</text>
        <text text-anchor="end" dominant-baseline="middle" font-size="20" stroke="none" fill="rgb(50,50,50)" fill-opacity="1" x="571.6732632196199" y="745.3259908881555">-3</text>
        <text text-anchor="end" dominant-baseline="middle" font-size="20" stroke="none" fill="rgb(50,50,50)" fill-opacity="1" x="571.6732632196199" y="664.6678709289611">-2</text>
        <text text-anchor="end" dominant-baseline="middle" font-size="20" stroke="none" fill="rgb(50,50,50)" fill-opacity="1" x="571.6732632196199" y="584.0097509697666">-1</text>
        <text text-anchor="end" dominant-baseline="middle" font-size="20" stroke="none" fill="rgb(50,50,50)" fill-opacity="1" x="571.6732632196199" y="422.69351105137775">1</text>
        <text text-anchor="end" dominant-baseline="middle" font-size="20" stroke="none" fill="rgb(50,50,50)" fill-opacity="1" x="571.6732632196199" y="342.0353910921832">2</text>
        <text text-anchor="end" dominant-baseline="middle" font-size="20" stroke="none" fill="rgb(50,50,50)" fill-opacity="1" x="571.6732632196199" y="261.3772711329889">3</text>
        <text text-anchor="end" dominant-baseline="middle" font-size="20" stroke="none" fill="rgb(50,50,50)" fill-opacity="1" x="571.6732632196199" y="180.71915117379444">4</text>
        <text text-anchor="end" dominant-baseline="middle" font-size="20" stroke="none" fill="rgb(50,50,50)" fill-opacity="1" x="571.6732632196199" y="100.0610312145999">5</text>
        <text text-anchor="end" dominant-baseline="middle" font-size="20" stroke="none" fill="rgb(50,50,50)" fill-opacity="1" x="571.6732632196199" y="19.40291125540557">6</text>
    </g>

    </g>

    <g class="composite-shape" data-amt="diagram/shapes/plot" transform="matrix(1,0,0,1,1085,0)">
        <line x1="0" y1="593.1776504516602" x2="817.5" y2="593.1776504516602" fill="none" stroke="rgb(50,50,50)" stroke-opacity="1" stroke-width="8"/>
        <line x1="89.60211601257322" y1="585.1776504516602" x2="89.60211601257322" y2="601.1776504516602" fill="none" stroke="rgb(50,50,50)" stroke-opacity="1" stroke-width="8"/>
        <line x1="192.25039062499997" y1="585.1776504516602" x2="192.25039062499997" y2="601.1776504516602" fill="none" stroke="rgb(50,50,50)" stroke-opacity="1" stroke-width="8"/>
        <line x1="294.8986652374267" y1="585.1776504516602" x2="294.8986652374267" y2="601.1776504516602" fill="none" stroke="rgb(50,50,50)" stroke-opacity="1" stroke-width="8"/>
        <line x1="500.1952144622802" y1="585.1776504516602" x2="500.1952144622802" y2="601.1776504516602" fill="none" stroke="rgb(50,50,50)" stroke-opacity="1" stroke-width="8"/>
        <line x1="602.843489074707" y1="585.1776504516602" x2="602.843489074707" y2="601.1776504516602" fill="none" stroke="rgb(50,50,50)" stroke-opacity="1" stroke-width="8"/>
        <line x1="705.4917636871337" y1="585.1776504516602" x2="705.4917636871337" y2="601.1776504516602" fill="none" stroke="rgb(50,50,50)" stroke-opacity="1" stroke-width="8"/>
        <line x1="808.1400382995605" y1="585.1776504516602" x2="808.1400382995605" y2="601.1776504516602" fill="none" stroke="rgb(50,50,50)" stroke-opacity="1" stroke-width="8"/>
        <path d="M815,584.6276504516602 L834,593.1776504516602 L815,601.7276504516601 Z" stroke="none" stroke-width="8" fill="rgb(50,50,50)" fill-opacity="1"/>

        <line x1="397.5469398498535" y1="17.5" x2="397.5469398498535" y2="960" fill="none" stroke="rgb(50,50,50)" stroke-opacity="1" stroke-width="8"/>
        <line x1="389.5469398498535" y1="893.5539379119873" x2="405.5469398498535" y2="893.5539379119873" fill="none" stroke="rgb(50,50,50)" stroke-opacity="1" stroke-width="8"/>
        <line x1="389.5469398498535" y1="793.4285087585449" x2="405.5469398498535" y2="793.4285087585449" fill="none" stroke="rgb(50,50,50)" stroke-opacity="1" stroke-width="8"/>
        <line x1="389.5469398498535" y1="693.3030796051025" x2="405.5469398498535" y2="693.3030796051025" fill="none" stroke="rgb(50,50,50)" stroke-opacity="1" stroke-width="8"/>
        <line x1="389.5469398498535" y1="493.05222129821783" x2="405.5469398498535" y2="493.05222129821783" fill="none" stroke="rgb(50,50,50)" stroke-opacity="1" stroke-width="8"/>
        <line x1="389.5469398498535" y1="392.9267921447754" x2="405.5469398498535" y2="392.9267921447754" fill="none" stroke="rgb(50,50,50)" stroke-opacity="1" stroke-width="8"/>
        <line x1="389.5469398498535" y1="292.8013629913331" x2="405.5469398498535" y2="292.8013629913331" fill="none" stroke="rgb(50,50,50)" stroke-opacity="1" stroke-width="8"/>
        <line x1="389.5469398498535" y1="192.67593383789074" x2="405.5469398498535" y2="192.67593383789074" fill="none" stroke="rgb(50,50,50)" stroke-opacity="1" stroke-width="8"/>
        <line x1="389.5469398498535" y1="92.55050468444824" x2="405.5469398498535" y2="92.55050468444824" fill="none" stroke="rgb(50,50,50)" stroke-opacity="1" stroke-width="8"/>
        <path d="M388.9969398498535,20 L397.5469398498535,1 L406.0969398498535,20 Z" stroke="none" stroke-width="8" fill="rgb(50,50,50)" fill-opacity="1"/>

        <path onclick="onClickEvent(evt)" id="4-5-2-line-1" d=" M0.00,980.95 L0.55,980.42 L1.10,979.88 L1.65,979.35 L2.19,978.81 L2.74,978.28 L3.29,977.74 L3.84,977.21 L4.39,976.67 L4.94,976.14 L5.49,975.60 L6.03,975.07 L6.58,974.53 L7.13,974.00 L7.68,973.46 L8.23,972.93 L8.78,972.39 L9.33,971.86 L9.87,971.32 L10.42,970.79 L10.97,970.25 L11.52,969.72 L12.07,969.18 L12.62,968.65 L13.16,968.11 L13.71,967.58 L14.26,967.04 L14.81,966.51 L15.36,965.97 L15.91,965.44 L16.46,964.90 L17.00,964.37 L17.55,963.83 L18.10,963.30 L18.65,962.76 L19.20,962.23 L19.75,961.69 L20.30,961.16 L20.84,960.62 L21.39,960.09 L21.94,959.55 L22.49,959.02 L23.04,958.48 L23.59,957.95 L24.14,957.41 L24.68,956.88 L25.23,956.34 L25.78,955.81 L26.33,955.27 L26.88,954.74 L27.43,954.20 L27.98,953.67 L28.52,953.13 L29.07,952.60 L29.62,952.06 L30.17,951.53 L30.72,950.99 L31.27,950.46 L31.82,949.92 L32.36,949.39 L32.91,948.85 L33.46,948.32 L34.01,947.78 L34.56,947.25 L35.11,946.71 L35.65,946.18 L36.20,945.64 L36.75,945.11 L37.30,944.57 L37.85,944.03 L38.40,943.50 L38.95,942.96 L39.49,942.43 L40.04,941.89 L40.59,941.36 L41.14,940.82 L41.69,940.29 L42.24,939.75 L42.79,939.22 L43.33,938.68 L43.88,938.15 L44.43,937.61 L44.98,937.08 L45.53,936.54 L46.08,936.01 L46.63,935.47 L47.17,934.94 L47.72,934.40 L48.27,933.87 L48.82,933.33 L49.37,932.80 L49.92,932.26 L50.47,931.73 L51.01,931.19 L51.56,930.66 L52.11,930.12 L52.66,929.59 L53.21,929.05 L53.76,928.52 L54.31,927.98 L54.85,927.45 L55.40,926.91 L55.95,926.38 L56.50,925.84 L57.05,925.31 L57.60,924.77 L58.15,924.24 L58.69,923.70 L59.24,923.17 L59.79,922.63 L60.34,922.10 L60.89,921.56 L61.44,921.03 L61.98,920.49 L62.53,919.96 L63.08,919.42 L63.63,918.89 L64.18,918.35 L64.73,917.82 L65.28,917.28 L65.82,916.75 L66.37,916.21 L66.92,915.68 L67.47,915.14 L68.02,914.61 L68.57,914.07 L69.12,913.54 L69.66,913.00 L70.21,912.47 L70.76,911.93 L71.31,911.40 L71.86,910.86 L72.41,910.33 L72.96,909.79 L73.50,909.26 L74.05,908.72 L74.60,908.19 L75.15,907.65 L75.70,907.12 L76.25,906.58 L76.80,906.05 L77.34,905.51 L77.89,904.98 L78.44,904.44 L78.99,903.91 L79.54,903.37 L80.09,902.84 L80.64,902.30 L81.18,901.77 L81.73,901.23 L82.28,900.70 L82.83,900.16 L83.38,899.63 L83.93,899.09 L84.47,898.56 L85.02,898.02 L85.57,897.49 L86.12,896.95 L86.67,896.41 L87.22,895.88 L87.77,895.34 L88.31,894.81 L88.86,894.27 L89.41,893.74 L89.96,893.20 L90.51,892.67 L91.06,892.13 L91.61,891.60 L92.15,891.06 L92.70,890.53 L93.25,889.99 L93.80,889.46 L94.35,888.92 L94.90,888.39 L95.45,887.85 L95.99,887.32 L96.54,886.78 L97.09,886.25 L97.64,885.71 L98.19,885.18 L98.74,884.64 L99.29,884.11 L99.83,883.57 L100.38,883.04 L100.93,882.50 L101.48,881.97 L102.03,881.43 L102.58,880.90 L103.13,880.36 L103.67,879.83 L104.22,879.29 L104.77,878.76 L105.32,878.22 L105.87,877.69 L106.42,877.15 L106.96,876.62 L107.51,876.08 L108.06,875.55 L108.61,875.01 L109.16,874.48 L109.71,873.94 L110.26,873.41 L110.80,872.87 L111.35,872.34 L111.90,871.80 L112.45,871.27 L113.00,870.73 L113.55,870.20 L114.10,869.66 L114.64,869.13 L115.19,868.59 L115.74,868.06 L116.29,867.52 L116.84,866.99 L117.39,866.45 L117.94,865.92 L118.48,865.38 L119.03,864.85 L119.58,864.31 L120.13,863.78 L120.68,863.24 L121.23,862.71 L121.78,862.17 L122.32,861.64 L122.87,861.10 L123.42,860.57 L123.97,860.03 L124.52,859.50 L125.07,858.96 L125.62,858.43 L126.16,857.89 L126.71,857.36 L127.26,856.82 L127.81,856.29 L128.36,855.75 L128.91,855.22 L129.46,854.68 L130.00,854.15 L130.55,853.61 L131.10,853.08 L131.65,852.54 L132.20,852.01 L132.75,851.47 L133.29,850.94 L133.84,850.40 L134.39,849.87 L134.94,849.33 L135.49,848.79 L136.04,848.26 L136.59,847.72 L137.13,847.19 L137.68,846.65 L138.23,846.12 L138.78,845.58 L139.33,845.05 L139.88,844.51 L140.43,843.98 L140.97,843.44 L141.52,842.91 L142.07,842.37 L142.62,841.84 L143.17,841.30 L143.72,840.77 L144.27,840.23 L144.81,839.70 L145.36,839.16 L145.91,838.63 L146.46,838.09 L147.01,837.56 L147.56,837.02 L148.11,836.49 L148.65,835.95 L149.20,835.42 L149.75,834.88 L150.30,834.35 L150.85,833.81 L151.40,833.28 L151.95,832.74 L152.49,832.21 L153.04,831.67 L153.59,831.14 L154.14,830.60 L154.69,830.07 L155.24,829.53 L155.78,829.00 L156.33,828.46 L156.88,827.93 L157.43,827.39 L157.98,826.86 L158.53,826.32 L159.08,825.79 L159.62,825.25 L160.17,824.72 L160.72,824.18 L161.27,823.65 L161.82,823.11 L162.37,822.58 L162.92,822.04 L163.46,821.51 L164.01,820.97 L164.56,820.44 L165.11,819.90 L165.66,819.37 L166.21,818.83 L166.76,818.30 L167.30,817.76 L167.85,817.23 L168.40,816.69 L168.95,816.16 L169.50,815.62 L170.05,815.09 L170.60,814.55 L171.14,814.02 L171.69,813.48 L172.24,812.95 L172.79,812.41 L173.34,811.88 L173.89,811.34 L174.44,810.81 L174.98,810.27 L175.53,809.74 L176.08,809.20 L176.63,808.67 L177.18,808.13 L177.73,807.60 L178.27,807.06 L178.82,806.53 L179.37,805.99 L179.92,805.46 L180.47,804.92 L181.02,804.39 L181.57,803.85 L182.11,803.32 L182.66,802.78 L183.21,802.24 L183.76,801.71 L184.31,801.17 L184.86,800.64 L185.41,800.10 L185.95,799.57 L186.50,799.03 L187.05,798.50 L187.60,797.96 L188.15,797.43 L188.70,796.89 L189.25,796.36 L189.79,795.82 L190.34,795.29 L190.89,794.75 L191.44,794.22 L191.99,793.68 L192.54,793.15 L193.09,792.61 L193.63,792.08 L194.18,791.54 L194.73,791.01 L195.28,790.47 L195.83,789.94 L196.38,789.40 L196.93,788.87 L197.47,788.33 L198.02,787.80 L198.57,787.26 L199.12,786.73 L199.67,786.19 L200.22,785.66 L200.76,785.12 L201.31,784.59 L201.86,784.05 L202.41,783.52 L202.96,782.98 L203.51,782.45 L204.06,781.91 L204.60,781.38 L205.15,780.84 L205.70,780.31 L206.25,779.77 L206.80,779.24 L207.35,778.70 L207.90,778.17 L208.44,777.63 L208.99,777.10 L209.54,776.56 L210.09,776.03 L210.64,775.49 L211.19,774.96 L211.74,774.42 L212.28,773.89 L212.83,773.35 L213.38,772.82 L213.93,772.28 L214.48,771.75 L215.03,771.21 L215.58,770.68 L216.12,770.14 L216.67,769.61 L217.22,769.07 L217.77,768.54 L218.32,768.00 L218.87,767.47 L219.42,766.93 L219.96,766.40 L220.51,765.86 L221.06,765.33 L221.61,764.79 L222.16,764.26 L222.71,763.72 L223.26,763.19 L223.80,762.65 L224.35,762.12 L224.90,761.58 L225.45,761.05 L226.00,760.51 L226.55,759.98 L227.09,759.44 L227.64,758.91 L228.19,758.37 L228.74,757.84 L229.29,757.30 L229.84,756.77 L230.39,756.23 L230.93,755.70 L231.48,755.16 L232.03,754.62 L232.58,754.09 L233.13,753.55 L233.68,753.02 L234.23,752.48 L234.77,751.95 L235.32,751.41 L235.87,750.88 L236.42,750.34 L236.97,749.81 L237.52,749.27 L238.07,748.74 L238.61,748.20 L239.16,747.67 L239.71,747.13 L240.26,746.60 L240.81,746.06 L241.36,745.53 L241.91,744.99 L242.45,744.46 L243.00,743.92 L243.55,743.39 L244.10,742.85 L244.65,742.32 L245.20,741.78 L245.75,741.25 L246.29,740.71 L246.84,740.18 L247.39,739.64 L247.94,739.11 L248.49,738.57 L249.04,738.04 L249.58,737.50 L250.13,736.97 L250.68,736.43 L251.23,735.90 L251.78,735.36 L252.33,734.83 L252.88,734.29 L253.42,733.76 L253.97,733.22 L254.52,732.69 L255.07,732.15 L255.62,731.62 L256.17,731.08 L256.72,730.55 L257.26,730.01 L257.81,729.48 L258.36,728.94 L258.91,728.41 L259.46,727.87 L260.01,727.34 L260.56,726.80 L261.10,726.27 L261.65,725.73 L262.20,725.20 L262.75,724.66 L263.30,724.13 L263.85,723.59 L264.40,723.06 L264.94,722.52 L265.49,721.99 L266.04,721.45 L266.59,720.92 L267.14,720.38 L267.69,719.85 L268.24,719.31 L268.78,718.78 L269.33,718.24 L269.88,717.71 L270.43,717.17 L270.98,716.64 L271.53,716.10 L272.07,715.57 L272.62,715.03 L273.17,714.50 L273.72,713.96 L274.27,713.43 L274.82,712.89 L275.37,712.36 L275.91,711.82 L276.46,711.29 L277.01,710.75 L277.56,710.22 L278.11,709.68 L278.66,709.15 L279.21,708.61 L279.75,708.08 L280.30,707.54 L280.85,707.00 L281.40,706.47 L281.95,705.93 L282.50,705.40 L283.05,704.86 L283.59,704.33 L284.14,703.79 L284.69,703.26 L285.24,702.72 L285.79,702.19 L286.34,701.65 L286.89,701.12 L287.43,700.58 L287.98,700.05 L288.53,699.51 L289.08,698.98 L289.63,698.44 L290.18,697.91 L290.73,697.37 L291.27,696.84 L291.82,696.30 L292.37,695.77 L292.92,695.23 L293.47,694.70 L294.02,694.16 L294.57,693.63 L295.11,693.09 L295.66,692.56 L296.21,692.02 L296.76,691.49 L297.31,690.95 L297.86,690.42 L298.40,689.88 L298.95,689.35 L299.50,688.81 L300.05,688.28 L300.60,687.74 L301.15,687.21 L301.70,686.67 L302.24,686.14 L302.79,685.60 L303.34,685.07 L303.89,684.53 L304.44,684.00 L304.99,683.46 L305.54,682.93 L306.08,682.39 L306.63,681.86 L307.18,681.32 L307.73,680.79 L308.28,680.25 L308.83,679.72 L309.38,679.18 L309.92,678.65 L310.47,678.11 L311.02,677.58 L311.57,677.04 L312.12,676.51 L312.67,675.97 L313.22,675.44 L313.76,674.90 L314.31,674.37 L314.86,673.83 L315.41,673.30 L315.96,672.76 L316.51,672.23 L317.06,671.69 L317.60,671.16 L318.15,670.62 L318.70,670.09 L319.25,669.55 L319.80,669.02 L320.35,668.48 L320.89,667.95 L321.44,667.41 L321.99,666.88 L322.54,666.34 L323.09,665.81 L323.64,665.27 L324.19,664.74 L324.73,664.20 L325.28,663.67 L325.83,663.13 L326.38,662.60 L326.93,662.06 L327.48,661.53 L328.03,660.99 L328.57,660.46 L329.12,659.92 L329.67,659.38 L330.22,658.85 L330.77,658.31 L331.32,657.78 L331.87,657.24 L332.41,656.71 L332.96,656.17 L333.51,655.64 L334.06,655.10 L334.61,654.57 L335.16,654.03 L335.71,653.50 L336.25,652.96 L336.80,652.43 L337.35,651.89 L337.90,651.36 L338.45,650.82 L339.00,650.29 L339.55,649.75 L340.09,649.22 L340.64,648.68 L341.19,648.15 L341.74,647.61 L342.29,647.08 L342.84,646.54 L343.38,646.01 L343.93,645.47 L344.48,644.94 L345.03,644.40 L345.58,643.87 L346.13,643.33 L346.68,642.80 L347.22,642.26 L347.77,641.73 L348.32,641.19 L348.87,640.66 L349.42,640.12 L349.97,639.59 L350.52,639.05 L351.06,638.52 L351.61,637.98 L352.16,637.45 L352.71,636.91 L353.26,636.38 L353.81,635.84 L354.36,635.31 L354.90,634.77 L355.45,634.24 L356.00,633.70 L356.55,633.17 L357.10,632.63 L357.65,632.10 L358.20,631.56 L358.74,631.03 L359.29,630.49 L359.84,629.96 L360.39,629.42 L360.94,628.89 L361.49,628.35 L362.04,627.82 L362.58,627.28 L363.13,626.75 L363.68,626.21 L364.23,625.68 L364.78,625.14 L365.33,624.61 L365.87,624.07 L366.42,623.54 L366.97,623.00 L367.52,622.47 L368.07,621.93 L368.62,621.40 L369.17,620.86 L369.71,620.33 L370.26,619.79 L370.81,619.26 L371.36,618.72 L371.91,618.19 L372.46,617.65 L373.01,617.12 L373.55,616.58 L374.10,616.05 L374.65,615.51 L375.20,614.98 L375.75,614.44 L376.30,613.91 L376.85,613.37 L377.39,612.84 L377.94,612.30 L378.49,611.76 L379.04,611.23 L379.59,610.69 L380.14,610.16 L380.69,609.62 L381.23,609.09 L381.78,608.55 L382.33,608.02 L382.88,607.48 L383.43,606.95 L383.98,606.41 L384.53,605.88 L385.07,605.34 L385.62,604.81 L386.17,604.27 L386.72,603.74 L387.27,603.20 L387.82,602.67 L388.37,602.13 L388.91,601.60 L389.46,601.06 L390.01,600.53 L390.56,599.99 L391.11,599.46 L391.66,598.92 L392.20,598.39 L392.75,597.85 L393.30,597.32 L393.85,596.78 L394.40,596.25 L394.95,595.71 L395.50,595.18 L396.04,594.64 L396.59,594.11 L397.14,593.57 L397.69,593.04 L398.24,592.50 L398.79,591.97 L399.34,591.43 L399.88,590.90 L400.43,590.36 L400.98,589.83 L401.53,589.29 L402.08,588.76 L402.63,588.22 L403.18,587.69 L403.72,587.15 L404.27,586.62 L404.82,586.08 L405.37,585.55 L405.92,585.01 L406.47,584.48 L407.02,583.94 L407.56,583.41 L408.11,582.87 L408.66,582.34 L409.21,581.80 L409.76,581.27 L410.31,580.73 L410.86,580.20 L411.40,579.66 L411.95,579.13 L412.50,578.59 L413.05,578.06 L413.60,577.52 L414.15,576.99 L414.69,576.45 L415.24,575.92 L415.79,575.38 L416.34,574.85 L416.89,574.31 L417.44,573.78 L417.99,573.24 L418.53,572.71 L419.08,572.17 L419.63,571.64 L420.18,571.10 L420.73,570.57 L421.28,570.03 L421.83,569.50 L422.37,568.96 L422.92,568.43 L423.47,567.89 L424.02,567.36 L424.57,566.82 L425.12,566.29 L425.67,565.75 L426.21,565.21 L426.76,564.68 L427.31,564.14 L427.86,563.61 L428.41,563.07 L428.96,562.54 L429.51,562.00 L430.05,561.47 L430.60,560.93 L431.15,560.40 L431.70,559.86 L432.25,559.33 L432.80,558.79 L433.35,558.26 L433.89,557.72 L434.44,557.19 L434.99,556.65 L435.54,556.12 L436.09,555.58 L436.64,555.05 L437.18,554.51 L437.73,553.98 L438.28,553.44 L438.83,552.91 L439.38,552.37 L439.93,551.84 L440.48,551.30 L441.02,550.77 L441.57,550.23 L442.12,549.70 L442.67,549.16 L443.22,548.63 L443.77,548.09 L444.32,547.56 L444.86,547.02 L445.41,546.49 L445.96,545.95 L446.51,545.42 L447.06,544.88 L447.61,544.35 L448.16,543.81 L448.70,543.28 L449.25,542.74 L449.80,542.21 L450.35,541.67 L450.90,541.14 L451.45,540.60 L452.00,540.07 L452.54,539.53 L453.09,539.00 L453.64,538.46 L454.19,537.93 L454.74,537.39 L455.29,536.86 L455.84,536.32 L456.38,535.79 L456.93,535.25 L457.48,534.72 L458.03,534.18 L458.58,533.65 L459.13,533.11 L459.68,532.58 L460.22,532.04 L460.77,531.51 L461.32,530.97 L461.87,530.44 L462.42,529.90 L462.97,529.37 L463.51,528.83 L464.06,528.30 L464.61,527.76 L465.16,527.23 L465.71,526.69 L466.26,526.16 L466.81,525.62 L467.35,525.09 L467.90,524.55 L468.45,524.02 L469.00,523.48 L469.55,522.95 L470.10,522.41 L470.65,521.88 L471.19,521.34 L471.74,520.81 L472.29,520.27 L472.84,519.74 L473.39,519.20 L473.94,518.67 L474.49,518.13 L475.03,517.59 L475.58,517.06 L476.13,516.52 L476.68,515.99 L477.23,515.45 L477.78,514.92 L478.33,514.38 L478.87,513.85 L479.42,513.31 L479.97,512.78 L480.52,512.24 L481.07,511.71 L481.62,511.17 L482.17,510.64 L482.71,510.10 L483.26,509.57 L483.81,509.03 L484.36,508.50 L484.91,507.96 L485.46,507.43 L486.00,506.89 L486.55,506.36 L487.10,505.82 L487.65,505.29 L488.20,504.75 L488.75,504.22 L489.30,503.68 L489.84,503.15 L490.39,502.61 L490.94,502.08 L491.49,501.54 L492.04,501.01 L492.59,500.47 L493.14,499.94 L493.68,499.40 L494.23,498.87 L494.78,498.33 L495.33,497.80 L495.88,497.26 L496.43,496.73 L496.98,496.19 L497.52,495.66 L498.07,495.12 L498.62,494.59 L499.17,494.05 L499.72,493.52 L500.27,492.98 L500.82,492.45 L501.36,491.91 L501.91,491.38 L502.46,490.84 L503.01,490.31 L503.56,489.77 L504.11,489.24 L504.66,488.70 L505.20,488.17 L505.75,487.63 L506.30,487.10 L506.85,486.56 L507.40,486.03 L507.95,485.49 L508.49,484.96 L509.04,484.42 L509.59,483.89 L510.14,483.35 L510.69,482.82 L511.24,482.28 L511.79,481.75 L512.33,481.21 L512.88,480.68 L513.43,480.14 L513.98,479.61 L514.53,479.07 L515.08,478.54 L515.63,478.00 L516.17,477.47 L516.72,476.93 L517.27,476.40 L517.82,475.86 L518.37,475.33 L518.92,474.79 L519.47,474.26 L520.01,473.72 L520.56,473.19 L521.11,472.65 L521.66,472.12 L522.21,471.58 L522.76,471.05 L523.31,470.51 L523.85,469.97 L524.40,469.44 L524.95,468.90 L525.50,468.37 L526.05,467.83 L526.60,467.30 L527.15,466.76 L527.69,466.23 L528.24,465.69 L528.79,465.16 L529.34,464.62 L529.89,464.09 L530.44,463.55 L530.98,463.02 L531.53,462.48 L532.08,461.95 L532.63,461.41 L533.18,460.88 L533.73,460.34 L534.28,459.81 L534.82,459.27 L535.37,458.74 L535.92,458.20 L536.47,457.67 L537.02,457.13 L537.57,456.60 L538.12,456.06 L538.66,455.53 L539.21,454.99 L539.76,454.46 L540.31,453.92 L540.86,453.39 L541.41,452.85 L541.96,452.32 L542.50,451.78 L543.05,451.25 L543.60,450.71 L544.15,450.18 L544.70,449.64 L545.25,449.11 L545.80,448.57 L546.34,448.04 L546.89,447.50 L547.44,446.97 L547.99,446.43 L548.54,445.90 L549.09,445.36 L549.64,444.83 L550.18,444.29 L550.73,443.76 L551.28,443.22 L551.83,442.69 L552.38,442.15 L552.93,441.62 L553.48,441.08 L554.02,440.55 L554.57,440.01 L555.12,439.48 L555.67,438.94 L556.22,438.41 L556.77,437.87 L557.31,437.34 L557.86,436.80 L558.41,436.27 L558.96,435.73 L559.51,435.20 L560.06,434.66 L560.61,434.13 L561.15,433.59 L561.70,433.06 L562.25,432.52 L562.80,431.99 L563.35,431.45 L563.90,430.92 L564.45,430.38 L564.99,429.85 L565.54,429.31 L566.09,428.78 L566.64,428.24 L567.19,427.71 L567.74,427.17 L568.29,426.64 L568.83,426.10 L569.38,425.57 L569.93,425.03 L570.48,424.50 L571.03,423.96 L571.58,423.43 L572.13,422.89 L572.67,422.35 L573.22,421.82 L573.77,421.28 L574.32,420.75 L574.87,420.21 L575.42,419.68 L575.97,419.14 L576.51,418.61 L577.06,418.07 L577.61,417.54 L578.16,417.00 L578.71,416.47 L579.26,415.93 L579.80,415.40 L580.35,414.86 L580.90,414.33 L581.45,413.79 L582.00,413.26 L582.55,412.72 L583.10,412.19 L583.64,411.65 L584.19,411.12 L584.74,410.58 L585.29,410.05 L585.84,409.51 L586.39,408.98 L586.94,408.44 L587.48,407.91 L588.03,407.37 L588.58,406.84 L589.13,406.30 L589.68,405.77 L590.23,405.23 L590.78,404.70 L591.32,404.16 L591.87,403.63 L592.42,403.09 L592.97,402.56 L593.52,402.02 L594.07,401.49 L594.62,400.95 L595.16,400.42 L595.71,399.88 L596.26,399.35 L596.81,398.81 L597.36,398.28 L597.91,397.74 L598.46,397.21 L599.00,396.67 L599.55,396.14 L600.10,395.60 L600.65,395.07 L601.20,394.53 L601.75,394.00 L602.29,393.46 L602.84,392.93" style="stroke-width: 28; stroke: rgb(74, 144, 226); stroke-opacity: 0.8;"/>
        <path onclick="onClickEvent(evt)" id="4-5-2-line-2" d=" M602.84,392.93 L603.05,392.93 L603.27,392.93 L603.48,392.93 L603.69,392.93 L603.90,392.93 L604.11,392.93 L604.32,392.93 L604.53,392.93 L604.74,392.93 L604.96,392.93 L605.17,392.93 L605.38,392.93 L605.59,392.93 L605.80,392.93 L606.01,392.93 L606.22,392.93 L606.43,392.93 L606.65,392.93 L606.86,392.93 L607.07,392.93 L607.28,392.93 L607.49,392.93 L607.70,392.93 L607.91,392.93 L608.12,392.93 L608.34,392.93 L608.55,392.93 L608.76,392.93 L608.97,392.93 L609.18,392.93 L609.39,392.93 L609.60,392.93 L609.81,392.93 L610.03,392.93 L610.24,392.93 L610.45,392.93 L610.66,392.93 L610.87,392.93 L611.08,392.93 L611.29,392.93 L611.50,392.93 L611.72,392.93 L611.93,392.93 L612.14,392.93 L612.35,392.93 L612.56,392.93 L612.77,392.93 L612.98,392.93 L613.19,392.93 L613.41,392.93 L613.62,392.93 L613.83,392.93 L614.04,392.93 L614.25,392.93 L614.46,392.93 L614.67,392.93 L614.88,392.93 L615.10,392.93 L615.31,392.93 L615.52,392.93 L615.73,392.93 L615.94,392.93 L616.15,392.93 L616.36,392.93 L616.57,392.93 L616.79,392.93 L617.00,392.93 L617.21,392.93 L617.42,392.93 L617.63,392.93 L617.84,392.93 L618.05,392.93 L618.26,392.93 L618.48,392.93 L618.69,392.93 L618.90,392.93 L619.11,392.93 L619.32,392.93 L619.53,392.93 L619.74,392.93 L619.95,392.93 L620.17,392.93 L620.38,392.93 L620.59,392.93 L620.80,392.93 L621.01,392.93 L621.22,392.93 L621.43,392.93 L621.64,392.93 L621.86,392.93 L622.07,392.93 L622.28,392.93 L622.49,392.93 L622.70,392.93 L622.91,392.93 L623.12,392.93 L623.33,392.93 L623.55,392.93 L623.76,392.93 L623.97,392.93 L624.18,392.93 L624.39,392.93 L624.60,392.93 L624.81,392.93 L625.02,392.93 L625.24,392.93 L625.45,392.93 L625.66,392.93 L625.87,392.93 L626.08,392.93 L626.29,392.93 L626.50,392.93 L626.71,392.93 L626.93,392.93 L627.14,392.93 L627.35,392.93 L627.56,392.93 L627.77,392.93 L627.98,392.93 L628.19,392.93 L628.40,392.93 L628.62,392.93 L628.83,392.93 L629.04,392.93 L629.25,392.93 L629.46,392.93 L629.67,392.93 L629.88,392.93 L630.09,392.93 L630.31,392.93 L630.52,392.93 L630.73,392.93 L630.94,392.93 L631.15,392.93 L631.36,392.93 L631.57,392.93 L631.78,392.93 L632.00,392.93 L632.21,392.93 L632.42,392.93 L632.63,392.93 L632.84,392.93 L633.05,392.93 L633.26,392.93 L633.47,392.93 L633.69,392.93 L633.90,392.93 L634.11,392.93 L634.32,392.93 L634.53,392.93 L634.74,392.93 L634.95,392.93 L635.16,392.93 L635.37,392.93 L635.59,392.93 L635.80,392.93 L636.01,392.93 L636.22,392.93 L636.43,392.93 L636.64,392.93 L636.85,392.93 L637.06,392.93 L637.28,392.93 L637.49,392.93 L637.70,392.93 L637.91,392.93 L638.12,392.93 L638.33,392.93 L638.54,392.93 L638.75,392.93 L638.97,392.93 L639.18,392.93 L639.39,392.93 L639.60,392.93 L639.81,392.93 L640.02,392.93 L640.23,392.93 L640.44,392.93 L640.66,392.93 L640.87,392.93 L641.08,392.93 L641.29,392.93 L641.50,392.93 L641.71,392.93 L641.92,392.93 L642.13,392.93 L642.35,392.93 L642.56,392.93 L642.77,392.93 L642.98,392.93 L643.19,392.93 L643.40,392.93 L643.61,392.93 L643.82,392.93 L644.04,392.93 L644.25,392.93 L644.46,392.93 L644.67,392.93 L644.88,392.93 L645.09,392.93 L645.30,392.93 L645.51,392.93 L645.73,392.93 L645.94,392.93 L646.15,392.93 L646.36,392.93 L646.57,392.93 L646.78,392.93 L646.99,392.93 L647.20,392.93 L647.42,392.93 L647.63,392.93 L647.84,392.93 L648.05,392.93 L648.26,392.93 L648.47,392.93 L648.68,392.93 L648.89,392.93 L649.11,392.93 L649.32,392.93 L649.53,392.93 L649.74,392.93 L649.95,392.93 L650.16,392.93 L650.37,392.93 L650.58,392.93 L650.80,392.93 L651.01,392.93 L651.22,392.93 L651.43,392.93 L651.64,392.93 L651.85,392.93 L652.06,392.93 L652.27,392.93 L652.49,392.93 L652.70,392.93 L652.91,392.93 L653.12,392.93 L653.33,392.93 L653.54,392.93 L653.75,392.93 L653.96,392.93 L654.18,392.93 L654.39,392.93 L654.60,392.93 L654.81,392.93 L655.02,392.93 L655.23,392.93 L655.44,392.93 L655.65,392.93 L655.87,392.93 L656.08,392.93 L656.29,392.93 L656.50,392.93 L656.71,392.93 L656.92,392.93 L657.13,392.93 L657.34,392.93 L657.56,392.93 L657.77,392.93 L657.98,392.93 L658.19,392.93 L658.40,392.93 L658.61,392.93 L658.82,392.93 L659.03,392.93 L659.25,392.93 L659.46,392.93 L659.67,392.93 L659.88,392.93 L660.09,392.93 L660.30,392.93 L660.51,392.93 L660.72,392.93 L660.94,392.93 L661.15,392.93 L661.36,392.93 L661.57,392.93 L661.78,392.93 L661.99,392.93 L662.20,392.93 L662.41,392.93 L662.63,392.93 L662.84,392.93 L663.05,392.93 L663.26,392.93 L663.47,392.93 L663.68,392.93 L663.89,392.93 L664.10,392.93 L664.32,392.93 L664.53,392.93 L664.74,392.93 L664.95,392.93 L665.16,392.93 L665.37,392.93 L665.58,392.93 L665.79,392.93 L666.01,392.93 L666.22,392.93 L666.43,392.93 L666.64,392.93 L666.85,392.93 L667.06,392.93 L667.27,392.93 L667.48,392.93 L667.70,392.93 L667.91,392.93 L668.12,392.93 L668.33,392.93 L668.54,392.93 L668.75,392.93 L668.96,392.93 L669.17,392.93 L669.39,392.93 L669.60,392.93 L669.81,392.93 L670.02,392.93 L670.23,392.93 L670.44,392.93 L670.65,392.93 L670.86,392.93 L671.08,392.93 L671.29,392.93 L671.50,392.93 L671.71,392.93 L671.92,392.93 L672.13,392.93 L672.34,392.93 L672.55,392.93 L672.77,392.93 L672.98,392.93 L673.19,392.93 L673.40,392.93 L673.61,392.93 L673.82,392.93 L674.03,392.93 L674.24,392.93 L674.46,392.93 L674.67,392.93 L674.88,392.93 L675.09,392.93 L675.30,392.93 L675.51,392.93 L675.72,392.93 L675.93,392.93 L676.14,392.93 L676.36,392.93 L676.57,392.93 L676.78,392.93 L676.99,392.93 L677.20,392.93 L677.41,392.93 L677.62,392.93 L677.83,392.93 L678.05,392.93 L678.26,392.93 L678.47,392.93 L678.68,392.93 L678.89,392.93 L679.10,392.93 L679.31,392.93 L679.52,392.93 L679.74,392.93 L679.95,392.93 L680.16,392.93 L680.37,392.93 L680.58,392.93 L680.79,392.93 L681.00,392.93 L681.21,392.93 L681.43,392.93 L681.64,392.93 L681.85,392.93 L682.06,392.93 L682.27,392.93 L682.48,392.93 L682.69,392.93 L682.90,392.93 L683.12,392.93 L683.33,392.93 L683.54,392.93 L683.75,392.93 L683.96,392.93 L684.17,392.93 L684.38,392.93 L684.59,392.93 L684.81,392.93 L685.02,392.93 L685.23,392.93 L685.44,392.93 L685.65,392.93 L685.86,392.93 L686.07,392.93 L686.28,392.93 L686.50,392.93 L686.71,392.93 L686.92,392.93 L687.13,392.93 L687.34,392.93 L687.55,392.93 L687.76,392.93 L687.97,392.93 L688.19,392.93 L688.40,392.93 L688.61,392.93 L688.82,392.93 L689.03,392.93 L689.24,392.93 L689.45,392.93 L689.66,392.93 L689.88,392.93 L690.09,392.93 L690.30,392.93 L690.51,392.93 L690.72,392.93 L690.93,392.93 L691.14,392.93 L691.35,392.93 L691.57,392.93 L691.78,392.93 L691.99,392.93 L692.20,392.93 L692.41,392.93 L692.62,392.93 L692.83,392.93 L693.04,392.93 L693.26,392.93 L693.47,392.93 L693.68,392.93 L693.89,392.93 L694.10,392.93 L694.31,392.93 L694.52,392.93 L694.73,392.93 L694.95,392.93 L695.16,392.93 L695.37,392.93 L695.58,392.93 L695.79,392.93 L696.00,392.93 L696.21,392.93 L696.42,392.93 L696.64,392.93 L696.85,392.93 L697.06,392.93 L697.27,392.93 L697.48,392.93 L697.69,392.93 L697.90,392.93 L698.11,392.93 L698.33,392.93 L698.54,392.93 L698.75,392.93 L698.96,392.93 L699.17,392.93 L699.38,392.93 L699.59,392.93 L699.80,392.93 L700.02,392.93 L700.23,392.93 L700.44,392.93 L700.65,392.93 L700.86,392.93 L701.07,392.93 L701.28,392.93 L701.49,392.93 L701.71,392.93 L701.92,392.93 L702.13,392.93 L702.34,392.93 L702.55,392.93 L702.76,392.93 L702.97,392.93 L703.18,392.93 L703.40,392.93 L703.61,392.93 L703.82,392.93 L704.03,392.93 L704.24,392.93 L704.45,392.93 L704.66,392.93 L704.87,392.93 L705.09,392.93 L705.30,392.93 L705.51,392.93 L705.72,392.93 L705.93,392.93 L706.14,392.93 L706.35,392.93 L706.56,392.93 L706.78,392.93 L706.99,392.93 L707.20,392.93 L707.41,392.93 L707.62,392.93 L707.83,392.93 L708.04,392.93 L708.25,392.93 L708.47,392.93 L708.68,392.93 L708.89,392.93 L709.10,392.93 L709.31,392.93 L709.52,392.93 L709.73,392.93 L709.94,392.93 L710.16,392.93 L710.37,392.93 L710.58,392.93 L710.79,392.93 L711.00,392.93 L711.21,392.93 L711.42,392.93 L711.63,392.93 L711.85,392.93 L712.06,392.93 L712.27,392.93 L712.48,392.93 L712.69,392.93 L712.90,392.93 L713.11,392.93 L713.32,392.93 L713.54,392.93 L713.75,392.93 L713.96,392.93 L714.17,392.93 L714.38,392.93 L714.59,392.93 L714.80,392.93 L715.01,392.93 L715.22,392.93 L715.44,392.93 L715.65,392.93 L715.86,392.93 L716.07,392.93 L716.28,392.93 L716.49,392.93 L716.70,392.93 L716.91,392.93 L717.13,392.93 L717.34,392.93 L717.55,392.93 L717.76,392.93 L717.97,392.93 L718.18,392.93 L718.39,392.93 L718.60,392.93 L718.82,392.93 L719.03,392.93 L719.24,392.93 L719.45,392.93 L719.66,392.93 L719.87,392.93 L720.08,392.93 L720.29,392.93 L720.51,392.93 L720.72,392.93 L720.93,392.93 L721.14,392.93 L721.35,392.93 L721.56,392.93 L721.77,392.93 L721.98,392.93 L722.20,392.93 L722.41,392.93 L722.62,392.93 L722.83,392.93 L723.04,392.93 L723.25,392.93 L723.46,392.93 L723.67,392.93 L723.89,392.93 L724.10,392.93 L724.31,392.93 L724.52,392.93 L724.73,392.93 L724.94,392.93 L725.15,392.93 L725.36,392.93 L725.58,392.93 L725.79,392.93 L726.00,392.93 L726.21,392.93 L726.42,392.93 L726.63,392.93 L726.84,392.93 L727.05,392.93 L727.27,392.93 L727.48,392.93 L727.69,392.93 L727.90,392.93 L728.11,392.93 L728.32,392.93 L728.53,392.93 L728.74,392.93 L728.96,392.93 L729.17,392.93 L729.38,392.93 L729.59,392.93 L729.80,392.93 L730.01,392.93 L730.22,392.93 L730.43,392.93 L730.65,392.93 L730.86,392.93 L731.07,392.93 L731.28,392.93 L731.49,392.93 L731.70,392.93 L731.91,392.93 L732.12,392.93 L732.34,392.93 L732.55,392.93 L732.76,392.93 L732.97,392.93 L733.18,392.93 L733.39,392.93 L733.60,392.93 L733.81,392.93 L734.03,392.93 L734.24,392.93 L734.45,392.93 L734.66,392.93 L734.87,392.93 L735.08,392.93 L735.29,392.93 L735.50,392.93 L735.72,392.93 L735.93,392.93 L736.14,392.93 L736.35,392.93 L736.56,392.93 L736.77,392.93 L736.98,392.93 L737.19,392.93 L737.41,392.93 L737.62,392.93 L737.83,392.93 L738.04,392.93 L738.25,392.93 L738.46,392.93 L738.67,392.93 L738.88,392.93 L739.10,392.93 L739.31,392.93 L739.52,392.93 L739.73,392.93 L739.94,392.93 L740.15,392.93 L740.36,392.93 L740.57,392.93 L740.79,392.93 L741.00,392.93 L741.21,392.93 L741.42,392.93 L741.63,392.93 L741.84,392.93 L742.05,392.93 L742.26,392.93 L742.48,392.93 L742.69,392.93 L742.90,392.93 L743.11,392.93 L743.32,392.93 L743.53,392.93 L743.74,392.93 L743.95,392.93 L744.17,392.93 L744.38,392.93 L744.59,392.93 L744.80,392.93 L745.01,392.93 L745.22,392.93 L745.43,392.93 L745.64,392.93 L745.86,392.93 L746.07,392.93 L746.28,392.93 L746.49,392.93 L746.70,392.93 L746.91,392.93 L747.12,392.93 L747.33,392.93 L747.55,392.93 L747.76,392.93 L747.97,392.93 L748.18,392.93 L748.39,392.93 L748.60,392.93 L748.81,392.93 L749.02,392.93 L749.24,392.93 L749.45,392.93 L749.66,392.93 L749.87,392.93 L750.08,392.93 L750.29,392.93 L750.50,392.93 L750.71,392.93 L750.93,392.93 L751.14,392.93 L751.35,392.93 L751.56,392.93 L751.77,392.93 L751.98,392.93 L752.19,392.93 L752.40,392.93 L752.62,392.93 L752.83,392.93 L753.04,392.93 L753.25,392.93 L753.46,392.93 L753.67,392.93 L753.88,392.93 L754.09,392.93 L754.31,392.93 L754.52,392.93 L754.73,392.93 L754.94,392.93 L755.15,392.93 L755.36,392.93 L755.57,392.93 L755.78,392.93 L755.99,392.93 L756.21,392.93 L756.42,392.93 L756.63,392.93 L756.84,392.93 L757.05,392.93 L757.26,392.93 L757.47,392.93 L757.68,392.93 L757.90,392.93 L758.11,392.93 L758.32,392.93 L758.53,392.93 L758.74,392.93 L758.95,392.93 L759.16,392.93 L759.37,392.93 L759.59,392.93 L759.80,392.93 L760.01,392.93 L760.22,392.93 L760.43,392.93 L760.64,392.93 L760.85,392.93 L761.06,392.93 L761.28,392.93 L761.49,392.93 L761.70,392.93 L761.91,392.93 L762.12,392.93 L762.33,392.93 L762.54,392.93 L762.75,392.93 L762.97,392.93 L763.18,392.93 L763.39,392.93 L763.60,392.93 L763.81,392.93 L764.02,392.93 L764.23,392.93 L764.44,392.93 L764.66,392.93 L764.87,392.93 L765.08,392.93 L765.29,392.93 L765.50,392.93 L765.71,392.93 L765.92,392.93 L766.13,392.93 L766.35,392.93 L766.56,392.93 L766.77,392.93 L766.98,392.93 L767.19,392.93 L767.40,392.93 L767.61,392.93 L767.82,392.93 L768.04,392.93 L768.25,392.93 L768.46,392.93 L768.67,392.93 L768.88,392.93 L769.09,392.93 L769.30,392.93 L769.51,392.93 L769.73,392.93 L769.94,392.93 L770.15,392.93 L770.36,392.93 L770.57,392.93 L770.78,392.93 L770.99,392.93 L771.20,392.93 L771.42,392.93 L771.63,392.93 L771.84,392.93 L772.05,392.93 L772.26,392.93 L772.47,392.93 L772.68,392.93 L772.89,392.93 L773.11,392.93 L773.32,392.93 L773.53,392.93 L773.74,392.93 L773.95,392.93 L774.16,392.93 L774.37,392.93 L774.58,392.93 L774.80,392.93 L775.01,392.93 L775.22,392.93 L775.43,392.93 L775.64,392.93 L775.85,392.93 L776.06,392.93 L776.27,392.93 L776.49,392.93 L776.70,392.93 L776.91,392.93 L777.12,392.93 L777.33,392.93 L777.54,392.93 L777.75,392.93 L777.96,392.93 L778.18,392.93 L778.39,392.93 L778.60,392.93 L778.81,392.93 L779.02,392.93 L779.23,392.93 L779.44,392.93 L779.65,392.93 L779.87,392.93 L780.08,392.93 L780.29,392.93 L780.50,392.93 L780.71,392.93 L780.92,392.93 L781.13,392.93 L781.34,392.93 L781.56,392.93 L781.77,392.93 L781.98,392.93 L782.19,392.93 L782.40,392.93 L782.61,392.93 L782.82,392.93 L783.03,392.93 L783.25,392.93 L783.46,392.93 L783.67,392.93 L783.88,392.93 L784.09,392.93 L784.30,392.93 L784.51,392.93 L784.72,392.93 L784.94,392.93 L785.15,392.93 L785.36,392.93 L785.57,392.93 L785.78,392.93 L785.99,392.93 L786.20,392.93 L786.41,392.93 L786.63,392.93 L786.84,392.93 L787.05,392.93 L787.26,392.93 L787.47,392.93 L787.68,392.93 L787.89,392.93 L788.10,392.93 L788.32,392.93 L788.53,392.93 L788.74,392.93 L788.95,392.93 L789.16,392.93 L789.37,392.93 L789.58,392.93 L789.79,392.93 L790.01,392.93 L790.22,392.93 L790.43,392.93 L790.64,392.93 L790.85,392.93 L791.06,392.93 L791.27,392.93 L791.48,392.93 L791.70,392.93 L791.91,392.93 L792.12,392.93 L792.33,392.93 L792.54,392.93 L792.75,392.93 L792.96,392.93 L793.17,392.93 L793.39,392.93 L793.60,392.93 L793.81,392.93 L794.02,392.93 L794.23,392.93 L794.44,392.93 L794.65,392.93 L794.86,392.93 L795.07,392.93 L795.29,392.93 L795.50,392.93 L795.71,392.93 L795.92,392.93 L796.13,392.93 L796.34,392.93 L796.55,392.93 L796.76,392.93 L796.98,392.93 L797.19,392.93 L797.40,392.93 L797.61,392.93 L797.82,392.93 L798.03,392.93 L798.24,392.93 L798.45,392.93 L798.67,392.93 L798.88,392.93 L799.09,392.93 L799.30,392.93 L799.51,392.93 L799.72,392.93 L799.93,392.93 L800.14,392.93 L800.36,392.93 L800.57,392.93 L800.78,392.93 L800.99,392.93 L801.20,392.93 L801.41,392.93 L801.62,392.93 L801.83,392.93 L802.05,392.93 L802.26,392.93 L802.47,392.93 L802.68,392.93 L802.89,392.93 L803.10,392.93 L803.31,392.93 L803.52,392.93 L803.74,392.93 L803.95,392.93 L804.16,392.93 L804.37,392.93 L804.58,392.93 L804.79,392.93 L805.00,392.93 L805.21,392.93 L805.43,392.93 L805.64,392.93 L805.85,392.93 L806.06,392.93 L806.27,392.93 L806.48,392.93 L806.69,392.93 L806.90,392.93 L807.12,392.93 L807.33,392.93 L807.54,392.93 L807.75,392.93 L807.96,392.93 L808.17,392.93 L808.38,392.93 L808.59,392.93 L808.81,392.93 L809.02,392.93 L809.23,392.93 L809.44,392.93 L809.65,392.93 L809.86,392.93 L810.07,392.93 L810.28,392.93 L810.50,392.93 L810.71,392.93 L810.92,392.93 L811.13,392.93 L811.34,392.93 L811.55,392.93 L811.76,392.93 L811.97,392.93 L812.19,392.93 L812.40,392.93 L812.61,392.93 L812.82,392.93 L813.03,392.93 L813.24,392.93 L813.45,392.93 L813.66,392.93 L813.88,392.93 L814.09,392.93 L814.30,392.93 L814.51,392.93 L814.72,392.93 L814.93,392.93 L815.14,392.93 L815.35,392.93 L815.57,392.93 L815.78,392.93 L815.99,392.93 L816.20,392.93 L816.41,392.93 L816.62,392.93 L816.83,392.93 L817.04,392.93 L817.26,392.93 L817.47,392.93 L817.68,392.93 L817.89,392.93 L818.10,392.93 L818.31,392.93 L818.52,392.93 L818.73,392.93 L818.95,392.93 L819.16,392.93 L819.37,392.93 L819.58,392.93 L819.79,392.93 L820.00,392.93 L820.21,392.93 L820.42,392.93 L820.64,392.93 L820.85,392.93 L821.06,392.93 L821.27,392.93 L821.48,392.93 L821.69,392.93 L821.90,392.93 L822.11,392.93 L822.33,392.93 L822.54,392.93 L822.75,392.93 L822.96,392.93 L823.17,392.93 L823.38,392.93 L823.59,392.93 L823.80,392.93 L824.02,392.93 L824.23,392.93 L824.44,392.93 L824.65,392.93 L824.86,392.93 L825.07,392.93 L825.28,392.93 L825.49,392.93 L825.71,392.93 L825.92,392.93 L826.13,392.93 L826.34,392.93 L826.55,392.93 L826.76,392.93 L826.97,392.93 L827.18,392.93 L827.40,392.93 L827.61,392.93 L827.82,392.93 L828.03,392.93 L828.24,392.93 L828.45,392.93 L828.66,392.93 L828.87,392.93 L829.09,392.93 L829.30,392.93 L829.51,392.93 L829.72,392.93 L829.93,392.93 L830.14,392.93 L830.35,392.93 L830.56,392.93 L830.78,392.93 L830.99,392.93 L831.20,392.93 L831.41,392.93 L831.62,392.93 L831.83,392.93 L832.04,392.93 L832.25,392.93 L832.47,392.93 L832.68,392.93 L832.89,392.93 L833.10,392.93 L833.31,392.93 L833.52,392.93 L833.73,392.93 L833.94,392.93 L834.16,392.93 L834.37,392.93 L834.58,392.93 L834.79,392.93 L835.00,392.93" style="stroke-width: 28; stroke: rgb(74, 144, 226); stroke-opacity: 1;"/>
        <circle onclick="onClickEvent(evt)" id="4-5-2-point-1" cx="602.8434890747071" cy="392.9267921447754" r="30" style="stroke-width: 28; stroke: rgb(74, 144, 226); stroke-opacity: 1; fill: rgb(74, 144, 226); fill-opacity: 1;"/>

        <text text-anchor="middle" font-size="20" dominant-baseline="hanging" stroke="none" fill="rgb(50,50,50)" fill-opacity="1" x="83.90211601257322" y="604.1776504516602">-3</text>
        <text text-anchor="middle" font-size="20" dominant-baseline="hanging" stroke="none" fill="rgb(50,50,50)" fill-opacity="1" x="186.55039062499998" y="604.1776504516602">-2</text>
        <text text-anchor="middle" font-size="20" dominant-baseline="hanging" stroke="none" fill="rgb(50,50,50)" fill-opacity="1" x="289.1986652374267" y="604.1776504516602">-1</text>
        <text text-anchor="middle" font-size="20" dominant-baseline="hanging" stroke="none" fill="rgb(50,50,50)" fill-opacity="1" x="500.1952144622802" y="604.1776504516602">1</text>
        <text text-anchor="middle" font-size="20" dominant-baseline="hanging" stroke="none" fill="rgb(50,50,50)" fill-opacity="1" x="602.843489074707" y="604.1776504516602">2</text>
        <text text-anchor="middle" font-size="20" dominant-baseline="hanging" stroke="none" fill="rgb(50,50,50)" fill-opacity="1" x="705.4917636871337" y="604.1776504516602">3</text>
        <text text-anchor="middle" font-size="20" dominant-baseline="hanging" stroke="none" fill="rgb(50,50,50)" fill-opacity="1" x="808.1400382995605" y="604.1776504516602">4</text>
        <text text-anchor="middle" font-size="20" dominant-baseline="hanging" stroke="none" fill="rgb(50,50,50)" fill-opacity="1" x="385.54693984985346" y="602.1776504516602">0</text>

        <text text-anchor="end" dominant-baseline="middle" font-size="20" stroke="none" fill="rgb(50,50,50)" fill-opacity="1" x="385.5469398498535" y="893.5539379119873">-3</text>
        <text text-anchor="end" dominant-baseline="middle" font-size="20" stroke="none" fill="rgb(50,50,50)" fill-opacity="1" x="385.5469398498535" y="793.4285087585449">-2</text>
        <text text-anchor="end" dominant-baseline="middle" font-size="20" stroke="none" fill="rgb(50,50,50)" fill-opacity="1" x="385.5469398498535" y="693.3030796051025">-1</text>
        <text text-anchor="end" dominant-baseline="middle" font-size="20" stroke="none" fill="rgb(50,50,50)" fill-opacity="1" x="385.5469398498535" y="493.05222129821783">1</text>
        <text text-anchor="end" dominant-baseline="middle" font-size="20" stroke="none" fill="rgb(50,50,50)" fill-opacity="1" x="385.5469398498535" y="392.9267921447754">2</text>
        <text text-anchor="end" dominant-baseline="middle" font-size="20" stroke="none" fill="rgb(50,50,50)" fill-opacity="1" x="385.5469398498535" y="292.8013629913331">3</text>
        <text text-anchor="end" dominant-baseline="middle" font-size="20" stroke="none" fill="rgb(50,50,50)" fill-opacity="1" x="385.5469398498535" y="192.67593383789074">4</text>
        <text text-anchor="end" dominant-baseline="middle" font-size="20" stroke="none" fill="rgb(50,50,50)" fill-opacity="1" x="385.5469398498535" y="92.55050468444824">5</text>
    </g>
</svg>