<svg xmlns="http://www.w3.org/2000/svg" xmlns:xlink="http://www.w3.org/1999/xlink" x="0" y="0" width="1922.2222900390625" height="964.0798950195312" style="
        width:1922.2222900390625px;
        height:964.0798950195312px;
        background: #FFF;
        fill: none;
">
<script type="application/ecmascript"> <![CDATA[
    function onClickEvent(evt) {
        Android.showDetail(evt.target.getAttribute("id"));
    }
  ]]> </script>
    <g class="composite-shape" data-amt="diagram/shapes/plot">

        <path onclick="onClickEvent(evt)" id="7-6-line-1" d=" M0.00,-960.00 L1.75,-960.00 L3.49,-960.00 L5.24,-960.00 L6.99,-960.00 L8.74,-960.00 L10.48,-960.00 L12.23,-960.00 L13.98,-960.00 L15.72,-960.00 L17.47,-960.00 L19.22,-960.00 L20.96,-960.00 L22.71,-960.00 L24.46,-960.00 L26.21,-960.00 L27.95,-960.00 L29.70,-960.00 L31.45,-960.00 L33.19,-960.00 L34.94,-960.00 L36.69,-960.00 L38.43,-960.00 L40.18,-960.00 L41.93,-960.00 L43.68,-960.00 L45.42,-960.00 L47.17,-960.00 L48.92,-960.00 L50.66,-960.00 L52.41,-960.00 L54.16,-960.00 L55.91,-960.00 L57.65,-960.00 L59.40,-960.00 L61.15,-960.00 L62.89,-960.00 L64.64,-960.00 L66.39,-960.00 L68.13,-960.00 L69.88,-960.00 L71.63,-960.00 L73.38,-960.00 L75.12,-960.00 L76.87,-960.00 L78.62,-960.00 L80.36,-960.00 L82.11,-960.00 L83.86,-960.00 L85.61,-960.00 L87.35,-960.00 L89.10,-960.00 L90.85,-960.00 L92.59,-960.00 L94.34,-960.00 L96.09,-960.00 L97.83,-960.00 L99.58,-960.00 L101.33,-960.00 L103.08,-960.00 L104.82,-960.00 L106.57,-960.00 L108.32,-960.00 L110.06,-960.00 L111.81,-960.00 L113.56,-960.00 L115.30,-960.00 L117.05,-960.00 L118.80,-960.00 L120.55,-960.00 L122.29,-960.00 L124.04,-960.00 L125.79,-960.00 L127.53,-960.00 L129.28,-960.00 L131.03,-960.00 L132.78,-960.00 L134.52,-960.00 L136.27,-960.00 L138.02,-960.00 L139.76,-960.00 L141.51,-960.00 L143.26,-960.00 L145.00,-960.00 L146.75,-960.00 L148.50,-960.00 L150.25,-960.00 L151.99,-960.00 L153.74,-960.00 L155.49,-960.00 L157.23,-960.00 L158.98,-960.00 L160.73,-960.00 L162.47,-960.00 L164.22,-960.00 L165.97,-960.00 L167.72,-960.00 L169.46,-960.00 L171.21,-960.00 L172.96,-960.00 L174.70,-960.00 L176.45,-960.00 L178.20,-960.00 L179.95,-960.00 L181.69,-960.00 L183.44,-960.00 L185.19,-960.00 L186.93,-960.00 L188.68,-960.00 L190.43,-960.00 L192.17,-960.00 L193.92,-960.00 L195.67,-960.00 L197.42,-960.00 L199.16,-960.00 L200.91,-960.00 L202.66,-960.00 L204.40,-960.00 L206.15,-960.00 L207.90,-960.00 L209.65,-960.00 L211.39,-960.00 L213.14,-960.00 L214.89,-960.00 L216.63,-960.00 L218.38,-960.00 L220.13,-960.00 L221.87,-960.00 L223.62,-960.00 L225.37,-960.00 L227.12,-960.00 L228.86,-960.00 L230.61,-960.00 L232.36,-960.00 L234.10,-960.00 L235.85,-960.00 L237.60,-960.00 L239.34,-960.00 L241.09,-960.00 L242.84,-960.00 L244.59,-960.00 L246.33,-960.00 L248.08,-960.00 L249.83,-956.52 L251.57,-953.02 L253.32,-949.53 L255.07,-946.03 L256.82,-942.54 L258.56,-939.05 L260.31,-935.55 L262.06,-932.06 L263.80,-928.56 L265.55,-925.07 L267.30,-921.58 L269.04,-918.08 L270.79,-914.59 L272.54,-911.09 L274.29,-907.60 L276.03,-904.11 L277.78,-900.61 L279.53,-897.12 L281.27,-893.62 L283.02,-890.13 L284.77,-886.63 L286.52,-883.14 L288.26,-879.65 L290.01,-876.15 L291.76,-872.66 L293.50,-869.16 L295.25,-865.67 L297.00,-862.18 L298.74,-858.68 L300.49,-855.19 L302.24,-851.69 L303.99,-848.20 L305.73,-844.71 L307.48,-841.21 L309.23,-837.72 L310.97,-834.22 L312.72,-830.73 L314.47,-827.24 L316.21,-823.74 L317.96,-820.25 L319.71,-816.75 L321.46,-813.26 L323.20,-809.76 L324.95,-806.27 L326.70,-802.78 L328.44,-799.28 L330.19,-795.79 L331.94,-792.29 L333.69,-788.80 L335.43,-785.31 L337.18,-781.81 L338.93,-778.32 L340.67,-774.82 L342.42,-771.33 L344.17,-767.84 L345.91,-764.34 L347.66,-760.85 L349.41,-757.35 L351.16,-753.86 L352.90,-750.37 L354.65,-746.87 L356.40,-743.38 L358.14,-739.88 L359.89,-736.39 L361.64,-732.90 L363.38,-729.40 L365.13,-725.91 L366.88,-722.41 L368.63,-718.92 L370.37,-715.42 L372.12,-711.93 L373.87,-708.44 L375.61,-704.94 L377.36,-701.45 L379.11,-697.95 L380.86,-694.46 L382.60,-690.97 L384.35,-687.47 L386.10,-683.98 L387.84,-680.48 L389.59,-676.99 L391.34,-673.50 L393.08,-670.00 L394.83,-666.51 L396.58,-663.01 L398.33,-659.52 L400.07,-656.03 L401.82,-652.53 L403.57,-649.04 L405.31,-645.54 L407.06,-642.05 L408.81,-638.55 L410.56,-635.06 L412.30,-631.57 L414.05,-628.07 L415.80,-624.58 L417.54,-621.08 L419.29,-617.59 L421.04,-614.10 L422.78,-610.60 L424.53,-607.11 L426.28,-603.61 L428.03,-600.12 L429.77,-596.63 L431.52,-593.13 L433.27,-589.64 L435.01,-586.14 L436.76,-582.65 L438.51,-579.16 L440.25,-575.66 L442.00,-572.17 L443.75,-568.67 L445.50,-565.18 L447.24,-561.68 L448.99,-558.19 L450.74,-554.70 L452.48,-551.20 L454.23,-547.71 L455.98,-544.21 L457.73,-540.72 L459.47,-537.23 L461.22,-533.73 L462.97,-530.24 L464.71,-526.74 L466.46,-523.25 L468.21,-519.76 L469.95,-516.26 L471.70,-512.77 L473.45,-509.27 L475.20,-505.78 L476.94,-502.29 L478.69,-498.79 L480.44,-495.30 L482.18,-491.80 L483.93,-488.31 L485.68,-484.82 L487.42,-481.32 L489.17,-477.83 L490.92,-474.33 L492.67,-470.84 L494.41,-467.34 L496.16,-463.85 L497.91,-460.36 L499.65,-456.86 L501.40,-453.37 L503.15,-449.87 L504.90,-446.38 L506.64,-442.89 L508.39,-439.39 L510.14,-435.90 L511.88,-432.40 L513.63,-428.91 L515.38,-425.42 L517.12,-421.92 L518.87,-418.43 L520.62,-414.93 L522.37,-411.44 L524.11,-407.95 L525.86,-404.45 L527.61,-400.96 L529.35,-397.46 L531.10,-393.97 L532.85,-390.47 L534.60,-386.98 L536.34,-383.49 L538.09,-379.99 L539.84,-376.50 L541.58,-373.00 L543.33,-369.51 L545.08,-366.02 L546.82,-362.52 L548.57,-359.03 L550.32,-355.53 L552.07,-352.04 L553.81,-348.55 L555.56,-345.05 L557.31,-341.56 L559.05,-338.06 L560.80,-334.57 L562.55,-331.08 L564.29,-327.58 L566.04,-324.09 L567.79,-320.59 L569.54,-317.10 L571.28,-313.60 L573.03,-310.11 L574.78,-306.62 L576.52,-303.12 L578.27,-299.63 L580.02,-296.13 L581.77,-292.64 L583.51,-289.15 L585.26,-285.65 L587.01,-282.16 L588.75,-278.66 L590.50,-275.17 L592.25,-271.68 L593.99,-268.18 L595.74,-264.69 L597.49,-261.19 L599.24,-257.70 L600.98,-254.21 L602.73,-250.71 L604.48,-247.22 L606.22,-243.72 L607.97,-240.23 L609.72,-236.73 L611.46,-233.24 L613.21,-229.75 L614.96,-226.25 L616.71,-222.76 L618.45,-219.26 L620.20,-215.77 L621.95,-212.28 L623.69,-208.78 L625.44,-205.29 L627.19,-201.79 L628.94,-198.30 L630.68,-194.81 L632.43,-191.31 L634.18,-187.82 L635.92,-184.32 L637.67,-180.83 L639.42,-177.34 L641.16,-173.84 L642.91,-170.35 L644.66,-166.85 L646.41,-163.36 L648.15,-159.87 L649.90,-156.37 L651.65,-152.88 L653.39,-149.38 L655.14,-145.89 L656.89,-142.39 L658.64,-138.90 L660.38,-135.41 L662.13,-131.91 L663.88,-128.42 L665.62,-124.92 L667.37,-121.43 L669.12,-117.94 L670.86,-114.44 L672.61,-110.95 L674.36,-107.45 L676.11,-103.96 L677.85,-100.47 L679.60,-96.97 L681.35,-93.48 L683.09,-89.98 L684.84,-86.49 L686.59,-83.00 L688.33,-79.50 L690.08,-76.01 L691.83,-72.51 L693.58,-69.02 L695.32,-65.52 L697.07,-62.03 L698.82,-58.54 L700.56,-55.04 L702.31,-51.55 L704.06,-48.05 L705.81,-44.56 L707.55,-41.07 L709.30,-37.57 L711.05,-34.08 L712.79,-30.58 L714.54,-27.09 L716.29,-23.60 L718.03,-20.10 L719.78,-16.61 L721.53,-13.11 L723.28,-9.62 L725.02,-6.13 L726.77,-2.63 L728.52,0.86 L730.26,4.36 L732.01,7.85 L733.76,11.35 L735.51,14.84 L737.25,18.33 L739.00,21.83 L740.75,25.32 L742.49,28.82 L744.24,32.31 L745.99,35.80 L747.73,39.30 L749.48,42.79 L751.23,46.29 L752.98,49.78 L754.72,53.27 L756.47,56.77 L758.22,60.26 L759.96,63.76 L761.71,67.25 L763.46,70.74 L765.20,74.24 L766.95,77.73 L768.70,81.23 L770.45,84.72 L772.19,88.22 L773.94,91.71 L775.69,95.20 L777.43,98.70 L779.18,102.19 L780.93,105.69 L782.68,109.18 L784.42,112.67 L786.17,116.17 L787.92,119.66 L789.66,123.16 L791.41,126.65 L793.16,130.14 L794.90,133.64 L796.65,137.13 L798.40,140.63 L800.15,144.12 L801.89,147.61 L803.64,151.11 L805.39,154.60 L807.13,158.10 L808.88,161.59 L810.63,165.08 L812.37,168.58 L814.12,172.07 L815.87,175.57 L817.62,179.06 L819.36,182.56 L821.11,186.05 L822.86,189.54 L824.60,193.04 L826.35,196.53 L828.10,200.03 L829.85,203.52 L831.59,207.01 L833.34,210.51 L835.09,214.00 L836.83,217.50 L838.58,220.99 L840.33,224.48 L842.07,227.98 L843.82,231.47 L845.57,234.97 L847.32,238.46 L849.06,241.95 L850.81,245.45 L852.56,248.94 L854.30,252.44 L856.05,255.93 L857.80,259.43 L859.55,262.92 L861.29,266.41 L863.04,269.91 L864.79,273.40 L866.53,276.90 L868.28,280.39 L870.03,283.88 L871.77,287.38 L873.52,290.87 L875.27,294.37 L877.02,297.86 L878.76,301.35 L880.51,304.85 L882.26,308.34 L884.00,311.84 L885.75,315.33 L887.50,318.82 L889.24,322.32 L890.99,325.81 L892.74,329.31 L894.49,332.80 L896.23,336.30 L897.98,339.79 L899.73,343.28 L901.47,346.78 L903.22,350.27 L904.97,353.77 L906.72,357.26 L908.46,360.75 L910.21,364.25 L911.96,367.74 L913.70,371.24 L915.45,374.73 L917.20,378.22 L918.94,381.72 L920.69,385.21 L922.44,388.71 L924.19,392.20 L925.93,395.69 L927.68,399.19 L929.43,402.68 L931.17,406.18 L932.92,409.67 L934.67,413.16 L936.41,416.66 L938.16,420.15 L939.91,423.65 L941.66,427.14 L943.40,430.64 L945.15,434.13 L946.90,437.62 L948.64,441.12 L950.39,444.61 L952.14,448.11 L953.89,451.60 L955.63,455.09 L957.38,458.59 L959.13,462.08 L960.87,465.58 L962.62,469.07 L964.37,472.56 L966.11,476.06 L967.86,479.55 L969.61,483.05 L971.36,486.54 L973.10,490.03 L974.85,493.53 L976.60,497.02 L978.34,500.52 L980.09,504.01 L981.84,507.51 L983.59,511.00 L985.33,514.49 L987.08,517.99 L988.83,521.48 L990.57,524.98 L992.32,528.47 L994.07,531.96 L995.81,535.46 L997.56,538.95 L999.31,542.45 L1001.06,545.94 L1002.80,549.43 L1004.55,552.93 L1006.30,556.42 L1008.04,559.92 L1009.79,563.41 L1011.54,566.90 L1013.28,570.40 L1015.03,573.89 L1016.78,577.39 L1018.53,580.88 L1020.27,584.38 L1022.02,587.87 L1023.77,591.36 L1025.51,594.86 L1027.26,598.35 L1029.01,601.85 L1030.76,605.34 L1032.50,608.83 L1034.25,612.33 L1036.00,615.82 L1037.74,619.32 L1039.49,622.81 L1041.24,626.30 L1042.98,629.80 L1044.73,633.29 L1046.48,636.79 L1048.23,640.28 L1049.97,643.77 L1051.72,647.27 L1053.47,650.76 L1055.21,654.26 L1056.96,657.75 L1058.71,661.25 L1060.45,664.74 L1062.20,668.23 L1063.95,671.73 L1065.70,675.22 L1067.44,678.72 L1069.19,682.21 L1070.94,685.70 L1072.68,689.20 L1074.43,692.69 L1076.18,696.19 L1077.93,699.68 L1079.67,703.17 L1081.42,706.67 L1083.17,710.16 L1084.91,713.66 L1086.66,717.15 L1088.41,720.64 L1090.15,724.14 L1091.90,727.63 L1093.65,731.13 L1095.40,734.62 L1097.14,738.11 L1098.89,741.61 L1100.64,745.10 L1102.38,748.60 L1104.13,752.09 L1105.88,755.59 L1107.63,759.08 L1109.37,762.57 L1111.12,766.07 L1112.87,769.56 L1114.61,773.06 L1116.36,776.55 L1118.11,780.04 L1119.85,783.54 L1121.60,787.03 L1123.35,790.53 L1125.10,794.02 L1126.84,797.51 L1128.59,801.01 L1130.34,804.50 L1132.08,808.00 L1133.83,811.49 L1135.58,814.98 L1137.32,818.48 L1139.07,821.97 L1140.82,825.47 L1142.57,828.96 L1144.31,832.46 L1146.06,835.95 L1147.81,839.44 L1149.55,842.94 L1151.30,846.43 L1153.05,849.93 L1154.80,853.42 L1156.54,856.91 L1158.29,860.41 L1160.04,863.90 L1161.78,867.40 L1163.53,870.89 L1165.28,874.38 L1167.02,877.88 L1168.77,881.37 L1170.52,884.87 L1172.27,888.36 L1174.01,891.85 L1175.76,895.35 L1177.51,898.84 L1179.25,902.34 L1181.00,905.83 L1182.75,909.33 L1184.49,912.82 L1186.24,916.31 L1187.99,919.81 L1189.74,923.30 L1191.48,926.80 L1193.23,930.29 L1194.98,933.78 L1196.72,937.28 L1198.47,940.77 L1200.22,944.27 L1201.97,947.76 L1203.71,951.25 L1205.46,954.75 L1207.21,958.24 L1208.95,961.74 L1210.70,965.23 L1212.45,968.72 L1214.19,972.22 L1215.94,975.71 L1217.69,979.21 L1219.44,982.70 L1221.18,986.19 L1222.93,989.69 L1224.68,993.18 L1226.42,996.68 L1228.17,1000.17 L1229.92,1003.67 L1231.67,1007.16 L1233.41,1010.65 L1235.16,1014.15 L1236.91,1017.64 L1238.65,1021.14 L1240.40,1024.63 L1242.15,1028.12 L1243.89,1031.62 L1245.64,1035.11 L1247.39,1038.61 L1249.14,1042.10 L1250.88,1045.59 L1252.63,1049.09 L1254.38,1052.58 L1256.12,1056.08 L1257.87,1059.57 L1259.62,1063.06 L1261.36,1066.56 L1263.11,1070.05 L1264.86,1073.55 L1266.61,1077.04 L1268.35,1080.54 L1270.10,1084.03 L1271.85,1087.52 L1273.59,1091.02 L1275.34,1094.51 L1277.09,1098.01 L1278.84,1101.50 L1280.58,1104.99 L1282.33,1108.49 L1284.08,1111.98 L1285.82,1115.48 L1287.57,1118.97 L1289.32,1122.46 L1291.06,1125.96 L1292.81,1129.45 L1294.56,1132.95 L1296.31,1136.44 L1298.05,1139.93 L1299.80,1143.43 L1301.55,1146.92 L1303.29,1150.42 L1305.04,1153.91 L1306.79,1157.41 L1308.54,1160.90 L1310.28,1164.39 L1312.03,1167.89 L1313.78,1171.38 L1315.52,1174.88 L1317.27,1178.37 L1319.02,1181.86 L1320.76,1185.36 L1322.51,1188.85 L1324.26,1192.35 L1326.01,1195.84 L1327.75,1199.33 L1329.50,1202.83 L1331.25,1206.32 L1332.99,1209.82 L1334.74,1213.31 L1336.49,1216.80 L1338.23,1220.30 L1339.98,1223.79 L1341.73,1227.29 L1343.48,1230.78 L1345.22,1234.28 L1346.97,1237.77 L1348.72,1241.26 L1350.46,1244.76 L1352.21,1248.25 L1353.96,1251.75 L1355.71,1255.24 L1357.45,1258.73 L1359.20,1262.23 L1360.95,1265.72 L1362.69,1269.22 L1364.44,1272.71 L1366.19,1276.20 L1367.93,1279.70 L1369.68,1283.19 L1371.43,1286.69 L1373.18,1290.18 L1374.92,1293.67 L1376.67,1297.17 L1378.42,1300.66 L1380.16,1304.16 L1381.91,1307.65 L1383.66,1311.14 L1385.40,1314.64 L1387.15,1318.13 L1388.90,1321.63 L1390.65,1325.12 L1392.39,1328.62 L1394.14,1332.11 L1395.89,1335.60 L1397.63,1339.10 L1399.38,1342.59 L1401.13,1346.09 L1402.88,1349.58 L1404.62,1353.07 L1406.37,1356.57 L1408.12,1360.06 L1409.86,1363.56 L1411.61,1367.05 L1413.36,1370.54 L1415.10,1374.04 L1416.85,1377.53 L1418.60,1381.03 L1420.35,1384.52 L1422.09,1388.01 L1423.84,1391.51 L1425.59,1395.00 L1427.33,1398.50 L1429.08,1401.99 L1430.83,1405.49 L1432.58,1408.98 L1434.32,1412.47 L1436.07,1415.97 L1437.82,1419.46 L1439.56,1422.96 L1441.31,1426.45 L1443.06,1429.94 L1444.80,1433.44 L1446.55,1436.93 L1448.30,1440.43 L1450.05,1443.92 L1451.79,1447.41 L1453.54,1450.91 L1455.29,1454.40 L1457.03,1457.90 L1458.78,1461.39 L1460.53,1464.88 L1462.27,1468.38 L1464.02,1471.87 L1465.77,1475.37 L1467.52,1478.86 L1469.26,1482.36 L1471.01,1485.85 L1472.76,1489.34 L1474.50,1492.84 L1476.25,1496.33 L1478.00,1499.83 L1479.75,1503.32 L1481.49,1506.81 L1483.24,1510.31 L1484.99,1513.80 L1486.73,1517.30 L1488.48,1520.79 L1490.23,1524.28 L1491.97,1527.78 L1493.72,1531.27 L1495.47,1534.77 L1497.22,1538.26 L1498.96,1541.75 L1500.71,1545.25 L1502.46,1548.74 L1504.20,1552.24 L1505.95,1555.73 L1507.70,1559.23 L1509.44,1562.72 L1511.19,1566.21 L1512.94,1569.71 L1514.69,1573.20 L1516.43,1576.70 L1518.18,1580.19 L1519.93,1583.68 L1521.67,1587.18 L1523.42,1590.67 L1525.17,1594.17 L1526.92,1597.66 L1528.66,1601.15 L1530.41,1604.65 L1532.16,1608.14 L1533.90,1611.64 L1535.65,1615.13 L1537.40,1618.62 L1539.14,1622.12 L1540.89,1625.61 L1542.64,1629.11 L1544.39,1632.60 L1546.13,1636.09 L1547.88,1639.59 L1549.63,1643.08 L1551.37,1646.58 L1553.12,1650.07 L1554.87,1653.57 L1556.62,1657.06 L1558.36,1660.55 L1560.11,1664.05 L1561.86,1667.54 L1563.60,1671.04 L1565.35,1674.53 L1567.10,1678.02 L1568.84,1681.52 L1570.59,1685.01 L1572.34,1688.51 L1574.09,1692.00 L1575.83,1695.49 L1577.58,1698.99 L1579.33,1702.48 L1581.07,1705.98 L1582.82,1709.47 L1584.57,1712.96 L1586.31,1716.46 L1588.06,1719.95 L1589.81,1723.45 L1591.56,1726.94 L1593.30,1730.44 L1595.05,1733.93 L1596.80,1737.42 L1598.54,1740.92 L1600.29,1744.41 L1602.04,1747.91 L1603.79,1751.40 L1605.53,1754.89 L1607.28,1758.39 L1609.03,1761.88 L1610.77,1765.38 L1612.52,1768.87 L1614.27,1772.36 L1616.01,1775.86 L1617.76,1779.35 L1619.51,1782.85 L1621.26,1786.34 L1623.00,1789.83 L1624.75,1793.33 L1626.50,1796.82 L1628.24,1800.32 L1629.99,1803.81 L1631.74,1807.31 L1633.48,1810.80 L1635.23,1814.29 L1636.98,1817.79 L1638.73,1821.28 L1640.47,1824.78 L1642.22,1828.27 L1643.97,1831.76 L1645.71,1835.26 L1647.46,1838.75 L1649.21,1842.25 L1650.96,1845.74 L1652.70,1849.23 L1654.45,1852.73 L1656.20,1856.22 L1657.94,1859.72 L1659.69,1863.21 L1661.44,1866.70 L1663.18,1870.20 L1664.93,1873.69 L1666.68,1877.19 L1668.43,1880.68 L1670.17,1884.17 L1671.92,1887.67 L1673.67,1891.16 L1675.41,1894.66 L1677.16,1898.15 L1678.91,1901.65 L1680.66,1905.14 L1682.40,1908.63 L1684.15,1912.13 L1685.90,1915.62 L1687.64,1919.12 L1689.39,1920.00 L1691.14,1920.00 L1692.88,1920.00 L1694.63,1920.00 L1696.38,1920.00 L1698.13,1920.00 L1699.87,1920.00 L1701.62,1920.00 L1703.37,1920.00 L1705.11,1920.00 L1706.86,1920.00 L1708.61,1920.00 L1710.35,1920.00 L1712.10,1920.00 L1713.85,1920.00 L1715.60,1920.00 L1717.34,1920.00 L1719.09,1920.00 L1720.84,1920.00 L1722.58,1920.00 L1724.33,1920.00 L1726.08,1920.00 L1727.83,1920.00 L1729.57,1920.00 L1731.32,1920.00 L1733.07,1920.00 L1734.81,1920.00 L1736.56,1920.00 L1738.31,1920.00 L1740.05,1920.00 L1741.80,1920.00 L1743.55,1920.00 L1745.30,1920.00 L1747.04,1920.00 L1748.79,1920.00 L1750.54,1920.00 L1752.28,1920.00 L1754.03,1920.00 L1755.78,1920.00 L1757.53,1920.00 L1759.27,1920.00 L1761.02,1920.00 L1762.77,1920.00 L1764.51,1920.00 L1766.26,1920.00 L1768.01,1920.00 L1769.75,1920.00 L1771.50,1920.00 L1773.25,1920.00 L1775.00,1920.00 L1776.74,1920.00 L1778.49,1920.00 L1780.24,1920.00 L1781.98,1920.00 L1783.73,1920.00 L1785.48,1920.00 L1787.22,1920.00 L1788.97,1920.00 L1790.72,1920.00 L1792.47,1920.00 L1794.21,1920.00 L1795.96,1920.00 L1797.71,1920.00 L1799.45,1920.00 L1801.20,1920.00 L1802.95,1920.00 L1804.70,1920.00 L1806.44,1920.00 L1808.19,1920.00 L1809.94,1920.00 L1811.68,1920.00 L1813.43,1920.00 L1815.18,1920.00 L1816.92,1920.00 L1818.67,1920.00 L1820.42,1920.00 L1822.17,1920.00 L1823.91,1920.00 L1825.66,1920.00 L1827.41,1920.00 L1829.15,1920.00 L1830.90,1920.00 L1832.65,1920.00 L1834.39,1920.00 L1836.14,1920.00 L1837.89,1920.00 L1839.64,1920.00 L1841.38,1920.00 L1843.13,1920.00 L1844.88,1920.00 L1846.62,1920.00 L1848.37,1920.00 L1850.12,1920.00 L1851.87,1920.00 L1853.61,1920.00 L1855.36,1920.00 L1857.11,1920.00 L1858.85,1920.00 L1860.60,1920.00 L1862.35,1920.00 L1864.09,1920.00 L1865.84,1920.00 L1867.59,1920.00 L1869.34,1920.00 L1871.08,1920.00 L1872.83,1920.00 L1874.58,1920.00 L1876.32,1920.00 L1878.07,1920.00 L1879.82,1920.00 L1881.57,1920.00 L1883.31,1920.00 L1885.06,1920.00 L1886.81,1920.00 L1888.55,1920.00 L1890.30,1920.00 L1892.05,1920.00 L1893.79,1920.00 L1895.54,1920.00 L1897.29,1920.00 L1899.04,1920.00 L1900.78,1920.00 L1902.53,1920.00 L1904.28,1920.00 L1906.02,1920.00 L1907.77,1920.00 L1909.52,1920.00 L1911.26,1920.00 L1913.01,1920.00 L1914.76,1920.00 L1916.51,1920.00 L1918.25,1920.00 L1920.00,1920.00" style="stroke-width: 28; stroke: rgb(74, 144, 226)"/>
        <path onclick="onClickEvent(evt)" id="7-6-line-2" d=" M0.00,1162.21 L1.75,1161.34 L3.49,1160.46 L5.24,1159.59 L6.99,1158.72 L8.74,1157.84 L10.48,1156.97 L12.23,1156.09 L13.98,1155.22 L15.72,1154.35 L17.47,1153.47 L19.22,1152.60 L20.96,1151.73 L22.71,1150.85 L24.46,1149.98 L26.21,1149.11 L27.95,1148.23 L29.70,1147.36 L31.45,1146.49 L33.19,1145.61 L34.94,1144.74 L36.69,1143.87 L38.43,1142.99 L40.18,1142.12 L41.93,1141.25 L43.68,1140.37 L45.42,1139.50 L47.17,1138.62 L48.92,1137.75 L50.66,1136.88 L52.41,1136.00 L54.16,1135.13 L55.91,1134.26 L57.65,1133.38 L59.40,1132.51 L61.15,1131.64 L62.89,1130.76 L64.64,1129.89 L66.39,1129.02 L68.13,1128.14 L69.88,1127.27 L71.63,1126.40 L73.38,1125.52 L75.12,1124.65 L76.87,1123.77 L78.62,1122.90 L80.36,1122.03 L82.11,1121.15 L83.86,1120.28 L85.61,1119.41 L87.35,1118.53 L89.10,1117.66 L90.85,1116.79 L92.59,1115.91 L94.34,1115.04 L96.09,1114.17 L97.83,1113.29 L99.58,1112.42 L101.33,1111.55 L103.08,1110.67 L104.82,1109.80 L106.57,1108.92 L108.32,1108.05 L110.06,1107.18 L111.81,1106.30 L113.56,1105.43 L115.30,1104.56 L117.05,1103.68 L118.80,1102.81 L120.55,1101.94 L122.29,1101.06 L124.04,1100.19 L125.79,1099.32 L127.53,1098.44 L129.28,1097.57 L131.03,1096.70 L132.78,1095.82 L134.52,1094.95 L136.27,1094.07 L138.02,1093.20 L139.76,1092.33 L141.51,1091.45 L143.26,1090.58 L145.00,1089.71 L146.75,1088.83 L148.50,1087.96 L150.25,1087.09 L151.99,1086.21 L153.74,1085.34 L155.49,1084.47 L157.23,1083.59 L158.98,1082.72 L160.73,1081.85 L162.47,1080.97 L164.22,1080.10 L165.97,1079.23 L167.72,1078.35 L169.46,1077.48 L171.21,1076.60 L172.96,1075.73 L174.70,1074.86 L176.45,1073.98 L178.20,1073.11 L179.95,1072.24 L181.69,1071.36 L183.44,1070.49 L185.19,1069.62 L186.93,1068.74 L188.68,1067.87 L190.43,1067.00 L192.17,1066.12 L193.92,1065.25 L195.67,1064.38 L197.42,1063.50 L199.16,1062.63 L200.91,1061.75 L202.66,1060.88 L204.40,1060.01 L206.15,1059.13 L207.90,1058.26 L209.65,1057.39 L211.39,1056.51 L213.14,1055.64 L214.89,1054.77 L216.63,1053.89 L218.38,1053.02 L220.13,1052.15 L221.87,1051.27 L223.62,1050.40 L225.37,1049.53 L227.12,1048.65 L228.86,1047.78 L230.61,1046.90 L232.36,1046.03 L234.10,1045.16 L235.85,1044.28 L237.60,1043.41 L239.34,1042.54 L241.09,1041.66 L242.84,1040.79 L244.59,1039.92 L246.33,1039.04 L248.08,1038.17 L249.83,1037.30 L251.57,1036.42 L253.32,1035.55 L255.07,1034.68 L256.82,1033.80 L258.56,1032.93 L260.31,1032.05 L262.06,1031.18 L263.80,1030.31 L265.55,1029.43 L267.30,1028.56 L269.04,1027.69 L270.79,1026.81 L272.54,1025.94 L274.29,1025.07 L276.03,1024.19 L277.78,1023.32 L279.53,1022.45 L281.27,1021.57 L283.02,1020.70 L284.77,1019.83 L286.52,1018.95 L288.26,1018.08 L290.01,1017.21 L291.76,1016.33 L293.50,1015.46 L295.25,1014.58 L297.00,1013.71 L298.74,1012.84 L300.49,1011.96 L302.24,1011.09 L303.99,1010.22 L305.73,1009.34 L307.48,1008.47 L309.23,1007.60 L310.97,1006.72 L312.72,1005.85 L314.47,1004.98 L316.21,1004.10 L317.96,1003.23 L319.71,1002.36 L321.46,1001.48 L323.20,1000.61 L324.95,999.73 L326.70,998.86 L328.44,997.99 L330.19,997.11 L331.94,996.24 L333.69,995.37 L335.43,994.49 L337.18,993.62 L338.93,992.75 L340.67,991.87 L342.42,991.00 L344.17,990.13 L345.91,989.25 L347.66,988.38 L349.41,987.51 L351.16,986.63 L352.90,985.76 L354.65,984.88 L356.40,984.01 L358.14,983.14 L359.89,982.26 L361.64,981.39 L363.38,980.52 L365.13,979.64 L366.88,978.77 L368.63,977.90 L370.37,977.02 L372.12,976.15 L373.87,975.28 L375.61,974.40 L377.36,973.53 L379.11,972.66 L380.86,971.78 L382.60,970.91 L384.35,970.03 L386.10,969.16 L387.84,968.29 L389.59,967.41 L391.34,966.54 L393.08,965.67 L394.83,964.79 L396.58,963.92 L398.33,963.05 L400.07,962.17 L401.82,961.30 L403.57,960.43 L405.31,959.55 L407.06,958.68 L408.81,957.81 L410.56,956.93 L412.30,956.06 L414.05,955.19 L415.80,954.31 L417.54,953.44 L419.29,952.56 L421.04,951.69 L422.78,950.82 L424.53,949.94 L426.28,949.07 L428.03,948.20 L429.77,947.32 L431.52,946.45 L433.27,945.58 L435.01,944.70 L436.76,943.83 L438.51,942.96 L440.25,942.08 L442.00,941.21 L443.75,940.34 L445.50,939.46 L447.24,938.59 L448.99,937.71 L450.74,936.84 L452.48,935.97 L454.23,935.09 L455.98,934.22 L457.73,933.35 L459.47,932.47 L461.22,931.60 L462.97,930.73 L464.71,929.85 L466.46,928.98 L468.21,928.11 L469.95,927.23 L471.70,926.36 L473.45,925.49 L475.20,924.61 L476.94,923.74 L478.69,922.86 L480.44,921.99 L482.18,921.12 L483.93,920.24 L485.68,919.37 L487.42,918.50 L489.17,917.62 L490.92,916.75 L492.67,915.88 L494.41,915.00 L496.16,914.13 L497.91,913.26 L499.65,912.38 L501.40,911.51 L503.15,910.64 L504.90,909.76 L506.64,908.89 L508.39,908.01 L510.14,907.14 L511.88,906.27 L513.63,905.39 L515.38,904.52 L517.12,903.65 L518.87,902.77 L520.62,901.90 L522.37,901.03 L524.11,900.15 L525.86,899.28 L527.61,898.41 L529.35,897.53 L531.10,896.66 L532.85,895.79 L534.60,894.91 L536.34,894.04 L538.09,893.17 L539.84,892.29 L541.58,891.42 L543.33,890.54 L545.08,889.67 L546.82,888.80 L548.57,887.92 L550.32,887.05 L552.07,886.18 L553.81,885.30 L555.56,884.43 L557.31,883.56 L559.05,882.68 L560.80,881.81 L562.55,880.94 L564.29,880.06 L566.04,879.19 L567.79,878.32 L569.54,877.44 L571.28,876.57 L573.03,875.69 L574.78,874.82 L576.52,873.95 L578.27,873.07 L580.02,872.20 L581.77,871.33 L583.51,870.45 L585.26,869.58 L587.01,868.71 L588.75,867.83 L590.50,866.96 L592.25,866.09 L593.99,865.21 L595.74,864.34 L597.49,863.47 L599.24,862.59 L600.98,861.72 L602.73,860.84 L604.48,859.97 L606.22,859.10 L607.97,858.22 L609.72,857.35 L611.46,856.48 L613.21,855.60 L614.96,854.73 L616.71,853.86 L618.45,852.98 L620.20,852.11 L621.95,851.24 L623.69,850.36 L625.44,849.49 L627.19,848.62 L628.94,847.74 L630.68,846.87 L632.43,845.99 L634.18,845.12 L635.92,844.25 L637.67,843.37 L639.42,842.50 L641.16,841.63 L642.91,840.75 L644.66,839.88 L646.41,839.01 L648.15,838.13 L649.90,837.26 L651.65,836.39 L653.39,835.51 L655.14,834.64 L656.89,833.77 L658.64,832.89 L660.38,832.02 L662.13,831.14 L663.88,830.27 L665.62,829.40 L667.37,828.52 L669.12,827.65 L670.86,826.78 L672.61,825.90 L674.36,825.03 L676.11,824.16 L677.85,823.28 L679.60,822.41 L681.35,821.54 L683.09,820.66 L684.84,819.79 L686.59,818.92 L688.33,818.04 L690.08,817.17 L691.83,816.30 L693.58,815.42 L695.32,814.55 L697.07,813.67 L698.82,812.80 L700.56,811.93 L702.31,811.05 L704.06,810.18 L705.81,809.31 L707.55,808.43 L709.30,807.56 L711.05,806.69 L712.79,805.81 L714.54,804.94 L716.29,804.07 L718.03,803.19 L719.78,802.32 L721.53,801.45 L723.28,800.57 L725.02,799.70 L726.77,798.82 L728.52,797.95 L730.26,797.08 L732.01,796.20 L733.76,795.33 L735.51,794.46 L737.25,793.58 L739.00,792.71 L740.75,791.84 L742.49,790.96 L744.24,790.09 L745.99,789.22 L747.73,788.34 L749.48,787.47 L751.23,786.60 L752.98,785.72 L754.72,784.85 L756.47,783.97 L758.22,783.10 L759.96,782.23 L761.71,781.35 L763.46,780.48 L765.20,779.61 L766.95,778.73 L768.70,777.86 L770.45,776.99 L772.19,776.11 L773.94,775.24 L775.69,774.37 L777.43,773.49 L779.18,772.62 L780.93,771.75 L782.68,770.87 L784.42,770.00 L786.17,769.12 L787.92,768.25 L789.66,767.38 L791.41,766.50 L793.16,765.63 L794.90,764.76 L796.65,763.88 L798.40,763.01 L800.15,762.14 L801.89,761.26 L803.64,760.39 L805.39,759.52 L807.13,758.64 L808.88,757.77 L810.63,756.90 L812.37,756.02 L814.12,755.15 L815.87,754.28 L817.62,753.40 L819.36,752.53 L821.11,751.65 L822.86,750.78 L824.60,749.91 L826.35,749.03 L828.10,748.16 L829.85,747.29 L831.59,746.41 L833.34,745.54 L835.09,744.67 L836.83,743.79 L838.58,742.92 L840.33,742.05 L842.07,741.17 L843.82,740.30 L845.57,739.43 L847.32,738.55 L849.06,737.68 L850.81,736.80 L852.56,735.93 L854.30,735.06 L856.05,734.18 L857.80,733.31 L859.55,732.44 L861.29,731.56 L863.04,730.69 L864.79,729.82 L866.53,728.94 L868.28,728.07 L870.03,727.20 L871.77,726.32 L873.52,725.45 L875.27,724.58 L877.02,723.70 L878.76,722.83 L880.51,721.95 L882.26,721.08 L884.00,720.21 L885.75,719.33 L887.50,718.46 L889.24,717.59 L890.99,716.71 L892.74,715.84 L894.49,714.97 L896.23,714.09 L897.98,713.22 L899.73,712.35 L901.47,711.47 L903.22,710.60 L904.97,709.73 L906.72,708.85 L908.46,707.98 L910.21,707.10 L911.96,706.23 L913.70,705.36 L915.45,704.48 L917.20,703.61 L918.94,702.74 L920.69,701.86 L922.44,700.99 L924.19,700.12 L925.93,699.24 L927.68,698.37 L929.43,697.50 L931.17,696.62 L932.92,695.75 L934.67,694.88 L936.41,694.00 L938.16,693.13 L939.91,692.26 L941.66,691.38 L943.40,690.51 L945.15,689.63 L946.90,688.76 L948.64,687.89 L950.39,687.01 L952.14,686.14 L953.89,685.27 L955.63,684.39 L957.38,683.52 L959.13,682.65 L960.87,681.77 L962.62,680.90 L964.37,680.03 L966.11,679.15 L967.86,678.28 L969.61,677.41 L971.36,676.53 L973.10,675.66 L974.85,674.78 L976.60,673.91 L978.34,673.04 L980.09,672.16 L981.84,671.29 L983.59,670.42 L985.33,669.54 L987.08,668.67 L988.83,667.80 L990.57,666.92 L992.32,666.05 L994.07,665.18 L995.81,664.30 L997.56,663.43 L999.31,662.56 L1001.06,661.68 L1002.80,660.81 L1004.55,659.93 L1006.30,659.06 L1008.04,658.19 L1009.79,657.31 L1011.54,656.44 L1013.28,655.57 L1015.03,654.69 L1016.78,653.82 L1018.53,652.95 L1020.27,652.07 L1022.02,651.20 L1023.77,650.33 L1025.51,649.45 L1027.26,648.58 L1029.01,647.71 L1030.76,646.83 L1032.50,645.96 L1034.25,645.08 L1036.00,644.21 L1037.74,643.34 L1039.49,642.46 L1041.24,641.59 L1042.98,640.72 L1044.73,639.84 L1046.48,638.97 L1048.23,638.10 L1049.97,637.22 L1051.72,636.35 L1053.47,635.48 L1055.21,634.60 L1056.96,633.73 L1058.71,632.86 L1060.45,631.98 L1062.20,631.11 L1063.95,630.24 L1065.70,629.36 L1067.44,628.49 L1069.19,627.61 L1070.94,626.74 L1072.68,625.87 L1074.43,624.99 L1076.18,624.12 L1077.93,623.25 L1079.67,622.37 L1081.42,621.50 L1083.17,620.63 L1084.91,619.75 L1086.66,618.88 L1088.41,618.01 L1090.15,617.13 L1091.90,616.26 L1093.65,615.39 L1095.40,614.51 L1097.14,613.64 L1098.89,612.76 L1100.64,611.89 L1102.38,611.02 L1104.13,610.14 L1105.88,609.27 L1107.63,608.40 L1109.37,607.52 L1111.12,606.65 L1112.87,605.78 L1114.61,604.90 L1116.36,604.03 L1118.11,603.16 L1119.85,602.28 L1121.60,601.41 L1123.35,600.54 L1125.10,599.66 L1126.84,598.79 L1128.59,597.91 L1130.34,597.04 L1132.08,596.17 L1133.83,595.29 L1135.58,594.42 L1137.32,593.55 L1139.07,592.67 L1140.82,591.80 L1142.57,590.93 L1144.31,590.05 L1146.06,589.18 L1147.81,588.31 L1149.55,587.43 L1151.30,586.56 L1153.05,585.69 L1154.80,584.81 L1156.54,583.94 L1158.29,583.06 L1160.04,582.19 L1161.78,581.32 L1163.53,580.44 L1165.28,579.57 L1167.02,578.70 L1168.77,577.82 L1170.52,576.95 L1172.27,576.08 L1174.01,575.20 L1175.76,574.33 L1177.51,573.46 L1179.25,572.58 L1181.00,571.71 L1182.75,570.84 L1184.49,569.96 L1186.24,569.09 L1187.99,568.22 L1189.74,567.34 L1191.48,566.47 L1193.23,565.59 L1194.98,564.72 L1196.72,563.85 L1198.47,562.97 L1200.22,562.10 L1201.97,561.23 L1203.71,560.35 L1205.46,559.48 L1207.21,558.61 L1208.95,557.73 L1210.70,556.86 L1212.45,555.99 L1214.19,555.11 L1215.94,554.24 L1217.69,553.37 L1219.44,552.49 L1221.18,551.62 L1222.93,550.74 L1224.68,549.87 L1226.42,549.00 L1228.17,548.12 L1229.92,547.25 L1231.67,546.38 L1233.41,545.50 L1235.16,544.63 L1236.91,543.76 L1238.65,542.88 L1240.40,542.01 L1242.15,541.14 L1243.89,540.26 L1245.64,539.39 L1247.39,538.52 L1249.14,537.64 L1250.88,536.77 L1252.63,535.89 L1254.38,535.02 L1256.12,534.15 L1257.87,533.27 L1259.62,532.40 L1261.36,531.53 L1263.11,530.65 L1264.86,529.78 L1266.61,528.91 L1268.35,528.03 L1270.10,527.16 L1271.85,526.29 L1273.59,525.41 L1275.34,524.54 L1277.09,523.67 L1278.84,522.79 L1280.58,521.92 L1282.33,521.04 L1284.08,520.17 L1285.82,519.30 L1287.57,518.42 L1289.32,517.55 L1291.06,516.68 L1292.81,515.80 L1294.56,514.93 L1296.31,514.06 L1298.05,513.18 L1299.80,512.31 L1301.55,511.44 L1303.29,510.56 L1305.04,509.69 L1306.79,508.82 L1308.54,507.94 L1310.28,507.07 L1312.03,506.20 L1313.78,505.32 L1315.52,504.45 L1317.27,503.57 L1319.02,502.70 L1320.76,501.83 L1322.51,500.95 L1324.26,500.08 L1326.01,499.21 L1327.75,498.33 L1329.50,497.46 L1331.25,496.59 L1332.99,495.71 L1334.74,494.84 L1336.49,493.97 L1338.23,493.09 L1339.98,492.22 L1341.73,491.35 L1343.48,490.47 L1345.22,489.60 L1346.97,488.72 L1348.72,487.85 L1350.46,486.98 L1352.21,486.10 L1353.96,485.23 L1355.71,484.36 L1357.45,483.48 L1359.20,482.61 L1360.95,481.74 L1362.69,480.86 L1364.44,479.99 L1366.19,479.12 L1367.93,478.24 L1369.68,477.37 L1371.43,476.50 L1373.18,475.62 L1374.92,474.75 L1376.67,473.87 L1378.42,473.00 L1380.16,472.13 L1381.91,471.25 L1383.66,470.38 L1385.40,469.51 L1387.15,468.63 L1388.90,467.76 L1390.65,466.89 L1392.39,466.01 L1394.14,465.14 L1395.89,464.27 L1397.63,463.39 L1399.38,462.52 L1401.13,461.65 L1402.88,460.77 L1404.62,459.90 L1406.37,459.02 L1408.12,458.15 L1409.86,457.28 L1411.61,456.40 L1413.36,455.53 L1415.10,454.66 L1416.85,453.78 L1418.60,452.91 L1420.35,452.04 L1422.09,451.16 L1423.84,450.29 L1425.59,449.42 L1427.33,448.54 L1429.08,447.67 L1430.83,446.80 L1432.58,445.92 L1434.32,445.05 L1436.07,444.18 L1437.82,443.30 L1439.56,442.43 L1441.31,441.55 L1443.06,440.68 L1444.80,439.81 L1446.55,438.93 L1448.30,438.06 L1450.05,437.19 L1451.79,436.31 L1453.54,435.44 L1455.29,434.57 L1457.03,433.69 L1458.78,432.82 L1460.53,431.95 L1462.27,431.07 L1464.02,430.20 L1465.77,429.33 L1467.52,428.45 L1469.26,427.58 L1471.01,426.70 L1472.76,425.83 L1474.50,424.96 L1476.25,424.08 L1478.00,423.21 L1479.75,422.34 L1481.49,421.46 L1483.24,420.59 L1484.99,419.72 L1486.73,418.84 L1488.48,417.97 L1490.23,417.10 L1491.97,416.22 L1493.72,415.35 L1495.47,414.48 L1497.22,413.60 L1498.96,412.73 L1500.71,411.85 L1502.46,410.98 L1504.20,410.11 L1505.95,409.23 L1507.70,408.36 L1509.44,407.49 L1511.19,406.61 L1512.94,405.74 L1514.69,404.87 L1516.43,403.99 L1518.18,403.12 L1519.93,402.25 L1521.67,401.37 L1523.42,400.50 L1525.17,399.63 L1526.92,398.75 L1528.66,397.88 L1530.41,397.00 L1532.16,396.13 L1533.90,395.26 L1535.65,394.38 L1537.40,393.51 L1539.14,392.64 L1540.89,391.76 L1542.64,390.89 L1544.39,390.02 L1546.13,389.14 L1547.88,388.27 L1549.63,387.40 L1551.37,386.52 L1553.12,385.65 L1554.87,384.78 L1556.62,383.90 L1558.36,383.03 L1560.11,382.15 L1561.86,381.28 L1563.60,380.41 L1565.35,379.53 L1567.10,378.66 L1568.84,377.79 L1570.59,376.91 L1572.34,376.04 L1574.09,375.17 L1575.83,374.29 L1577.58,373.42 L1579.33,372.55 L1581.07,371.67 L1582.82,370.80 L1584.57,369.93 L1586.31,369.05 L1588.06,368.18 L1589.81,367.31 L1591.56,366.43 L1593.30,365.56 L1595.05,364.68 L1596.80,363.81 L1598.54,362.94 L1600.29,362.06 L1602.04,361.19 L1603.79,360.32 L1605.53,359.44 L1607.28,358.57 L1609.03,357.70 L1610.77,356.82 L1612.52,355.95 L1614.27,355.08 L1616.01,354.20 L1617.76,353.33 L1619.51,352.46 L1621.26,351.58 L1623.00,350.71 L1624.75,349.83 L1626.50,348.96 L1628.24,348.09 L1629.99,347.21 L1631.74,346.34 L1633.48,345.47 L1635.23,344.59 L1636.98,343.72 L1638.73,342.85 L1640.47,341.97 L1642.22,341.10 L1643.97,340.23 L1645.71,339.35 L1647.46,338.48 L1649.21,337.61 L1650.96,336.73 L1652.70,335.86 L1654.45,334.98 L1656.20,334.11 L1657.94,333.24 L1659.69,332.36 L1661.44,331.49 L1663.18,330.62 L1664.93,329.74 L1666.68,328.87 L1668.43,328.00 L1670.17,327.12 L1671.92,326.25 L1673.67,325.38 L1675.41,324.50 L1677.16,323.63 L1678.91,322.76 L1680.66,321.88 L1682.40,321.01 L1684.15,320.13 L1685.90,319.26 L1687.64,318.39 L1689.39,317.51 L1691.14,316.64 L1692.88,315.77 L1694.63,314.89 L1696.38,314.02 L1698.13,313.15 L1699.87,312.27 L1701.62,311.40 L1703.37,310.53 L1705.11,309.65 L1706.86,308.78 L1708.61,307.91 L1710.35,307.03 L1712.10,306.16 L1713.85,305.29 L1715.60,304.41 L1717.34,303.54 L1719.09,302.66 L1720.84,301.79 L1722.58,300.92 L1724.33,300.04 L1726.08,299.17 L1727.83,298.30 L1729.57,297.42 L1731.32,296.55 L1733.07,295.68 L1734.81,294.80 L1736.56,293.93 L1738.31,293.06 L1740.05,292.18 L1741.80,291.31 L1743.55,290.44 L1745.30,289.56 L1747.04,288.69 L1748.79,287.81 L1750.54,286.94 L1752.28,286.07 L1754.03,285.19 L1755.78,284.32 L1757.53,283.45 L1759.27,282.57 L1761.02,281.70 L1762.77,280.83 L1764.51,279.95 L1766.26,279.08 L1768.01,278.21 L1769.75,277.33 L1771.50,276.46 L1773.25,275.59 L1775.00,274.71 L1776.74,273.84 L1778.49,272.96 L1780.24,272.09 L1781.98,271.22 L1783.73,270.34 L1785.48,269.47 L1787.22,268.60 L1788.97,267.72 L1790.72,266.85 L1792.47,265.98 L1794.21,265.10 L1795.96,264.23 L1797.71,263.36 L1799.45,262.48 L1801.20,261.61 L1802.95,260.74 L1804.70,259.86 L1806.44,258.99 L1808.19,258.11 L1809.94,257.24 L1811.68,256.37 L1813.43,255.49 L1815.18,254.62 L1816.92,253.75 L1818.67,252.87 L1820.42,252.00 L1822.17,251.13 L1823.91,250.25 L1825.66,249.38 L1827.41,248.51 L1829.15,247.63 L1830.90,246.76 L1832.65,245.89 L1834.39,245.01 L1836.14,244.14 L1837.89,243.27 L1839.64,242.39 L1841.38,241.52 L1843.13,240.64 L1844.88,239.77 L1846.62,238.90 L1848.37,238.02 L1850.12,237.15 L1851.87,236.28 L1853.61,235.40 L1855.36,234.53 L1857.11,233.66 L1858.85,232.78 L1860.60,231.91 L1862.35,231.04 L1864.09,230.16 L1865.84,229.29 L1867.59,228.42 L1869.34,227.54 L1871.08,226.67 L1872.83,225.79 L1874.58,224.92 L1876.32,224.05 L1878.07,223.17 L1879.82,222.30 L1881.57,221.43 L1883.31,220.55 L1885.06,219.68 L1886.81,218.81 L1888.55,217.93 L1890.30,217.06 L1892.05,216.19 L1893.79,215.31 L1895.54,214.44 L1897.29,213.57 L1899.04,212.69 L1900.78,211.82 L1902.53,210.94 L1904.28,210.07 L1906.02,209.20 L1907.77,208.32 L1909.52,207.45 L1911.26,206.58 L1913.01,205.70 L1914.76,204.83 L1916.51,203.96 L1918.25,203.08 L1920.00,202.21" style="stroke-width: 28; stroke: rgb(60, 180, 75);"/>

        <circle onclick="onClickEvent(evt)" id="7-6-point-1" cx="847.3887577238996" cy="738.5152147947572" r="30" style="stroke-width: 8; stroke: rgb(245, 130, 49); stroke-opacity: 0.8;" fill="white"/>
        <circle onclick="onClickEvent(evt)" id="7-6-point-2" cx="1047.3521549730642" cy="638.5335161701748" r="30" style="stroke-width: 8; stroke: rgb(245, 130, 49); stroke-opacity: 0.8;" fill="white"/>
        <circle onclick="onClickEvent(evt)" id="7-6-point-3" cx="847.3887577238996" cy="238.60672167184578" r="30" style="stroke-width: 8; stroke: rgb(245, 130, 49); stroke-opacity: 0.8;" fill="white"/>
        <circle onclick="onClickEvent(evt)" id="7-6-point-4" cx="1247.315552222229" cy="538.5518175455926" r="30" style="stroke-width: 8; stroke: rgb(245, 130, 49); stroke-opacity: 0.8;" fill="white"/>

        <g class="test-xti" style="font-family: Asana-Math, Asana;">
            <line x1="0" y1="605.5518175455926" x2="1902.5" y2="605.5518175455926" fill="none" stroke="rgb(50,50,50)" stroke-opacity="1" stroke-width="8"/>
            <line x1="83.53516872724124" y1="597.5518175455926" x2="83.53516872724124" y2="613.5518175455926" fill="none" stroke="rgb(50,50,50)" stroke-opacity="1" stroke-width="8"/>
            <line x1="183.51686735182352" y1="597.5518175455926" x2="183.51686735182352" y2="613.5518175455926" fill="none" stroke="rgb(50,50,50)" stroke-opacity="1" stroke-width="8"/>
            <line x1="283.4985659764058" y1="597.5518175455926" x2="283.4985659764058" y2="613.5518175455926" fill="none" stroke="rgb(50,50,50)" stroke-opacity="1" stroke-width="8"/>
            <line x1="383.4802646009881" y1="597.5518175455926" x2="383.4802646009881" y2="613.5518175455926" fill="none" stroke="rgb(50,50,50)" stroke-opacity="1" stroke-width="8"/>
            <line x1="483.46196322557034" y1="597.5518175455926" x2="483.46196322557034" y2="613.5518175455926" fill="none" stroke="rgb(50,50,50)" stroke-opacity="1" stroke-width="8"/>
            <line x1="583.4436618501527" y1="597.5518175455926" x2="583.4436618501527" y2="613.5518175455926" fill="none" stroke="rgb(50,50,50)" stroke-opacity="1" stroke-width="8"/>
            <line x1="683.4253604747349" y1="597.5518175455926" x2="683.4253604747349" y2="613.5518175455926" fill="none" stroke="rgb(50,50,50)" stroke-opacity="1" stroke-width="8"/>
            <line x1="783.4070590993173" y1="597.5518175455926" x2="783.4070590993173" y2="613.5518175455926" fill="none" stroke="rgb(50,50,50)" stroke-opacity="1" stroke-width="8"/>
            <line x1="983.3704563484819" y1="597.5518175455926" x2="983.3704563484819" y2="613.5518175455926" fill="none" stroke="rgb(50,50,50)" stroke-opacity="1" stroke-width="8"/>
            <line x1="1083.3521549730642" y1="597.5518175455926" x2="1083.3521549730642" y2="613.5518175455926" fill="none" stroke="rgb(50,50,50)" stroke-opacity="1" stroke-width="8"/>
            <line x1="1183.3338535976463" y1="597.5518175455926" x2="1183.3338535976463" y2="613.5518175455926" fill="none" stroke="rgb(50,50,50)" stroke-opacity="1" stroke-width="8"/>
            <line x1="1283.3155522222287" y1="597.5518175455926" x2="1283.3155522222287" y2="613.5518175455926" fill="none" stroke="rgb(50,50,50)" stroke-opacity="1" stroke-width="8"/>
            <line x1="1383.297250846811" y1="597.5518175455926" x2="1383.297250846811" y2="613.5518175455926" fill="none" stroke="rgb(50,50,50)" stroke-opacity="1" stroke-width="8"/>
            <line x1="1483.2789494713932" y1="597.5518175455926" x2="1483.2789494713932" y2="613.5518175455926" fill="none" stroke="rgb(50,50,50)" stroke-opacity="1" stroke-width="8"/>
            <line x1="1583.2606480959755" y1="597.5518175455926" x2="1583.2606480959755" y2="613.5518175455926" fill="none" stroke="rgb(50,50,50)" stroke-opacity="1" stroke-width="8"/>
            <line x1="1683.2423467205579" y1="597.5518175455926" x2="1683.2423467205579" y2="613.5518175455926" fill="none" stroke="rgb(50,50,50)" stroke-opacity="1" stroke-width="8"/>
            <line x1="1783.2240453451402" y1="597.5518175455926" x2="1783.2240453451402" y2="613.5518175455926" fill="none" stroke="rgb(50,50,50)" stroke-opacity="1" stroke-width="8"/>
            <line x1="1883.2057439697226" y1="597.5518175455926" x2="1883.2057439697226" y2="613.5518175455926" fill="none" stroke="rgb(50,50,50)" stroke-opacity="1" stroke-width="8"/>
            <path d="M1900,597.0018175455926 L1919,605.5518175455926 L1900,614.1018175455926 Z" stroke="none" stroke-width="8" fill="rgb(50,50,50)" fill-opacity="1"/>
        </g>
        <g class="test-yti" style="font-family: Asana-Math, Asana;">
            <line x1="883.3887577238996" y1="17.5" x2="883.3887577238996" y2="960" fill="none" stroke="rgb(50,50,50)" stroke-opacity="1" stroke-width="8"/>
            <line x1="875.3887577238996" y1="905.4969134193395" x2="891.3887577238996" y2="905.4969134193395" fill="none" stroke="rgb(50,50,50)" stroke-opacity="1" stroke-width="8"/>
            <line x1="875.3887577238996" y1="805.5152147947572" x2="891.3887577238996" y2="805.5152147947572" fill="none" stroke="rgb(50,50,50)" stroke-opacity="1" stroke-width="8"/>
            <line x1="875.3887577238996" y1="705.533516170175" x2="891.3887577238996" y2="705.533516170175" fill="none" stroke="rgb(50,50,50)" stroke-opacity="1" stroke-width="8"/>
            <line x1="875.3887577238996" y1="505.57011892101036" x2="891.3887577238996" y2="505.57011892101036" fill="none" stroke="rgb(50,50,50)" stroke-opacity="1" stroke-width="8"/>
            <line x1="875.3887577238996" y1="405.5884202964281" x2="891.3887577238996" y2="405.5884202964281" fill="none" stroke="rgb(50,50,50)" stroke-opacity="1" stroke-width="8"/>
            <line x1="875.3887577238996" y1="305.6067216718458" x2="891.3887577238996" y2="305.6067216718458" fill="none" stroke="rgb(50,50,50)" stroke-opacity="1" stroke-width="8"/>
            <line x1="875.3887577238996" y1="205.62502304726343" x2="891.3887577238996" y2="205.62502304726343" fill="none" stroke="rgb(50,50,50)" stroke-opacity="1" stroke-width="8"/>
            <line x1="875.3887577238996" y1="105.64332442268119" x2="891.3887577238996" y2="105.64332442268119" fill="none" stroke="rgb(50,50,50)" stroke-opacity="1" stroke-width="8"/>
            <line x1="875.3887577238996" y1="5.661625798098953" x2="891.3887577238996" y2="5.661625798098953" fill="none" stroke="rgb(50,50,50)" stroke-opacity="1" stroke-width="8"/>
            <path d="M874.8387577238997,20 L883.3887577238996,1 L891.9387577238996,20 Z" stroke="none" stroke-width="8" fill="rgb(50,50,50)" fill-opacity="1"/>
        </g>
    </g>
</svg>